<svg xmlns="http://www.w3.org/2000/svg" xml:space="preserve" style="fill-rule:evenodd;clip-rule:evenodd;stroke-linejoin:round;stroke-miterlimit:2" viewBox="0 0 512 512"><style>.text{fill:#000}@media (prefers-color-scheme:dark){.text{fill:#fff}}</style><g class="text"><path d="M.563.02C.514.02.443-.023.352-.11L.206-.257v.007L.205.005c0 .033-.014.049-.042.049A.05.05 0 0 1 .118.029a.076.076 0 0 1-.014-.043c0-.076.003-.19.007-.342.005-.152.007-.265.007-.341 0-.014.005-.026.014-.036a.045.045 0 0 1 .035-.015c.014 0 .025.005.034.015.01.01.014.022.014.036 0 .031-.002.08-.006.147a3.653 3.653 0 0 0-.005.148 2.14 2.14 0 0 0 .148-.156l.14-.162a.048.048 0 0 1 .037-.019.05.05 0 0 1 .05.05c0 .022-.042.079-.126.172a4.503 4.503 0 0 1-.18.186c.04.041.101.1.184.177l.051.043a.218.218 0 0 0 .06.032c.026.009.039.025.039.049a.052.052 0 0 1-.01.031C.588.014.577.02.563.02Z" style="fill-rule:nonzero" transform="translate(-33.677 427.345) scale(480.372)"/><path d="M.202-.287a.625.625 0 0 1-.06-.006 5.106 5.106 0 0 0-.004.258.044.044 0 0 1-.013.033.041.041 0 0 1-.031.014.042.042 0 0 1-.032-.014.044.044 0 0 1-.013-.033v-.143c0-.048.003-.115.009-.202.006-.094.01-.162.01-.203V-.65c0-.032.002-.056.006-.07.008-.029.024-.041.048-.037a.183.183 0 0 1 .045-.008 1.29 1.29 0 0 1 .07-.002c.06 0 .116.02.168.061a.201.201 0 0 1 .086.162.233.233 0 0 1-.092.193.31.31 0 0 1-.197.064Zm.024-.387-.038.001a.123.123 0 0 0-.029.003l-.001.089-.01.195.054.006c.054 0 .1-.014.138-.041a.146.146 0 0 0 .061-.123c0-.036-.019-.068-.058-.094a.207.207 0 0 0-.117-.036Z" style="fill-rule:nonzero" transform="translate(259.755 427.345) scale(480.372)"/></g></svg>
