<svg xmlns="http://www.w3.org/2000/svg" width="1024pt" height="1024pt" viewBox="0 0 1024 1024"><path fill="#5892a8" d="M0 0h1024v1024H742c-.02-14.68-.75-29.32-.22-44 .27-8.68.1-17.32 1-25.96.2-7.38.54-14.65 1.17-22.01 1.69-22.97 3.72-45.47 7.99-68.13.43-2.57 1.64-4.68 3.25-6.68 19.36-24.51 34.82-50.78 50.1-77.92 6.55-11.59 13.72-22.5 19.38-34.63 7.37-15.58 14.57-31.37 20.41-47.59 8.97-25.28 14.93-51.2 15.91-78.08.96-30.47-5.85-62.25-21.27-88.72-10.54-18.3-26.85-32.3-44.47-43.52-9.27-6.09-18.92-11.07-28.65-16.34-12.02-6.49-24.69-12.18-37.05-17.97-21.66-10.53-43.92-19.43-65.15-30.86-5.34-2.98-11.01-5.54-16.07-8.96-2.06-1.05-1.74-4.62-2.03-6.6-.44-13.4 1.41-27 3.47-40.22.69-5.06 3.55-8.76 5.72-13.52 11.66 4.37 24.85 3.77 36-1.79 8.87-4.62 16.19-13.02 21.97-21.04 8.42-11.63 12.28-25.29 13.49-39.46.48-8.77.02-17.23-3.55-25.38-1.98-4.68-4.94-8.54-7.93-12.59 2.97-6.72 5.66-13.51 8.19-20.4 6.95-16.86 9.93-35.44 9.47-53.63.12-24.09-6.29-48.24-17.72-69.4-8.66-15.92-22.18-28.29-37.86-37.14-4.41-2.55-10.05-4.69-13.21-8.8-3.55-4.58-5.67-10.15-9.18-14.82-6.4-8.6-16.22-14.71-26.51-17.49-10.43-2.89-21.43-3.59-31.96-6.11-6.13-1.58-11.25-4.88-16.12-8.82-4.61-3.75-9.89-6.21-15.76-7.21-8.3-1.37-17.42-.66-25.81-.25-13.4.52-26.33 6.44-37.5 13.54-5.25 3.2-10.38 7.48-16.67 8.19-7.11.77-13.41-.83-20.41 1.71-13.82 4.94-26.22 15.29-36.83 25.21-4.03 3.56-9.03 7.2-14.6 7.44-4.63.37-9.3-1.14-12.66-4.39-3.03-3-4.3-7.53-3.83-11.7.42-3.08 1.98-5.68 3.36-8.4-5.79-3.46-11.58-.7-16.58 2.72-6.62 5.03-12.13 11.64-16.07 18.94-5.12 9.87-7.09 21.32-4.65 32.25 1.35 5.6 4.34 9.93 7.41 14.68-2.26 4.1-4.34 8.09-5.09 12.78-1.71 10.04.49 19.21 3.52 28.71 1.18 3.09-.49 5.36-1.61 8.15-5.95 12.05-9.87 25.4-13.69 38.27-6.1 21.91-10.45 44.18-11.95 66.9-.52 12.36-.58 24.72.08 37.08 2.86 38.92 18.15 77.4 43.77 106.96 9.16 10.81 20.44 19.97 32.11 27.94a1359.56 1359.56 0 0 0-49.62 14.49c-29.27 8.41-60 18.02-86.2 33.85-14.97 8.9-28.06 20.43-39.56 33.45-24.21 29.01-45.24 61.87-64.87 94.13-4.62 8.03-9.63 15.91-13.7 24.23-2.6 6.21-6.32 11.55-9.78 17.29-6.19 10.28-12.22 20.73-17.46 31.54-9.48 20.01-16.89 41.29-20.91 63.1-2.45 12.87-2.78 25.97-1.99 39.02 1.37 18.2 7.2 35.68 19.61 49.35 13.34 14.95 30.63 23.29 49.27 29.73 28.5 9.35 59.15 13.25 89.05 14.17-1.49 28.26-.94 56.43-.95 84.71-.11 12.66.83 25.33 1 38 .04 7.34.63 14.66.9 22H0V0Z"/><path fill="#151910" d="M564.81 8.21c5.87 1 11.15 3.46 15.76 7.21 4.87 3.94 9.99 7.24 16.12 8.82 10.53 2.52 21.53 3.22 31.96 6.11 10.29 2.78 20.11 8.89 26.51 17.49 3.51 4.67 5.63 10.24 9.18 14.82 3.16 4.11 8.8 6.25 13.21 8.8 15.68 8.85 29.2 21.22 37.86 37.14 11.43 21.16 17.84 45.31 17.72 69.4.46 18.19-2.52 36.77-9.47 53.63-2.53 6.89-5.22 13.68-8.19 20.4 2.99 4.05 5.95 7.91 7.93 12.59 3.57 8.15 4.03 16.61 3.55 25.38-1.21 14.17-5.07 27.83-13.49 39.46-5.78 8.02-13.1 16.42-21.97 21.04-11.15 5.56-24.34 6.16-36 1.79-2.17 4.76-5.03 8.46-5.72 13.52-2.06 13.22-3.91 26.82-3.47 40.22.29 1.98-.03 5.55 2.03 6.6 5.06 3.42 10.73 5.98 16.07 8.96 21.23 11.43 43.49 20.33 65.15 30.86 12.36 5.79 25.03 11.48 37.05 17.97 9.73 5.27 19.38 10.25 28.65 16.34 17.62 11.22 33.93 25.22 44.47 43.52 15.42 26.47 22.23 58.25 21.27 88.72-.98 26.88-6.94 52.8-15.91 78.08-5.84 16.22-13.04 32.01-20.41 47.59-5.66 12.13-12.83 23.04-19.38 34.63-15.28 27.14-30.74 53.41-50.1 77.92-1.61 2-2.82 4.11-3.25 6.68-4.27 22.66-6.3 45.16-7.99 68.13-.63 7.36-.97 14.63-1.17 22.01-.9 8.64-.73 17.28-1 25.96-.53 14.68.2 29.32.22 44H271.9c-.27-7.34-.86-14.66-.9-22-.17-12.67-1.11-25.34-1-38 .01-28.28-.54-56.45.95-84.71-29.9-.92-60.55-4.82-89.05-14.17-18.64-6.44-35.93-14.78-49.27-29.73-12.41-13.67-18.24-31.15-19.61-49.35-.79-13.05-.46-26.15 1.99-39.02 4.02-21.81 11.43-43.09 20.91-63.1 5.24-10.81 11.27-21.26 17.46-31.54 3.46-5.74 7.18-11.08 9.78-17.29 4.07-8.32 9.08-16.2 13.7-24.23 19.63-32.26 40.66-65.12 64.87-94.13 11.5-13.02 24.59-24.55 39.56-33.45 26.2-15.83 56.93-25.44 86.2-33.85 16.45-5.15 32.99-9.97 49.62-14.49-11.67-7.97-22.95-17.13-32.11-27.94-25.62-29.56-40.91-68.04-43.77-106.96-.66-12.36-.6-24.72-.08-37.08 1.5-22.72 5.85-44.99 11.95-66.9 3.82-12.87 7.74-26.22 13.69-38.27 1.12-2.79 2.79-5.06 1.61-8.15-3.03-9.5-5.23-18.67-3.52-28.71.75-4.69 2.83-8.68 5.09-12.78-3.07-4.75-6.06-9.08-7.41-14.68-2.44-10.93-.47-22.38 4.65-32.25 3.94-7.3 9.45-13.91 16.07-18.94 5-3.42 10.79-6.18 16.58-2.72-1.38 2.72-2.94 5.32-3.36 8.4-.47 4.17.8 8.7 3.83 11.7 3.36 3.25 8.03 4.76 12.66 4.39 5.57-.24 10.57-3.88 14.6-7.44 10.61-9.92 23.01-20.27 36.83-25.21 7-2.54 13.3-.94 20.41-1.71 6.29-.71 11.42-4.99 16.67-8.19 11.17-7.1 24.1-13.02 37.5-13.54 8.39-.41 17.51-1.12 25.81.25Z"/><path fill="#c78c31" d="M558.06 17.94c6.38.09 11.02 3.43 15.9 7.1 6 4.6 12.76 8.1 20.15 9.84 9.2 2.43 18.67 2.59 27.83 5.16 10.22 2.48 19.65 8.72 25.56 17.46 3.71 5.35 5.65 11.97 10.85 16.16 5.82 4.64 13.11 7.29 19.22 11.76 11.35 8.22 22.48 18.58 28.62 31.38 11.34 22.23 16.62 47.3 15.04 72.22-.76 19.86-7.19 39.42-13.99 57.93-6.14-3.06-12.33-3.46-19.07-2.95-1.57-7.62-4.5-14.84-8.87-21.28-3.74-5.48-7.53-11.09-12.07-15.94-3.86-4.15-8.47-7.19-13.42-9.9-.06-2.42.11-5.02-.48-7.39-.96-2.61-3.14-4.85-4.59-7.23-1.5-2.29-2.1-4.72-2.96-7.27 14.85 8.98 27.66 22.28 38.69 35.55 1.49 1.75 3.12 3.36 4.84 4.88-.6-8.25-6.12-16.34-10.87-22.86-7.6-10.49-17.45-18.21-27.92-25.62 4.93-5.53 11.34-10.31 14.23-17.2 2.27-5.08 2.43-10.32 2.29-15.79-.01-8.71-2.8-17.71-8.82-24.15-4.15-4.38-9.25-7.94-14.86-10.17-5.97-2.42-13.06-2.55-19.43-2.39-6.67.15-13.31 1.91-19.85 1.43-5.24-.33-10.37-1.36-15.15-3.59-6.9-3.2-12.35-8.06-18.03-12.98-1.64-1.33-3.72-3.17-5.92-3.25-2.27-.16-4.32 1.81-6.05 3.07-3.81 3.13-7.77 5.9-12.44 7.57-6.91 2.7-15.15 1.7-21.85-1.12-3.74-1.49-6.86-4.23-10.61-5.61-3.46 1.77-6.02 4.92-9.51 6.75-7.34 3.9-15.79 6.03-24.04 3.99-7.27-2.13-11.25-9.11-17.35-12.64-3.76-2.21-8.32-1.86-12.08.17-4.94 2.67-8.66 7.48-12.58 11.43-6.53 6.52-11.69 13.35-19.54 18.48-5.78 3.97-14.11 4.16-20.77 2.92-8.32-2.11-16.84-7.11-21.56-14.44-3.64-7.27-5.66-16.21-3.42-24.21 2.18-8.37 6.61-16.32 12.59-22.58 1.42 4.6 2.69 10.04 5.76 13.85 4.37 5.47 11.51 8.66 18.46 8.67 7.45.26 14.93-3.05 20.96-7.2 7.35-5.04 14.28-11.17 21.08-16.91 4.39-3.66 8.96-6.93 14.55-8.44 6.66-1.77 13.64-.85 20.42-1.55 4.76-.51 9.07-2.39 13.03-5.01 7.77-5.14 15.93-11.18 24.79-14.21 10.59-3.69 22.1-4.06 33.24-3.89Z"/><path fill="#f2bd87" d="M462.16 92.83c4.57 4.3 8.69 8.38 14.97 10.06 12.79 3.46 27.71.48 37.92-8.09 7.62 4 15.17 7.18 23.94 7.22 9.42.45 17.98-3.94 25.27-9.5 9.13 8.76 19.83 15.25 32.64 16.58 10.84 1.91 20.43-1.6 31.15-1.15 7.77.09 15.69 3.26 21.13 8.87 5.27 5.65 7.37 13.63 7.4 21.19-.1 3.49-.37 7.15-2.46 10.08-3.68 5.3-11.37 9.78-13.13 16.07-1.06 4.84 1.64 7.7 4.79 10.83.86 2.55 1.46 4.98 2.96 7.27 1.45 2.38 3.63 4.62 4.59 7.23.59 2.37.42 4.97.48 7.39-2.33-.27-4.65-.13-6.97.09.15 1.48-.05 3.2.54 4.59 1.88 3.17 5.04 5.34 7.95 7.48-.3 4.51-1.17 8.64-2.6 12.92-1.67-.06-3.35 0-5.02.1.04 2.57.17 4.22 2.13 6.06-.67 4.95-1.86 9.75-3.17 14.56-.55 2.18-.46 4.35-.44 6.58-1.05 5.19-3.43 12.4-.93 17.43 1.62 3.08 4.47 1.63 7.13 1.22a60.33 60.33 0 0 0-1.79 3.71c5.85-.95 10.65-3.54 15.92-6.08 6.86-3.53 14.36-7.38 21.92-9.1 5.71-1.34 11.7.29 16.35 3.74 4.58 3.52 7.44 8.67 8.78 14.23 2.65 10.09 1.33 20.78-1.52 30.68-4.24 12.67-10.79 24.22-21.55 32.45-5.71 3.9-12.66 6.11-19.54 6.47-8.24.28-15.98-4.4-24.09-6.23-1.33 4.68.16 8.53-2.51 12.62-7.16 12.32-14.45 24.42-23.6 35.4-10.18 12.43-22.54 23.21-35.88 32.11-4.21 3.04-8.43 4.86-11.53 9.16 2.56.47 4.96.62 7.48-.15 5.63-1.6 11.07-4.04 16.21-6.82 15.46-8.71 27.04-20.96 38.09-34.59-.16 15.57-1.52 29.65 4.09 44.54-4.7 7.56-9.88 14.78-15.7 21.51-13.39 15.09-28.44 28.59-45.3 39.7-19.34 13.17-40.34 23.14-63.44 27.48-14.44 2.76-29.88 1.23-43.05-5.52-15.13-7.41-27.49-20.1-34.64-35.34-4.78-10.62-7.29-22.09-5.67-33.75 4.44 2.01 8.83 4.12 13.26 6.15 16.42 7.41 34.28 11.16 52.31 9.85 9.02-.37 19.57-2.54 26.14-9.2-2.99-2.01-5.67-2.09-9.14-1.91-15.6.74-31.36.48-46.56-3.46-16.49-4.07-31.5-12.11-45.54-21.49-12.87-8.6-23.83-19.51-33.19-31.8-6.4-8.66-12.53-17.01-17.28-26.72-9.84-19.87-16.17-41.46-18.35-63.53-.48-7.69-1.16-15.31-1.02-23.02-.05-6.97.66-13.87 1.05-20.82 2.98-28.34 9.03-57.06 19.36-83.68 4.81-11.68 10.31-23.21 17.1-33.89 3.26-5.43 7.12-10.41 10.71-15.62 5.7-.04 10.83.68 16.33-1.33 10.41-3.49 18.47-12.37 26.41-19.59 4.41-3.92 8.33-8.46 12.93-12.13 2.3-1.75 4.28-.88 6.18.89Z"/><path fill="#c78c31" d="M377.26 115.51c4.07 2.23 7.83 5 11.96 7.16-4.78 5.89-8.68 12.31-12.75 18.68-2.85-8.76-4.01-17.49.79-25.84Z"/><path fill="#151910" d="M425.91 148.21c3.37.28 7.18.94 10.02 2.87 3.9 2.68 3.95 10.24-1.1 11.75-7 1.93-14.47-.13-21.88 1.01-6.15.39-11.41 2.96-17.26 4.46 4.55-12.39 17.23-20.18 30.22-20.09ZM556.86 152.09c6.25 2.1 12.27 5.46 17.27 9.77 6.23 5.45 10.29 13.15 9.89 21.57-3.65-1.07-5.23-3.94-8.21-6.23-10.51-8.7-23.48-11.37-36.85-11.22-2.36.08-3.46-.42-4.79-2.37-1.08-4.43 1.26-9.17 5.33-11.15 5.24-2.62 11.93-2.2 17.36-.37ZM410.28 194.21c1.96-.44 4.4-.7 6.28.14 3.16 1.78 4.62 5.4 5.47 8.74 1.83 6.88.89 14.05-1.12 20.78-1.71 5.57-4.54 11.19-9.31 14.74-2.19 1.54-5.31 2.86-7.97 1.81-2.96-1.07-4.66-3.64-5.65-6.51-3-8.91-1.73-18.87 1.35-27.59 1.91-4.98 5.54-10.56 10.95-12.11ZM543.44 201.42c2.45-.7 6.25-1.06 8.11 1.07 4.05 3.96 5.13 10.08 5.21 15.5-.12 7.63-1.58 15.77-5.24 22.54-1.67 3.02-4.06 6.2-7.22 7.76-2.49 1.31-5.92 1.42-8.15-.47-2.83-2.4-4.3-6.43-4.94-9.99-1.26-8.32-1.03-17.57 2.15-25.46 1.89-4.74 5.26-8.99 10.08-10.95ZM475.9 205.78c-.51 5.88-2.93 10.68-5.02 16.11-4.79 11.77-11.36 22.57-20.5 31.49-3.88 3.85-7.78 6.97-9.66 12.33-1.72 4.61-.35 9.3 2.41 13.16 3.78 5.59 10.71 8.32 16.98 9.98 5.02 1.45 9.64 1.19 13.51 5.15-1.65 2.2-3.21 3.98-6.04 4.56-8.22 1.65-16.96.36-24.18-3.97-9.41-5.74-16.66-16.25-15.76-27.63.26-7.37 4.07-13.18 8.95-18.39 8.97-9.76 18.43-18.15 25.35-29.63 3.28-4.95 7.49-12.36 13.96-13.16Z"/><path fill="#c78c31" d="M655.33 209.04c7.36 5.15 12.39 11.67 18.43 18.2 4.79 5.26 8.89 11.04 12.72 17.02-8.1 3.16-15.28 7.79-22.4 12.7-2.76-3.19-5.44-6.64-8.63-9.4-2.65-2.29-5.63-3.46-8.78-4.88 1.31-4.81 2.5-9.61 3.17-14.56 3.32 2.36 6.68 4.6 9.69 7.35 5.29 4.68 9.13 9.75 14.92 13.55-3.35-11.12-11.48-21.48-21.72-27.06 1.43-4.28 2.3-8.41 2.6-12.92Z"/><path fill="#151910" d="M647.71 222.06c1.67-.1 3.35-.16 5.02-.1 10.24 5.58 18.37 15.94 21.72 27.06-5.79-3.8-9.63-8.87-14.92-13.55-3.01-2.75-6.37-4.99-9.69-7.35-1.96-1.84-2.09-3.49-2.13-6.06Z"/><path fill="#c78c31" d="M646.23 249.26c4.39 3.69 8.07 7.88 11.95 12.07-1.86 2.24-3.76 4.44-5.75 6.58-2.66.41-5.51 1.86-7.13-1.22-2.5-5.03-.12-12.24.93-17.43Z"/><path fill="#151910" d="M697.43 278.53c2.45.52 3.53 2.28 5.03 4.06-4.33 1.71-8.3 3.63-11.89 6.63 2.32 1.58 5.68 2.89 6.3 5.94 1.18 7.29-1.17 14.4-5.42 20.29-2.67 3.54-5.18 6.81-9.76 7.83.85-7.14 6.26-12.91 7.29-20.33.19-1.72.26-3.48.35-5.21-4.3-1.26-8.28-.24-12.64-.44.35-6.79 4.82-10.83 9.46-15.15 3.15-2.77 6.95-5.08 11.28-3.62ZM398.34 307.62c-2.28 3.11-4.53 6.2-6.44 9.56 7.15 5.24 15.69 8.94 23.99 11.93 13.09 4.81 27.33 7.29 41.18 8.6 17.5 1.12 35.01.84 52.29-2.4 15.41-2.92 29.98-8.42 44.18-14.95-3.39-4.52-7.97-7.69-11.04-12.44 3.61-2.44 7.32-.61 11.05.53 7.62 2.65 13.84 8.53 17.19 15.84 1.58 3.44 1.49 6.95 1.2 10.64-.65 4.69-3.53 8.21-7.68 10.34-.32-6.82.23-12.74-5.45-17.62-2.65.24-5.28 1.47-7.76 2.39-21.77 8.42-42.46 16.16-66 17.98-10.38.69-20.69.49-31.05-.36-16.13-1.73-32.97-5.09-47.78-11.89-6.05-2.73-11.51-6.34-17-10.03-1.5 3.22-2.89 6.42-3.5 9.94-.55 2.4-.55 5.34-1.85 7.43-2.27-.08-4.39-2.65-5.63-4.37-3.63-5.21-2.62-12.26-.31-17.8 2.27-5.06 5.96-10.4 10.97-13.05 3.42-1.75 6.05-2.88 9.44-.27ZM430.71 362.76c5.3 1.45 10.31 3.67 15.71 4.81 10.47 2.22 20.64 4.21 31.39 3.23 5.58-.65 10.86-2.18 16.55-1.86-.26 2.18.16 4.14-1.8 5.63-5.13 4.12-12.21 6.18-18.61 7.2-11.04 1.16-22.21.75-32.23-4.49-5.35-3.07-10.55-7.99-11.01-14.52Z"/><path fill="#f2bd87" d="M228.86 630.14c17.9 3.06 35.68 9.34 50.94 19.28a230.668 230.668 0 0 0-2.62 32.25c-6.2 2.91-12.19 5.63-17.62 9.9-5.88 4.45-10.06 9.96-14.71 15.57-7.8-1.72-15.87-2.72-23.83-3.12-7.66.02-16.88-.63-23.38 4.13 1.43 1.5 2.45 3.05 4.56 3.62 4.8 1.28 9.89 1.6 14.82 2.1 14.3.8 28.73 4.01 41.51 10.61 22.29 11.04 43.11 27.11 62.93 42.06 2.57 1.97 5.05 3.5 6.24 6.68 1.92 5.02 3.53 9.9 6.89 14.2 5.11 6.95 12.55 11.08 20.74 13.36 4.38 1 7.06 3.79 10.61 6.29 17.59 13.15 34.9 26.63 52.93 39.19-33.63 10.8-67.87 18.1-103.19 20.12-7.56.91-15.08.52-22.68.9-16.76.3-33.64.05-50.32-1.76-25.63-2.41-51.92-8.51-74.97-20.24-9.78-4.89-19.14-11.38-26.42-19.59-8.29-9.13-12.6-21.23-14.77-33.2-3.3-18.08-.65-37.69 3.68-55.41 8.33-33.86 23.7-64.25 42.46-93.42 3.03-4.67 7.28-8.44 12.47-10.53 14.24-5.82 28.8-5.22 43.73-2.99ZM666.31 641.58c4.93-.46 9.75-.66 14.69-.59 7.98.11 15.36-.63 23.09 1.87 2.91.83 4.09 3.63 4.8 6.3.55 2.78.53 5.81-.08 8.58-1.24 3.69-5.58 5.97-9.33 4.89-9.47-1.96-18.88-1.81-28.5-1.64-11.02.78-22 3.01-32.83 5.12-9.24 1.79-18.05 4.5-25.38 10.66-1.78 1.39-2.47 3.26-3.23 5.3 7.45.46 13.43-2.27 20.46-4.07 9.88-2.7 19.9-5.43 30.07-6.76 16.91-1.22 33.81.46 50.26 4.54 3.59.98 7.8 1.49 9.99 4.9 4.61 7.04-.16 17.88-8.48 19.29-3.28.3-6.82-.94-9.93-1.89-7.55-2.77-15.88-3.87-23.88-4.22-18.97-2.05-38.85.59-57.35 4.91-7.34 1.57-14.08 5.26-19.55 10.35-1.5 1.39-1.97 3.14-2.68 4.99 3.25-.02 6.09-.46 9.17-1.48 12.12-4.01 24.68-7.89 37.37-9.51 10.96-.08 22.16-.67 33.01.92 5.9.85 12.33 1.68 17.77 4.19 4.06 2.05 3.5 6.71 2.9 10.49-1.92 8.24-9.19 14.27-17.74 14.17-12.79-.52-27.27-3.71-40.14-2.01-8.51 1.18-16.9 3.09-25.01 5.96-3.43 1.04-6.21 2.59-9.84 1.27-21.95-6.69-44.4-10.73-67.04-14.24 21.71-26.97 47.37-50.3 77.59-67.38 7.54-4.27 15.43-8.56 23.69-11.33 8.55-2.84 17.27-3 26.13-3.58Z"/><path fill="#f2bd87" d="M718.98 661.89c10.68 3.1 21.06 7.35 31.17 11.98 16.09 7.68 31.47 17.14 43 30.99 7.02 8.79 12.91 18.71 16.68 29.33.82 2.78 2.05 5.4.67 8.23a217.65 217.65 0 0 1-10.59 21.51c-8.14 14.99-17.03 29.49-26.02 43.97-16.06 25.37-33.05 49.41-53.62 71.38-10.77 11.23-21.6 21.72-34.67 30.33-7.91 5.14-16.42 9.44-25.76 11.25-9.94 1.92-20.82 1.18-30.85.15-21.7-2.15-43.19-7.4-63.94-14.05a491.594 491.594 0 0 1-69.27-28.76 652.362 652.362 0 0 1-83.07-50.91c-14.63-10.34-28.18-22.16-42.7-32.67 2.13-5.64 3.54-11.46 5.23-17.24 8.07-2.8 16.21-5.53 22.11-12.03 11.56-12.27 15.82-31.69 9.61-47.5 4.55-2.17 6.42-5.31 8.43-9.75 4.74 1.33 9.4 2.91 14.08 4.41 22.74 7.28 45.95 12.24 69.38 16.69 25.77 4.76 51.53 8.17 77.07 13.82 24.27 5.48 47.25 12.21 68.51 25.54 5.94 3.26 10.46 8.12 17.63 7.63 1.41-4.11-.45-6.9-2.32-10.41 6.17-1.37 11.53-4.74 14.83-10.2 2.26-3.63 2.71-7.47 3.31-11.6 9.81.77 19.57-2.47 25.95-10.15 5.21-6.53 6.74-14.45 6.16-22.65 4.19-.4 8.14-1.04 11.65-3.53 5.29-3.68 10.05-9.35 11.14-15.86.98-6.47-.47-13.73-4.83-18.76-3.13-3.69-7.79-5.42-12.09-7.32 1.03-1.28 2.04-2.58 3.12-3.82ZM349.62 691.59c-7.96 4.68-15.3 9.59-21.07 16.95-8.98 11.18-13.72 25.37-10.5 39.65-19.21-14.81-40.12-28.47-62.2-38.6 10.23-9.88 23.13-17.45 37.03-20.74 18.86-4.71 38.35-3.24 56.74 2.74Z"/><path fill="#fffffb" d="M364.27 698.37c11.25-2.36 22.55 3.09 28.98 12.34 8.43 12.02 7.41 28.44.14 40.74-9.58 15.39-30.19 22.66-47.25 16.33-5.21-2.07-10.69-5.26-14.07-9.84-4.82-6.66-5.72-15.37-4.14-23.28 3.34-18.1 18.45-32.62 36.34-36.29Z"/><path fill="#151910" d="M362.28 705.04c6.05-.84 12.14-.53 17.85 1.77 5.2 2.01 9.46 6.31 11.67 11.4 2.82 7.32 2.56 15.72-.7 22.87-3.43 7.64-9.54 14.12-16.84 18.21-2.96 1.74-6.27 2.79-9.67 3.23-7.32.79-14.66-.01-20.88-4.24-5.41-3.69-9.3-9.3-10.13-15.87-.98-8.4 1.16-17.68 6.5-24.33 5.8-6.61 13.35-11.78 22.2-13.04Z"/><path fill="#fffffb" d="M365.23 713.84c1.55-.01 3.37.43 3.56 2.24-.39 2.8-1.54 5.61-2.69 8.17-.83-.77-1.64-1.56-2.44-2.36-.37-2.56.1-5.87 1.57-8.05ZM347.19 720.92c2.93 1.93 5.21 4.55 7.92 6.95 2.49 2.18 4.71 4.51 6.65 7.2 7.81-4.63 17.65-6.92 26.68-6.06-.41.82-.81 1.64-1.19 2.48-7.89 1.17-16.97 1.86-24.17 5.6-.95.46-1.93.8-2.93 1.01-1.53-.64-2.61-2.37-3.8-3.5-2.29-2.58-5.14-4.12-7.86-6.13-2.04-1.52-2.9-4.01-3.89-6.25.86-.44 1.72-.88 2.59-1.3ZM344.21 738.21c2.17.5 3.44 1.66 4.3 3.71-.48 1.22-1.01 2.42-1.57 3.61-2.12-1.54-6.47-5-2.73-7.32Z"/><path fill="#f2bd87" d="M667.28 743.2c-.41 2.08-.75 4.45-1.74 6.34-2.29 4.13-6.81 6.64-11.52 6.51-5.76.23-11.07-2.41-16.02-5.05-4.29-2.33-8.74-4.33-13.08-6.56 13.93-3.92 28.25-4.83 42.36-1.24Z"/><path fill="#fffffb" d="M377.53 746.74c-.48 1.91.23 3.24-2.17 3.67-1.95.38-4.65 1.66-4.78-1.36 1.98-2.08 4.25-2.14 6.95-2.31ZM357.02 747.33c.8.91 1.55 1.86 2.25 2.85-.05 2.01-1.4 3.98-2.72 5.42-1.17.16-2.34.28-3.53.33.3-3.84 1.11-5.98 4-8.6Z"/></svg>
