<svg xmlns="http://www.w3.org/2000/svg" version="1.1" viewBox="0 0 836 1254" width="836.0pt" height="1254.0pt" xmlns:xlink="http://www.w3.org/1999/xlink">
<defs>
<path d="M 0.00 0.00 L 836.00 0.00 L 836.00 943.53 C 831.60 924.79 824.66 907.09 817.85 889.15 C 808.61 865.90 796.14 842.42 779.06 823.95 C 770.05 814.59 760.57 805.71 750.48 797.53 C 732.50 783.18 712.81 770.89 692.05 761.01 C 672.68 751.50 652.86 743.50 633.05 734.99 C 623.70 731.16 614.45 727.21 604.78 724.19 C 602.33 723.22 599.12 722.70 598.07 719.92 C 592.43 707.01 588.22 691.49 579.89 680.11 C 574.68 673.15 567.54 667.68 561.96 661.03 C 560.97 659.68 559.69 658.06 560.28 656.29 C 560.99 653.83 562.18 651.50 563.17 649.14 C 571.99 628.27 578.56 606.60 582.13 584.20 C 582.52 582.07 582.83 579.78 583.68 577.77 C 587.58 577.10 591.89 578.61 595.98 577.78 C 609.96 575.46 623.17 566.98 632.99 556.99 C 642.10 548.03 649.32 537.48 655.13 526.13 C 662.61 511.87 667.97 496.31 670.32 480.36 C 672.16 467.81 671.22 454.97 667.01 442.97 C 664.31 435.78 659.69 429.15 653.92 424.08 C 650.96 421.44 647.61 420.32 644.11 418.64 C 645.54 410.35 647.16 401.95 650.08 394.03 C 653.28 384.69 655.19 375.01 658.68 365.75 C 665.01 347.83 670.55 329.93 672.65 310.95 C 674.02 298.51 674.03 286.13 671.15 273.88 C 668.24 258.78 661.10 243.81 649.76 233.24 C 645.66 229.32 640.77 226.93 636.20 223.71 C 637.53 218.79 640.14 214.43 641.32 209.50 C 642.18 206.02 641.46 202.68 640.60 199.30 C 639.19 194.04 637.31 188.88 635.06 183.92 C 632.20 177.75 627.81 172.71 622.68 168.31 C 613.51 159.67 602.55 152.57 591.55 146.46 C 584.23 142.55 576.86 138.60 569.87 134.13 C 559.98 126.48 549.23 120.17 538.35 113.64 C 512.42 97.75 485.39 83.29 455.48 76.60 C 415.36 67.79 373.24 73.92 336.20 91.20 C 327.98 95.03 319.91 98.66 312.25 103.26 C 303.94 108.26 295.13 113.14 285.82 115.98 C 278.84 118.20 272.42 120.28 264.94 119.55 C 262.00 118.92 258.45 117.72 257.43 114.55 C 256.23 111.63 257.34 108.40 258.74 105.76 C 261.39 100.80 265.88 97.53 268.62 92.61 C 260.05 93.64 250.78 95.37 243.81 100.80 C 235.10 106.76 227.23 113.48 221.31 122.31 C 214.60 132.40 209.52 143.58 210.57 156.00 C 211.25 161.82 211.15 167.85 212.44 173.56 C 214.88 183.73 222.27 191.22 229.80 197.99 C 218.43 204.26 209.02 213.50 203.23 225.18 C 198.25 235.46 196.46 247.72 199.16 258.88 C 199.94 262.32 201.58 265.53 202.26 268.99 C 201.76 272.53 200.46 276.00 199.46 279.43 C 192.35 302.52 186.67 325.97 182.72 349.82 C 181.80 354.37 181.54 359.40 179.78 363.70 C 177.89 365.91 174.98 367.45 172.02 367.40 C 166.56 367.55 161.18 368.15 156.02 370.06 C 155.05 374.47 154.76 379.19 155.41 383.66 C 157.99 387.35 163.28 389.42 166.34 392.58 C 168.73 395.52 168.32 400.59 168.82 404.22 C 169.13 409.92 170.71 415.26 172.21 420.72 C 173.18 424.38 172.49 427.69 171.99 431.35 C 168.98 453.18 166.31 474.94 165.06 496.95 C 165.31 508.25 161.74 519.69 160.26 531.04 C 159.38 538.73 158.18 546.23 158.25 554.00 C 158.10 559.37 158.83 564.81 157.83 569.95 C 155.95 579.86 154.16 589.80 152.85 599.80 C 151.49 609.99 150.97 621.68 154.55 631.48 C 156.02 635.78 158.94 638.81 162.11 641.91 C 164.14 643.57 163.29 646.69 163.30 648.99 C 161.86 660.68 163.00 672.75 167.38 683.73 C 169.67 689.19 172.86 694.73 177.32 698.69 C 179.86 701.02 183.18 702.09 185.80 704.21 C 187.62 707.98 188.19 712.30 189.97 716.13 C 194.26 725.72 200.15 735.10 209.34 740.65 C 213.13 743.03 217.60 743.38 221.33 745.69 C 224.05 747.42 225.74 750.85 227.60 753.43 C 229.48 756.22 231.87 758.50 234.00 761.07 C 234.82 762.07 234.87 762.91 234.18 764.01 C 229.86 766.32 224.98 767.70 220.41 769.46 C 203.01 776.07 185.25 783.12 168.75 791.76 C 145.82 803.83 123.14 818.33 104.93 836.93 C 91.45 850.89 81.03 866.71 71.59 883.58 C 50.09 924.86 31.78 968.54 19.26 1013.41 C 14.09 1031.00 9.54 1048.80 5.78 1066.75 C 3.67 1075.28 2.42 1083.95 0.00 1092.39 L 0.00 0.00 Z" id="p0" />
<path d="M 455.48 76.60 C 485.39 83.29 512.42 97.75 538.35 113.64 C 549.23 120.17 559.98 126.48 569.87 134.13 C 576.86 138.60 584.23 142.55 591.55 146.46 C 602.55 152.57 613.51 159.67 622.68 168.31 C 627.81 172.71 632.20 177.75 635.06 183.92 C 637.31 188.88 639.19 194.04 640.60 199.30 C 641.46 202.68 642.18 206.02 641.32 209.50 C 640.14 214.43 637.53 218.79 636.20 223.71 C 640.77 226.93 645.66 229.32 649.76 233.24 C 661.10 243.81 668.24 258.78 671.15 273.88 C 674.03 286.13 674.02 298.51 672.65 310.95 C 670.55 329.93 665.01 347.83 658.68 365.75 C 655.19 375.01 653.28 384.69 650.08 394.03 C 647.16 401.95 645.54 410.35 644.11 418.64 C 647.61 420.32 650.96 421.44 653.92 424.08 C 659.69 429.15 664.31 435.78 667.01 442.97 C 671.22 454.97 672.16 467.81 670.32 480.36 C 667.97 496.31 662.61 511.87 655.13 526.13 C 649.32 537.48 642.10 548.03 632.99 556.99 C 623.17 566.98 609.96 575.46 595.98 577.78 C 591.89 578.61 587.58 577.10 583.68 577.77 C 582.83 579.78 582.52 582.07 582.13 584.20 C 578.56 606.60 571.99 628.27 563.17 649.14 C 562.18 651.50 560.99 653.83 560.28 656.29 C 559.69 658.06 560.97 659.68 561.96 661.03 C 567.54 667.68 574.68 673.15 579.89 680.11 C 588.22 691.49 592.43 707.01 598.07 719.92 C 599.12 722.70 602.33 723.22 604.78 724.19 C 614.45 727.21 623.70 731.16 633.05 734.99 C 652.86 743.50 672.68 751.50 692.05 761.01 C 712.81 770.89 732.50 783.18 750.48 797.53 C 760.57 805.71 770.05 814.59 779.06 823.95 C 796.14 842.42 808.61 865.90 817.85 889.15 C 824.66 907.09 831.60 924.79 836.00 943.53 L 836.00 1052.62 C 835.11 1046.76 834.51 1040.90 834.05 1034.99 C 832.28 1017.53 830.67 999.85 827.42 982.61 C 825.19 970.11 822.53 957.72 820.67 945.16 C 819.65 938.05 816.96 931.77 815.14 924.82 C 813.37 918.30 810.55 912.25 808.09 905.98 C 803.13 890.98 796.00 876.68 787.81 863.19 C 782.51 855.42 778.98 847.71 772.79 841.22 C 766.46 834.53 759.82 828.17 753.04 821.95 C 742.78 812.10 731.72 802.97 719.85 795.14 C 706.12 786.38 692.02 778.44 677.09 771.91 C 658.65 763.30 639.76 755.85 621.00 748.01 C 614.51 745.40 609.01 742.27 602.15 740.98 C 600.95 744.01 600.01 747.12 599.19 750.27 C 596.35 760.94 592.68 771.31 588.93 781.83 C 584.87 793.35 580.07 804.57 574.38 815.38 C 567.37 829.60 559.17 843.15 550.18 856.19 C 538.91 871.53 528.44 886.42 515.12 900.13 C 510.93 903.93 506.50 907.84 501.61 910.69 C 499.52 912.04 497.36 910.47 495.48 909.49 C 490.51 906.31 485.87 902.34 482.67 897.33 C 478.36 890.71 473.00 885.12 467.46 879.53 C 461.14 873.10 454.03 867.35 446.31 862.69 C 443.16 860.80 439.67 859.17 435.99 858.72 C 433.51 858.45 430.91 859.66 428.72 860.73 C 416.92 866.78 405.34 872.50 392.74 876.74 C 385.40 879.18 378.26 882.20 370.92 884.67 C 380.26 875.93 391.55 870.75 402.60 864.60 C 410.83 860.27 418.66 855.22 426.89 850.90 C 434.33 846.69 444.13 847.88 451.60 851.38 C 461.34 855.93 469.41 862.49 477.12 869.88 C 482.17 874.82 486.27 880.80 490.69 886.32 C 493.37 889.57 495.55 894.04 499.07 896.40 C 501.71 895.99 503.61 894.24 505.50 892.50 C 513.38 884.96 520.37 876.63 526.90 867.90 C 535.77 856.15 544.19 844.27 551.47 831.45 C 566.00 805.94 578.70 778.55 584.62 749.64 C 585.67 744.94 586.88 740.19 587.51 735.42 C 588.52 731.34 584.80 727.44 583.23 723.81 C 577.97 712.88 574.66 698.09 566.98 688.01 C 564.32 684.74 561.25 680.61 557.25 678.99 C 555.70 684.56 555.41 690.36 553.90 695.96 C 550.41 711.12 543.87 724.74 536.16 738.17 C 528.87 750.38 519.72 761.69 510.35 772.37 C 502.92 780.82 494.40 787.58 486.05 795.06 C 478.04 802.38 468.47 808.31 459.49 814.48 C 446.50 822.38 434.36 831.55 421.23 839.22 C 409.13 846.72 397.36 854.73 385.28 862.27 C 377.79 867.18 370.40 872.18 362.60 876.60 C 355.97 880.49 349.36 883.29 343.76 888.75 C 336.55 895.14 332.06 902.99 327.07 911.07 C 320.62 921.95 317.24 935.43 313.41 947.45 C 308.80 962.17 306.71 977.22 303.17 992.18 C 300.95 1001.77 299.98 1011.49 298.36 1021.17 C 296.83 1029.60 295.30 1038.01 294.28 1046.53 C 292.03 1064.04 289.51 1081.53 287.35 1099.04 C 286.52 1113.65 284.86 1127.53 285.75 1142.14 C 281.74 1142.07 277.74 1142.09 273.74 1142.15 C 273.57 1136.09 274.07 1130.06 274.15 1124.00 C 274.00 1110.45 275.74 1096.83 277.28 1083.38 C 278.95 1066.53 281.88 1049.82 284.08 1033.02 C 286.41 1018.85 287.84 1004.78 291.05 990.92 C 293.29 981.09 295.27 971.20 297.34 961.34 C 299.75 950.81 302.92 940.42 306.10 930.10 C 307.94 924.20 310.59 918.78 313.24 913.22 C 315.81 907.93 318.46 902.55 321.57 897.56 C 324.38 892.96 327.90 889.00 330.28 884.13 C 324.94 874.84 317.85 866.83 312.38 857.63 C 309.79 853.25 307.08 849.04 304.07 844.93 C 300.25 839.76 298.45 834.10 295.57 828.44 C 290.95 819.32 287.15 809.71 284.07 799.97 C 282.27 794.51 281.79 788.62 279.70 783.29 C 278.98 781.02 276.72 781.00 274.75 780.50 C 268.51 779.40 262.59 778.85 256.70 776.27 C 253.60 775.04 250.36 772.92 247.04 772.57 C 244.27 772.48 243.34 776.51 242.57 778.56 C 240.13 787.39 236.91 795.96 234.67 804.83 C 231.08 819.65 228.41 834.48 225.39 849.41 C 224.61 853.04 224.37 856.49 224.87 860.18 C 231.24 857.40 235.99 850.59 240.52 845.50 C 247.33 837.29 256.17 832.65 265.24 826.02 C 268.13 825.57 271.59 827.58 274.13 828.85 C 279.93 831.93 284.50 836.29 288.97 841.02 C 296.62 849.15 303.62 858.26 308.84 868.15 C 311.28 872.76 313.70 877.14 315.02 882.24 C 310.15 880.01 306.45 875.17 302.57 871.44 C 293.29 861.31 283.93 849.83 272.77 841.24 C 270.63 839.93 268.06 837.51 265.56 839.45 C 257.33 844.83 251.53 855.33 244.40 861.39 C 239.11 865.85 232.10 868.59 225.55 870.59 C 222.15 871.75 218.10 870.73 214.67 870.04 C 213.37 869.57 211.59 869.53 211.54 867.76 C 210.23 854.41 213.58 842.98 215.40 830.04 C 216.61 822.11 219.04 814.36 220.73 806.50 C 222.29 798.89 224.77 791.46 225.99 783.79 C 219.83 783.72 215.31 786.60 209.80 788.77 C 195.00 794.68 180.08 801.17 166.41 809.39 C 155.72 815.33 145.26 822.06 135.72 829.71 C 123.27 839.24 112.67 851.70 102.87 863.88 C 98.83 869.18 94.85 874.59 91.14 880.14 C 81.96 894.75 74.91 910.12 67.78 925.77 C 64.11 934.75 59.76 943.33 56.44 952.44 C 52.15 964.48 47.39 976.33 43.48 988.50 C 37.67 1004.17 33.11 1020.18 28.09 1036.11 C 23.79 1051.12 19.62 1066.22 16.57 1081.54 C 13.53 1095.37 10.61 1109.21 8.34 1123.19 C 7.29 1129.50 6.03 1135.71 5.60 1142.11 C 3.73 1142.08 1.87 1142.09 0.00 1142.17 L 0.00 1092.39 C 2.42 1083.95 3.67 1075.28 5.78 1066.75 C 9.54 1048.80 14.09 1031.00 19.26 1013.41 C 31.78 968.54 50.09 924.86 71.59 883.58 C 81.03 866.71 91.45 850.89 104.93 836.93 C 123.14 818.33 145.82 803.83 168.75 791.76 C 185.25 783.12 203.01 776.07 220.41 769.46 C 224.98 767.70 229.86 766.32 234.18 764.01 C 234.87 762.91 234.82 762.07 234.00 761.07 C 231.87 758.50 229.48 756.22 227.60 753.43 C 225.74 750.85 224.05 747.42 221.33 745.69 C 217.60 743.38 213.13 743.03 209.34 740.65 C 200.15 735.10 194.26 725.72 189.97 716.13 C 188.19 712.30 187.62 707.98 185.80 704.21 C 183.18 702.09 179.86 701.02 177.32 698.69 C 172.86 694.73 169.67 689.19 167.38 683.73 C 163.00 672.75 161.86 660.68 163.30 648.99 C 163.29 646.69 164.14 643.57 162.11 641.91 C 158.94 638.81 156.02 635.78 154.55 631.48 C 150.97 621.68 151.49 609.99 152.85 599.80 C 154.16 589.80 155.95 579.86 157.83 569.95 C 158.83 564.81 158.10 559.37 158.25 554.00 C 158.18 546.23 159.38 538.73 160.26 531.04 C 161.74 519.69 165.31 508.25 165.06 496.95 C 166.31 474.94 168.98 453.18 171.99 431.35 C 172.49 427.69 173.18 424.38 172.21 420.72 C 170.71 415.26 169.13 409.92 168.82 404.22 C 168.32 400.59 168.73 395.52 166.34 392.58 C 163.28 389.42 157.99 387.35 155.41 383.66 C 154.76 379.19 155.05 374.47 156.02 370.06 C 161.18 368.15 166.56 367.55 172.02 367.40 C 174.98 367.45 177.89 365.91 179.78 363.70 C 181.54 359.40 181.80 354.37 182.72 349.82 C 186.67 325.97 192.35 302.52 199.46 279.43 C 200.46 276.00 201.76 272.53 202.26 268.99 C 201.58 265.53 199.94 262.32 199.16 258.88 C 196.46 247.72 198.25 235.46 203.23 225.18 C 209.02 213.50 218.43 204.26 229.80 197.99 C 222.27 191.22 214.88 183.73 212.44 173.56 C 211.15 167.85 211.25 161.82 210.57 156.00 C 209.52 143.58 214.60 132.40 221.31 122.31 C 227.23 113.48 235.10 106.76 243.81 100.80 C 250.78 95.37 260.05 93.64 268.62 92.61 C 265.88 97.53 261.39 100.80 258.74 105.76 C 257.34 108.40 256.23 111.63 257.43 114.55 C 258.45 117.72 262.00 118.92 264.94 119.55 C 272.42 120.28 278.84 118.20 285.82 115.98 C 295.13 113.14 303.94 108.26 312.25 103.26 C 319.91 98.66 327.98 95.03 336.20 91.20 C 373.24 73.92 415.36 67.79 455.48 76.60 Z M 241.12 121.11 C 233.69 128.85 230.08 138.71 228.29 149.12 C 227.02 157.03 227.95 165.12 230.29 172.74 C 231.79 177.70 234.94 181.81 238.97 185.02 C 243.41 188.51 247.73 191.78 253.03 193.89 C 257.94 191.29 262.08 187.59 266.97 184.96 C 274.30 180.90 282.13 177.36 290.27 175.29 C 296.18 173.80 301.55 174.56 307.55 174.54 C 307.43 169.66 306.88 164.48 307.62 159.69 C 308.86 150.37 313.39 141.23 318.30 133.30 C 321.63 128.06 325.41 123.56 331.58 121.68 C 326.73 134.34 321.95 146.24 320.76 159.96 C 320.20 167.60 321.94 175.52 324.19 182.78 C 325.97 188.51 329.91 192.76 334.79 196.08 C 333.64 185.05 334.12 174.09 337.44 163.46 C 339.33 157.12 342.25 151.27 345.54 145.57 C 351.53 134.50 361.24 125.35 372.10 119.14 C 371.01 121.62 369.84 124.05 368.35 126.32 C 362.13 135.57 354.46 145.26 350.79 155.82 C 345.60 169.28 342.25 184.76 344.32 199.17 C 346.11 198.79 347.44 199.21 347.90 196.99 C 351.76 184.21 356.87 171.75 365.19 161.18 C 373.12 151.09 382.15 141.00 392.97 133.98 C 410.51 122.08 431.85 115.77 453.00 115.70 C 459.21 115.62 465.31 115.60 471.40 117.02 C 467.14 118.50 462.74 119.27 458.35 120.25 C 446.16 123.05 434.93 127.73 423.35 132.28 C 415.58 135.01 408.28 138.87 401.45 143.46 C 391.75 150.19 382.65 156.92 375.46 166.45 C 369.77 174.28 364.17 182.06 359.67 190.66 C 358.83 192.35 358.34 194.13 357.82 195.94 C 362.93 195.20 367.81 193.59 372.91 192.83 C 375.56 192.37 378.50 192.06 380.99 191.01 C 382.87 190.13 384.47 188.38 385.89 186.90 C 392.52 179.67 399.49 173.04 407.79 167.75 C 416.86 161.97 425.61 156.48 435.78 152.78 C 454.51 145.46 475.07 143.17 494.98 146.01 C 502.05 147.15 509.11 148.41 516.11 149.92 C 525.94 152.01 535.39 156.63 544.97 159.99 C 547.94 161.02 550.64 162.28 553.30 163.96 C 546.92 164.09 540.79 162.79 534.46 162.39 C 521.30 161.61 508.30 160.32 495.10 161.35 C 474.95 161.70 451.44 165.88 435.70 179.43 C 439.42 181.01 443.07 180.83 447.03 180.88 C 455.17 181.03 461.93 177.46 470.24 176.25 C 490.32 173.09 511.05 173.51 531.07 176.95 C 537.78 178.06 544.29 179.94 550.67 182.25 C 552.72 183.00 554.51 184.16 556.26 185.45 C 551.08 185.03 546.07 183.76 540.91 183.24 C 529.86 182.27 519.10 180.65 507.97 181.17 C 499.55 181.24 491.35 182.94 482.96 183.35 C 479.96 183.46 477.45 183.97 474.71 185.17 C 479.48 184.89 484.21 184.35 489.00 184.47 C 499.41 184.68 509.47 183.90 519.74 186.25 C 535.10 188.73 550.06 193.08 564.07 199.92 C 572.12 203.65 579.69 207.73 586.51 213.49 C 592.13 218.21 596.29 224.92 599.34 231.53 C 602.36 238.10 602.25 244.69 602.03 251.77 C 601.17 251.14 600.31 250.52 599.45 249.90 C 598.60 256.16 599.05 262.41 597.49 268.42 C 596.19 273.69 594.23 278.77 591.43 283.43 C 587.18 290.31 583.39 296.85 577.15 302.17 C 573.31 305.74 568.70 307.52 563.85 309.25 C 562.15 309.30 560.46 309.29 558.76 309.26 C 561.91 304.33 566.31 300.44 569.60 295.59 C 576.36 285.92 582.64 275.15 582.70 263.00 C 582.91 256.12 580.43 250.31 577.86 244.09 C 574.99 237.27 569.91 232.35 564.52 227.48 C 556.08 220.08 544.31 216.30 533.69 213.28 C 522.07 209.83 509.55 208.30 497.63 206.19 C 479.57 202.74 460.51 197.76 442.11 197.49 C 433.85 197.28 425.25 197.02 417.03 197.90 C 407.10 198.93 396.96 199.83 387.22 202.10 C 373.09 206.45 356.88 212.64 341.97 209.98 C 334.47 208.48 326.11 207.06 320.33 201.67 C 316.25 198.22 313.91 193.47 310.33 189.69 C 305.85 186.61 300.46 186.26 295.26 187.41 C 283.11 190.11 271.85 196.43 262.27 204.26 C 244.06 220.04 230.47 240.24 221.54 262.55 C 211.01 290.86 202.75 320.16 197.53 349.92 C 210.02 343.45 223.87 340.22 237.96 341.37 C 253.19 342.30 266.92 349.05 279.05 357.94 C 288.74 365.11 296.17 374.46 301.14 385.43 C 307.51 384.04 313.33 381.84 319.97 381.88 C 333.07 381.36 344.21 385.63 356.15 390.23 C 359.49 385.47 362.11 380.37 365.97 375.96 C 371.71 368.92 379.12 364.24 387.10 360.11 C 391.84 357.69 396.88 356.18 402.04 354.99 C 408.42 353.56 414.37 351.87 420.99 352.14 C 437.05 352.67 453.34 355.22 467.26 363.75 C 479.43 371.28 488.71 382.60 494.62 395.57 C 500.49 395.23 506.13 394.29 512.04 394.96 C 524.18 396.25 535.96 399.28 547.34 403.69 C 554.07 406.00 560.56 409.11 567.41 410.99 C 567.63 404.64 568.43 398.36 568.35 392.00 C 568.28 384.48 568.98 377.65 566.61 370.35 C 564.12 362.67 560.89 355.05 557.02 347.97 C 555.12 344.29 551.54 341.10 550.57 337.07 C 553.22 337.28 555.83 337.55 558.40 338.23 C 565.45 341.50 571.90 346.17 577.75 351.25 C 581.49 354.73 585.47 358.56 587.93 363.09 C 588.90 364.81 588.57 366.43 588.44 368.28 C 587.63 368.55 586.81 368.81 585.98 369.04 C 581.34 365.59 577.98 361.10 573.94 357.03 C 572.50 355.53 570.71 354.73 568.85 353.88 C 571.32 358.02 574.35 360.83 575.86 365.21 C 578.54 372.44 577.84 381.33 578.05 389.00 C 578.28 397.52 577.57 406.01 577.62 414.53 C 583.11 417.64 589.00 418.94 594.82 421.23 C 597.77 422.29 600.86 423.76 603.98 424.10 C 607.15 423.46 610.16 421.45 613.12 420.15 C 617.44 418.06 622.46 417.51 627.21 416.14 C 629.26 411.40 630.63 406.43 632.66 401.68 C 634.11 398.21 635.22 394.68 636.05 391.01 C 637.66 384.11 639.37 376.96 639.83 369.88 C 640.08 366.75 639.33 363.81 638.15 360.94 C 634.81 352.82 631.93 344.53 628.56 336.43 C 627.25 333.30 626.15 330.12 625.31 326.83 C 630.94 329.88 634.68 334.47 638.67 339.35 C 641.46 342.82 642.61 346.90 645.74 350.08 C 646.29 347.86 646.85 345.76 646.45 343.45 C 644.63 333.17 639.46 324.85 635.67 315.34 C 632.44 307.40 628.72 299.70 624.99 291.98 C 623.01 288.12 621.00 284.34 619.86 280.11 C 622.55 281.33 625.02 282.76 627.03 284.96 C 633.85 292.36 640.14 300.17 644.97 309.04 C 648.25 314.41 650.16 320.28 652.76 325.97 C 654.86 320.17 655.80 314.16 656.11 308.02 C 656.60 296.65 657.31 286.06 654.11 274.95 C 651.06 264.04 645.18 252.95 636.56 245.44 C 630.72 240.13 623.12 239.57 617.07 234.76 C 617.47 231.47 618.36 228.85 619.93 225.94 C 623.36 219.29 626.32 211.92 624.69 204.30 C 623.48 197.89 619.81 193.17 615.62 188.40 C 609.42 181.45 602.48 174.40 594.55 169.45 C 588.30 165.51 581.88 162.09 575.44 158.55 C 567.61 154.19 560.34 148.99 552.75 144.27 C 542.93 138.85 533.31 133.07 523.67 127.33 C 504.65 114.83 484.68 104.09 463.03 96.89 C 451.72 92.63 439.93 90.58 428.00 89.04 C 407.66 87.35 387.12 89.62 367.63 95.62 C 338.81 103.23 316.94 119.99 289.57 130.59 C 280.91 134.02 271.39 135.33 262.11 134.74 C 257.08 134.34 251.74 133.51 247.57 130.42 C 244.46 128.25 242.88 124.36 241.12 121.11 Z M 208.97 251.31 C 213.07 244.75 215.69 237.43 219.95 230.93 C 223.79 224.52 228.97 219.17 233.01 212.92 C 223.78 215.06 217.67 222.12 212.64 229.67 C 208.68 235.82 206.01 244.23 208.97 251.31 Z M 190.92 379.80 C 189.19 387.74 188.12 395.77 186.82 403.78 C 185.71 410.29 184.63 417.60 186.93 423.95 C 188.64 428.80 190.96 433.72 194.34 437.65 C 200.72 444.74 208.32 450.49 217.56 453.28 C 225.98 455.64 234.25 457.33 243.04 456.20 C 249.84 455.47 256.08 453.16 262.26 450.38 C 268.95 447.62 274.62 441.73 279.52 436.53 C 284.77 430.23 288.42 421.92 290.16 413.94 C 293.98 398.01 286.91 380.75 274.96 370.05 C 268.21 364.51 260.59 359.29 252.12 356.86 C 241.65 353.81 230.20 352.48 219.43 354.61 C 210.99 356.33 203.10 360.08 196.22 365.23 C 191.84 367.95 192.15 375.24 190.92 379.80 Z M 401.74 367.73 C 390.24 370.70 380.09 377.52 373.33 387.32 C 367.12 396.40 362.81 406.80 363.54 418.01 C 364.07 424.47 365.83 430.89 368.07 436.95 C 373.13 449.16 383.59 459.03 395.46 464.60 C 406.65 470.11 419.95 472.84 432.32 470.60 C 443.59 469.34 454.41 465.29 463.56 458.56 C 478.31 446.81 487.07 427.31 484.46 408.43 C 483.60 401.35 480.53 395.22 476.69 389.32 C 471.39 381.07 463.46 374.48 454.46 370.62 C 448.30 367.97 441.78 365.68 435.05 365.17 C 423.63 364.15 412.69 363.68 401.74 367.73 Z M 306.70 396.06 C 306.40 399.86 306.93 403.78 306.29 407.52 C 304.85 414.20 302.13 420.04 299.16 426.13 C 293.33 439.97 285.15 452.91 278.20 466.21 C 275.18 472.01 271.87 477.45 271.38 484.13 C 271.12 489.11 271.65 494.59 273.87 499.13 C 275.92 502.97 280.17 505.84 283.57 508.44 C 289.36 512.90 296.74 514.97 304.00 514.47 C 316.67 513.42 328.87 510.11 340.66 505.44 C 344.86 503.76 349.32 502.45 353.31 500.31 C 357.49 497.69 360.39 492.85 361.14 488.00 C 361.81 485.04 361.58 482.34 363.83 480.01 C 370.21 486.96 372.78 496.40 369.30 505.39 C 379.50 502.46 389.45 502.95 400.00 502.88 C 411.70 502.82 422.95 505.34 434.01 508.98 C 441.38 511.43 449.03 513.60 455.85 517.15 C 460.48 519.49 464.64 523.05 468.51 526.48 C 474.35 531.88 480.00 536.93 484.20 543.79 C 488.79 551.54 492.49 559.43 496.13 567.60 C 504.96 562.57 512.70 554.98 519.33 547.34 C 534.61 527.07 545.53 504.06 552.63 479.73 C 558.60 462.17 562.37 444.18 565.38 425.90 C 560.13 423.07 554.14 421.53 548.54 419.47 C 538.24 416.00 526.98 411.05 516.02 411.25 C 510.08 411.28 504.33 411.01 498.75 412.68 C 498.26 418.50 498.08 424.12 496.64 429.85 C 493.99 440.27 489.28 450.02 482.06 458.05 C 478.14 462.35 473.86 466.80 469.02 470.06 C 459.43 476.39 448.93 480.95 437.47 482.47 C 421.50 484.40 405.15 482.27 390.51 475.49 C 375.05 468.94 362.36 456.76 355.95 441.17 C 351.12 428.63 350.45 415.53 351.91 402.27 C 343.82 397.35 334.44 394.55 325.03 393.86 C 318.92 393.74 312.65 394.69 306.70 396.06 Z M 483.06 589.82 C 483.89 584.31 486.16 579.11 485.37 573.72 C 484.45 566.92 482.54 559.93 479.02 553.99 C 475.45 548.04 470.36 544.24 465.21 539.78 C 459.44 534.89 453.50 529.91 446.98 526.04 C 441.71 523.09 436.07 520.77 430.47 518.54 C 423.25 515.68 414.86 514.82 407.16 513.66 C 397.11 512.27 387.85 514.01 377.91 514.67 C 369.82 515.24 361.17 513.80 353.58 516.51 C 347.04 518.80 340.90 522.08 334.30 524.24 C 324.57 527.55 313.63 530.90 303.28 530.56 C 296.84 530.20 290.81 528.47 284.83 526.14 C 280.14 524.32 275.24 523.39 270.61 521.45 C 264.77 519.03 258.28 515.88 251.95 515.19 C 242.79 514.38 233.22 516.96 225.11 521.13 C 214.34 526.68 205.91 535.26 199.23 545.26 C 196.10 550.04 194.27 555.75 193.43 561.38 C 192.73 566.13 193.38 570.54 191.85 575.17 C 188.29 573.37 186.92 570.19 185.13 566.86 C 181.28 559.01 176.57 551.59 172.22 544.00 C 172.64 554.63 172.41 565.25 171.65 575.86 C 170.65 584.37 168.84 592.81 167.41 601.26 C 166.07 609.20 165.28 617.96 168.39 625.60 C 169.05 627.42 170.33 628.72 171.66 630.06 C 175.55 623.93 178.75 617.72 184.25 612.78 C 185.01 618.65 183.48 623.99 182.38 629.68 C 180.71 637.96 178.25 645.42 177.98 653.96 C 177.70 663.26 179.27 673.13 183.53 681.47 C 184.49 683.50 185.96 685.00 187.68 686.40 C 192.14 675.66 196.67 663.75 205.78 655.92 C 204.52 661.49 202.14 666.59 201.13 672.20 C 199.67 680.54 199.43 688.88 201.96 697.04 C 205.13 707.31 210.06 717.38 218.89 723.92 C 220.06 719.71 220.62 715.43 221.24 711.12 C 222.28 704.26 224.95 697.90 228.56 692.01 C 228.78 699.41 228.01 706.28 229.31 713.64 C 230.48 720.35 232.71 727.27 235.61 733.43 C 239.70 741.73 246.85 747.25 253.59 753.40 C 255.94 755.55 258.74 756.26 261.79 756.81 C 262.98 752.64 261.47 749.20 261.24 745.05 C 260.92 740.45 261.41 735.76 262.15 731.23 C 262.78 728.10 263.08 725.20 265.50 722.88 C 266.69 728.11 266.85 732.96 268.99 737.94 C 271.83 744.56 275.81 750.97 281.42 755.59 C 286.36 759.80 292.99 762.28 299.21 763.87 C 302.54 764.64 306.11 765.23 309.11 763.15 C 312.60 756.48 310.72 748.44 315.21 741.77 C 319.33 747.25 319.53 754.31 324.35 759.66 C 332.36 768.42 346.50 768.87 355.65 761.65 C 366.29 752.83 373.67 741.04 379.22 728.52 C 381.99 733.27 381.54 738.05 381.54 743.31 C 381.47 749.17 380.25 754.76 380.87 760.64 C 383.89 760.35 386.81 759.94 389.52 758.49 C 398.13 754.05 403.82 747.19 409.94 739.94 C 414.55 734.36 417.72 728.02 420.29 721.29 C 422.29 716.08 423.26 710.60 425.20 705.37 C 427.83 710.77 428.16 716.50 428.75 722.39 C 429.02 726.10 429.61 730.14 428.96 733.81 C 428.14 737.32 426.43 740.61 425.28 744.02 C 431.12 741.07 435.31 735.87 440.28 731.29 C 451.47 720.39 457.79 706.53 461.54 691.56 C 462.50 687.86 462.90 684.28 464.74 680.85 C 468.84 686.97 469.29 693.84 469.12 701.00 C 469.02 705.47 467.95 709.84 468.83 714.07 C 478.19 708.16 488.14 700.21 493.09 690.09 C 496.82 682.73 500.46 675.66 502.59 667.64 C 504.05 662.02 505.93 656.52 506.60 650.89 C 506.98 647.85 507.40 644.81 507.99 641.80 C 513.34 652.06 515.25 664.55 515.24 676.02 C 523.74 662.57 533.46 647.56 536.97 631.94 C 538.69 624.88 538.26 617.85 539.21 610.72 C 540.50 612.18 541.73 613.66 542.60 615.42 C 546.30 622.96 549.00 630.78 552.07 638.56 C 555.44 631.30 556.87 623.78 559.22 616.18 C 560.59 611.45 562.26 606.60 562.84 601.71 C 563.34 597.29 561.00 593.49 560.57 588.88 C 559.96 582.28 560.43 575.39 561.26 568.83 C 561.76 564.03 562.27 559.28 563.58 554.61 C 565.09 549.32 565.07 544.00 565.77 538.60 C 568.23 522.98 570.97 507.41 573.86 491.87 C 575.90 477.88 577.95 464.59 583.50 451.45 C 585.97 445.61 589.89 440.68 592.51 434.90 C 587.76 431.79 581.06 429.99 575.46 429.32 C 572.10 441.63 571.14 454.61 567.99 466.99 C 566.57 472.50 565.06 477.98 563.39 483.43 C 561.18 490.62 559.73 497.94 556.98 504.98 C 553.76 513.31 550.76 521.59 546.09 529.10 C 541.99 535.72 538.26 542.29 533.33 548.35 C 529.11 553.51 525.37 559.03 520.82 563.82 C 512.80 572.17 504.86 579.87 494.70 585.64 C 491.06 587.69 487.15 589.01 483.06 589.82 Z M 579.27 523.54 C 578.13 534.05 575.03 545.96 577.43 556.24 C 577.99 558.86 578.83 561.29 581.14 562.87 C 585.40 565.91 591.64 565.73 596.49 564.46 C 608.33 561.16 618.40 553.56 626.31 544.31 C 638.93 529.87 648.00 512.10 652.65 493.51 C 655.41 483.50 657.37 473.37 655.92 462.96 C 655.04 453.96 652.38 442.87 645.52 436.49 C 640.68 431.79 634.44 430.97 627.97 431.18 C 618.51 431.79 609.02 434.31 601.94 440.95 C 597.93 444.56 595.03 449.07 592.96 454.03 C 589.44 462.30 586.40 471.12 584.99 480.02 C 582.95 494.51 580.92 508.99 579.27 523.54 Z M 184.26 445.04 C 182.34 459.97 180.74 474.99 179.82 490.01 C 179.38 499.73 178.77 509.31 180.33 518.98 C 180.76 526.90 184.83 534.79 188.77 541.55 C 191.00 536.89 193.01 532.28 196.05 528.05 C 203.69 517.56 214.60 509.84 226.99 505.98 C 232.83 504.03 238.95 502.90 245.06 502.27 C 250.50 501.71 255.35 503.04 260.88 503.72 C 257.05 499.01 254.07 494.39 254.96 487.98 C 255.84 477.58 261.33 469.88 267.75 462.10 C 259.43 465.16 251.05 468.66 242.04 468.73 C 235.65 468.82 228.70 469.03 222.47 467.54 C 212.78 465.32 203.53 461.40 195.47 455.53 C 191.15 452.49 187.96 448.76 184.26 445.04 Z M 292.75 787.09 C 293.25 795.30 296.90 801.60 299.98 809.01 C 307.15 825.91 316.51 841.10 326.72 856.28 C 331.05 863.44 337.07 869.48 343.06 875.46 C 348.02 873.46 352.00 870.31 356.45 867.45 C 371.30 857.70 385.58 847.09 400.59 837.60 C 411.65 830.32 422.65 822.95 433.79 815.80 C 448.26 807.58 461.82 797.12 475.12 787.12 C 481.82 782.12 487.57 776.35 493.57 770.57 C 510.61 754.11 524.12 734.20 533.42 712.42 C 537.56 701.30 541.60 691.00 542.18 678.98 C 542.39 677.16 541.82 675.70 541.09 674.07 C 538.13 677.70 537.22 681.94 534.94 685.94 C 530.92 693.23 525.68 699.93 519.76 705.76 C 516.28 709.20 512.17 711.62 507.90 713.93 C 503.41 716.04 501.70 722.03 499.04 726.03 C 492.88 735.72 484.94 745.00 473.74 748.80 C 469.37 750.46 464.99 750.05 460.50 750.67 C 458.25 751.50 456.63 754.33 455.10 756.10 C 447.72 766.12 435.60 773.04 422.96 772.40 C 419.53 772.40 415.74 770.77 412.42 771.36 C 408.96 773.32 406.32 776.75 403.19 779.21 C 395.04 785.90 383.87 791.73 373.05 790.84 C 368.79 790.66 365.13 788.45 361.06 787.75 C 355.57 789.37 350.87 792.33 345.04 793.04 C 338.43 793.86 331.36 793.90 324.92 792.00 C 321.42 791.01 318.33 789.08 314.90 787.97 C 312.68 787.49 310.26 787.76 308.00 787.74 C 302.89 787.88 297.85 787.35 292.75 787.09 Z" id="p1" />
<path d="M 428.00 89.04 C 439.93 90.58 451.72 92.63 463.03 96.89 C 484.68 104.09 504.65 114.83 523.67 127.33 C 533.31 133.07 542.93 138.85 552.75 144.27 C 560.34 148.99 567.61 154.19 575.44 158.55 C 581.88 162.09 588.30 165.51 594.55 169.45 C 602.48 174.40 609.42 181.45 615.62 188.40 C 619.81 193.17 623.48 197.89 624.69 204.30 C 626.32 211.92 623.36 219.29 619.93 225.94 C 618.36 228.85 617.47 231.47 617.07 234.76 C 623.12 239.57 630.72 240.13 636.56 245.44 C 645.18 252.95 651.06 264.04 654.11 274.95 C 657.31 286.06 656.60 296.65 656.11 308.02 C 655.80 314.16 654.86 320.17 652.76 325.97 C 650.16 320.28 648.25 314.41 644.97 309.04 C 640.14 300.17 633.85 292.36 627.03 284.96 C 625.02 282.76 622.55 281.33 619.86 280.11 C 621.00 284.34 623.01 288.12 624.99 291.98 C 628.72 299.70 632.44 307.40 635.67 315.34 C 639.46 324.85 644.63 333.17 646.45 343.45 C 646.85 345.76 646.29 347.86 645.74 350.08 C 642.61 346.90 641.46 342.82 638.67 339.35 C 634.68 334.47 630.94 329.88 625.31 326.83 C 626.15 330.12 627.25 333.30 628.56 336.43 C 631.93 344.53 634.81 352.82 638.15 360.94 C 639.33 363.81 640.08 366.75 639.83 369.88 C 639.37 376.96 637.66 384.11 636.05 391.01 C 635.22 394.68 634.11 398.21 632.66 401.68 C 630.63 406.43 629.26 411.40 627.21 416.14 C 622.46 417.51 617.44 418.06 613.12 420.15 C 610.16 421.45 607.15 423.46 603.98 424.10 C 600.86 423.76 597.77 422.29 594.82 421.23 C 589.00 418.94 583.11 417.64 577.62 414.53 C 577.57 406.01 578.28 397.52 578.05 389.00 C 577.84 381.33 578.54 372.44 575.86 365.21 C 574.35 360.83 571.32 358.02 568.85 353.88 C 570.71 354.73 572.50 355.53 573.94 357.03 C 577.98 361.10 581.34 365.59 585.98 369.04 C 586.81 368.81 587.63 368.55 588.44 368.28 C 588.57 366.43 588.90 364.81 587.93 363.09 C 585.47 358.56 581.49 354.73 577.75 351.25 C 571.90 346.17 565.45 341.50 558.40 338.23 C 560.24 334.96 560.14 330.69 560.29 327.00 C 564.51 328.62 568.67 330.04 572.52 332.49 C 578.18 336.08 583.55 340.05 588.92 344.06 C 591.01 345.76 593.30 345.83 595.86 346.01 C 593.16 338.68 587.28 332.41 580.91 328.06 C 575.43 324.52 569.17 322.08 562.92 320.28 C 563.88 316.62 564.77 312.94 565.49 309.23 L 563.85 309.25 C 568.70 307.52 573.31 305.74 577.15 302.17 C 583.39 296.85 587.18 290.31 591.43 283.43 C 594.23 278.77 596.19 273.69 597.49 268.42 C 599.05 262.41 598.60 256.16 599.45 249.90 C 600.31 250.52 601.17 251.14 602.03 251.77 C 602.25 244.69 602.36 238.10 599.34 231.53 C 596.29 224.92 592.13 218.21 586.51 213.49 C 579.69 207.73 572.12 203.65 564.07 199.92 C 550.06 193.08 535.10 188.73 519.74 186.25 C 509.47 183.90 499.41 184.68 489.00 184.47 C 484.21 184.35 479.48 184.89 474.71 185.17 C 477.45 183.97 479.96 183.46 482.96 183.35 C 491.35 182.94 499.55 181.24 507.97 181.17 C 519.10 180.65 529.86 182.27 540.91 183.24 C 546.07 183.76 551.08 185.03 556.26 185.45 C 554.51 184.16 552.72 183.00 550.67 182.25 C 544.29 179.94 537.78 178.06 531.07 176.95 C 511.05 173.51 490.32 173.09 470.24 176.25 C 461.93 177.46 455.17 181.03 447.03 180.88 C 443.07 180.83 439.42 181.01 435.70 179.43 C 451.44 165.88 474.95 161.70 495.10 161.35 C 508.30 160.32 521.30 161.61 534.46 162.39 C 540.79 162.79 546.92 164.09 553.30 163.96 C 550.64 162.28 547.94 161.02 544.97 159.99 C 535.39 156.63 525.94 152.01 516.11 149.92 C 509.11 148.41 502.05 147.15 494.98 146.01 C 475.07 143.17 454.51 145.46 435.78 152.78 C 425.61 156.48 416.86 161.97 407.79 167.75 C 399.49 173.04 392.52 179.67 385.89 186.90 C 384.47 188.38 382.87 190.13 380.99 191.01 C 378.50 192.06 375.56 192.37 372.91 192.83 C 367.81 193.59 362.93 195.20 357.82 195.94 C 358.34 194.13 358.83 192.35 359.67 190.66 C 364.17 182.06 369.77 174.28 375.46 166.45 C 382.65 156.92 391.75 150.19 401.45 143.46 C 408.28 138.87 415.58 135.01 423.35 132.28 C 434.93 127.73 446.16 123.05 458.35 120.25 C 462.74 119.27 467.14 118.50 471.40 117.02 C 465.31 115.60 459.21 115.62 453.00 115.70 C 431.85 115.77 410.51 122.08 392.97 133.98 C 382.15 141.00 373.12 151.09 365.19 161.18 C 356.87 171.75 351.76 184.21 347.90 196.99 C 347.44 199.21 346.11 198.79 344.32 199.17 C 342.25 184.76 345.60 169.28 350.79 155.82 C 354.46 145.26 362.13 135.57 368.35 126.32 C 369.84 124.05 371.01 121.62 372.10 119.14 C 361.24 125.35 351.53 134.50 345.54 145.57 C 342.25 151.27 339.33 157.12 337.44 163.46 C 334.12 174.09 333.64 185.05 334.79 196.08 C 329.91 192.76 325.97 188.51 324.19 182.78 C 321.94 175.52 320.20 167.60 320.76 159.96 C 321.95 146.24 326.73 134.34 331.58 121.68 C 325.41 123.56 321.63 128.06 318.30 133.30 C 313.39 141.23 308.86 150.37 307.62 159.69 C 306.88 164.48 307.43 169.66 307.55 174.54 C 301.55 174.56 296.18 173.80 290.27 175.29 C 282.13 177.36 274.30 180.90 266.97 184.96 C 262.08 187.59 257.94 191.29 253.03 193.89 C 247.73 191.78 243.41 188.51 238.97 185.02 C 234.94 181.81 231.79 177.70 230.29 172.74 C 227.95 165.12 227.02 157.03 228.29 149.12 C 230.08 138.71 233.69 128.85 241.12 121.11 C 242.88 124.36 244.46 128.25 247.57 130.42 C 251.74 133.51 257.08 134.34 262.11 134.74 C 271.39 135.33 280.91 134.02 289.57 130.59 C 316.94 119.99 338.81 103.23 367.63 95.62 C 387.12 89.62 407.66 87.35 428.00 89.04 Z" id="p2" />
<path d="M 295.26 187.41 C 300.46 186.26 305.85 186.61 310.33 189.69 C 313.91 193.47 316.25 198.22 320.33 201.67 C 326.11 207.06 334.47 208.48 341.97 209.98 C 356.88 212.64 373.09 206.45 387.22 202.10 C 396.96 199.83 407.10 198.93 417.03 197.90 C 425.25 197.02 433.85 197.28 442.11 197.49 C 460.51 197.76 479.57 202.74 497.63 206.19 C 509.55 208.30 522.07 209.83 533.69 213.28 C 544.31 216.30 556.08 220.08 564.52 227.48 C 569.91 232.35 574.99 237.27 577.86 244.09 C 580.43 250.31 582.91 256.12 582.70 263.00 C 582.64 275.15 576.36 285.92 569.60 295.59 C 566.31 300.44 561.91 304.33 558.76 309.26 C 560.46 309.29 562.15 309.30 563.85 309.25 L 565.49 309.23 C 564.77 312.94 563.88 316.62 562.92 320.28 C 558.76 319.55 553.90 318.80 549.82 320.12 C 550.92 324.13 556.98 325.27 560.29 327.00 C 560.14 330.69 560.24 334.96 558.40 338.23 C 555.83 337.55 553.22 337.28 550.57 337.07 C 551.54 341.10 555.12 344.29 557.02 347.97 C 560.89 355.05 564.12 362.67 566.61 370.35 C 568.98 377.65 568.28 384.48 568.35 392.00 C 568.43 398.36 567.63 404.64 567.41 410.99 C 560.56 409.11 554.07 406.00 547.34 403.69 C 535.96 399.28 524.18 396.25 512.04 394.96 C 506.13 394.29 500.49 395.23 494.62 395.57 C 488.71 382.60 479.43 371.28 467.26 363.75 C 453.34 355.22 437.05 352.67 420.99 352.14 C 414.37 351.87 408.42 353.56 402.04 354.99 C 396.88 356.18 391.84 357.69 387.10 360.11 C 379.12 364.24 371.71 368.92 365.97 375.96 C 362.11 380.37 359.49 385.47 356.15 390.23 C 344.21 385.63 333.07 381.36 319.97 381.88 C 313.33 381.84 307.51 384.04 301.14 385.43 C 296.17 374.46 288.74 365.11 279.05 357.94 C 266.92 349.05 253.19 342.30 237.96 341.37 C 223.87 340.22 210.02 343.45 197.53 349.92 C 202.75 320.16 211.01 290.86 221.54 262.55 C 230.47 240.24 244.06 220.04 262.27 204.26 C 271.85 196.43 283.11 190.11 295.26 187.41 Z M 205.23 339.95 C 210.21 338.08 214.68 335.84 219.96 334.95 C 228.21 333.62 236.34 334.24 244.53 335.65 C 254.35 336.96 263.15 340.66 271.94 345.03 C 276.61 347.15 281.14 349.36 285.54 352.00 C 287.39 345.42 285.62 339.14 282.80 333.16 C 277.61 323.89 269.15 316.36 259.03 312.92 C 250.23 309.64 240.25 309.45 231.09 311.04 C 217.24 313.70 205.49 325.43 205.23 339.95 Z M 380.28 354.84 C 385.73 352.20 390.72 349.15 396.71 347.79 C 410.06 344.82 421.96 341.22 435.82 343.07 C 452.72 345.57 469.62 351.76 482.88 362.74 C 482.67 358.91 483.07 354.63 481.89 350.96 C 477.31 338.93 468.44 328.73 456.59 323.45 C 445.55 318.66 432.87 317.48 421.03 319.18 C 405.03 321.51 389.50 330.10 381.84 344.80 C 380.03 348.05 380.35 351.26 380.28 354.84 Z" id="p3" />
<path d="M 233.01 212.92 C 228.97 219.17 223.79 224.52 219.95 230.93 C 215.69 237.43 213.07 244.75 208.97 251.31 C 206.01 244.23 208.68 235.82 212.64 229.67 C 217.67 222.12 223.78 215.06 233.01 212.92 Z" id="p4" />
<path d="M 259.03 312.92 C 269.15 316.36 277.61 323.89 282.80 333.16 C 285.62 339.14 287.39 345.42 285.54 352.00 C 281.14 349.36 276.61 347.15 271.94 345.03 C 263.15 340.66 254.35 336.96 244.53 335.65 C 236.34 334.24 228.21 333.62 219.96 334.95 C 214.68 335.84 210.21 338.08 205.23 339.95 C 205.49 325.43 217.24 313.70 231.09 311.04 C 240.25 309.45 250.23 309.64 259.03 312.92 Z" id="p5" />
<path d="M 421.03 319.18 C 432.87 317.48 445.55 318.66 456.59 323.45 C 468.44 328.73 477.31 338.93 481.89 350.96 C 483.07 354.63 482.67 358.91 482.88 362.74 C 469.62 351.76 452.72 345.57 435.82 343.07 C 421.96 341.22 410.06 344.82 396.71 347.79 C 390.72 349.15 385.73 352.20 380.28 354.84 C 380.35 351.26 380.03 348.05 381.84 344.80 C 389.50 330.10 405.03 321.51 421.03 319.18 Z" id="p6" />
<path d="M 562.92 320.28 C 569.17 322.08 575.43 324.52 580.91 328.06 C 587.28 332.41 593.16 338.68 595.86 346.01 C 593.30 345.83 591.01 345.76 588.92 344.06 C 583.55 340.05 578.18 336.08 572.52 332.49 C 568.67 330.04 564.51 328.62 560.29 327.00 C 556.98 325.27 550.92 324.13 549.82 320.12 C 553.90 318.80 558.76 319.55 562.92 320.28 Z" id="p7" />
<path d="M 219.43 354.61 C 230.20 352.48 241.65 353.81 252.12 356.86 C 260.59 359.29 268.21 364.51 274.96 370.05 C 286.91 380.75 293.98 398.01 290.16 413.94 C 288.42 421.92 284.77 430.23 279.52 436.53 C 274.62 441.73 268.95 447.62 262.26 450.38 C 256.08 453.16 249.84 455.47 243.04 456.20 C 234.25 457.33 225.98 455.64 217.56 453.28 C 208.32 450.49 200.72 444.74 194.34 437.65 C 190.96 433.72 188.64 428.80 186.93 423.95 C 184.63 417.60 185.71 410.29 186.82 403.78 C 188.12 395.77 189.19 387.74 190.92 379.80 C 192.15 375.24 191.84 367.95 196.22 365.23 C 203.10 360.08 210.99 356.33 219.43 354.61 Z M 242.42 382.43 C 238.59 383.81 235.83 387.44 233.82 390.83 C 229.36 398.69 227.84 408.54 230.75 417.20 C 232.20 421.68 234.40 426.75 238.56 429.34 C 242.95 432.12 249.80 432.47 253.79 428.79 C 260.24 422.60 264.18 414.05 263.84 405.02 C 264.11 398.73 262.73 393.16 258.84 388.15 C 255.11 382.93 248.67 380.11 242.42 382.43 Z" id="p8" />
<path d="M 435.05 365.17 C 441.78 365.68 448.30 367.97 454.46 370.62 C 463.46 374.48 471.39 381.07 476.69 389.32 C 480.53 395.22 483.60 401.35 484.46 408.43 C 487.07 427.31 478.31 446.81 463.56 458.56 C 454.41 465.29 443.59 469.34 432.32 470.60 C 419.95 472.84 406.65 470.11 395.46 464.60 C 383.59 459.03 373.13 449.16 368.07 436.95 C 365.83 430.89 364.07 424.47 363.54 418.01 C 362.81 406.80 367.12 396.40 373.33 387.32 C 380.09 377.52 390.24 370.70 401.74 367.73 C 412.69 363.68 423.63 364.15 435.05 365.17 Z M 424.41 390.45 C 419.67 391.61 415.78 396.41 413.51 400.49 C 408.18 411.20 409.74 425.30 417.61 434.39 C 420.72 438.03 426.10 439.59 430.72 438.60 C 434.35 437.73 436.79 434.72 438.75 431.74 C 442.84 425.53 444.72 418.39 444.11 410.95 C 443.66 404.93 441.99 397.92 437.06 393.94 C 433.65 390.71 428.97 389.58 424.41 390.45 Z" id="p9" />
<path d="M 242.42 382.43 C 248.67 380.11 255.11 382.93 258.84 388.15 C 262.73 393.16 264.11 398.73 263.84 405.02 C 264.18 414.05 260.24 422.60 253.79 428.79 C 249.80 432.47 242.95 432.12 238.56 429.34 C 234.40 426.75 232.20 421.68 230.75 417.20 C 227.84 408.54 229.36 398.69 233.82 390.83 C 235.83 387.44 238.59 383.81 242.42 382.43 Z" id="p10" />
<path d="M 424.41 390.45 C 428.97 389.58 433.65 390.71 437.06 393.94 C 441.99 397.92 443.66 404.93 444.11 410.95 C 444.72 418.39 442.84 425.53 438.75 431.74 C 436.79 434.72 434.35 437.73 430.72 438.60 C 426.10 439.59 420.72 438.03 417.61 434.39 C 409.74 425.30 408.18 411.20 413.51 400.49 C 415.78 396.41 419.67 391.61 424.41 390.45 Z" id="p11" />
<path d="M 325.03 393.86 C 334.44 394.55 343.82 397.35 351.91 402.27 C 350.45 415.53 351.12 428.63 355.95 441.17 C 362.36 456.76 375.05 468.94 390.51 475.49 C 405.15 482.27 421.50 484.40 437.47 482.47 C 448.93 480.95 459.43 476.39 469.02 470.06 C 473.86 466.80 478.14 462.35 482.06 458.05 C 489.28 450.02 493.99 440.27 496.64 429.85 C 498.08 424.12 498.26 418.50 498.75 412.68 C 504.33 411.01 510.08 411.28 516.02 411.25 C 526.98 411.05 538.24 416.00 548.54 419.47 C 554.14 421.53 560.13 423.07 565.38 425.90 C 562.37 444.18 558.60 462.17 552.63 479.73 C 545.53 504.06 534.61 527.07 519.33 547.34 C 512.70 554.98 504.96 562.57 496.13 567.60 C 492.49 559.43 488.79 551.54 484.20 543.79 C 480.00 536.93 474.35 531.88 468.51 526.48 C 464.64 523.05 460.48 519.49 455.85 517.15 C 449.03 513.60 441.38 511.43 434.01 508.98 C 422.95 505.34 411.70 502.82 400.00 502.88 C 389.45 502.95 379.50 502.46 369.30 505.39 C 372.78 496.40 370.21 486.96 363.83 480.01 C 361.58 482.34 361.81 485.04 361.14 488.00 C 360.39 492.85 357.49 497.69 353.31 500.31 C 349.32 502.45 344.86 503.76 340.66 505.44 C 328.87 510.11 316.67 513.42 304.00 514.47 C 296.74 514.97 289.36 512.90 283.57 508.44 C 280.17 505.84 275.92 502.97 273.87 499.13 C 271.65 494.59 271.12 489.11 271.38 484.13 C 271.87 477.45 275.18 472.01 278.20 466.21 C 285.15 452.91 293.33 439.97 299.16 426.13 C 302.13 420.04 304.85 414.20 306.29 407.52 C 306.93 403.78 306.40 399.86 306.70 396.06 C 312.65 394.69 318.92 393.74 325.03 393.86 Z" id="p12" />
<path d="M 575.46 429.32 C 581.06 429.99 587.76 431.79 592.51 434.90 C 589.89 440.68 585.97 445.61 583.50 451.45 C 577.95 464.59 575.90 477.88 573.86 491.87 C 570.97 507.41 568.23 522.98 565.77 538.60 C 565.07 544.00 565.09 549.32 563.58 554.61 C 562.27 559.28 561.76 564.03 561.26 568.83 C 560.43 575.39 559.96 582.28 560.57 588.88 C 561.00 593.49 563.34 597.29 562.84 601.71 C 562.26 606.60 560.59 611.45 559.22 616.18 C 556.87 623.78 555.44 631.30 552.07 638.56 C 549.00 630.78 546.30 622.96 542.60 615.42 C 541.73 613.66 540.50 612.18 539.21 610.72 C 538.26 617.85 538.69 624.88 536.97 631.94 C 533.46 647.56 523.74 662.57 515.24 676.02 C 515.25 664.55 513.34 652.06 507.99 641.80 C 507.40 644.81 506.98 647.85 506.60 650.89 C 505.93 656.52 504.05 662.02 502.59 667.64 C 500.46 675.66 496.82 682.73 493.09 690.09 C 488.14 700.21 478.19 708.16 468.83 714.07 C 467.95 709.84 469.02 705.47 469.12 701.00 C 469.29 693.84 468.84 686.97 464.74 680.85 C 462.90 684.28 462.50 687.86 461.54 691.56 C 457.79 706.53 451.47 720.39 440.28 731.29 C 435.31 735.87 431.12 741.07 425.28 744.02 C 426.43 740.61 428.14 737.32 428.96 733.81 C 429.61 730.14 429.02 726.10 428.75 722.39 C 428.16 716.50 427.83 710.77 425.20 705.37 C 423.26 710.60 422.29 716.08 420.29 721.29 C 417.72 728.02 414.55 734.36 409.94 739.94 C 403.82 747.19 398.13 754.05 389.52 758.49 C 386.81 759.94 383.89 760.35 380.87 760.64 C 380.25 754.76 381.47 749.17 381.54 743.31 C 381.54 738.05 381.99 733.27 379.22 728.52 C 373.67 741.04 366.29 752.83 355.65 761.65 C 346.50 768.87 332.36 768.42 324.35 759.66 C 319.53 754.31 319.33 747.25 315.21 741.77 C 310.72 748.44 312.60 756.48 309.11 763.15 C 306.11 765.23 302.54 764.64 299.21 763.87 C 292.99 762.28 286.36 759.80 281.42 755.59 C 275.81 750.97 271.83 744.56 268.99 737.94 C 266.85 732.96 266.69 728.11 265.50 722.88 C 263.08 725.20 262.78 728.10 262.15 731.23 C 261.41 735.76 260.92 740.45 261.24 745.05 C 261.47 749.20 262.98 752.64 261.79 756.81 C 258.74 756.26 255.94 755.55 253.59 753.40 C 246.85 747.25 239.70 741.73 235.61 733.43 C 232.71 727.27 230.48 720.35 229.31 713.64 C 228.01 706.28 228.78 699.41 228.56 692.01 C 224.95 697.90 222.28 704.26 221.24 711.12 C 220.62 715.43 220.06 719.71 218.89 723.92 C 210.06 717.38 205.13 707.31 201.96 697.04 C 199.43 688.88 199.67 680.54 201.13 672.20 C 202.14 666.59 204.52 661.49 205.78 655.92 C 196.67 663.75 192.14 675.66 187.68 686.40 C 185.96 685.00 184.49 683.50 183.53 681.47 C 179.27 673.13 177.70 663.26 177.98 653.96 C 178.25 645.42 180.71 637.96 182.38 629.68 C 183.48 623.99 185.01 618.65 184.25 612.78 C 178.75 617.72 175.55 623.93 171.66 630.06 C 170.33 628.72 169.05 627.42 168.39 625.60 C 165.28 617.96 166.07 609.20 167.41 601.26 C 168.84 592.81 170.65 584.37 171.65 575.86 C 172.41 565.25 172.64 554.63 172.22 544.00 C 176.57 551.59 181.28 559.01 185.13 566.86 C 186.92 570.19 188.29 573.37 191.85 575.17 C 193.38 570.54 192.73 566.13 193.43 561.38 C 194.27 555.75 196.10 550.04 199.23 545.26 C 205.91 535.26 214.34 526.68 225.11 521.13 C 233.22 516.96 242.79 514.38 251.95 515.19 C 258.28 515.88 264.77 519.03 270.61 521.45 C 275.24 523.39 280.14 524.32 284.83 526.14 C 290.81 528.47 296.84 530.20 303.28 530.56 C 313.63 530.90 324.57 527.55 334.30 524.24 C 340.90 522.08 347.04 518.80 353.58 516.51 C 361.17 513.80 369.82 515.24 377.91 514.67 C 387.85 514.01 397.11 512.27 407.16 513.66 C 414.86 514.82 423.25 515.68 430.47 518.54 C 436.07 520.77 441.71 523.09 446.98 526.04 C 453.50 529.91 459.44 534.89 465.21 539.78 C 470.36 544.24 475.45 548.04 479.02 553.99 C 482.54 559.93 484.45 566.92 485.37 573.72 C 486.16 579.11 483.89 584.31 483.06 589.82 C 487.15 589.01 491.06 587.69 494.70 585.64 C 504.86 579.87 512.80 572.17 520.82 563.82 C 525.37 559.03 529.11 553.51 533.33 548.35 C 538.26 542.29 541.99 535.72 546.09 529.10 C 550.76 521.59 553.76 513.31 556.98 504.98 C 559.73 497.94 561.18 490.62 563.39 483.43 C 565.06 477.98 566.57 472.50 567.99 466.99 C 571.14 454.61 572.10 441.63 575.46 429.32 Z M 208.13 578.26 C 212.43 576.92 214.79 573.83 218.06 571.00 C 218.21 575.69 218.20 580.37 218.51 585.06 C 218.86 584.00 219.21 582.95 219.51 581.88 C 218.73 590.55 217.66 598.99 218.66 607.71 C 219.52 614.82 220.33 622.89 223.79 629.24 C 227.86 636.94 234.39 642.70 241.54 647.47 C 247.26 651.34 254.14 653.70 261.00 654.35 C 265.91 654.85 269.55 651.29 274.05 650.36 C 277.08 650.39 280.22 651.86 283.03 652.89 C 291.14 656.17 299.69 658.37 308.36 659.47 C 318.42 660.47 328.80 659.53 338.72 657.73 C 342.37 657.15 345.90 656.41 349.53 657.53 C 353.99 658.89 358.14 661.08 362.66 662.30 C 368.97 664.03 375.83 665.13 382.37 664.37 C 396.64 662.32 409.37 656.24 421.16 648.16 C 431.79 640.88 440.63 631.62 448.45 621.44 C 455.00 613.22 459.40 602.90 463.11 593.12 C 464.99 588.25 465.39 583.30 463.74 578.30 C 460.40 566.96 451.79 559.01 442.09 552.88 C 437.30 549.87 431.92 548.68 426.46 547.42 C 423.74 546.78 420.99 546.68 418.20 546.78 C 420.57 548.74 422.91 550.74 425.10 552.90 C 406.04 555.81 386.94 557.90 367.74 559.59 C 352.22 560.82 335.02 560.99 320.14 555.86 C 315.88 554.51 313.45 551.46 309.87 549.09 C 308.93 548.49 307.71 547.94 306.71 548.75 C 303.78 550.77 301.48 553.49 298.34 555.32 C 292.16 558.82 285.01 559.98 278.00 558.98 C 266.23 557.45 254.78 553.76 243.04 551.97 C 240.36 551.47 236.90 551.12 234.71 549.37 C 234.05 547.05 233.88 544.56 233.58 542.18 C 223.97 545.77 217.71 553.91 212.19 562.17 C 208.96 567.15 207.75 572.34 208.13 578.26 Z" id="p13" />
<path d="M 627.97 431.18 C 634.44 430.97 640.68 431.79 645.52 436.49 C 652.38 442.87 655.04 453.96 655.92 462.96 C 657.37 473.37 655.41 483.50 652.65 493.51 C 648.00 512.10 638.93 529.87 626.31 544.31 C 618.40 553.56 608.33 561.16 596.49 564.46 C 591.64 565.73 585.40 565.91 581.14 562.87 C 578.83 561.29 577.99 558.86 577.43 556.24 C 575.03 545.96 578.13 534.05 579.27 523.54 C 580.92 508.99 582.95 494.51 584.99 480.02 C 586.40 471.12 589.44 462.30 592.96 454.03 C 595.03 449.07 597.93 444.56 601.94 440.95 C 609.02 434.31 618.51 431.79 627.97 431.18 Z M 598.80 490.61 C 602.40 491.10 608.00 490.24 610.08 493.93 C 613.03 498.86 612.42 505.11 610.21 510.21 C 608.75 513.93 606.27 516.77 604.07 520.02 C 603.28 521.05 603.39 522.59 603.20 523.84 C 606.23 524.88 608.59 523.53 611.26 522.25 C 617.88 518.58 623.36 513.11 625.54 505.70 C 627.91 498.34 628.09 490.06 623.47 483.52 C 621.17 480.27 617.83 479.72 614.37 478.25 C 617.99 472.46 622.38 467.50 628.72 464.65 C 632.42 463.00 637.33 463.86 641.33 463.74 C 640.79 456.66 632.17 451.29 625.47 453.59 C 615.82 456.43 607.62 464.56 603.78 473.76 C 601.44 479.37 598.97 484.43 598.80 490.61 Z" id="p14" />
<path d="M 184.26 445.04 C 187.96 448.76 191.15 452.49 195.47 455.53 C 203.53 461.40 212.78 465.32 222.47 467.54 C 228.70 469.03 235.65 468.82 242.04 468.73 C 251.05 468.66 259.43 465.16 267.75 462.10 C 261.33 469.88 255.84 477.58 254.96 487.98 C 254.07 494.39 257.05 499.01 260.88 503.72 C 255.35 503.04 250.50 501.71 245.06 502.27 C 238.95 502.90 232.83 504.03 226.99 505.98 C 214.60 509.84 203.69 517.56 196.05 528.05 C 193.01 532.28 191.00 536.89 188.77 541.55 C 184.83 534.79 180.76 526.90 180.33 518.98 C 178.77 509.31 179.38 499.73 179.82 490.01 C 180.74 474.99 182.34 459.97 184.26 445.04 Z" id="p15" />
<path d="M 625.47 453.59 C 632.17 451.29 640.79 456.66 641.33 463.74 C 637.33 463.86 632.42 463.00 628.72 464.65 C 622.38 467.50 617.99 472.46 614.37 478.25 C 617.83 479.72 621.17 480.27 623.47 483.52 C 628.09 490.06 627.91 498.34 625.54 505.70 C 623.36 513.11 617.88 518.58 611.26 522.25 C 608.59 523.53 606.23 524.88 603.20 523.84 C 603.39 522.59 603.28 521.05 604.07 520.02 C 606.27 516.77 608.75 513.93 610.21 510.21 C 612.42 505.11 613.03 498.86 610.08 493.93 C 608.00 490.24 602.40 491.10 598.80 490.61 C 598.97 484.43 601.44 479.37 603.78 473.76 C 607.62 464.56 615.82 456.43 625.47 453.59 Z" id="p16" />
<path d="M 233.58 542.18 C 233.88 544.56 234.05 547.05 234.71 549.37 C 236.90 551.12 240.36 551.47 243.04 551.97 C 254.78 553.76 266.23 557.45 278.00 558.98 C 285.01 559.98 292.16 558.82 298.34 555.32 C 301.48 553.49 303.78 550.77 306.71 548.75 C 307.71 547.94 308.93 548.49 309.87 549.09 C 313.45 551.46 315.88 554.51 320.14 555.86 C 335.02 560.99 352.22 560.82 367.74 559.59 C 386.94 557.90 406.04 555.81 425.10 552.90 C 422.91 550.74 420.57 548.74 418.20 546.78 C 420.99 546.68 423.74 546.78 426.46 547.42 C 431.92 548.68 437.30 549.87 442.09 552.88 C 451.79 559.01 460.40 566.96 463.74 578.30 C 465.39 583.30 464.99 588.25 463.11 593.12 C 459.40 602.90 455.00 613.22 448.45 621.44 C 440.63 631.62 431.79 640.88 421.16 648.16 C 409.37 656.24 396.64 662.32 382.37 664.37 C 375.83 665.13 368.97 664.03 362.66 662.30 C 358.14 661.08 353.99 658.89 349.53 657.53 C 345.90 656.41 342.37 657.15 338.72 657.73 C 328.80 659.53 318.42 660.47 308.36 659.47 C 299.69 658.37 291.14 656.17 283.03 652.89 C 280.22 651.86 277.08 650.39 274.05 650.36 C 269.55 651.29 265.91 654.85 261.00 654.35 C 254.14 653.70 247.26 651.34 241.54 647.47 C 234.39 642.70 227.86 636.94 223.79 629.24 C 220.33 622.89 219.52 614.82 218.66 607.71 C 217.66 598.99 218.73 590.55 219.51 581.88 C 220.05 577.93 220.11 574.32 222.13 570.78 C 223.69 578.52 223.37 586.22 224.30 594.04 C 224.85 601.51 226.56 608.96 228.76 616.11 C 230.72 622.20 233.46 628.39 237.96 633.03 C 243.00 638.32 248.76 643.47 256.14 644.98 C 260.56 645.82 264.12 643.97 267.79 641.82 C 271.59 639.68 273.79 636.52 276.90 633.52 C 284.39 637.73 289.79 642.90 297.60 645.40 C 306.25 648.16 315.99 648.37 325.00 648.47 C 334.11 648.55 342.86 646.94 351.86 645.89 C 357.27 652.67 366.91 653.90 375.02 653.81 C 386.57 653.75 396.95 649.57 406.70 643.70 C 422.74 633.83 436.42 620.25 446.06 604.05 C 449.18 599.07 451.57 593.81 452.17 587.91 C 452.73 582.66 449.91 577.37 446.00 574.01 C 444.41 572.62 442.28 571.82 440.17 571.78 C 436.16 574.71 433.43 579.40 429.94 582.95 C 421.17 592.23 410.40 599.85 399.61 606.60 C 378.66 618.84 353.07 623.68 329.00 622.84 C 309.36 622.12 290.42 619.16 272.64 610.39 C 258.10 603.18 245.49 591.86 237.01 578.00 C 234.43 574.15 231.71 569.45 227.81 566.82 C 224.17 566.34 220.67 568.72 218.06 571.00 C 214.79 573.83 212.43 576.92 208.13 578.26 C 207.75 572.34 208.96 567.15 212.19 562.17 C 217.71 553.91 223.97 545.77 233.58 542.18 Z M 246.87 565.69 C 248.84 572.03 253.86 576.93 258.27 581.73 C 270.90 594.15 285.96 603.65 303.46 607.35 C 317.67 610.27 332.56 611.24 347.02 609.83 C 361.59 608.09 375.65 603.92 389.10 598.11 C 399.44 593.37 408.72 586.78 417.04 579.05 C 420.11 576.17 423.81 573.36 426.07 569.77 C 427.00 568.43 426.15 566.63 425.93 565.16 C 420.03 564.86 413.97 566.56 408.07 567.27 C 387.93 570.04 367.36 573.08 347.05 573.63 C 338.63 573.82 329.69 573.09 321.70 570.29 C 318.09 569.07 315.01 566.83 311.50 565.45 C 309.62 564.62 307.26 565.84 305.43 566.39 C 298.45 568.98 291.40 569.69 284.03 570.21 C 274.26 570.82 264.42 569.67 255.03 566.88 C 252.33 566.06 249.72 565.51 246.87 565.69 Z" id="p17" />
<path d="M 311.50 565.45 C 315.01 566.83 318.09 569.07 321.70 570.29 C 329.69 573.09 338.63 573.82 347.05 573.63 C 367.36 573.08 387.93 570.04 408.07 567.27 C 413.97 566.56 420.03 564.86 425.93 565.16 C 426.15 566.63 427.00 568.43 426.07 569.77 C 423.81 573.36 420.11 576.17 417.04 579.05 C 408.72 586.78 399.44 593.37 389.10 598.11 C 375.65 603.92 361.59 608.09 347.02 609.83 C 332.56 611.24 317.67 610.27 303.46 607.35 C 285.96 603.65 270.90 594.15 258.27 581.73 C 253.86 576.93 248.84 572.03 246.87 565.69 C 249.72 565.51 252.33 566.06 255.03 566.88 C 264.42 569.67 274.26 570.82 284.03 570.21 C 291.40 569.69 298.45 568.98 305.43 566.39 C 307.26 565.84 309.62 564.62 311.50 565.45 Z" id="p18" />
<path d="M 227.81 566.82 C 231.71 569.45 234.43 574.15 237.01 578.00 C 245.49 591.86 258.10 603.18 272.64 610.39 C 290.42 619.16 309.36 622.12 329.00 622.84 C 353.07 623.68 378.66 618.84 399.61 606.60 C 410.40 599.85 421.17 592.23 429.94 582.95 C 433.43 579.40 436.16 574.71 440.17 571.78 C 442.28 571.82 444.41 572.62 446.00 574.01 C 449.91 577.37 452.73 582.66 452.17 587.91 C 451.57 593.81 449.18 599.07 446.06 604.05 C 436.42 620.25 422.74 633.83 406.70 643.70 C 396.95 649.57 386.57 653.75 375.02 653.81 C 366.91 653.90 357.27 652.67 351.86 645.89 C 342.86 646.94 334.11 648.55 325.00 648.47 C 315.99 648.37 306.25 648.16 297.60 645.40 C 289.79 642.90 284.39 637.73 276.90 633.52 C 273.79 636.52 271.59 639.68 267.79 641.82 C 264.12 643.97 260.56 645.82 256.14 644.98 C 248.76 643.47 243.00 638.32 237.96 633.03 C 233.46 628.39 230.72 622.20 228.76 616.11 C 226.56 608.96 224.85 601.51 224.30 594.04 C 223.37 586.22 223.69 578.52 222.13 570.78 C 220.11 574.32 220.05 577.93 219.51 581.88 C 219.21 582.95 218.86 584.00 218.51 585.06 C 218.20 580.37 218.21 575.69 218.06 571.00 C 220.67 568.72 224.17 566.34 227.81 566.82 Z" id="p19" />
<path d="M 541.09 674.07 C 541.82 675.70 542.39 677.16 542.18 678.98 C 541.60 691.00 537.56 701.30 533.42 712.42 C 524.12 734.20 510.61 754.11 493.57 770.57 C 487.57 776.35 481.82 782.12 475.12 787.12 C 461.82 797.12 448.26 807.58 433.79 815.80 C 422.65 822.95 411.65 830.32 400.59 837.60 C 385.58 847.09 371.30 857.70 356.45 867.45 C 352.00 870.31 348.02 873.46 343.06 875.46 C 337.07 869.48 331.05 863.44 326.72 856.28 C 316.51 841.10 307.15 825.91 299.98 809.01 C 296.90 801.60 293.25 795.30 292.75 787.09 C 297.85 787.35 302.89 787.88 308.00 787.74 C 310.26 787.76 312.68 787.49 314.90 787.97 C 318.33 789.08 321.42 791.01 324.92 792.00 C 331.36 793.90 338.43 793.86 345.04 793.04 C 350.87 792.33 355.57 789.37 361.06 787.75 C 365.13 788.45 368.79 790.66 373.05 790.84 C 383.87 791.73 395.04 785.90 403.19 779.21 C 406.32 776.75 408.96 773.32 412.42 771.36 C 415.74 770.77 419.53 772.40 422.96 772.40 C 435.60 773.04 447.72 766.12 455.10 756.10 C 456.63 754.33 458.25 751.50 460.50 750.67 C 464.99 750.05 469.37 750.46 473.74 748.80 C 484.94 745.00 492.88 735.72 499.04 726.03 C 501.70 722.03 503.41 716.04 507.90 713.93 C 512.17 711.62 516.28 709.20 519.76 705.76 C 525.68 699.93 530.92 693.23 534.94 685.94 C 537.22 681.94 538.13 677.70 541.09 674.07 Z" id="p20" />
<path d="M 557.25 678.99 C 561.25 680.61 564.32 684.74 566.98 688.01 C 574.66 698.09 577.97 712.88 583.23 723.81 C 584.80 727.44 588.52 731.34 587.51 735.42 C 586.88 740.19 585.67 744.94 584.62 749.64 C 578.70 778.55 566.00 805.94 551.47 831.45 C 544.19 844.27 535.77 856.15 526.90 867.90 C 520.37 876.63 513.38 884.96 505.50 892.50 C 503.61 894.24 501.71 895.99 499.07 896.40 C 495.55 894.04 493.37 889.57 490.69 886.32 C 486.27 880.80 482.17 874.82 477.12 869.88 C 469.41 862.49 461.34 855.93 451.60 851.38 C 444.13 847.88 434.33 846.69 426.89 850.90 C 418.66 855.22 410.83 860.27 402.60 864.60 C 391.55 870.75 380.26 875.93 370.92 884.67 C 378.26 882.20 385.40 879.18 392.74 876.74 C 405.34 872.50 416.92 866.78 428.72 860.73 C 430.91 859.66 433.51 858.45 435.99 858.72 C 439.67 859.17 443.16 860.80 446.31 862.69 C 454.03 867.35 461.14 873.10 467.46 879.53 C 473.00 885.12 478.36 890.71 482.67 897.33 C 485.87 902.34 490.51 906.31 495.48 909.49 C 497.36 910.47 499.52 912.04 501.61 910.69 C 506.50 907.84 510.93 903.93 515.12 900.13 C 528.44 886.42 538.91 871.53 550.18 856.19 C 559.17 843.15 567.37 829.60 574.38 815.38 C 580.07 804.57 584.87 793.35 588.93 781.83 C 592.68 771.31 596.35 760.94 599.19 750.27 C 600.01 747.12 600.95 744.01 602.15 740.98 C 609.01 742.27 614.51 745.40 621.00 748.01 C 639.76 755.85 658.65 763.30 677.09 771.91 C 692.02 778.44 706.12 786.38 719.85 795.14 C 731.72 802.97 742.78 812.10 753.04 821.95 C 759.82 828.17 766.46 834.53 772.79 841.22 C 778.98 847.71 782.51 855.42 787.81 863.19 C 796.00 876.68 803.13 890.98 808.09 905.98 C 810.55 912.25 813.37 918.30 815.14 924.82 C 816.96 931.77 819.65 938.05 820.67 945.16 C 822.53 957.72 825.19 970.11 827.42 982.61 C 830.67 999.85 832.28 1017.53 834.05 1034.99 C 834.51 1040.90 835.11 1046.76 836.00 1052.62 L 836.00 1142.25 C 767.70 1142.16 699.38 1142.42 631.08 1142.12 C 631.26 1113.65 633.20 1085.24 637.00 1057.02 C 639.61 1038.38 642.59 1020.00 647.87 1001.90 C 650.29 993.92 652.23 985.97 655.14 978.15 C 658.73 968.45 662.01 958.88 666.60 949.62 C 670.74 941.16 674.96 932.73 679.41 924.43 C 683.35 916.98 688.39 910.23 692.96 902.97 C 697.41 895.81 702.72 889.50 707.80 882.79 C 714.83 874.08 722.01 865.83 730.63 858.65 C 734.76 855.29 738.38 851.75 742.77 848.79 C 745.53 846.93 748.30 845.12 750.90 843.04 C 745.42 844.44 740.55 846.99 735.54 849.54 C 723.00 855.81 711.67 864.91 702.01 875.01 C 692.85 884.29 684.68 894.55 677.26 905.26 C 673.36 911.67 669.03 917.85 665.40 924.41 C 659.89 934.95 654.61 945.43 650.59 956.58 C 646.03 968.75 641.35 980.80 638.29 993.46 C 634.31 1006.70 631.07 1020.12 628.69 1033.75 C 625.91 1046.53 624.35 1059.65 622.58 1072.61 C 621.12 1083.39 619.63 1094.15 618.85 1105.01 C 617.64 1117.20 618.19 1129.41 616.39 1141.37 C 611.59 1141.62 606.80 1141.61 602.00 1141.56 C 570.33 1141.54 538.67 1141.55 507.00 1141.56 C 500.24 1141.59 493.56 1141.29 486.82 1141.94 C 481.88 1142.28 476.95 1142.31 472.00 1142.27 C 427.33 1142.22 382.67 1142.25 338.00 1142.24 C 320.58 1142.25 303.16 1142.36 285.75 1142.14 C 284.86 1127.53 286.52 1113.65 287.35 1099.04 C 289.51 1081.53 292.03 1064.04 294.28 1046.53 C 295.30 1038.01 296.83 1029.60 298.36 1021.17 C 299.98 1011.49 300.95 1001.77 303.17 992.18 C 306.71 977.22 308.80 962.17 313.41 947.45 C 317.24 935.43 320.62 921.95 327.07 911.07 C 332.06 902.99 336.55 895.14 343.76 888.75 C 349.36 883.29 355.97 880.49 362.60 876.60 C 370.40 872.18 377.79 867.18 385.28 862.27 C 397.36 854.73 409.13 846.72 421.23 839.22 C 434.36 831.55 446.50 822.38 459.49 814.48 C 468.47 808.31 478.04 802.38 486.05 795.06 C 494.40 787.58 502.92 780.82 510.35 772.37 C 519.72 761.69 528.87 750.38 536.16 738.17 C 543.87 724.74 550.41 711.12 553.90 695.96 C 555.41 690.36 555.70 684.56 557.25 678.99 Z M 340.53 917.75 C 332.43 919.89 328.12 928.79 329.32 936.68 C 329.95 939.86 331.40 942.99 333.62 945.38 C 337.92 950.02 346.15 949.94 350.66 945.66 C 355.39 941.46 357.31 934.26 356.70 928.13 C 356.35 923.68 353.19 919.58 349.03 918.04 C 346.35 917.17 343.26 917.10 340.53 917.75 Z M 314.33 1068.34 C 307.20 1070.32 303.12 1077.08 301.88 1084.00 C 300.85 1089.20 301.93 1095.29 306.42 1098.59 C 310.28 1101.17 315.40 1101.93 319.90 1100.96 C 324.43 1100.03 327.87 1095.54 329.46 1091.45 C 331.55 1085.54 331.18 1077.86 327.26 1072.75 C 324.21 1068.76 319.19 1067.09 314.33 1068.34 Z" id="p21" />
<path d="M 247.04 772.57 C 250.36 772.92 253.60 775.04 256.70 776.27 C 262.59 778.85 268.51 779.40 274.75 780.50 C 276.72 781.00 278.98 781.02 279.70 783.29 C 281.79 788.62 282.27 794.51 284.07 799.97 C 287.15 809.71 290.95 819.32 295.57 828.44 C 298.45 834.10 300.25 839.76 304.07 844.93 C 307.08 849.04 309.79 853.25 312.38 857.63 C 317.85 866.83 324.94 874.84 330.28 884.13 C 327.90 889.00 324.38 892.96 321.57 897.56 C 318.46 902.55 315.81 907.93 313.24 913.22 C 310.59 918.78 307.94 924.20 306.10 930.10 C 302.92 940.42 299.75 950.81 297.34 961.34 C 295.27 971.20 293.29 981.09 291.05 990.92 C 287.84 1004.78 286.41 1018.85 284.08 1033.02 C 281.88 1049.82 278.95 1066.53 277.28 1083.38 C 275.74 1096.83 274.00 1110.45 274.15 1124.00 C 274.07 1130.06 273.57 1136.09 273.74 1142.15 C 215.76 1142.29 157.77 1142.29 99.80 1142.14 C 99.22 1127.75 99.39 1113.39 99.64 1099.00 C 99.47 1089.62 100.46 1080.34 100.92 1070.98 C 101.97 1052.13 103.40 1033.30 104.77 1014.47 C 106.12 1003.22 107.44 991.88 109.58 980.80 C 111.44 971.38 112.64 961.92 114.66 952.53 C 116.44 944.08 117.94 935.61 118.59 927.00 C 119.07 920.62 120.34 914.41 120.60 908.01 C 117.57 913.47 115.71 919.38 113.12 925.12 C 109.49 934.14 106.08 943.38 103.75 952.83 C 97.21 977.40 93.24 1002.74 90.70 1028.02 C 87.93 1051.34 86.99 1074.57 86.05 1098.00 C 85.05 1112.76 84.51 1127.36 84.95 1142.15 C 58.51 1142.23 32.05 1142.34 5.60 1142.11 C 6.03 1135.71 7.29 1129.50 8.34 1123.19 C 10.61 1109.21 13.53 1095.37 16.57 1081.54 C 19.62 1066.22 23.79 1051.12 28.09 1036.11 C 33.11 1020.18 37.67 1004.17 43.48 988.50 C 47.39 976.33 52.15 964.48 56.44 952.44 C 59.76 943.33 64.11 934.75 67.78 925.77 C 74.91 910.12 81.96 894.75 91.14 880.14 C 94.85 874.59 98.83 869.18 102.87 863.88 C 112.67 851.70 123.27 839.24 135.72 829.71 C 145.26 822.06 155.72 815.33 166.41 809.39 C 180.08 801.17 195.00 794.68 209.80 788.77 C 215.31 786.60 219.83 783.72 225.99 783.79 C 224.77 791.46 222.29 798.89 220.73 806.50 C 219.04 814.36 216.61 822.11 215.40 830.04 C 213.58 842.98 210.23 854.41 211.54 867.76 C 211.59 869.53 213.37 869.57 214.67 870.04 C 218.10 870.73 222.15 871.75 225.55 870.59 C 232.10 868.59 239.11 865.85 244.40 861.39 C 251.53 855.33 257.33 844.83 265.56 839.45 C 268.06 837.51 270.63 839.93 272.77 841.24 C 283.93 849.83 293.29 861.31 302.57 871.44 C 306.45 875.17 310.15 880.01 315.02 882.24 C 313.70 877.14 311.28 872.76 308.84 868.15 C 303.62 858.26 296.62 849.15 288.97 841.02 C 284.50 836.29 279.93 831.93 274.13 828.85 C 271.59 827.58 268.13 825.57 265.24 826.02 C 256.17 832.65 247.33 837.29 240.52 845.50 C 235.99 850.59 231.24 857.40 224.87 860.18 C 224.37 856.49 224.61 853.04 225.39 849.41 C 228.41 834.48 231.08 819.65 234.67 804.83 C 236.91 795.96 240.13 787.39 242.57 778.56 C 243.34 776.51 244.27 772.48 247.04 772.57 Z" id="p22" />
<path d="M 750.90 843.04 C 748.30 845.12 745.53 846.93 742.77 848.79 C 738.38 851.75 734.76 855.29 730.63 858.65 C 722.01 865.83 714.83 874.08 707.80 882.79 C 702.72 889.50 697.41 895.81 692.96 902.97 C 688.39 910.23 683.35 916.98 679.41 924.43 C 674.96 932.73 670.74 941.16 666.60 949.62 C 662.01 958.88 658.73 968.45 655.14 978.15 C 652.23 985.97 650.29 993.92 647.87 1001.90 C 642.59 1020.00 639.61 1038.38 637.00 1057.02 C 633.20 1085.24 631.26 1113.65 631.08 1142.12 C 623.37 1142.31 615.70 1141.63 608.00 1141.80 C 573.67 1141.80 539.33 1141.81 505.00 1141.82 C 498.94 1141.78 492.88 1141.72 486.82 1141.94 C 493.56 1141.29 500.24 1141.59 507.00 1141.56 C 538.67 1141.55 570.33 1141.54 602.00 1141.56 C 606.80 1141.61 611.59 1141.62 616.39 1141.37 C 618.19 1129.41 617.64 1117.20 618.85 1105.01 C 619.63 1094.15 621.12 1083.39 622.58 1072.61 C 624.35 1059.65 625.91 1046.53 628.69 1033.75 C 631.07 1020.12 634.31 1006.70 638.29 993.46 C 641.35 980.80 646.03 968.75 650.59 956.58 C 654.61 945.43 659.89 934.95 665.40 924.41 C 669.03 917.85 673.36 911.67 677.26 905.26 C 684.68 894.55 692.85 884.29 702.01 875.01 C 711.67 864.91 723.00 855.81 735.54 849.54 C 740.55 846.99 745.42 844.44 750.90 843.04 Z" id="p23" />
<path d="M 120.60 908.01 C 120.34 914.41 119.07 920.62 118.59 927.00 C 117.94 935.61 116.44 944.08 114.66 952.53 C 112.64 961.92 111.44 971.38 109.58 980.80 C 107.44 991.88 106.12 1003.22 104.77 1014.47 C 103.40 1033.30 101.97 1052.13 100.92 1070.98 C 100.46 1080.34 99.47 1089.62 99.64 1099.00 C 99.39 1113.39 99.22 1127.75 99.80 1142.14 C 94.85 1142.08 89.90 1142.08 84.95 1142.15 C 84.51 1127.36 85.05 1112.76 86.05 1098.00 C 86.99 1074.57 87.93 1051.34 90.70 1028.02 C 93.24 1002.74 97.21 977.40 103.75 952.83 C 106.08 943.38 109.49 934.14 113.12 925.12 C 115.71 919.38 117.57 913.47 120.60 908.01 Z" id="p24" />
<path d="M 340.53 917.75 C 343.26 917.10 346.35 917.17 349.03 918.04 C 353.19 919.58 356.35 923.68 356.70 928.13 C 357.31 934.26 355.39 941.46 350.66 945.66 C 346.15 949.94 337.92 950.02 333.62 945.38 C 331.40 942.99 329.95 939.86 329.32 936.68 C 328.12 928.79 332.43 919.89 340.53 917.75 Z M 341.54 923.43 C 337.80 925.74 336.71 931.12 336.02 935.14 C 335.55 937.69 335.94 940.34 338.41 941.69 C 340.23 942.08 341.73 941.22 343.09 940.10 C 346.95 936.89 348.57 931.17 347.70 926.33 C 347.09 923.43 344.23 921.49 341.54 923.43 Z" id="p25" />
<path d="M 341.54 923.43 C 344.23 921.49 347.09 923.43 347.70 926.33 C 348.57 931.17 346.95 936.89 343.09 940.10 C 341.73 941.22 340.23 942.08 338.41 941.69 C 335.94 940.34 335.55 937.69 336.02 935.14 C 336.71 931.12 337.80 925.74 341.54 923.43 Z" id="p26" />
<path d="M 314.33 1068.34 C 319.19 1067.09 324.21 1068.76 327.26 1072.75 C 331.18 1077.86 331.55 1085.54 329.46 1091.45 C 327.87 1095.54 324.43 1100.03 319.90 1100.96 C 315.40 1101.93 310.28 1101.17 306.42 1098.59 C 301.93 1095.29 300.85 1089.20 301.88 1084.00 C 303.12 1077.08 307.20 1070.32 314.33 1068.34 Z M 313.37 1076.26 C 310.36 1077.97 308.94 1082.15 308.35 1085.36 C 307.84 1088.48 307.23 1091.85 309.56 1094.43 C 311.39 1096.55 314.67 1096.36 316.76 1094.75 C 321.91 1090.88 323.24 1082.75 319.66 1077.42 C 318.64 1075.30 315.20 1075.55 313.37 1076.26 Z" id="p27" />
<path d="M 313.37 1076.26 C 315.20 1075.55 318.64 1075.30 319.66 1077.42 C 323.24 1082.75 321.91 1090.88 316.76 1094.75 C 314.67 1096.36 311.39 1096.55 309.56 1094.43 C 307.23 1091.85 307.84 1088.48 308.35 1085.36 C 308.94 1082.15 310.36 1077.97 313.37 1076.26 Z" id="p28" />
<path d="M 0.00 1142.17 C 1.87 1142.09 3.73 1142.08 5.60 1142.11 C 32.05 1142.34 58.51 1142.23 84.95 1142.15 C 89.90 1142.08 94.85 1142.08 99.80 1142.14 C 157.77 1142.29 215.76 1142.29 273.74 1142.15 C 277.74 1142.09 281.74 1142.07 285.75 1142.14 C 303.16 1142.36 320.58 1142.25 338.00 1142.24 C 382.67 1142.25 427.33 1142.22 472.00 1142.27 C 476.95 1142.31 481.88 1142.28 486.82 1141.94 C 492.88 1141.72 498.94 1141.78 505.00 1141.82 C 539.33 1141.81 573.67 1141.80 608.00 1141.80 C 615.70 1141.63 623.37 1142.31 631.08 1142.12 C 699.38 1142.42 767.70 1142.16 836.00 1142.25 L 836.00 1254.00 L 0.00 1254.00 L 0.00 1142.17 Z" id="p29" />
</defs>
<g>
<use fill="#f0d49b" xlink:href="#p0" />
<use fill="#080c02" xlink:href="#p1" />
<use fill="#5e2e10" xlink:href="#p2" />
<use fill="#f4c07b" xlink:href="#p3" />
<use fill="#5e2e10" xlink:href="#p4" />
<use fill="#080c02" xlink:href="#p5" />
<use fill="#080c02" xlink:href="#p6" />
<use fill="#080c02" xlink:href="#p7" />
<use fill="#f4c07b" xlink:href="#p8" />
<use fill="#f4c07b" xlink:href="#p9" />
<use fill="#080c02" xlink:href="#p10" />
<use fill="#080c02" xlink:href="#p11" />
<use fill="#f4c07b" xlink:href="#p12" />
<use fill="#5e2e10" xlink:href="#p13" />
<use fill="#f4c07b" xlink:href="#p14" />
<use fill="#f4c07b" xlink:href="#p15" />
<use fill="#080c02" xlink:href="#p16" />
<use fill="#080c02" xlink:href="#p17" />
<use fill="#f5edd8" xlink:href="#p18" />
<use fill="#f4c07b" xlink:href="#p19" />
<use fill="#f4c07b" xlink:href="#p20" />
<use fill="#5090b4" xlink:href="#p21" />
<use fill="#5090b4" xlink:href="#p22" />
<use fill="#080c02" xlink:href="#p23" />
<use fill="#080c02" xlink:href="#p24" />
<use fill="#080c02" xlink:href="#p25" />
<use fill="#5090b4" xlink:href="#p26" />
<use fill="#080c02" xlink:href="#p27" />
<use fill="#5090b4" xlink:href="#p28" />
<use fill="#f0d49b" xlink:href="#p29" />
</g>
</svg>
