<svg xmlns="http://www.w3.org/2000/svg" xmlns:xlink="http://www.w3.org/1999/xlink" width="836pt" height="1672" viewBox="0 0 836 1254"><defs><path id="a" d="M0 0h836v1254H0V0Zm192.6 652.04c.49 10.99 2.83 23.42 6.63 33.78 6.79 15.66 17.53 29.51 31.42 39.51 2.53 1.83 5.81 2.77 8.11 4.85 1.39 1.57-.25 2.52-1.61 3.06-11.98 4.69-23.77 9.84-35.28 15.6-29.98 15.03-56.92 35.81-79.03 61.03a283.462 283.462 0 0 0-37.35 53.64c-11.45 20.66-19.29 42.18-26.45 64.61-3.74 11.18-6.64 22.56-9.9 33.88-9.19 34.21-18.39 68.3-25.59 103-1.31 6.28-3.12 12.53-2.22 19.01.43 2.4 1.8 4.24 3.47 5.95.43 6.17-2.34 12.03-1.74 18.05.4 3.48 2.26 6.5 5.91 7.18 2.65-.1 5.36-1.71 7.56-3.11 6.26 5.48 14.59 8.89 22.63 10.73 5.55 1.49 11.15 3.16 16.82 4.1 8.53 1.47 17.36 3.25 26.02 3.33 7.34.43 14.63.24 22 .17 3.6-.16 6.88.08 10.29-1.29 2.07 1.11 4.37 2.84 6.82 2.33 1.12-.65 2.17-1.41 3.31-2.04 2.11-.14 4.32.85 6.4 1.21 19.47 3.91 39.07 7.77 58.76 10.36 6.12.77 12.21 1.65 18.3 2.65 19.18 2.43 38.42 4.86 57.69 6.43 2.42.2 4.83.38 7.25.55l2.97.33c7.7.66 15.39 1.34 23.09 1.87 1.25.1 2.5.18 3.75.25 4.13.43 8.27.44 12.4.76 1.2.12 2.4.25 3.6.3 5.26.28 10.52.2 15.78.48 5.46.73 11.17.49 16.71.65 33.18 1.55 65.77.47 98.88-.33 6.72-.65 13.54-.28 20.22-1.21 4.05-.24 8.1-.33 12.15-.62 21.61-1.07 43.22-3.09 64.73-5.43 4.59-.56 9.21-.88 13.75-1.71 5.81-.31 11.53-1.15 17.26-2.12 3.27-.59 6.51-1.08 9.82-1.44 1.77.99 3.65 2.28 5.65 2.76 3.14.05 6.43-1.67 8.08-4.38 4.11.64 8.16 1.34 12.34 1.33 5.77-.12 11.37.48 17.1-.5 30.15 2.44 60.44-.46 89.76-7.8 3.11-.3 6.13.13 9.27-.41 9.88-2.22 19.69-4.77 29.37-7.77 3.97-1.26 7.98-2.04 11.75-3.87 3.45 1.87 7.32 2.48 10.81.33 2.67-1.38 3.49-3.86 4.24-6.57 3.29-15.74 5.08-31.51 6.31-47.52 1.18-11.96 1.84-23.98 2.18-35.99 1.36-26.95.2-54.09-2.8-80.9-2.07-21.62-7.26-42.21-13.58-62.94-10.34-32.11-25.7-62.11-47.83-87.72-17.47-20.65-39.2-37.93-62.42-51.7-15.12-9.14-30.94-16.64-47.07-23.8-10.15-4.36-21.31-8.16-30.91-12.09-1.34-7.79-4.38-14.92-8.25-21.79-5.05-9.39-10.26-18.91-16.17-27.8-5.46-8.29-11.95-16.08-21.9-18.87-3.92-1.45-7.91-.81-11.89-1.52l-.31-.66c1.79-20.65 5.19-41.42 11.49-61.2 1.46-4.69 3.53-9.05 5.56-13.51 13.26 1.48 25.18-3.56 35.98-10.77 13-8.93 23.85-21.52 32.48-34.63 5.24-7.71 9.14-16.57 12.42-25.27 5.82-17.14 9.12-34.71 6.88-52.84-1.8-15-9.95-29.66-23.58-36.87-1.34-.6-.83-2.83-.8-4 1.23-13.01 2.67-26.07 3.33-39.12.33-36.23-6.82-72.18-22.79-104.8-6.65-13.8-15.21-26.92-25.59-38.22-27.28-29.15-64.85-49.16-103.19-59.4-30.14-8.38-61.91-10.29-92.85-5.77-15.26 1.83-30.38 5.29-44.84 10.54-19.5 6.51-37.19 16.21-54.28 27.52-20.26 13.56-37.18 30.79-52 50.06-10.51 14.64-20.04 30.36-26.9 47.06-5.72 14.55-10.85 29.23-14.26 44.51-4.79 22.57-8.17 45.5-9.81 68.5-.56 9.28-.74 19.21-2.49 28.52-1.54 8.21-3.6 16.28-5.3 24.47-2.07 12.07-2.29 24.21.61 36.17.44 2.09.4 4.25-.05 6.33-3.06 12.64-4.91 25.48-4.57 38.51-.39 14.72 2.47 28.55 3.86 43.11 1.46 6.96 1.01 13.84 1.03 20.89-.1 10.02-.49 20.02-.9 30.03-.41 4.97-.72 10-.72 15-.36 2.95 3.14 5.12 5.41 6.25 2.46 1.44 4.5-.35 6.81-1.24Z"/><path id="b" d="M483.85 161.58c38.34 10.24 75.91 30.25 103.19 59.4 10.38 11.3 18.94 24.42 25.59 38.22 15.97 32.62 23.12 68.57 22.79 104.8-.66 13.05-2.1 26.11-3.33 39.12-.03 1.17-.54 3.4.8 4 13.63 7.21 21.78 21.87 23.58 36.87 2.24 18.13-1.06 35.7-6.88 52.84-3.28 8.7-7.18 17.56-12.42 25.27-8.63 13.11-19.48 25.7-32.48 34.63-10.8 7.21-22.72 12.25-35.98 10.77-2.03 4.46-4.1 8.82-5.56 13.51-6.3 19.78-9.7 40.55-11.49 61.2l.31.66c3.98.71 7.97.07 11.89 1.52 9.95 2.79 16.44 10.58 21.9 18.87 5.91 8.89 11.12 18.41 16.17 27.8 3.87 6.87 6.91 14 8.25 21.79 9.6 3.93 20.76 7.73 30.91 12.09 16.13 7.16 31.95 14.66 47.07 23.8 23.22 13.77 44.95 31.05 62.42 51.7 22.13 25.61 37.49 55.61 47.83 87.72 6.32 20.73 11.51 41.32 13.58 62.94 3 26.81 4.16 53.95 2.8 80.9-.34 12.01-1 24.03-2.18 35.99-1.23 16.01-3.02 31.78-6.31 47.52-.75 2.71-1.57 5.19-4.24 6.57-3.49 2.15-7.36 1.54-10.81-.33-1.8-1.53-2.32-3.38-2.94-5.58-15.08 7.89-31.1 13.12-47.45 17.63-29.32 7.34-59.61 10.24-89.76 7.8-5.88-.32-11.8-1.43-17.63-2.29-3.54-.85-7.03-2.07-10.61-2.77l-.7-.03c.22 1.54.05 2.95-.5 4.26-1.65 2.71-4.94 4.43-8.08 4.38-2-.48-3.88-1.77-5.65-2.76-3.31.36-6.55.85-9.82 1.44-.83-.38-1.58-.89-2.28-1.56 3.69-.54 7.39-.89 11.06-1.54-1.55-9.76-1.26-19.05-1.31-28.73.12-3.38-1.18-6.61-.45-9.83.4-1.97-.21-4.13-.29-6.17-.38-12.73.15-25.35-1.04-38-.18-7.66-.19-15.34-.23-23 .19-7.68-1.15-15.33-.93-23 .22-15.33.03-30.67.17-46 .29-5.07.22-11.04 2.59-15.63.91-1.67 2.43-2.93 4.42-2.18 1.89 2.29 2.2 6.06 2.84 8.89 3.09 13.89 2.77 28.53 4.53 42.79.31 8.38.82 16.76 1.42 25.13.55 10.68.82 21.33 1.85 31.98.15 9.37.15 18.7.71 28.06 5.09 1.61 10.49 2.02 15.83 2.99 16.82 2.6 34.02 3.58 51 2.45 9.99.1 20.18-1.55 29.99-3.41 6.39-1.1 12.81-2.24 19.09-3.85 20.36-5.56 39.79-13.22 57.73-24.44 1.09-.72 1.79-1.47 1.92-2.83.99-6.66.9-13.25 1.26-19.95.85-19.37.31-38.65-.28-58.01-1.17-14.4-1.95-29.47-4.72-43.99-6.01-34.94-17.18-68.4-36.62-98.25-5.65-9.88-12.92-18.25-20.18-26.93-16.1-18.19-34.86-33.92-55.82-46.23-18.7-11.56-38.49-20.73-58.68-29.31-4.41-1.8-8.79-4.25-13.45-5.27-1.23 9.66-3.82 19.31-6.68 28.59-2.5 9.07-5.67 17.77-9.81 26.22-4.98 12.45-11.92 23.64-18.87 35.05-7.03 10.74-14.01 21.9-22.32 31.7-5.78 7.25-11.23 14.74-19.23 19.74-2.59 1.55-5.7 3.21-8.78 2.2-5.99-1.81-11.49-5.94-16.58-9.5-8.93-6.89-18.73-12.26-28.83-17.22-5.57-2.29-11.01-4.44-17.14-4.13-3.66.24-8.04-1.28-11.49-.12-5.09 6.95-12.24 11.38-19.96 14.91-5.9 2.15-14.31 5.13-16.31 11.8-5.9 13.98-11.12 28.28-16.6 42.43-4.32 12.5-7.33 25.54-10.38 38.4-4.37 21.29-6.81 42.31-8.52 63.94-.16 2.39-1.05 5.19-3.2 6.51-3.25 2.01-6.79 2.42-10.54 2.48-8.33.13-16.67-.23-25.01-.28-8.67-.8-16.19.18-24.13-2.52-3.78-1.81-6.73-5.89-6.34-10.22.43-7.69 1.5-15.32 1.98-23.01 3.4-24.71 7.48-49.29 12.91-73.65 3.14-14.52 7.88-28.71 13.27-42.55 2.19-5.87 6.27-9.85 10.31-14.41-6.26-1.5-11.45-7.24-15.03-12.32-5.37-8.78-10.63-17.69-14.99-27.01-6.99-13.37-12.86-27.51-16.68-42.13-.85-3.01-1.3-6.57-2.96-9.25-4.81-1.95-9.9-3.07-14.58-5.43-5.38-2.7-11.01-4.77-16.1-7.88-2.51-1.49-4.78-3.08-7.71-3.66-2.85 9.59-4.63 19.58-6.87 29.31-1.12 5.06-2.76 9.97-3.81 15.04-2.33 11.38-5.55 22.49-7.45 33.95-.32 1.63-.11 3.14.23 4.74 13.78-6.08 28.14-13.65 43-17.57 6.87-1.82 14.68-1.93 20.95 1.84 5.48 3.73 8.36 8.83 11.66 14.36 5.2 7.28 8.48 15.98 11.16 24.46-3.51-2.35-6.8-5-10.31-7.36-6.71-5.49-11.61-14.32-19.11-18.85-3.78-2.44-8.24-1.59-12.29-.39-8.65 2.78-16.58 6.54-24.79 10.16-9.55 3.82-17.58 9.29-27.36 12.47-3.64 1.31-8.06-.53-9.81-3.93-.54-3.18.34-6.8.94-9.94 2.3-14.11 5.39-28.12 8.66-42.03 1.32-5.7 3.26-11.2 4.35-16.95 2.16-10.16 5.68-20.04 8.01-30.14-27.99 10.64-54.59 25.76-78.55 43.7-7.58 6.42-15.14 12.84-22.3 19.72-8.21 8.73-16.62 17.55-23.66 27.27-14.4 18.24-25.94 39.34-35.74 60.35-5.8 12.42-10.23 25.28-14.71 38.21-10.3 31.74-16.98 65.5-23.74 98.21-1.43 7.11-2.41 14.31-4.03 21.39 3.7 3.15 8.17 6.13 12.36 8.61 9.34 4.16 19.03 7.87 29.04 10.1 14.53 3.88 30.32 4.47 45.29 4.41.83-3.92-.13-7.78.1-11.83-.22-19 .55-38.01 1.06-57 .73-8.41.84-16.84 1.21-25.27 1.76-20.19 3.37-40.67 6.99-60.63 1.27-8.78 3.12-17.58 5.33-26.18 1.52-4.88 3.23-9.9 5.91-14.28 1.62-2.62 3.9-4.62 7.14-4.61.18 12.64-2.7 25.35-3.78 37.97-1.53 8.62-1.94 17.3-2.88 25.99-4.24 40.62-5.86 81.18-4.54 122.01 0 19.34 1.29 38.57 1.99 57.88-.01 2.1-.3 4.18-.86 6.2 1.64.81 3.25 1.11 5.05 1.35l-.96 1.19c-2.08-.36-4.29-1.35-6.4-1.21-1.14.63-2.19 1.39-3.31 2.04-2.45.51-4.75-1.22-6.82-2.33-1.53-1.93-2.36-4.07-3-6.42-5.64.99-11.61.66-17.3.28-21.05-1.13-42.44-5.78-61.57-14.78-3.81-1.89-7.6-3.86-11.33-5.91-.84-.54-1.66-1.04-2.65-1.27-.57 3.53-.17 7.88-1.91 11.06-2.2 1.4-4.91 3.01-7.56 3.11-3.65-.68-5.51-3.7-5.91-7.18-.6-6.02 2.17-11.88 1.74-18.05-1.67-1.71-3.04-3.55-3.47-5.95-.9-6.48.91-12.73 2.22-19.01 7.2-34.7 16.4-68.79 25.59-103 3.26-11.32 6.16-22.7 9.9-33.88 7.16-22.43 15-43.95 26.45-64.61a283.462 283.462 0 0 1 37.35-53.64c22.11-25.22 49.05-46 79.03-61.03 11.51-5.76 23.3-10.91 35.28-15.6 1.36-.54 3-1.49 1.61-3.06-2.3-2.08-5.58-3.02-8.11-4.85-13.89-10-24.63-23.85-31.42-39.51-3.8-10.36-6.14-22.79-6.63-33.78-2.31.89-4.35 2.68-6.81 1.24-2.27-1.13-5.77-3.3-5.41-6.25 0-5 .31-10.03.72-15 .41-10.01.8-20.01.9-30.03-.02-7.05.43-13.93-1.03-20.89-1.39-14.56-4.25-28.39-3.86-43.11-.34-13.03 1.51-25.87 4.57-38.51.45-2.08.49-4.24.05-6.33-2.9-11.96-2.68-24.1-.61-36.17 1.7-8.19 3.76-16.26 5.3-24.47 1.75-9.31 1.93-19.24 2.49-28.52 1.64-23 5.02-45.93 9.81-68.5 3.41-15.28 8.54-29.96 14.26-44.51 6.86-16.7 16.39-32.42 26.9-47.06 14.82-19.27 31.74-36.5 52-50.06 17.09-11.31 34.78-21.01 54.28-27.52 14.46-5.25 29.58-8.71 44.84-10.54 30.94-4.52 62.71-2.61 92.85 5.77ZM206.74 524.77c.32-1.84.89-3.58 1.93-5.15 8.31-11.06 19.77-19.47 33.31-22.81 4.69-.87 9.27-1.46 14.02-.59 6.84.21 14.01.59 20.74-.84-3.97-6.6-6.77-13.54-6.6-21.38-.23-6.12 3.08-11.59 6.4-16.47 7.22-10.33 16.29-19.12 22.44-30.53 4.64-8.74 8.1-18.51 11.33-27.84 1.53-3.97 3.18-8.58 6.05-11.8 1.75-1.47 2.82 1.95 3.3 3.11 1.75 6.9.51 14.8-.91 21.7-1.61 8.94-5.59 17.72-9.78 25.74-4.89 9.47-12.75 17.97-18.34 26.7-2.03 3.48-4.54 7.17-3.98 11.4 1.1 7.28 5.75 13.51 11.87 17.46 5.76 3.99 12.75 6.52 19.66 4.02 7.82-2.26 15.79-8.32 23.83-8.07 4.32.1 7.25 3.61 6.54 7.87 5.82 2.64 13.15 2.61 19.45 2.94 8.66-.25 17.33-1.01 26-1.32 16.7.39 35.38 3.05 49.57 12.51 12.42 8.62 18.31 21.45 22.67 35.45 1.24 3.7 1.75 7.45 3.42 10.96 20.61-10.17 38.06-27.44 50.65-46.5 9.12-13.5 15.28-27.99 20.87-43.21 3.27-8.4 5.93-16.89 9.75-25.08.47-.99 1.14-1.86 2-2.61 4.99 5.02 4.38 13.06 4.32 19.57-.63 10.98-.45 21.24-2.21 32-1.4 11.35-3.38 22.63-4.53 33.99-.76 7.49.16 15.49 4.98 21.53 5.39 5.09 13.27 7.21 20.53 5.74 12.93-2.87 23.56-10.2 32.76-19.47 22.19-22.18 35.38-54.31 32.71-85.81-.68-8.67-4.08-17.83-11.11-23.33-6.42-4.2-13.94-4.74-21.4-4.27-3.4.29-6.35 1.75-9.39 3.19-7.37 3.58-14.25 8.28-20.75 13.26-2.8 2.06-5.43 5.06-8.69 6.28-.13-2.48.13-4.64.95-6.98 3.16-10.2 9.56-19.66 18.73-25.35 8.01-5.08 17.28-7.36 26.72-7.58 1.22-8.37 1.7-16.78 2.49-25.2 1.55-19.94-.03-39.48-3.17-59.18-3.49-19.42-10.01-38.12-18.88-55.73-8.33-16.17-19.66-30.74-33.19-42.89-13.82-12.48-29.87-22.37-46.6-30.44-13.81-6.49-28.3-11.5-43.2-14.81-9.69-2.15-19.83-4.29-29.72-4.88-11.77-1.42-23.84-1.23-35.71-.99-16.65.53-32.96 3.37-49.07 7.55-31.58 8.29-61.14 24.58-84.9 46.98-22.6 22.33-39.59 49.55-50.73 79.25-7.46 19.44-12.31 39.56-16.02 60.01-3.22 14.65-3.14 29.26-4.18 44.13-.26 5.46-.12 10.99-.66 16.43-1.39 11.09-4.36 21.37-7.46 32.05-3.36 11.49-2.16 23.46.17 35.01 1.59 9.19 4.39 18.05 7.84 26.7 1.04 2.72 2.87 4.6 3.18 7.58Zm252.57 48.03c-1.02-4.28-1.15-8.66-2.01-12.97-1.99-11.09-5.34-21.7-12.56-30.56-5.66-7.35-13.81-12.1-22.75-14.31-15.53-4.78-33.86-2.88-49.99-2.87-8.93-.24-17.28.21-26-2.14-3.47-1.04-6.35-3.12-8.88-5.66-6.78 2.04-13.67 4.68-20.62 6.05-8.93 1.54-17.7-1.01-25.4-5.5-1.92-1.63-3.4 1.37-5.22 1.92-5.16 1.79-11.46 1.28-16.88 1.4-10.5.26-20.04-1.14-30.16 2.64-12.85 4.54-21.85 15.95-26.8 28.26-2.08 4.82-2.46 9.96-4.08 14.88-.11.82-.68 1.12-1.72.91-1.05-2.76-1.68-5.67-2.65-8.46-2.61-7.83-7.02-14.42-11.06-22.01l-1.03.04c-1.12 7.74-1.05 15.78-.68 23.59 1.46 11.41 5.21 22.32 5.71 33.99 1.66 17.29.51 34.05-.45 51.3 1.41.4 2.73-.56 3.72-1.46 2.8-2.79 4.58-6.08 6.8-9.26 1.37-1.88 3.38-.45 3.73 1.36.42 5.24-.83 10.78-1.03 16.06-.76 13.9.27 29.04 5.7 42 2.06 4.95 5.01 9.45 8.6 13.41.98 1.15 1.65 1.35 3.12 1.48 1.62-6.73 2.76-13.8 3.81-20.66l1.1.34c1.5 4.46 1.42 9.3 2.9 13.81 1.73 5.36 3.36 11.1 6.15 15.96 6.17 11.04 14.97 20.45 25.46 27.5.87.48 1.78.88 2.74 1.2.66-3.24-.71-6.71-.85-10.04-.26-4.35-1.08-8.95-.36-13.27 1.4.65 1.9 1.79 2.56 3.06 5.71 10.8 10.22 21.14 19.29 29.71 3.87 3.64 8.92 7.26 14.48 7.03 5.56.08 9.32-2.94 13.75-5.78 5.09-3.62 10.05-7.08 14.2-11.82 1.72-1.82 2.72-3.77 4.87-4.96-1.3 5.68-3.53 11.38-6.36 16.48-.41.82-.7 1.7-.85 2.64 12.07.63 24.04-3.51 33.31-11.2 8.37-6.44 14.58-15.5 18.81-25.08.55-1.2 1.02-2.25 2.18-2.98-.25 9.8-1.19 19.26.56 29.03 4.85-2.2 9.17-5.78 13.27-9.14 16.21-13.24 28.15-30.45 36.45-49.56.96-2.37 1.58-4.83 2.18-7.32 1.69.72 1.45 2.61 1.85 4.15 1.12 5.75-.32 11.24-1.12 17.03-.67 5.02-2.64 9.56-2.84 14.66 8.13-5.02 15.55-11.34 22.27-18.12 11.65-11.02 21.6-24.47 27.65-39.38.59-1.25.98-2.42 2.26-3.12 1.36 5.5 2.03 11.13 3.23 16.66 1.37.26 2.11-1.25 2.98-2.07a207.06 207.06 0 0 0 32.05-56.9c6.19-17.35 9.28-35.43 10.75-53.75.26-7.02.14-14 1-21 .3-9.21 3.08-18.07 3.72-27.2-1.8.89-2.48 3.21-3.52 4.87-11.84 20.72-28.27 39.49-48.15 52.82-5.89 3.58-11.88 7.73-18.33 9.93-3.6 1.27-6.99 2.53-10.86 2.38Zm80.22 39.88-.09.22c-10.09 24.78-23.79 47.96-41.45 68.11-4.25 4.77-8.8 9.9-14.12 13.7-3 .84-4.26-1.02-5.97-3.03-2.4 1.3-4.18 3.22-6.06 5.15-9.66 10.06-20.36 19.21-31.88 27.09-4.81 3.39-9.26 6.59-15.04 8.18-1.95.35-4.03-.5-6.02-.47-2.22.99-4.06 2.76-5.94 4.3-8.57 7.14-17.77 15.21-27.75 20.31-2.83 1.55-6.98 2.31-9.72.19-2.1-1.37-2.34-3.97-3.26-6.12-3.86 2.11-7.65 4.34-11.55 6.37-12.06 5.94-26.34 8.8-39.69 6.63-3.41-.45-4.84.09-7.53 2.05 1.84 10.09 5.84 20.05 9.78 29.49 5.42 12.38 11.73 24.44 19.09 35.79 3.68 5.29 7.69 10.75 12.58 14.98 10.22-8.05 20.85-15.54 30.89-23.84 6.71-4.74 14.15-8.33 20.83-13.15 16.91-9.66 33.7-19.56 50.29-29.76 18.12-11.02 34.91-24 49.47-39.46 6.62-7.32 13.31-14.83 19.41-22.59 5.39-7.81 11.1-15.13 15.41-23.63.96-2.06 3.35-4.65 2.28-6.99-6.9-20.38-7.25-40.98-5.52-62.22.03-3.74.78-7.31 1.51-10.96l.05-.34Zm28.76 51.22c-1.04 6.35-2.93 12.56-4.76 18.71-3.97 9.63-8.37 19.18-13.9 28.03-5.24 8-11.24 15.34-16.98 22.99-14.98 17.2-31.15 32.97-49.62 46.43-9.9 6.56-19.54 13.31-30 18.99-11.37 6.8-23.4 12.4-34.76 19.19-8.82 6.48-17.08 13.71-26.05 20-13.05 10.87-26.99 17.45-38.65 30.3-7.06 7.82-10.98 18.83-14.33 28.65-2.61 6.58-3.81 13.42-5.81 20.19-3.94 15.54-6.67 31-9.04 46.83-1.64 7.95-2.46 15.98-2.92 24.07-.39 6.66-2.12 13.77-1.24 20.38 10.67 2.16 21.91 2.31 32.77 2.29 5.46.08 10.47.65 15.82.01-.09-5.71.15-11.33.84-17.01 2.32-24.88 6.34-49.91 13.26-73.95 4.1-15.85 9.58-31.39 15.45-46.66 1.05-2.9 2.49-5.28 2.71-8.23-10.5.22-20.86.6-30.97 3.68 3.99-4.2 9.88-7.06 14.94-9.77 4.84-2.67 10.05-4.49 14.98-6.98 6.38-3.13 13.5-3.93 19.64-7.39 2.99-1.61 6.02-3.15 9.03-4.71-2.28-3.26-2.46-6.91.4-9.88 3.19-4.29 7.47-4.19 12.14-5.71 3.5-1.17 7.1-1.44 10.76-1.35 16.44.88 30.63 7.28 44.69 15.33 6.14 3.86 12.42 7.45 18.41 11.55 2.86 1.78 5.75 3.94 8.95 5.06 1.59.19 3.16-1.64 4.28-2.6 15.75-15.76 28.98-34.52 40.42-53.59 8.05-12.81 14.06-26.59 19.09-40.83 2.92-8.49 4.91-17.47 6.72-26.26.61-3.62 1.33-7.02.58-10.65-1.22-6.89-2.73-13.86-6-20.11-4.97-10.81-10.85-20.92-16.94-31.12-1.22-2.06-2.17-4.17-3.91-5.88Zm-438.34 443.13c.26-5.22.22-10.43-.26-15.63-9.47-.03-19.29.15-28.62-1.66-12.01-1.84-23.84-5.07-35.09-9.66-7.14-2.59-14.09-5.67-20.77-9.29-1.28-.67-2.47-1.33-3.9-1.62-1.55 4.26-.83 9.36-1.17 13.85-.23 2.07 1.39 2.18 2.75 3.15 12.4 7.22 26.31 12.13 40.11 15.89 9.46 2.7 19.17 4.47 29 5.03 5.74.33 12.37 1.56 17.95-.06Zm492.3-5.97c.54 5.85.33 11.74 1.11 17.57 9.23 2.18 18.1 4.75 27.64 5.32 13.26 1.32 26.71 1.4 40 .44 14.46-.37 28.98-3.1 43.03-6.29 14.97-3.8 29.54-8.79 43.42-15.63 4.55-2.09 8.81-4.72 13.4-6.74 2.29-.88 2.02-3.76 2.4-5.74.49-5.34 1.6-10.6 1.62-15.93-12.46 7.06-25.24 13.44-38.73 18.33-10.35 4.16-21.34 6.8-32.16 9.4-18.76 3.56-38.56 6.17-57.65 4.78-14.97-.22-29.41-2.9-44.08-5.51Z"/><path id="c" d="M408.57 169.08c4.16 1.46 9.06.51 13.43.81 7.58-.34 15.1 1.7 22.28.18 9.89.59 20.03 2.73 29.72 4.88 14.9 3.31 29.39 8.32 43.2 14.81 16.73 8.07 32.78 17.96 46.6 30.44 13.53 12.15 24.86 26.72 33.19 42.89 8.87 17.61 15.39 36.31 18.88 55.73 3.14 19.7 4.72 39.24 3.17 59.18-.79 8.42-1.27 16.83-2.49 25.2-9.44.22-18.71 2.5-26.72 7.58-9.17 5.69-15.57 15.15-18.73 25.35-.82 2.34-1.08 4.5-.95 6.98 3.26-1.22 5.89-4.22 8.69-6.28 6.5-4.98 13.38-9.68 20.75-13.26 3.04-1.44 5.99-2.9 9.39-3.19 7.46-.47 14.98.07 21.4 4.27 7.03 5.5 10.43 14.66 11.11 23.33 2.67 31.5-10.52 63.63-32.71 85.81-9.2 9.27-19.83 16.6-32.76 19.47-7.26 1.47-15.14-.65-20.53-5.74-4.82-6.04-5.74-14.04-4.98-21.53 1.15-11.36 3.13-22.64 4.53-33.99 1.76-10.76 1.58-21.02 2.21-32 .06-6.51.67-14.55-4.32-19.57-.86.75-1.53 1.62-2 2.61-3.82 8.19-6.48 16.68-9.75 25.08-5.59 15.22-11.75 29.71-20.87 43.21-12.59 19.06-30.04 36.33-50.65 46.5-1.67-3.51-2.18-7.26-3.42-10.96-4.36-14-10.25-26.83-22.67-35.45-14.19-9.46-32.87-12.12-49.57-12.51-8.67.31-17.34 1.07-26 1.32-6.3-.33-13.63-.3-19.45-2.94.71-4.26-2.22-7.77-6.54-7.87-8.04-.25-16.01 5.81-23.83 8.07-6.91 2.5-13.9-.03-19.66-4.02-6.12-3.95-10.77-10.18-11.87-17.46-.56-4.23 1.95-7.92 3.98-11.4 5.59-8.73 13.45-17.23 18.34-26.7 4.19-8.02 8.17-16.8 9.78-25.74 1.42-6.9 2.66-14.8.91-21.7-.48-1.16-1.55-4.58-3.3-3.11-2.87 3.22-4.52 7.83-6.05 11.8-3.23 9.33-6.69 19.1-11.33 27.84-6.15 11.41-15.22 20.2-22.44 30.53-3.32 4.88-6.63 10.35-6.4 16.47-.17 7.84 2.63 14.78 6.6 21.38-6.73 1.43-13.9 1.05-20.74.84-4.75-.87-9.33-.28-14.02.59-13.54 3.34-25 11.75-33.31 22.81-1.04 1.57-1.61 3.31-1.93 5.15-.31-2.98-2.14-4.86-3.18-7.58-3.45-8.65-6.25-17.51-7.84-26.7-2.33-11.55-3.53-23.52-.17-35.01 3.1-10.68 6.07-20.96 7.46-32.05.54-5.44.4-10.97.66-16.43 1.04-14.87.96-29.48 4.18-44.13 3.71-20.45 8.56-40.57 16.02-60.01 11.14-29.7 28.13-56.92 50.73-79.25 23.76-22.4 53.32-38.69 84.9-46.98 16.11-4.18 32.42-7.02 49.07-7.55Zm-185.8 195.75c4.05-3.89 7.69-7.7 12.84-10.21 4.71-2.23 10.12-3.99 15.39-3.72 13.1.44 25.69 2.69 36.62 10.35 2.49 1.95 5.14 1.6 8.09 1.32-.48-5.4-3.44-9.44-7.19-13.09-9.43-9.06-22.46-14.72-35.52-15.26-13.17-.48-25.78 8.12-30.47 20.35-1.15 3.21-2.07 7.34.24 10.26Zm152.54-1.89c4.07-.05 7.75-.58 11.56-2.03 10.69-3.73 20.58-7.37 32.13-7.2 8.14.4 15.97 1.69 23.5 4.91 8.99 3.97 16.5 11.64 23.12 18.75 1.16 1.22 2.23 2.27 3.94 2.64-.11-4.55-.56-8.95-2.45-13.15-3.71-7.85-8.45-15.24-15.44-20.58-7.29-5.59-16.43-9.45-25.67-9.9-16.25-1.29-32.6 6.35-44.02 17.59-2.91 2.55-4.61 5.77-6.67 8.97Zm-119.04 19.4c-7.19 2.28-9.61 8.31-12.09 14.77-2.35 5.92-2.01 11.66-1.96 17.9.18 7.02 2.95 13.9 7.73 19.05 2.94 3.29 8.1 3.38 12.07 2.42 5.78-2.57 10.06-8.54 11.86-14.48 2.23-6.87 4.2-14.78 3.25-22.01-1.21-6.75-4.95-13.63-11.19-16.93-2.77-1.74-6.63-1.42-9.67-.72Zm160.89 4.93c-4.41.93-8.47 3.05-11.21 6.7-4.84 7.01-8.57 14.28-8.54 23.03.08 7.93.27 17.17 6.75 22.82 5.1 4.31 14.55 6.34 19.69 1.02 5.02-4.8 8.94-10.8 9.72-17.85 1.07-9.57 2.23-18.49-1.84-27.56-2.71-5.3-8.3-9.67-14.57-8.16Zm167.28 94.96c4.37 3.73 9.25-.48 13.84-1.45.81 8.28-2 17.27-4.58 25.08-1.62 5.19-5.11 10.03-5.82 15.38 5.63-.24 10.18-3.5 13.46-7.88 7.17-9.41 11.54-22 10.01-33.88-1.13-5.91-4.87-9.86-10.21-12.36 5.19-6 10.97-11.23 18.05-14.92 2.64-1.48 5.27-2.18 7.65-4.02-1.56-2.04-3.27-5.07-5.97-5.67-3.01-.47-6.22-.24-9.07.9-7.02 2.68-13.28 7.59-18.51 12.91-6.68 7.1-8.75 16.41-8.85 25.91Z"/><path id="d" d="M408.57 169.08c11.87-.24 23.94-.43 35.71.99-7.18 1.52-14.7-.52-22.28-.18-4.37-.3-9.27.65-13.43-.81Z"/><path id="e" d="M253 334.22c13.06.54 26.09 6.2 35.52 15.26 3.75 3.65 6.71 7.69 7.19 13.09-2.95.28-5.6.63-8.09-1.32-10.93-7.66-23.52-9.91-36.62-10.35-5.27-.27-10.68 1.49-15.39 3.72-5.15 2.51-8.79 6.32-12.84 10.21-2.31-2.92-1.39-7.05-.24-10.26 4.69-12.23 17.3-20.83 30.47-20.35Z"/><path id="f" d="M426 336.38c9.24.45 18.38 4.31 25.67 9.9 6.99 5.34 11.73 12.73 15.44 20.58 1.89 4.2 2.34 8.6 2.45 13.15-1.71-.37-2.78-1.42-3.94-2.64-6.62-7.11-14.13-14.78-23.12-18.75-7.53-3.22-15.36-4.51-23.5-4.91-11.55-.17-21.44 3.47-32.13 7.2-3.81 1.45-7.49 1.98-11.56 2.03 2.06-3.2 3.76-6.42 6.67-8.97 11.42-11.24 27.77-18.88 44.02-17.59Z"/><path id="g" d="M256.27 382.34c3.04-.7 6.9-1.02 9.67.72 6.24 3.3 9.98 10.18 11.19 16.93.95 7.23-1.02 15.14-3.25 22.01-1.8 5.94-6.08 11.91-11.86 14.48-3.97.96-9.13.87-12.07-2.42-4.78-5.15-7.55-12.03-7.73-19.05-.05-6.24-.39-11.98 1.96-17.9 2.48-6.46 4.9-12.49 12.09-14.77Z"/><path id="h" d="M417.16 387.27c6.27-1.51 11.86 2.86 14.57 8.16 4.07 9.07 2.91 17.99 1.84 27.56-.78 7.05-4.7 13.05-9.72 17.85-5.14 5.32-14.59 3.29-19.69-1.02-6.48-5.65-6.67-14.89-6.75-22.82-.03-8.75 3.7-16.02 8.54-23.03 2.74-3.65 6.8-5.77 11.21-6.7Z"/><path id="i" d="M620.87 442.51c2.7.6 4.41 3.63 5.97 5.67-2.38 1.84-5.01 2.54-7.65 4.02-7.08 3.69-12.86 8.92-18.05 14.92 5.34 2.5 9.08 6.45 10.21 12.36 1.53 11.88-2.84 24.47-10.01 33.88-3.28 4.38-7.83 7.64-13.46 7.88.71-5.35 4.2-10.19 5.82-15.38 2.58-7.81 5.39-16.8 4.58-25.08-4.59.97-9.47 5.18-13.84 1.45.1-9.5 2.17-18.81 8.85-25.91 5.23-5.32 11.49-10.23 18.51-12.91 2.85-1.14 6.06-1.37 9.07-.9Z"/><path id="j" d="M540.17 502.8c-.64 9.13-3.42 17.99-3.72 27.2-.86 7-.74 13.98-1 21-1.47 18.32-4.56 36.4-10.75 53.75a207.06 207.06 0 0 1-32.05 56.9c-.87.82-1.61 2.33-2.98 2.07-1.2-5.53-1.87-11.16-3.23-16.66-1.28.7-1.67 1.87-2.26 3.12-6.05 14.91-16 28.36-27.65 39.38-6.72 6.78-14.14 13.1-22.27 18.12.2-5.1 2.17-9.64 2.84-14.66.8-5.79 2.24-11.28 1.12-17.03-.4-1.54-.16-3.43-1.85-4.15-.6 2.49-1.22 4.95-2.18 7.32-8.3 19.11-20.24 36.32-36.45 49.56-4.1 3.36-8.42 6.94-13.27 9.14-1.75-9.77-.81-19.23-.56-29.03-1.16.73-1.63 1.78-2.18 2.98-4.23 9.58-10.44 18.64-18.81 25.08-9.27 7.69-21.24 11.83-33.31 11.2.15-.94.44-1.82.85-2.64 2.83-5.1 5.06-10.8 6.36-16.48-2.15 1.19-3.15 3.14-4.87 4.96-4.15 4.74-9.11 8.2-14.2 11.82-4.43 2.84-8.19 5.86-13.75 5.78-5.56.23-10.61-3.39-14.48-7.03-9.07-8.57-13.58-18.91-19.29-29.71-.66-1.27-1.16-2.41-2.56-3.06-.72 4.32.1 8.92.36 13.27.14 3.33 1.51 6.8.85 10.04-.96-.32-1.87-.72-2.74-1.2-10.49-7.05-19.29-16.46-25.46-27.5-2.79-4.86-4.42-10.6-6.15-15.96-1.48-4.51-1.4-9.35-2.9-13.81l-1.1-.34c-1.05 6.86-2.19 13.93-3.81 20.66-1.47-.13-2.14-.33-3.12-1.48-3.59-3.96-6.54-8.46-8.6-13.41-5.43-12.96-6.46-28.1-5.7-42 .2-5.28 1.45-10.82 1.03-16.06-.35-1.81-2.36-3.24-3.73-1.36-2.22 3.18-4 6.47-6.8 9.26-.99.9-2.31 1.86-3.72 1.46.96-17.25 2.11-34.01.45-51.3-.5-11.67-4.25-22.58-5.71-33.99-.37-7.81-.44-15.85.68-23.59l1.03-.04c4.04 7.59 8.45 14.18 11.06 22.01.97 2.79 1.6 5.7 2.65 8.46 1.04.21 1.61-.09 1.72-.91 1.62-4.92 2-10.06 4.08-14.88 4.95-12.31 13.95-23.72 26.8-28.26 10.12-3.78 19.66-2.38 30.16-2.64 5.42-.12 11.72.39 16.88-1.4 1.82-.55 3.3-3.55 5.22-1.92 7.7 4.49 16.47 7.04 25.4 5.5 6.95-1.37 13.84-4.01 20.62-6.05 2.53 2.54 5.41 4.62 8.88 5.66 8.72 2.35 17.07 1.9 26 2.14 16.13-.01 34.46-1.91 49.99 2.87 8.94 2.21 17.09 6.96 22.75 14.31 7.22 8.86 10.57 19.47 12.56 30.56.86 4.31.99 8.69 2.01 12.97 3.87.15 7.26-1.11 10.86-2.38 6.45-2.2 12.44-6.35 18.33-9.93 19.88-13.33 36.31-32.1 48.15-52.82 1.04-1.66 1.72-3.98 3.52-4.87ZM266.71 654.22c2.21-1.15 3.53-2.67 4.68-4.85 3.15-6.1 4.97-12.28 9.07-17.91 3.14-4.35 7.63-8.7 12.99-9.98 2.59-.54 5.68-.61 7.73 1.31 2.78 2.13 4.47 4.94 6.41 7.78.64.09 1.08-.11 1.3-.59 2.32-3.24 4.61-6.72 8.23-8.72 1.74-.6 3.51.82 4.93 1.67 5.4 3.7 7.78 9.24 9.79 15.23 2.02 5.17 2.31 10.66 4.02 15.93 3.81.32 4.53-3.08 5.53-5.94.53-1.27.5-3.51 1.64-4.29 5.2-.21 10.77 0 15.97-.82 10.22-1.65 20.25-6.64 29.08-11.92 19.37-11.56 34.98-28.65 45.4-48.6 3.58-7.05 6.49-15.54 5.88-23.53-.46-6.28-4-11.64-8.99-15.33a44.151 44.151 0 0 0-26.37-8.1c-10.61-.32-20.47 1.72-31 2.61-6.38.55-12.62 1.96-19.01 2.34-18.96 2.05-37.98 2.04-56.98.49-14.68-1.12-29.01-4.01-43.51-6.32-6.18-1.08-12.4-2.18-18.38.35-6.3 2.18-9.51 9.8-10.07 15.97-1.87 17.02.63 34.81 7.61 50.49 5.32 11.51 13.58 22.56 24.44 29.37 3.26 2.26 6.96 3.67 10.32 5.73 1.75 5.04-1.51 12.38-.71 17.63Z"/><path id="k" d="M253.5 534.68c14.5 2.31 28.83 5.2 43.51 6.32 19 1.55 38.02 1.56 56.98-.49 6.39-.38 12.63-1.79 19.01-2.34 10.53-.89 20.39-2.93 31-2.61 9.44-.18 18.67 2.65 26.37 8.1 4.99 3.69 8.53 9.05 8.99 15.33.61 7.99-2.3 16.48-5.88 23.53-10.42 19.95-26.03 37.04-45.4 48.6-8.83 5.28-18.86 10.27-29.08 11.92-5.2.82-10.77.61-15.97.82-1.14.78-1.11 3.02-1.64 4.29-1 2.86-1.72 6.26-5.53 5.94-1.71-5.27-2-10.76-4.02-15.93-2.01-5.99-4.39-11.53-9.79-15.23-1.42-.85-3.19-2.27-4.93-1.67-3.62 2-5.91 5.48-8.23 8.72-.22.48-.66.68-1.3.59-1.94-2.84-3.63-5.65-6.41-7.78-2.05-1.92-5.14-1.85-7.73-1.31-5.36 1.28-9.85 5.63-12.99 9.98-4.1 5.63-5.92 11.81-9.07 17.91-1.15 2.18-2.47 3.7-4.68 4.85-.8-5.25 2.46-12.59.71-17.63-3.36-2.06-7.06-3.47-10.32-5.73-10.86-6.81-19.12-17.86-24.44-29.37-6.98-15.68-9.48-33.47-7.61-50.49.56-6.17 3.77-13.79 10.07-15.97 5.98-2.53 12.2-1.43 18.38-.35Zm.78 11.97c2.57 3.68 5.57 7.17 8.54 10.55 6.46 7.16 14.6 11.61 23.36 15.38 12.26 5.21 25.52 7.53 38.82 7.24 16.09.35 32.29-2.45 47.18-8.62 6.99-2.93 13.49-6.71 18.72-12.28 2.89-3.19 6.58-6.51 8.15-10.57-12.05.19-24.1 2.02-36.06 3.27-24.69 2.09-49.34 2.65-74-.23-11.62-1.13-23.14-3.27-34.71-4.74Zm17.74 79.48c4.92-4.95 7.5-10.98 13.41-15.13-2.18-6.65-9.28-9-11.59-15.15 2.56.96 4.13 3.42 6.52 4.84 12.66 8.51 27.79 9.82 42.64 9.35 7.51.06 15.29-2.08 22.71-1.19-2.34 3.32-6.38 5.59-10.04 7.14 2.41 4.91 4.05 10.11 6.3 15.08 8.5 2.53 18.05.2 26.2-2.69 18.68-7.78 35.84-20.17 46.94-37.33 6.27-9.34 12.7-21.37 12.27-32.9-.04-3.61-3.6-4.33-6.34-5.42-2.45-.02-4.91 2.18-7 3.35-10.01 6.86-18.54 15.5-29.6 21.35-14.88 7.21-30.94 11.5-47.45 12.59-15.23 1.03-31.57.24-46.14-4.66-13.52-4.2-26-11.13-36.07-21.14-5.11-4.72-9.06-10.92-14.68-14.83-1.62 2.33-3.36 4.84-4.23 7.57-.08 15.75 2.25 31.19 9.74 45.23 5.82 11.07 14.77 19.29 26.41 23.94Z"/><path id="l" d="M254.28 546.65c11.57 1.47 23.09 3.61 34.71 4.74 24.66 2.88 49.31 2.32 74 .23 11.96-1.25 24.01-3.08 36.06-3.27-1.57 4.06-5.26 7.38-8.15 10.57-5.23 5.57-11.73 9.35-18.72 12.28-14.89 6.17-31.09 8.97-47.18 8.62-13.3.29-26.56-2.03-38.82-7.24-8.76-3.77-16.9-8.22-23.36-15.38-2.97-3.38-5.97-6.87-8.54-10.55Z"/><path id="m" d="M240.1 549.39c5.62 3.91 9.57 10.11 14.68 14.83 10.07 10.01 22.55 16.94 36.07 21.14 14.57 4.9 30.91 5.69 46.14 4.66 16.51-1.09 32.57-5.38 47.45-12.59 11.06-5.85 19.59-14.49 29.6-21.35 2.09-1.17 4.55-3.37 7-3.35 2.74 1.09 6.3 1.81 6.34 5.42.43 11.53-6 23.56-12.27 32.9-11.1 17.16-28.26 29.55-46.94 37.33-8.15 2.89-17.7 5.22-26.2 2.69-2.25-4.97-3.89-10.17-6.3-15.08 3.66-1.55 7.7-3.82 10.04-7.14-7.42-.89-15.2 1.25-22.71 1.19-14.85.47-29.98-.84-42.64-9.35-2.39-1.42-3.96-3.88-6.52-4.84 2.31 6.15 9.41 8.5 11.59 15.15-5.91 4.15-8.49 10.18-13.41 15.13-11.64-4.65-20.59-12.87-26.41-23.94-7.49-14.04-9.82-29.48-9.74-45.23.87-2.73 2.61-5.24 4.23-7.57Z"/><path id="n" d="m539.53 612.68-.05.34c-.73 3.65-1.48 7.22-1.51 10.96-1.73 21.24-1.38 41.84 5.52 62.22 1.07 2.34-1.32 4.93-2.28 6.99-4.31 8.5-10.02 15.82-15.41 23.63-6.1 7.76-12.79 15.27-19.41 22.59-14.56 15.46-31.35 28.44-49.47 39.46-16.59 10.2-33.38 20.1-50.29 29.76-6.68 4.82-14.12 8.41-20.83 13.15-10.04 8.3-20.67 15.79-30.89 23.84-4.89-4.23-8.9-9.69-12.58-14.98-7.36-11.35-13.67-23.41-19.09-35.79-3.94-9.44-7.94-19.4-9.78-29.49 2.69-1.96 4.12-2.5 7.53-2.05 13.35 2.17 27.63-.69 39.69-6.63 3.9-2.03 7.69-4.26 11.55-6.37.92 2.15 1.16 4.75 3.26 6.12 2.74 2.12 6.89 1.36 9.72-.19 9.98-5.1 19.18-13.17 27.75-20.31 1.88-1.54 3.72-3.31 5.94-4.3 1.99-.03 4.07.82 6.02.47 5.78-1.59 10.23-4.79 15.04-8.18 11.52-7.88 22.22-17.03 31.88-27.09 1.88-1.93 3.66-3.85 6.06-5.15 1.71 2.01 2.97 3.87 5.97 3.03 5.32-3.8 9.87-8.93 14.12-13.7 17.66-20.15 31.36-43.33 41.45-68.11l.09-.22Z"/><path id="o" d="M568.29 663.9c1.74 1.71 2.69 3.82 3.91 5.88 6.09 10.2 11.97 20.31 16.94 31.12 3.27 6.25 4.78 13.22 6 20.11.75 3.63.03 7.03-.58 10.65-1.81 8.79-3.8 17.77-6.72 26.26-5.03 14.24-11.04 28.02-19.09 40.83-11.44 19.07-24.67 37.83-40.42 53.59-1.12.96-2.69 2.79-4.28 2.6-3.2-1.12-6.09-3.28-8.95-5.06-5.99-4.1-12.27-7.69-18.41-11.55-14.06-8.05-28.25-14.45-44.69-15.33-3.66-.09-7.26.18-10.76 1.35-4.67 1.52-8.95 1.42-12.14 5.71-2.86 2.97-2.68 6.62-.4 9.88-3.01 1.56-6.04 3.1-9.03 4.71-6.14 3.46-13.26 4.26-19.64 7.39-4.93 2.49-10.14 4.31-14.98 6.98-5.06 2.71-10.95 5.57-14.94 9.77 10.11-3.08 20.47-3.46 30.97-3.68-.22 2.95-1.66 5.33-2.71 8.23-5.87 15.27-11.35 30.81-15.45 46.66-6.92 24.04-10.94 49.07-13.26 73.95-.69 5.68-.93 11.3-.84 17.01-5.35.64-10.36.07-15.82-.01-10.86.02-22.1-.13-32.77-2.29-.88-6.61.85-13.72 1.24-20.38.46-8.09 1.28-16.12 2.92-24.07 2.37-15.83 5.1-31.29 9.04-46.83 2-6.77 3.2-13.61 5.81-20.19 3.35-9.82 7.27-20.83 14.33-28.65 11.66-12.85 25.6-19.43 38.65-30.3 8.97-6.29 17.23-13.52 26.05-20 11.36-6.79 23.39-12.39 34.76-19.19 10.46-5.68 20.1-12.43 30-18.99 18.47-13.46 34.64-29.23 49.62-46.43 5.74-7.65 11.74-14.99 16.98-22.99 5.53-8.85 9.93-18.4 13.9-28.03 1.83-6.15 3.72-12.36 4.76-18.71ZM360.21 887.35c-3.8.48-6.97 3.72-9.13 6.66-2.79 4.74-3.42 11.17-1.41 16.32 2.59 4.95 7.37 9.08 13.35 7.72 8.87-1.74 13.19-12.92 10.72-20.93-1.39-6.07-6.97-11.27-13.53-9.77Zm-13.95 66.97c-9.16 2.74-12.43 14.58-8.14 22.57 2.49 4.88 8.5 8.98 14.02 6.43 8.75-3.44 11.55-15.71 6.92-23.38-2.2-4.38-8.11-7.03-12.8-5.62Z"/><path id="p" d="M608.24 728.01c4.66 1.02 9.04 3.47 13.45 5.27 20.19 8.58 39.98 17.75 58.68 29.31 20.96 12.31 39.72 28.04 55.82 46.23 7.26 8.68 14.53 17.05 20.18 26.93 19.44 29.85 30.61 63.31 36.62 98.25 2.77 14.52 3.55 29.59 4.72 43.99.59 19.36 1.13 38.64.28 58.01-.36 6.7-.27 13.29-1.26 19.95-.13 1.36-.83 2.11-1.92 2.83-17.94 11.22-37.37 18.88-57.73 24.44-6.28 1.61-12.7 2.75-19.09 3.85-9.81 1.86-20 3.51-29.99 3.41-16.98 1.13-34.18.15-51-2.45-5.34-.97-10.74-1.38-15.83-2.99-.56-9.36-.56-18.69-.71-28.06-1.03-10.65-1.3-21.3-1.85-31.98-.6-8.37-1.11-16.75-1.42-25.13-1.76-14.26-1.44-28.9-4.53-42.79-.64-2.83-.95-6.6-2.84-8.89-1.99-.75-3.51.51-4.42 2.18-2.37 4.59-2.3 10.56-2.59 15.63-.14 15.33.05 30.67-.17 46-.22 7.67 1.12 15.32.93 23 .04 7.66.05 15.34.23 23 1.19 12.65.66 25.27 1.04 38 .08 2.04.69 4.2.29 6.17-.73 3.22.57 6.45.45 9.83.05 9.68-.24 18.97 1.31 28.73-3.67.65-7.37 1-11.06 1.54.7.67 1.45 1.18 2.28 1.56-5.73.97-11.45 1.81-17.26 2.12 2.25-.8 5.51-.35 7.28-1.9-3.98-.48-8.08.47-12.13.97-3.99.69-8.01.88-12.03 1.36.93.62 1.97 1.04 3.13 1.28-21.51 2.34-43.12 4.36-64.73 5.43-4.6-1.68-10.29-.84-15.12-.65.99.43 1.97.86 2.97 1.27-6.68.93-13.5.56-20.22 1.21-33.11.8-65.7 1.88-98.88.33-5.54-.16-11.25.08-16.71-.65-1.59-1.61-3.35-1.21-5.41-1.32-3.66.09-6.97-.46-10.37.84-1.2-.05-2.4-.18-3.6-.3-.27-1.05-.94-1.55-2.01-1.5-3.55-.28-6.97-.38-10.39.74-1.25-.07-2.5-.15-3.75-.25.63-.46 1.26-.92 1.88-1.38-8.19-.17-16.2-1.17-24.35-1.81l-.62 1.32-2.97-.33 2.03-1.05c-3.29-.22-6.19-1.06-9.28.5-19.27-1.57-38.51-4-57.69-6.43.99-.35 1.97-.71 2.95-1.08-5.62-.66-11.21-1.55-16.82-2.24-1.6-.28-2.95.16-4.43.67-19.69-2.59-39.29-6.45-58.76-10.36l.96-1.19c-1.8-.24-3.41-.54-5.05-1.35.56-2.02.85-4.1.86-6.2-.7-19.31-1.99-38.54-1.99-57.88-1.32-40.83.3-81.39 4.54-122.01.94-8.69 1.35-17.37 2.88-25.99 1.08-12.62 3.96-25.33 3.78-37.97-3.24-.01-5.52 1.99-7.14 4.61-2.68 4.38-4.39 9.4-5.91 14.28-2.21 8.6-4.06 17.4-5.33 26.18-3.62 19.96-5.23 40.44-6.99 60.63-.37 8.43-.48 16.86-1.21 25.27-.51 18.99-1.28 38-1.06 57-.23 4.05.73 7.91-.1 11.83-14.97.06-30.76-.53-45.29-4.41-10.01-2.23-19.7-5.94-29.04-10.1-4.19-2.48-8.66-5.46-12.36-8.61 1.62-7.08 2.6-14.28 4.03-21.39 6.76-32.71 13.44-66.47 23.74-98.21 4.48-12.93 8.91-25.79 14.71-38.21 9.8-21.01 21.34-42.11 35.74-60.35 7.04-9.72 15.45-18.54 23.66-27.27 7.16-6.88 14.72-13.3 22.3-19.72 23.96-17.94 50.56-33.06 78.55-43.7-2.33 10.1-5.85 19.98-8.01 30.14-1.09 5.75-3.03 11.25-4.35 16.95-3.27 13.91-6.36 27.92-8.66 42.03-.6 3.14-1.48 6.76-.94 9.94 1.75 3.4 6.17 5.24 9.81 3.93 9.78-3.18 17.81-8.65 27.36-12.47 8.21-3.62 16.14-7.38 24.79-10.16 4.05-1.2 8.51-2.05 12.29.39 7.5 4.53 12.4 13.36 19.11 18.85 3.51 2.36 6.8 5.01 10.31 7.36-2.68-8.48-5.96-17.18-11.16-24.46-3.3-5.53-6.18-10.63-11.66-14.36-6.27-3.77-14.08-3.66-20.95-1.84-14.86 3.92-29.22 11.49-43 17.57-.34-1.6-.55-3.11-.23-4.74 1.9-11.46 5.12-22.57 7.45-33.95 1.05-5.07 2.69-9.98 3.81-15.04 2.24-9.73 4.02-19.72 6.87-29.31 2.93.58 5.2 2.17 7.71 3.66 5.09 3.11 10.72 5.18 16.1 7.88 4.68 2.36 9.77 3.48 14.58 5.43 1.66 2.68 2.11 6.24 2.96 9.25 3.82 14.62 9.69 28.76 16.68 42.13 4.36 9.32 9.62 18.23 14.99 27.01 3.58 5.08 8.77 10.82 15.03 12.32-4.04 4.56-8.12 8.54-10.31 14.41-5.39 13.84-10.13 28.03-13.27 42.55-5.43 24.36-9.51 48.94-12.91 73.65-.48 7.69-1.55 15.32-1.98 23.01-.39 4.33 2.56 8.41 6.34 10.22 7.94 2.7 15.46 1.72 24.13 2.52 8.34.05 16.68.41 25.01.28 3.75-.06 7.29-.47 10.54-2.48 2.15-1.32 3.04-4.12 3.2-6.51 1.71-21.63 4.15-42.65 8.52-63.94 3.05-12.86 6.06-25.9 10.38-38.4 5.48-14.15 10.7-28.45 16.6-42.43 2-6.67 10.41-9.65 16.31-11.8 7.72-3.53 14.87-7.96 19.96-14.91 3.45-1.16 7.83.36 11.49.12 6.13-.31 11.57 1.84 17.14 4.13 10.1 4.96 19.9 10.33 28.83 17.22 5.09 3.56 10.59 7.69 16.58 9.5 3.08 1.01 6.19-.65 8.78-2.2 8-5 13.45-12.49 19.23-19.74 8.31-9.8 15.29-20.96 22.32-31.7 6.95-11.41 13.89-22.6 18.87-35.05 4.14-8.45 7.31-17.15 9.81-26.22 2.86-9.28 5.45-18.93 6.68-28.59Z"/><path id="q" d="M360.21 887.35c6.56-1.5 12.14 3.7 13.53 9.77 2.47 8.01-1.85 19.19-10.72 20.93-5.98 1.36-10.76-2.77-13.35-7.72-2.01-5.15-1.38-11.58 1.41-16.32 2.16-2.94 5.33-6.18 9.13-6.66Z"/><path id="r" d="M346.26 954.32c4.69-1.41 10.6 1.24 12.8 5.62 4.63 7.67 1.83 19.94-6.92 23.38-5.52 2.55-11.53-1.55-14.02-6.43-4.29-7.99-1.02-19.83 8.14-22.57Z"/><path id="s" d="M41.31 1069.17c1.43.29 2.62.95 3.9 1.62 6.68 3.62 13.63 6.7 20.77 9.29 11.25 4.59 23.08 7.82 35.09 9.66 9.33 1.81 19.15 1.63 28.62 1.66.48 5.2.52 10.41.26 15.63-5.58 1.62-12.21.39-17.95.06-9.83-.56-19.54-2.33-29-5.03-13.8-3.76-27.71-8.67-40.11-15.89-1.36-.97-2.98-1.08-2.75-3.15.34-4.49-.38-9.59 1.17-13.85Z"/><path id="t" d="M794.87 1074.06c-.02 5.33-1.13 10.59-1.62 15.93-.38 1.98-.11 4.86-2.4 5.74-4.59 2.02-8.85 4.65-13.4 6.74-13.88 6.84-28.45 11.83-43.42 15.63-14.05 3.19-28.57 5.92-43.03 6.29-13.29.96-26.74.88-40-.44-9.54-.57-18.41-3.14-27.64-5.32-.78-5.83-.57-11.72-1.11-17.57 14.67 2.61 29.11 5.29 44.08 5.51 19.09 1.39 38.89-1.22 57.65-4.78 10.82-2.6 21.81-5.24 32.16-9.4 13.49-4.89 26.27-11.27 38.73-18.33Z"/><path id="u" d="M38.44 1101.02c.99.23 1.81.73 2.65 1.27 1.31 2.88 4.02 5.14 6.38 7.17 1.64.68 4.26.79 4.95-1.26 19.13 9 40.52 13.65 61.57 14.78 5.69.38 11.66.71 17.3-.28.64 2.35 1.47 4.49 3 6.42-3.41 1.37-6.69 1.13-10.29 1.29-7.37.07-14.66.26-22-.17-8.66-.08-17.49-1.86-26.02-3.33-5.67-.94-11.27-2.61-16.82-4.1-8.04-1.84-16.37-5.25-22.63-10.73 1.74-3.18 1.34-7.53 1.91-11.06Z"/><path id="v" d="M41.09 1102.29c3.73 2.05 7.52 4.02 11.33 5.91-.69 2.05-3.31 1.94-4.95 1.26-2.36-2.03-5.07-4.29-6.38-7.17Z"/><path id="w" d="M788.31 1116.17c.62 2.2 1.14 4.05 2.94 5.58-3.77 1.83-7.78 2.61-11.75 3.87-9.68 3-19.49 5.55-29.37 7.77-3.14.54-6.16.11-9.27.41 16.35-4.51 32.37-9.74 47.45-17.63Z"/><path id="x" d="m622.16 1136.51.7.03c3.58.7 7.07 1.92 10.61 2.77 5.83.86 11.75 1.97 17.63 2.29-5.73.98-11.33.38-17.1.5-4.18.01-8.23-.69-12.34-1.33.55-1.31.72-2.72.5-4.26Z"/><path id="y" d="M214.01 1140.31c5.61.69 11.2 1.58 16.82 2.24-.98.37-1.96.73-2.95 1.08-6.09-1-12.18-1.88-18.3-2.65 1.48-.51 2.83-.95 4.43-.67Z"/><path id="z" d="M588.13 1144.05c-1.77 1.55-5.03 1.1-7.28 1.9-4.54.83-9.16 1.15-13.75 1.71-1.16-.24-2.2-.66-3.13-1.28 4.02-.48 8.04-.67 12.03-1.36 4.05-.5 8.15-1.45 12.13-.97Z"/><path id="A" d="m294.85 1149.56-2.03 1.05c-2.42-.17-4.83-.35-7.25-.55 3.09-1.56 5.99-.72 9.28-.5Z"/><path id="B" d="M296.41 1149.62c8.15.64 16.16 1.64 24.35 1.81-.62.46-1.25.92-1.88 1.38-7.7-.53-15.39-1.21-23.09-1.87l.62-1.32Z"/><path id="C" d="M333.02 1152.32c1.07-.05 1.74.45 2.01 1.5-4.13-.32-8.27-.33-12.4-.76 3.42-1.12 6.84-1.02 10.39-.74Z"/><path id="D" d="M487.25 1152.44c4.83-.19 10.52-1.03 15.12.65-4.05.29-8.1.38-12.15.62-1-.41-1.98-.84-2.97-1.27Z"/><path id="E" d="M349 1153.28c2.06.11 3.82-.29 5.41 1.32-5.26-.28-10.52-.2-15.78-.48 3.4-1.3 6.71-.75 10.37-.84Z"/></defs><g stroke-width="10pt"><use xlink:href="#a" stroke="#f5edd8"/><use xlink:href="#b" stroke="#11100b"/><use xlink:href="#c" stroke="#f4d599"/><use xlink:href="#d" stroke="#f5edd8"/><use xlink:href="#e" stroke="#11100b"/><use xlink:href="#f" stroke="#11100b"/><use xlink:href="#g" stroke="#11100b"/><use xlink:href="#h" stroke="#11100b"/><use xlink:href="#i" stroke="#11100b"/><use xlink:href="#j" stroke="#a76526"/><use xlink:href="#k" stroke="#11100b"/><use xlink:href="#l" stroke="#f5edd8"/><use xlink:href="#m" stroke="#f4d599"/><use xlink:href="#n" stroke="#f4d599"/><use xlink:href="#o" stroke="#343433"/><use xlink:href="#p" stroke="#343433"/><use xlink:href="#q" stroke="#11100b"/><use xlink:href="#r" stroke="#11100b"/><use xlink:href="#s" stroke="#343433"/><use xlink:href="#t" stroke="#343433"/><use xlink:href="#u" stroke="#f4d599"/><use xlink:href="#v" stroke="#f5edd8"/><use xlink:href="#w" stroke="#f4d599"/><use xlink:href="#x" stroke="#f4d599"/><use xlink:href="#y" stroke="#11100b"/><use xlink:href="#z" stroke="#11100b"/><use xlink:href="#A" stroke="#11100b"/><use xlink:href="#B" stroke="#11100b"/><use xlink:href="#C" stroke="#11100b"/><use xlink:href="#D" stroke="#11100b"/><use xlink:href="#E" stroke="#11100b"/></g><use xlink:href="#a" fill="#f5edd8"/><use xlink:href="#b" fill="#11100b"/><use xlink:href="#c" fill="#f4d599"/><use xlink:href="#d" fill="#f5edd8"/><use xlink:href="#e" fill="#11100b"/><use xlink:href="#f" fill="#11100b"/><use xlink:href="#g" fill="#11100b"/><use xlink:href="#h" fill="#11100b"/><use xlink:href="#i" fill="#11100b"/><use xlink:href="#j" fill="#a76526"/><use xlink:href="#k" fill="#11100b"/><use xlink:href="#l" fill="#f5edd8"/><use xlink:href="#m" fill="#f4d599"/><use xlink:href="#n" fill="#f4d599"/><use xlink:href="#o" fill="#343433"/><use xlink:href="#p" fill="#343433"/><use xlink:href="#q" fill="#11100b"/><use xlink:href="#r" fill="#11100b"/><use xlink:href="#s" fill="#343433"/><use xlink:href="#t" fill="#343433"/><use xlink:href="#u" fill="#f4d599"/><use xlink:href="#v" fill="#f5edd8"/><use xlink:href="#w" fill="#f4d599"/><use xlink:href="#x" fill="#f4d599"/><use xlink:href="#y" fill="#11100b"/><use xlink:href="#z" fill="#11100b"/><use xlink:href="#A" fill="#11100b"/><use xlink:href="#B" fill="#11100b"/><use xlink:href="#C" fill="#11100b"/><use xlink:href="#D" fill="#11100b"/><use xlink:href="#E" fill="#11100b"/></svg>
