<svg xmlns="http://www.w3.org/2000/svg" width="1024pt" height="1024pt" viewBox="0 0 1024 1024"><path fill="#ede0c2" d="M0 0h1024v1024h-59.24c.4-7.32 1.41-14.55 1.34-21.89 1.71-19.38 1.89-38.71 2.87-58.12.12-17.33.01-34.65.03-51.99-.01-11.03-1.08-22.02-1.05-33.05-.79-10.31-1.04-20.62-1.91-30.93a887.204 887.204 0 0 0-6.49-58.4c-3.41-21.15-6.98-43.24-13.55-63.63-3.34-10.4-7.26-20.79-12.71-30.28-5.7-9.84-13.6-18.71-23.34-24.67-10.73-6.71-22.85-10.84-34.59-16.4-19.99-9.47-40.07-17.68-60.37-26.63-26.39-11.46-52.98-23.32-78.62-36.38-6.45-3.25-13.01-6.03-19.17-9.83-10.92-6.66-20.71-15.28-29.41-24.6-6.71-8.08-13.1-16.69-17.98-26.01-1.5-2.63-.76-5.76-.32-8.57 3.35-17.48 7.83-34.7 11.05-52.2 5.72-1.78 11.63-2.32 17.26-4.56 15.06-5.91 28.58-15.69 39.34-27.74 9.28-10.16 16.61-22.24 22.22-34.77 5.93-13.35 9.06-27.76 8.57-42.39-.73-9.8-3.71-20.24-9.75-28.14-4.2-5.49-9.54-10.07-15.68-13.29-1.39-.88-3.35-1.53-4.33-2.87-.28-3.05-.27-6.42.06-9.47 1.68-10.56 4.8-20.48 7.43-30.67 4.1-17.31 7.41-34.53 6.25-52.42-1.06-12.4-5.13-24.36-10.47-35.53-4.55-9.42-10.23-17.96-18.54-24.46-2.69-2.32-5.97-4.07-8.42-6.62-1.54-2.67-1.95-6.05-2.96-8.96-6.19-19.68-18.87-35.47-34.4-48.66-21.81-18.3-49.44-29.81-77.62-33.39-15.04-2.03-30.16-2.01-45.13-5.02-7.58-1.61-15.14-3.08-22.59-5.26-20.74-5.81-41.98-8.2-63.47-8.71-17.75-1.28-35.58 1.39-52.25 7.55-7.28 2.84-14.09 7.07-20.44 11.59-7.13 5.14-12.95 11.75-15.89 20.14-3.08 8.26-1.82 17.33-1.58 26.01.26 6.04 2.02 12.04 1.92 18.06-1.07 3.14-4.89 5.64-7.03 8.18-13.78 15.42-24.69 34.01-33.3 52.74-4.66 9.88-8.38 20.21-11.23 30.75-2.82 11.25-4.73 22.79-6.02 34.31-.65 5.87-1.62 11.37-1.53 17.18.05 12.35.06 24.7.01 37.05.01 4.48-.87 8.06-2.86 12.04-7.41 15.11-10.28 32.23-9.18 48.96.45 6.86 2.16 13.4 4.07 19.96 1.48 4.49-.42 9.3-.76 14.07-.68 10.3-1.42 20.59-1.24 30.92.43 24.71 3.62 49.34 9.69 73.31 3.12 12.39 6.77 24.91 12.74 36.25 4.9 9.84 11.52 18.94 19.55 26.46 9.35 9.17 20.38 14.56 31.15 21.64-2.26 1.24-4.53 2.45-6.8 3.67-6.66 3.52-12.4 8.34-19 11.99-6.14 3.58-12.64 6.08-19.14 8.86-28.36 12.63-56.75 25.19-85.06 37.94-8.69 4.18-17.71 7.33-24.43 14.58-15.22 16.51-24.22 36.69-32.92 57.09-8.03 18.76-13.14 37.75-18.74 57.28-5.49 18.4-9.63 37.32-13.97 56.03-9.22 40.05-17.36 80.35-24.2 120.88-4.57 26.93-9.12 53.92-12.58 81.02H0V0Z"/><path fill="#302e1f" d="M468.31 27.49c21.49.51 42.73 2.9 63.47 8.71 7.45 2.18 15.01 3.65 22.59 5.26 14.97 3.01 30.09 2.99 45.13 5.02 28.18 3.58 55.81 15.09 77.62 33.39 15.53 13.19 28.21 28.98 34.4 48.66 1.01 2.91 1.42 6.29 2.96 8.96 2.45 2.55 5.73 4.3 8.42 6.62 8.31 6.5 13.99 15.04 18.54 24.46 5.34 11.17 9.41 23.13 10.47 35.53 1.16 17.89-2.15 35.11-6.25 52.42-2.63 10.19-5.75 20.11-7.43 30.67-.33 3.05-.34 6.42-.06 9.47.98 1.34 2.94 1.99 4.33 2.87 6.14 3.22 11.48 7.8 15.68 13.29 6.04 7.9 9.02 18.34 9.75 28.14.49 14.63-2.64 29.04-8.57 42.39-5.61 12.53-12.94 24.61-22.22 34.77-10.76 12.05-24.28 21.83-39.34 27.74-5.63 2.24-11.54 2.78-17.26 4.56-3.22 17.5-7.7 34.72-11.05 52.2-.44 2.81-1.18 5.94.32 8.57 4.88 9.32 11.27 17.93 17.98 26.01 8.7 9.32 18.49 17.94 29.41 24.6 6.16 3.8 12.72 6.58 19.17 9.83 25.64 13.06 52.23 24.92 78.62 36.38 20.3 8.95 40.38 17.16 60.37 26.63 11.74 5.56 23.86 9.69 34.59 16.4 9.74 5.96 17.64 14.83 23.34 24.67 5.45 9.49 9.37 19.88 12.71 30.28 6.57 20.39 10.14 42.48 13.55 63.63 2.81 19.38 4.97 38.88 6.49 58.4.87 10.31 1.12 20.62 1.91 30.93-.03 11.03 1.04 22.02 1.05 33.05-.02 17.34.09 34.66-.03 51.99-.98 19.41-1.16 38.74-2.87 58.12.07 7.34-.94 14.57-1.34 21.89h-16.54c1.37-17.13 2.37-34.31 3.11-51.48.99-9.17.46-18.32.9-27.51.69-21.34.39-42.68-.23-64.01-.55-35.01-3.94-70.04-8.38-104.76-2.63-19.47-6.11-38.76-11.2-57.74-2.88-11.07-6.51-21.86-11.98-31.94-5.56-10.65-14.63-20.32-25.66-25.33-1.86-.61-4.24-1.94-6.01-.55-11.69 7.35-22.77 15.81-31.47 26.62-9.79 12.07-17.98 25.57-26.32 38.68a354.314 354.314 0 0 0-33.21 78.78c-3.16 10.49-6.95 20.7-9.68 31.33-4.93 17.75-8.29 36.15-11.58 54.27-4.34 25.1-7.85 50.36-10.29 75.71-1.23 19.34-3.5 38.59-4.64 57.93h-14.07c2.11-26.86 4.78-53.7 7.78-80.47 3.34-27.23 7.04-55.01 13.5-81.69 4.37-19.32 9.89-38.32 15.81-57.22 7.35-22.84 15.47-45.29 26.16-66.81 3.62-7.26 7.16-14.79 11.28-21.77 9.42-15.93 19.63-31.06 33.14-43.86 6.26-6.9 14.36-11.21 21.13-17.4-3.66-3.18-7.82-4.84-12.1-6.97-11.11-5.54-22.61-9.93-33.93-15.08-13.33-6.08-26.8-11.84-40.19-17.79-26.01-11.93-51.63-24.71-77.5-36.93 1.2 12.02-.76 23.55-1.96 35.46-1.87 15.75-3.17 31.53-4.87 47.29-.67 4.21-.98 8.64-2.25 12.72-1.6 4.18-6.52 6.37-10.55 7.49-8.39 2.26-16.36 5.36-25 6.67 2.79 3.99 6.36 7.26 9.36 11.05 2.63 3.5 2.62 7.34 5.77 10.17 3.52 3.41 6.66 6.9 8.63 11.46 1.7 3.77 2.29 7.62 3.44 11.56 4.09 1.67 8.16 2.55 11.89 5.04 5.48 3.51 10.89 8.54 13.42 14.64 1.66 4 2.78 8.37 3.24 12.67.43 4.54-1.08 8.45-1.57 12.75.43 2.57 1.82 4.94 2.44 7.49.98 3.99 1.35 8.35.44 12.39-1.82 6.78-5.23 12.39-8.93 18.26 3.13 3.2 6.35 6.18 8.95 9.86 3.94 5.18 5.48 11.03 10.23 15.68 2.04 2.3 4.17 3.42 2.36 6.8-3.33 4.5-8.93 7.61-14.3 8.99-11.62 2.45-23.67 2.06-34.92-1.87-2.02-.64-4.15-2.19-6.26-2.28-3.19 1.25-5.96 3.46-9.24 4.61-3.95 1.5-8.49 1.22-12.78 1.54 1.14 6.38 2.14 14.41-1.53 20.14-3.16 5.83-9.13 8.33-10.52 15.12 7.34-.46 14.7-.97 22.02-1.64 11.94-.77 23.92-3.13 35.84-4.29 4.61-.52 9.14-.82 13.52-2.52 2.94-1.23 7.16 1.22 6.59 4.66-.45 4.2-1.94 8.28-2.66 12.46-1.9 10.1-4.78 20.03-8.33 29.67-1.15 2.64-1.69 5.26-4.75 6.25-5.34 1.57-11.32 1.55-16.82 2.34-20.39 2.04-40.99 2.77-61.43 4.31-5.71 0-11.35.6-17.03.97-12.68.12-25.34.98-38.03.97-11.69-.15-23.37-.5-35.05-.81-3.81.05-8.08-.26-10.36 3.44-5.2 8.14-10.36 16.32-15.66 24.4-11.26 16.62-22.24 33.36-33.3 50.08h-15.75c9.37-15.32 19.03-30.46 28.2-45.9 11.19-18.16 22.55-36.19 33.55-54.46 12.71-19.6 24.7-39.56 38.75-58.27 3.63-4.51 3.87-9.47 6.36-14.61 1.48-3.41 3.76-6.18 6.11-9.01-9.17-4.03-17.69-10.44-21.82-19.81-3.43-8.33-3.61-18.25-2.49-27.07.96-5.58-1.03-11.45-2.33-16.96-2.77 3.64-4.51 7.55-6.68 11.61-9.14 18.05-17.67 36.42-26.23 54.76-22.87 51.18-44.11 103.09-63.2 155.8-2.98 7.88-5.81 15.79-8.02 23.92h-33.53c-4.53-15.2-7.79-30.7-10.23-46.36-9.83-60.59-17.26-121.32-20.33-182.63.01-9.04-1.02-17.97-.99-27.01-.01-14.33-.01-28.66 0-42.99.06-9.04 1.13-18.06 1.18-27.08.24-3.91-2.81-5.44-4.4-8.71-2.24-4.37-2.79-9.88-3.51-14.69-.71-6.87-1.59-13.66-1.22-20.59.59-11.14 1.02-22.15 2.81-33.19.81-5.03 2.58-9.96 7.04-12.87 2.89-1.98 5.99-1.89 9.11-3.05 1.45-1.68 1.85-4.39 2.35-6.49.91-4.72 1.93-9.44 2.52-14.21-7.18 3.71-13.53 9.04-20.31 13.44-4.07 3.06-9.49 5.36-12.56 9.4-6.5 8.45-13.97 16.09-20.57 24.47-3.71 4.8-8.61 9.8-10.65 15.53 3.42 4.33 7.79 6.81 12.05 10.19 3.71 2.91 7.57 5.77 10.95 9.07 1.97 1.91 2.37 4.81.47 6.93-3.21 3.66-8.38 6.02-12.44 8.68-8.29 5.54-16.95 10.53-25.69 15.32-2.36 1.43-5.26 2-5.79 5.12-.8 4.82-.1 10.1.4 14.94.96 14.12 2.5 28.21 3.99 42.28 1.08 12.48 2.53 24.92 4.6 37.28 3.65 23.85 8.36 47.75 14.88 71 7.9 26.52 16.11 52.96 24.79 79.24 3.79 11.35 7.7 22.46 12.64 33.37 6.32 14.65 13.87 28.54 19.27 43.61h-17.62c-7.79-16.24-14.6-32.93-20.3-50.02-12.62-36.32-23.24-73.43-33.68-110.43-4.3-15.2-8.02-30.51-11.05-46.02-7.52-35.93-9.38-71.14-12.47-107.51-.47-5.31-1.49-11.33-.28-16.56.53-2.57 3.22-3.52 5.22-4.72 7.19-3.69 14.01-7.99 21.02-12 4.18-2.45 8.34-2.85 11.48-6.63-5.79-6.88-14.38-11.22-20.4-17.93-1.55-1.78-2.24-3.52-1.72-5.89 1.3-5.02 5.39-9.61 8.59-13.59 3.47-3.9 6.53-8.07 9.41-12.41-3.88 1.73-7.71 3.58-11.66 5.17-16.92 6.82-33.49 14.55-50.26 21.75-5.03 2.27-10.28 4.25-15.1 6.94-3.03 1.7-4.13 4.8-4.79 8.03-1.18 6.4-1.43 12.9-2.61 19.3-2.42 13.34-3.86 26.79-4.82 40.32-1.94 19.9-2.84 39.29-3.78 59.21-.19 32.05-1.23 63.75.27 95.83.49 6.06.69 12.07.7 18.15 1.17 17.78 2 35.57 3.52 53.38 2.12 25.4 4.38 50.5 8.83 75.63h-17.78c-3.17-24.24-5.02-48.7-6.6-73.08.05-7.01-1.1-13.92-1.05-20.92-.02-7.36-.95-14.63-.98-22 .1-13.35-1.02-26.65-.99-40 .04-12.33-.13-24.66.1-36.98.85-17.61 1.02-35.35 2.47-53.03.79-13 1.96-25.99 3.16-38.96.83-16.83 2.38-33.83 5.93-50.33 1.98-8.99 3.58-18.11 4.43-27.27-6.72 5.28-11.13 14-15.35 21.3-13.18 23.29-21.84 48.23-29.09 73.9-5.05 17.53-9.92 35.11-14.04 52.88-3.02 12.62-6.5 25.13-9.33 37.79-5.88 29.18-12.4 58.17-17.38 87.53-1.75 10.48-4.19 20.79-5.77 31.3-2.49 16.52-5.44 33-7.53 49.57-.45 2.77-.81 5.55-1.34 8.3h-15.98c3.46-27.1 8.01-54.09 12.58-81.02 6.84-40.53 14.98-80.83 24.2-120.88 4.34-18.71 8.48-37.63 13.97-56.03 5.6-19.53 10.71-38.52 18.74-57.28 8.7-20.4 17.7-40.58 32.92-57.09 6.72-7.25 15.74-10.4 24.43-14.58 28.31-12.75 56.7-25.31 85.06-37.94 6.5-2.78 13-5.28 19.14-8.86 6.6-3.65 12.34-8.47 19-11.99 2.27-1.22 4.54-2.43 6.8-3.67-10.77-7.08-21.8-12.47-31.15-21.64-8.03-7.52-14.65-16.62-19.55-26.46-5.97-11.34-9.62-23.86-12.74-36.25-6.07-23.97-9.26-48.6-9.69-73.31-.18-10.33.56-20.62 1.24-30.92.34-4.77 2.24-9.58.76-14.07-1.91-6.56-3.62-13.1-4.07-19.96-1.1-16.73 1.77-33.85 9.18-48.96 1.99-3.98 2.87-7.56 2.86-12.04.05-12.35.04-24.7-.01-37.05-.09-5.81.88-11.31 1.53-17.18 1.29-11.52 3.2-23.06 6.02-34.31 2.85-10.54 6.57-20.87 11.23-30.75 8.61-18.73 19.52-37.32 33.3-52.74 2.14-2.54 5.96-5.04 7.03-8.18.1-6.02-1.66-12.02-1.92-18.06-.24-8.68-1.5-17.75 1.58-26.01 2.94-8.39 8.76-15 15.89-20.14 6.35-4.52 13.16-8.75 20.44-11.59 16.67-6.16 34.5-8.83 52.25-7.55Z"/><path fill="#ede0c2" d="M448.53 45.64c-3.33 6.96-8.34 12.62-11.22 19.77-2.42 5.87-5.09 12.23-5.79 18.57-.35 5-.68 10-1.03 14.99-2.61-7.36-2.56-14.98-1.83-22.67 1.63-12.41 10.29-23.16 19.87-30.66ZM474.2 61.51l.23.06c-3.43 13.09-3.43 25.99-3.14 39.41-3.15-5.25-4.03-10.94-3.77-17 .4-8.12.67-16.32 6.68-22.47Z"/><path fill="#e4ad6e" d="M568 109.97c12.64-.07 25.38 2.37 37.62 5.42 11.28 3.01 22.59 6.69 33.02 11.97 8.82 4.47 16.7 10.39 22.63 18.37 7.23 9.71 10.27 24.11 4.74 35.28-5.18 10.73-12.05 21.55-14.83 33.23-1.5 5.81-1.63 11.75-1.04 17.7.66 5.97 2.63 11.15 3.93 16.99 2.34 10.61 3.97 21.07 3.42 31.99-.62 13.16-3.3 26.41-6.37 39.2-1.43 6.8-3.32 13.46-6.18 19.81-4.43 10.04-9.67 19.93-16.3 28.7-3.78 5.09-8.45 8.72-13.04 12.99-4.17 3.84-8.35 7.65-12.82 11.15-9.33 7.34-18.79 14.83-28.83 21.2-.84.35-2.42 1.73-3.29 1.05-5.71-5.27-10.2-11.51-15.97-16.73-5.89-5.7-13.86-9.71-21.13-13.41-3.43-1.81-6.5-3.83-10.28-4.92-7.74-2.27-15.97-3.67-23.91-5.12-9.44-1.86-18.44-2.61-28.06-2.54.38-5.63 3.18-11.87.41-17.03-1.72-3.51-4.85-5.02-8.41-6.09-.25 3.58-.07 7.18-.46 10.74-.28 2.09-.83 4.02-2.63 5.28-3.76 2.48-8.31 3.21-12.7 2.35-8.83-1.52-17.57-2.8-26.55-2-6.85.53-13.7-.91-18.78-5.77-4.15-4-4.05-11.19-2.74-16.37 2.27-7.43 9.13-13.25 12.68-20.27 5.28-10.42 8.54-22.22 11.68-33.45 2.76-9.64 4.25-19.64 4.32-29.67.08-7.86-.14-15.9-2.7-23.42-2.44-6.69-6.16-12.82-12.18-16.85-6.32-4.21-14.19-6.43-21.69-7.27-10.45-1.19-21-1.19-31.37.72-6.77 1.24-11.91 4.77-18.58 6.87.19-2.26.36-4.51.84-6.74 3.64-15.71 9.7-30.54 16.99-44.89 6.44-12.37 13.01-24.11 22.74-34.27 7.5-8.64 16.93-16.17 27.62-20.43 3-1.45 6.09.6 9 1.45 9.76 3.83 19.93 5.4 30.3 6.53 16.28 1.48 32.73.63 48.74-2.73 14.47-3.09 29.3-7.09 44.02-8.25 8.72-1.03 17.26-.75 26.14-.77Z"/><path fill="#302e1f" d="M515.08 213.23c8.62-.51 17.54-.59 25.91 1.69 11.48 3.04 22.51 8.65 30.56 17.53 4.91 5.45 9.58 11.58 11.06 18.93.84 4.34 1.36 8.83 1.03 13.25-1.43.9-2.97 2.69-4.76 1.52-4.67-2.52-8.02-7.53-12.16-10.87-9.4-7.65-19.33-14.02-31.33-16.67-13.27-2.86-27.84-3.18-40.9.91-4.16 1.14-8.29 2.98-12.57 3.6-4.3.61-7.7-3.79-6.74-7.86 1.22-5.58 5.86-10.49 10.48-13.6 8.32-5.88 19.5-7.51 29.42-8.43Z"/><path fill="#e4ad6e" d="M369.08 233.31c8.49-1.08 16.68 1.3 24.68 3.89 5.41 1.75 10.39 4.58 14.37 8.67 2.69 2.87 5.48 5.81 5.26 10.04-.15 7.98-1.09 15.96-2.79 23.76-2.35 10.83-5.05 21.58-8.96 31.97-3.23 9.07-10.46 17.21-16.21 24.81-4.34 5.82-4.84 13.2-2.88 20.02 1.31 4.28 3.96 7.76 6.22 11.58-4.95-.23-9.6-.85-14.53.23-6.42 1.47-12.5 3.24-18.09 6.87-7.64 5.18-13.96 11.94-18.43 20.03-1.94-3.13-3.55-6.43-5.21-9.71-4.91-9.32-6.36-20.96-7.69-31.31-1.35-9.5-.5-18.83 1.13-28.23 1.54-8.3 6.29-14.37 8.69-22.34 1.79-5.88 1.87-12.45 2.11-18.56.42-9.35-.51-18.72.36-28 .43-5.85 5.12-10.9 9.14-14.8 6.36-5.99 14.33-8.15 22.83-8.92Z"/><path fill="#302e1f" d="M381.55 255.74c5.99-1.59 13.03 1.32 15.75 6.97 3.16 6.1 2.96 12.62 2.66 19.3-.74 7.75-2.57 15.32-7.25 21.69-2.55 3.43-5.64 7.55-9.57 9.44-4.41 1.81-10 .45-13.26-3.01-4.62-4.79-6.43-11.12-7.34-17.56-1.36-8.43 1.04-17.54 5.09-24.95 2.94-5.19 8.01-10.36 13.92-11.88ZM517.4 260.35c6.19-1.22 12.07 3.28 14.55 8.69 6.73 15.1 3.92 34.19-7.98 45.93-5.31 4.93-13.99 5.66-19.4.47-5.5-5.56-7.07-13.9-7.31-21.44.01-7.61 1.63-15.63 5.46-22.28 3.04-5.4 8.52-10.11 14.68-11.37Z"/><path fill="#e4ad6e" d="M718.27 311.23c3.99-1.18 8.02-.71 11.89.65 6.77 2.45 13.15 6.76 17.07 12.89 3.47 5.49 4.42 12.82 4.74 19.18.39 15.6-4.22 31.4-12.34 44.68-9.39 15.92-23.16 29.81-39.6 38.39-6.73 3.42-14.29 6.67-22 5.94-4.35-.39-7.73-2.85-11.64-4.37-4.32-2.04-9.73 3.81-7.23 7.98 1.6 2.68 4.51 5.25 4.84 8.45.63 5.23-.93 10.9-1.9 16.05-3.38 18.36-9.36 35.1-10.07 54 .1 5.37-4.38 8.64-7.34 12.61-8.15 10.18-16.84 19.79-27.09 27.92-11.12 8.38-20.38 18.07-32.29 25.71-20.5 12.85-42.25 23.25-64.64 32.34-5.41 2.14-10.68 4.56-15.9 7.12-2.32 1.05-4.93 2.49-7.55 2.06-3.77-.54-7.35-1.78-11.19-2.05-4.33-.45-8.64.48-12.94.14-2.6-.27-4.72-1.64-6.34-3.64-6.35-7.82-10.79-16.25-17.38-23.68-1.39-1.62-2.29-3.67-3.68-5.27 17.08-.56 34.07-2.26 50.84-5.62 16.28-3.45 32.21-8.78 47.23-15.97 19.5-8.9 38.17-20.46 54.02-34.96 14.86-12.23 28.31-26.55 37.31-43.7 5.89-11.77 10.15-24.23 13.02-37.07 3.24-13.64 3.54-26.72 8.06-39.82 4.98-18.81 8.87-37.96 12.02-57.16.9-4.94 1.11-10.3 2.8-15.04 1.82-1.85 4.35-3.08 6.52-4.51 7.91-4.77 14.28-11.15 22.39-15.58 5.81-3.17 12.01-5.86 18.37-7.67Z"/><path fill="#302e1f" d="M725.18 334.11c4.33-.58 8.78.63 11.3 4.41 3.29 5.08 4.86 11.22 4.05 17.25-2.66-2-5.35-4.75-8.54-5.76-5.04-1.64-11.15-.82-15.16 2.8-2.44 2.11-4.98 4.72-6.19 7.75-1.1 2.29 2.12 3.9 3.29 5.54 3.25 2.92 2.23 7.75 1.71 11.57-2.1 9.23-4.96 18.3-11.8 25.17-4.55 4.3-9.76 8.01-16.34 7.6.61-4.83 4.04-7.34 6.46-11.46 2.73-4.55 5.91-9.27 7.48-14.36.81-2.62-2.18-4.53-4.46-4.54-4.63.81-8.06 3.83-12.99 3.05-1.14-4.68.35-9.66 2.1-14.01 3.52-7.95 8.47-15.26 14.8-21.24 6.83-6.67 14.65-12.23 24.29-13.77Z"/><path fill="#e4ad6e" d="M380.9 403.04c8.73 3.35 17.14 7.11 26.42 8.82 18.6 3.51 36.69 6.44 55.68 6.42 12.67-.07 25.71-2.2 38.26-4.04 5.69-.77 11.19-2.4 16.84-3.34-6.34 5.67-14.59 7.21-22.57 9.55-15.42 3.6-31.71 5.98-47.57 4.99-11.29-.55-23.19-.96-34.23-3.4-8.67-1.72-18.12-4.29-25.54-9.25-3.68-2.32-5.47-5.96-7.29-9.75Z"/><path fill="#e4ad6e" d="M365.65 412.28c2.17 5.71 4.48 11.3 7.41 16.67 4.42 8.14 7.35 16.25 12.28 23.72 5.93 8.97 14.81 15.87 25.2 18.83 12.64 3.67 26.57 3.74 39.48 1.57 15.17-2.62 30.57-7.95 43.33-16.71 9.28-6.39 16.08-14.3 24.05-21.98 5.16-5.12 11.13-9.05 16.86-13.64 3.03 10.05 3.95 20.36-.32 30.22-3.46 7.6-7.37 15.76-13.07 21.92-8.9 10.23-21.22 17.08-34.72 18.71-1.67-4.28-2.02-8.37-5.22-11.91-10.79 2.16-21.48 4.49-32.41 5.94-15.11 1.36-30.18-.08-44.27-5.9-5.57-2.27-9.87-5.5-16.13-5.75-.06 3.69.63 7.3.75 10.97.08 1.1-.24 2.16-.94 3.2-5.88-1.25-11.3-4.27-15.2-8.87-4.92-5.92-7.36-14.21-9.5-21.48-2.72-9.83-1.1-18.89-1.22-28.85.15-5.63 1.8-11.36 3.64-16.66Z"/><path fill="#f5f2e9" d="M389.58 429.9c12.61 4.11 25.39 6.16 38.53 7.99 10.63 1.47 21.15 1.25 31.88 1.19 13.18.08 25.72-2.03 38.59-4.41-4.86 5.17-10.95 8.41-17.05 11.86-14.85 8.69-33.28 13.95-50.51 11.6-7.81-.39-15.34-1.92-22.08-6.06-8.39-4.96-16.04-12.89-19.36-22.17ZM662.51 533.91c5.42 4.07 9.92 10.06 14.65 14.94 6.1 6.31 11.94 12.74 18.91 18.13 3.78 2.79 2.93 7.62 2.49 11.69-2.47 16.17-3.57 32.44-5.27 48.69-1.36 12.32-1.38 25.98-5.26 37.67-.73 2.82-3.45 3.18-5.81 4.06-8.55 2.42-17.08 4.89-25.57 7.52-3.55 1.12-7.38 1.7-10.78 3.2-3.07.91-2.6 5.25-.97 7.23 3.25 3.93 7.29 6.96 10.01 11.37-3.92.59-7.54 2.06-11.38 1-8.38-2.09-17.7-2.41-26.02.11-5.3 1.43-9.91 5.45-13.79 9.2-5.09 5.25-9.62 10.89-12.23 17.8-1.11 2.33-1.89 5.46-4.75 6.16-3.75 1.03-7.62 1.63-11.42 2.45 3.27-6.49 7.47-12.47 10.95-18.85 12.71-22.27 25.19-44.64 36.22-67.8 17.24-37.18 28.77-75.28 40.02-114.57ZM636.88 558.11c-1.55 4.42-3.26 8.76-4.45 13.31-4.05 14.58-8.81 28.93-13.8 43.22-5.11 14.38-12.26 28.29-19.08 41.93-5.39 10.77-11.8 20.93-18.55 30.88.91-14.53 7.9-26.37 10.17-40.45 1.15-6.05 1.25-12.69.71-18.81-1.79-6.22-8.48-8.58-14.13-9.99-7.97-1.67-16.47-2.47-24.6-1.77 3.44-2.04 6.88-4.06 10.46-5.84 10.63-5.44 20.57-11.89 30.52-18.45 8.4-5.77 16.22-12.42 23.74-19.28 6.21-4.93 12.2-10.85 19.01-14.75Z"/><path fill="#f5f2e9" d="M712.59 578.01c25.87 12.22 51.49 25 77.5 36.93 13.39 5.95 26.86 11.71 40.19 17.79 11.32 5.15 22.82 9.54 33.93 15.08 4.28 2.13 8.44 3.79 12.1 6.97-6.77 6.19-14.87 10.5-21.13 17.4-13.51 12.8-23.72 27.93-33.14 43.86-4.12 6.98-7.66 14.51-11.28 21.77-10.69 21.52-18.81 43.97-26.16 66.81-5.92 18.9-11.44 37.9-15.81 57.22-6.46 26.68-10.16 54.46-13.5 81.69-3 26.77-5.67 53.61-7.78 80.47H482.63c11.06-16.72 22.04-33.46 33.3-50.08 5.3-8.08 10.46-16.26 15.66-24.4 2.28-3.7 6.55-3.39 10.36-3.44 11.68.31 23.36.66 35.05.81 12.69.01 25.35-.85 38.03-.97 5.68-.37 11.32-.97 17.03-.97 20.44-1.54 41.04-2.27 61.43-4.31 5.5-.79 11.48-.77 16.82-2.34 3.06-.99 3.6-3.61 4.75-6.25 3.55-9.64 6.43-19.57 8.33-29.67.72-4.18 2.21-8.26 2.66-12.46.57-3.44-3.65-5.89-6.59-4.66-4.38 1.7-8.91 2-13.52 2.52-11.92 1.16-23.9 3.52-35.84 4.29-7.32.67-14.68 1.18-22.02 1.64 1.39-6.79 7.36-9.29 10.52-15.12 3.67-5.73 2.67-13.76 1.53-20.14 4.29-.32 8.83-.04 12.78-1.54 3.28-1.15 6.05-3.36 9.24-4.61 2.11.09 4.24 1.64 6.26 2.28 11.25 3.93 23.3 4.32 34.92 1.87 5.37-1.38 10.97-4.49 14.3-8.99 1.81-3.38-.32-4.5-2.36-6.8-4.75-4.65-6.29-10.5-10.23-15.68-2.6-3.68-5.82-6.66-8.95-9.86 3.7-5.87 7.11-11.48 8.93-18.26.91-4.04.54-8.4-.44-12.39-.62-2.55-2.01-4.92-2.44-7.49.49-4.3 2-8.21 1.57-12.75-.46-4.3-1.58-8.67-3.24-12.67-2.53-6.1-7.94-11.13-13.42-14.64-3.73-2.49-7.8-3.37-11.89-5.04-1.15-3.94-1.74-7.79-3.44-11.56-1.97-4.56-5.11-8.05-8.63-11.46-3.15-2.83-3.14-6.67-5.77-10.17-3-3.79-6.57-7.06-9.36-11.05 8.64-1.31 16.61-4.41 25-6.67 4.03-1.12 8.95-3.31 10.55-7.49 1.27-4.08 1.58-8.51 2.25-12.72 1.7-15.76 3-31.54 4.87-47.29 1.2-11.91 3.16-23.44 1.96-35.46ZM399.88 584.13c-.59 4.77-1.61 9.49-2.52 14.21-.5 2.1-.9 4.81-2.35 6.49-3.12 1.16-6.22 1.07-9.11 3.05-4.46 2.91-6.23 7.84-7.04 12.87-1.79 11.04-2.22 22.05-2.81 33.19-.37 6.93.51 13.72 1.22 20.59.72 4.81 1.27 10.32 3.51 14.69 1.59 3.27 4.64 4.8 4.4 8.71-.05 9.02-1.12 18.04-1.18 27.08-.01 14.33-.01 28.66 0 42.99-.03 9.04 1 17.97.99 27.01 3.07 61.31 10.5 122.04 20.33 182.63 2.44 15.66 5.7 31.16 10.23 46.36h-19.64c-5.4-15.07-12.95-28.96-19.27-43.61-4.94-10.91-8.85-22.02-12.64-33.37-8.68-26.28-16.89-52.72-24.79-79.24-6.52-23.25-11.23-47.15-14.88-71-2.07-12.36-3.52-24.8-4.6-37.28-1.49-14.07-3.03-28.16-3.99-42.28-.5-4.84-1.2-10.12-.4-14.94.53-3.12 3.43-3.69 5.79-5.12 8.74-4.79 17.4-9.78 25.69-15.32 4.06-2.66 9.23-5.02 12.44-8.68 1.9-2.12 1.5-5.02-.47-6.93-3.38-3.3-7.24-6.16-10.95-9.07-4.26-3.38-8.63-5.86-12.05-10.19 2.04-5.73 6.94-10.73 10.65-15.53 6.6-8.38 14.07-16.02 20.57-24.47 3.07-4.04 8.49-6.34 12.56-9.4 6.78-4.4 13.13-9.73 20.31-13.44ZM414.35 586.22c5.01-1.64 12.11-.28 16.1 3.31 6.67 5.22 11.66 12.75 16.23 19.78 3.88 5.92 7.04 12.24 8.93 19.08-5.14-2.65-10.04-5.95-14.81-9.2-6.19-4.29-14.34-6.45-21.52-8.51-2.25-.73-5.13-1.56-6.11-3.98-.62-3.42.22-7.35.57-10.79.42-3.23.05-6.51.61-9.69Z"/><path fill="#f5f2e9" d="M334.11 620.29c-2.88 4.34-5.94 8.51-9.41 12.41-3.2 3.98-7.29 8.57-8.59 13.59-.52 2.37.17 4.11 1.72 5.89 6.02 6.71 14.61 11.05 20.4 17.93-3.14 3.78-7.3 4.18-11.48 6.63-7.01 4.01-13.83 8.31-21.02 12-2 1.2-4.69 2.15-5.22 4.72-1.21 5.23-.19 11.25.28 16.56 3.09 36.37 4.95 71.58 12.47 107.51 3.03 15.51 6.75 30.82 11.05 46.02 10.44 37 21.06 74.11 33.68 110.43 5.7 17.09 12.51 33.78 20.3 50.02H254.41c-4.45-25.13-6.71-50.23-8.83-75.63-1.52-17.81-2.35-35.6-3.52-53.38-.01-6.08-.21-12.09-.7-18.15-1.5-32.08-.46-63.78-.27-95.83.94-19.92 1.84-39.31 3.78-59.21.96-13.53 2.4-26.98 4.82-40.32 1.18-6.4 1.43-12.9 2.61-19.3.66-3.23 1.76-6.33 4.79-8.03 4.82-2.69 10.07-4.67 15.1-6.94 16.77-7.2 33.34-14.93 50.26-21.75 3.95-1.59 7.78-3.44 11.66-5.17Z"/><path fill="#ede0c2" d="M445.14 651.56c-5.55 1.97-10.52 4.12-16.49 4.52-1.92-.1-3.88-1.42-5.54-2.31 7.17-1.69 14.69-1.45 22.03-2.21ZM511.82 658.56c8.59-.29 15.74 4.54 24.19 6.99-4.8-.86-9.7-1.44-14.45-2.55-3.4-.74-6.69-2.75-9.74-4.44Z"/><path fill="#f5f2e9" d="M894.78 661.23c11.03 5.01 20.1 14.68 25.66 25.33 5.47 10.08 9.1 20.87 11.98 31.94 5.09 18.98 8.57 38.27 11.2 57.74 4.44 34.72 7.83 69.75 8.38 104.76.62 21.33.92 42.67.23 64.01-.44 9.19.09 18.34-.9 27.51-.74 17.17-1.74 34.35-3.11 51.48H761.58c1.14-19.34 3.41-38.59 4.64-57.93 2.44-25.35 5.95-50.61 10.29-75.71 3.29-18.12 6.65-36.52 11.58-54.27 2.73-10.63 6.52-20.84 9.68-31.33a354.314 354.314 0 0 1 33.21-78.78c8.34-13.11 16.53-26.61 26.32-38.68 8.7-10.81 19.78-19.27 31.47-26.62 1.77-1.39 4.15-.06 6.01.55ZM243.1 661.43c-.85 9.16-2.45 18.28-4.43 27.27-3.55 16.5-5.1 33.5-5.93 50.33-1.2 12.97-2.37 25.96-3.16 38.96-1.45 17.68-1.62 35.42-2.47 53.03-.23 12.32-.06 24.65-.1 36.98-.03 13.35 1.09 26.65.99 40 .03 7.37.96 14.64.98 22-.05 7 1.1 13.91 1.05 20.92 1.58 24.38 3.43 48.84 6.6 73.08h-93.36c.53-2.75.89-5.53 1.34-8.3 2.09-16.57 5.04-33.05 7.53-49.57 1.58-10.51 4.02-20.82 5.77-31.3 4.98-29.36 11.5-58.35 17.38-87.53 2.83-12.66 6.31-25.17 9.33-37.79 4.12-17.77 8.99-35.35 14.04-52.88 7.25-25.67 15.91-50.61 29.09-73.9 4.22-7.3 8.63-16.02 15.35-21.3ZM495.29 679.2c2.61-.79 4.76 1.36 6.49 3 4.64 4.82 8.96 9.69 14.55 13.47 8.33 6.02 17.96 9.37 28.03 11.08 8.87 1.64 19.07 2.83 27.81.12-4.01 8.59-9.33 16.05-14.16 24.15-11.12 18.48-22.58 36.75-33.88 55.12-11.84 18.86-23.1 38.07-35.22 56.77-7.17 11.78-15.07 23.08-22.01 34.99-7.99 13.63-18.27 25.98-29.26 37.29-4.04-6.57-6.33-13.83-8.62-21.14-1.48-4.35-1.11-9.44-.73-13.96 2.06-15.95 4.38-31.88 7.18-47.73 4.48-27.36 9.14-54.74 15.1-81.82 4.07-18.62 8.22-37.27 13.32-55.64 1.3-4.45 2.35-8.76 4.27-12.98 4.71.28 8.9 1.66 13.66.79 4.73-.46 8.95-2.29 13.47-3.51ZM456.15 679.69c-.54 6.59-2.4 13.11-3.92 19.53-4.71 18.58-8.96 37.27-13.17 55.96-4.93 24.01-11.18 48.7-13.65 73-1.58 12.39-1.77 25.92-5.58 37.71-3.14-6.53-4.53-13.29-6.36-20.25-5.34-22.24-9.1-44.87-11.37-67.63-1.25-13.93-2.39-28.02-2.1-42.01.02-11.67-.16-23.14 1.45-34.74.34-1.48.64-2.87 2-3.75 3.06-.61 6.29-.27 9.39-.72 10.03-1.64 19.71-4.28 28.62-9.29 4.9-2.8 9.32-5.89 14.69-7.81ZM635.1 710.01c4.24-.23 7.05 2.41 10.95 4.05 2.27-1.01 4.23-2.46 6.37-3.7 6.93-1.16 14.23-.14 19.88 4.33 5.19 4.41 9.54 10.13 10.82 16.95.74 3 .71 6.46 2.02 9.24 1.03 1.94 2.89 2.75 4.98 3.02 5.79.71 11.5 2.13 16.18 5.8 4.77 3.78 6.91 10.38 6.73 16.3.11 4.8-2.09 8.38-3.53 12.86 2.23 3.68 4.79 6.5 4.64 11.1.88 7-2.64 12.25-6.7 17.51-2.79 3.39-6.65 6.42-11.32 5.66-2.44-.2-5.33-1.7-7.71-1.04-2.47 1.74-2.51 4.02-2.84 6.76-.71 6.56-2.47 13.27-5.68 19.06-4.11 6.83-13.27 9.64-20.83 8.99-3.75-.35-6.03-2.6-9.29-4-3.14-1.04-4.43 1.67-6.73 3.21-2.63 2.22-5.77 2.44-9.07 2.66-4.02.27-7.7-1.45-10.58-4.16-6.29-5.59-6.88-13.62-14.3-18.39-11.14 8.43-28.05 6.32-37.07-4.22-5.76-6.68-6.6-15.33-5.81-23.78.73-2.94 3.77-5.3 4.04-8.27-.06-4.25-4.58-7.6-5.13-11.92-.58-3.65-1.51-7.74-.35-11.32 1.78-5.73 3.92-11.33 9.09-14.85 5.93-3.8 13.07-6.14 20.17-5.84 2.6.21 4.68-.83 5.76-3.24 1.49-3.77 1.79-7.9 3.34-11.68 3.44-8.89 10.68-16.92 19.81-20.07 4.07-1.49 7.87-.92 12.16-1.02Z"/><path fill="#302e1f" d="M474.36 732.33c2.89-.57 6.91-.96 9.43.89 4.44 3.2 5.57 9.72 2.79 14.37-2.54 4.56-7.17 7.52-12.47 7.31-4.3-.09-7.99-4.23-9.04-8.14-.77-5.9 3.03-13.28 9.29-14.43ZM666.77 747.22c4.52 4.33 5.67 9.58 8.05 15.02 2.42 2.8 5.27 4.63 6.75 8.23 2.84 6.43 1.25 14.67-.99 21.08-3.76 10.52-13.22 18.78-24.59 19.48-4.61.04-8.49-2.64-12.6-4.34-3.42 2.02-6.25 4.16-10.36 4.47-8.86 1.43-17.97-2.86-23.07-10.13-5.27-7.28-7.3-16.61-5.48-25.42 1.22-5.4 5.15-10.32 9.04-14.11 5.28-4.6 11.34-4.96 18.04-4.93 1.5-3.6 2.27-6.97 5.47-9.53 8.1-6.74 21.9-7.29 29.74.18Z"/><path fill="#f5f2e9" d="M655.77 749.16c4.4 1.14 7.46 4.77 9.45 8.67 1.73 2.78-.71 6.97 1.05 9.75 2.23 2.22 5.83 4 7.18 6.95 2.08 4.74.78 10.26-1.07 14.85-1.94 4.46-4.94 9.31-9.36 11.64-2.48 1.32-5.52 2.24-8.28 1.28-4.22-1.47-7.62-4.72-9.35-8.84 2.76-1.92 5.34-3.16 6.41-6.63-3.83-1.59-7.45-2.25-10.82-4.82-5.07-3.93-9.21-10.27-8.86-16.89 1.65-.3 2.97-.8 4.57.01 4.04 1.72 7.86 4.08 11.05 7.11 1.55 1.24 2.98 3.16 5.19 2.83 2.14.15 3.38-1.53 4.06-3.34.25-2.71-1.31-5.68-3.02-7.7-3.95-4.3-9.83-4.19-14.85-7.84 3.19-6.27 10.13-8.05 16.65-7.03ZM623.73 764.82c.35 2.89.5 6.05 1.66 8.73 2.53 5.72 6.47 9.92 10.53 14.53 2.29 2.84 4.53 6.35 1.98 9.82-3.29 4.17-9.82 4.9-14.7 3.96-5.12-1.15-8.11-5.56-9.88-10.17-2.08-5.7-3.1-13.02-.3-18.64 2.22-3.75 7.03-6.12 10.71-8.23ZM553.21 777.91c1.3 5.51 3.29 11.38 2.33 16.96-1.12 8.82-.94 18.74 2.49 27.07 4.13 9.37 12.65 15.78 21.82 19.81-2.35 2.83-4.63 5.6-6.11 9.01-2.49 5.14-2.73 10.1-6.36 14.61-14.05 18.71-26.04 38.67-38.75 58.27-11 18.27-22.36 36.3-33.55 54.46-9.17 15.44-18.83 30.58-28.2 45.9h-17.8c2.21-8.13 5.04-16.04 8.02-23.92 19.09-52.71 40.33-104.62 63.2-155.8 8.56-18.34 17.09-36.71 26.23-54.76 2.17-4.06 3.91-7.97 6.68-11.61Z"/><path fill="#8caa35" d="M709.97 829.96c6.84 1.05 12.79 8.41 11.61 15.38-8.56 3.16-18.84 3.77-27.45.48-5.12-1.3-5.35-9.38-1.16-11.84 4.85-3.43 11.11-5.13 17-4.02Z"/><path fill="#302e1f" d="M456.3 832.13c2.6-.39 5.09-.33 7.25 1.35 3.61 2.99 4.15 7.7 3.04 12.02-1.11 3.53-2.5 7.22-5.78 9.26-2.43 1.55-6.69 1.77-9.36.86-5.05-2.63-6.83-9.45-4.39-14.48 1.66-3.67 4.89-8.5 9.24-9.01Z"/><path fill="#8caa35" d="M610 843c3.32 2.04 5.59 6.22 6.03 10.03.16 2.01-1.18 3.29-2.7 4.34-3.12 2.05-6.9 3.31-10.34 4.72-5.84 2.25-10.97 4.92-16.93 6.52.05-5.03.25-10.03 3.26-14.29 2.74-3.76 6.5-7.04 10.43-9.51 2.78-1.61 7.13-3.17 10.25-1.81ZM645.32 857.87c1.16-.34 1.95.24 2.95.73.78 4.3.95 8.8.29 13.12-.76 4.09-4.75 7.45-8 9.71-3.68-3.66-6.56-8.2-9.63-12.37-1.99-2.66-3.14-5.54-3.91-8.75 3.03.02 6.07.27 9.1.11 3.37-.21 6.03-1.69 9.2-2.55Z"/><path fill="#f5f2e9" d="M618.38 871.41c4.55 8.3 11.85 14.02 17.17 21.68-2.24 1.08-4.48 1.96-6.98 2.23-9.82 1.03-19.56.4-29.44 1.07-12.13.66-24.28.29-36.38 1.28 3.13-7.06 8.36-12.35 12.5-18.75 1.52 1.61 2.9 3.94 4.9 4.93 2.33-.52 4.53-1.99 6.71-2.95 7.49-3.56 15.3-3.93 23.29-6.74 2.73-.99 5.39-2.09 8.23-2.75ZM710.9 899.19c.31 4.52-.83 8.71-1.49 13.14-.74 4.54-1.44 9.51-3.37 13.72-.69 1.49-2.02 2.12-3.53 2.52-3.64.9-7.54 1.29-11.28 1.54-10.06.96-20.16 1.74-30.22 2.73-11.36.47-22.69 2-34.06 2.22-3.99.24-7.9.97-11.91.93-23.02.01-46.07.03-69.08-.01-2 .06-3.8-.39-5.7-.92 1.92-5.46 5.19-9.73 8.24-14.57 2.38-3.54 4.63-7.34 7.51-10.5.87-1.12 2.66-1.03 3.95-1.23 8.31-.64 16.76-.75 25.07-.81 10.32-.53 20.63-1.01 30.97-.97 7.03-.32 14-1.13 21.05-1a1846.2 1846.2 0 0 0 40.02-2.89c11.44-.37 22.44-3.14 33.83-3.9Z"/></svg>
