<svg xmlns="http://www.w3.org/2000/svg" width="1024pt" height="1024pt" viewBox="0 0 1024 1024"><path fill="#fefde7" d="M0 0h1024v1024h-5.89c-.04-27.25-2.53-54.79-4.14-81.99-2.13-27.34-5.17-54.63-9.28-81.74-5.92-36.56-12.25-73.35-21.77-109.17-5.52-20.55-11.89-41.23-24.13-58.9-5.24-6.95-12.02-14.4-20.22-17.77-3.56-1.57-7.48-2.34-10.96-4.05-2.47-1.4-4.64-3.38-6.91-5.08-13.97-10.79-31.1-18.85-46.66-27.35-31.01-16.23-61.65-33.14-92.72-49.27-15.35-8.19-30.5-16.24-46.26-23.77-1.12-.54-1.82-1.44-2.55-2.4-8.75-12.33-17.37-24.75-25.54-37.47-6.09-8.99-12.77-18.96-21.72-25.3-2.9-2.23-6.04-4.04-9.23-5.81-1.61-.61-.86-2.51-.74-3.77 2.13-9.3 4.65-18.49 7.24-27.68 6.99-.55 13.68-1.19 20.32-3.62 9.24-3.34 17.7-9.58 25.17-15.85 6.36-5.15 11.76-11.82 16.66-18.35 12.38-17.26 20.67-37.63 23.34-58.74 1.42-9.25 1.5-18.84.15-28.1-1.49-10.14-6.28-20.13-14.65-26.33-4.64-3.67-9.96-5.72-15.5-7.6.45-6.64 1.13-13.24 1.26-19.9 1.22-13.91.76-28.01.76-41.99-.96-17.56-3.21-35.27-7.8-52.28-8.26-30.89-24.08-59.78-45.31-83.66-17.35-20.02-40.08-36.11-63.26-48.72-13.32-7.43-27.46-13.52-42.07-17.95-23.72-6.99-50.06-7.69-74.61-6.37-59.55 3.85-116.77 31.04-158.8 73.16-19.61 19.05-34.93 41.62-46.85 66.15-8.59 18.02-14.81 37.04-19.62 56.39-1.39 5.26-2.68 10.55-4.25 15.76-10.44 2.05-20.86 4.1-31.16 6.79-2.82 5.46-4.2 12.23-2.93 18.29.83 3.96 6.23 6.12 7.5 9.61.47 7.58-.63 15.22-.2 22.83.28 14.93 2.77 30.53 11.43 43.06-4.64 16.29-8.38 32.89-8.28 49.94-.52 31.53 8.69 63.6 20.64 92.54 13.78 32.94 30 64.89 48.14 95.63-20.43 10.84-41.17 21.09-61.73 31.69-29.21 15.05-58.76 29.64-87.55 45.46-7.55 3.84-14.37 8.61-20.09 14.91-10.89 11.95-19.7 25.66-26.86 40.14-6.69 12.82-12.2 26.06-17.5 39.51-12.55 32.02-22.28 64.7-31.09 97.92-14.92 56.55-26.28 113.56-36 171.2H0V0Z"/><path fill="#0a0c04" d="M506.98 33.02c24.55-1.32 50.89-.62 74.61 6.37 14.61 4.43 28.75 10.52 42.07 17.95 23.18 12.61 45.91 28.7 63.26 48.72 21.23 23.88 37.05 52.77 45.31 83.66 4.59 17.01 6.84 34.72 7.8 52.28 0 13.98.46 28.08-.76 41.99-.13 6.66-.81 13.26-1.26 19.9 5.54 1.88 10.86 3.93 15.5 7.6 8.37 6.2 13.16 16.19 14.65 26.33 1.35 9.26 1.27 18.85-.15 28.1-2.67 21.11-10.96 41.48-23.34 58.74-4.9 6.53-10.3 13.2-16.66 18.35-7.47 6.27-15.93 12.51-25.17 15.85-6.64 2.43-13.33 3.07-20.32 3.62-2.59 9.19-5.11 18.38-7.24 27.68-.12 1.26-.87 3.16.74 3.77 3.19 1.77 6.33 3.58 9.23 5.81 8.95 6.34 15.63 16.31 21.72 25.3 8.17 12.72 16.79 25.14 25.54 37.47.73.96 1.43 1.86 2.55 2.4 15.76 7.53 30.91 15.58 46.26 23.77 31.07 16.13 61.71 33.04 92.72 49.27 15.56 8.5 32.69 16.56 46.66 27.35 2.27 1.7 4.44 3.68 6.91 5.08 3.48 1.71 7.4 2.48 10.96 4.05 8.2 3.37 14.98 10.82 20.22 17.77 12.24 17.67 18.61 38.35 24.13 58.9 9.52 35.82 15.85 72.61 21.77 109.17 4.11 27.11 7.15 54.4 9.28 81.74 1.61 27.2 4.1 54.74 4.14 81.99h-18.3c.75-11.74-1.21-23.26-.82-35-1.85-29.28-3.68-59.05-6.59-88.27-.5-4.72-1.34-9.39-1.98-14.09-1.58-16.37-4.35-32.66-7.21-48.85-2.14-9.53-3.44-19.18-5.22-28.77-5.68-25.61-10.95-52.5-19.63-77.4-3.18-9.34-6.54-18.51-12.58-26.4-3.8-5.02-8.31-11.08-14.05-13.93-8.34.67-16.88 4.97-23.63 9.81-7.01 4.92-13.36 10.52-18.97 17-12.73 13.29-23.56 29.1-33.44 44.59-12.26 20.34-22.61 41.87-30.94 64.11-4.74 11.72-8.58 23.89-11.92 36.08-5.87 20.72-10.78 41.8-13.82 63.12-1.8 14.26-3.51 28.63-4.01 43 .12 18.33-.98 36.69-.33 55h-12.76c.07-6.03.18-12.05.72-18.06.8-9.41-.11-18.8.83-28.18.74-6.92.34-13.86 1.24-20.77.53-12.87 2.6-25.5 4.09-38.26 4.01-26.93 9.44-53.76 17.07-79.9 5.44-16.99 11.72-33.77 18.87-50.11 6.57-13.92 13.79-27.85 22.26-40.71 7.96-12.78 16.88-24.91 26.75-36.28 4.83-5.53 10.18-10.44 15.48-15.51 3.77-3.6 7.77-6.95 12.01-9.99 3.45-2.52 7.32-4.34 10.73-6.92-6.59-5.23-13.94-8.81-21.08-13.18-8.78-5.33-17.86-10.15-26.81-15.19-9.43-4.35-18.17-9.91-27.45-14.54-13.98-7.75-28.13-15.16-42.14-22.86-17.52-8.31-34.26-18.32-51.34-27.55 2.29 11.49 6.15 22.63 8.21 34.18 4.96 21.88 10.74 43.81 14.53 65.93.52 3.31 2.32 7.55 1.23 10.82-1.39 2.95-4.83 5.07-7.59 6.61-6.52 3.35-13.53 5.9-20.3 8.69-10.62 4.38-21.24 8.74-31.89 13.04-2.63.96-5.22 1.97-7.6 3.47 9.5 9.03 19.04 17.98 28.64 26.9 4.6 3.98 9.34 8.07 13.25 12.74 1.84 2.22 1.22 5.16.44 7.68-1.89 5.52-5.22 10.86-7.95 16.03-4.39 8.04-8.35 16.31-12.64 24.41-4.47 8.19-9.18 16.23-13.46 24.53-7.09 12.82-14.39 25.48-21.97 38.01-6.9 10.86-13.2 22.05-20.18 32.87-3.5 5.75-7.35 11.28-10.77 17.08 10.04.49 19.72-1.07 29.87-1.8 6.84-.29 13.59-1.38 20.43-1.64 7.55-.2 15-1.39 22.54-1.8 8.16-.51 16.85-2.59 24.98-1.83 1.96.19 2.1 1.94 2.8 3.43 1.28 3.35 1.35 6.85.93 10.37-1.47 11.5-2.79 23.03-4.32 34.5-.48 2.55-1.18 7.05-3.67 8.38-4.11.91-8.43 1.1-12.62 1.34-14.42.27-28.69 2.06-43.1 2.65-15.05.36-29.89 2.8-44.93 3.42-4.01.08-7.98.51-11.97.82-6.56.52-13.08-.13-19.64.5-4.63 6.5-8.53 13.45-13.03 20.05-3.73 5.47-7.25 11.09-10.87 16.63h-18.03c17.7-26.71 36.24-52.88 53.9-79.64 3.95-5.51 7.52-11.19 11.03-16.99 10.58-16.24 20.49-32.84 30.66-49.34 12.3-18.09 21.83-38.3 32.68-57.3 4.12-8.16 8.95-15.94 12.82-24.22 3.9-7.45 8.3-14.74 11.65-22.46-7.13-6.62-14.1-13.39-21.27-19.96-7.3-7.04-14.32-14.41-21.93-21.1-5.65-5.34-11.06-10.93-16.52-16.45-2.39-2.74-5.78-6.17-5.15-10.12.84-1.93 2.71-1.64 4.43-1.26 6.4 2.88 11.27 8.69 17.4 11.87 4.39-.2 8.83-2.48 12.93-3.99 14.56-6.2 29.5-11.45 43.92-18.02 3.44-1.73 8.24-2.5 10.93-5.29.02-3.83-1.5-7.72-2.21-11.47-4.76-23.17-10.35-46.29-15.62-69.35-.81-4.07-1.8-8.06-2.93-12.05-1.3-4.68-1.62-9.11-3.74-13.31-2.23-4.46-5.35-8.71-8.22-12.77-6.58-9.67-13.37-19.23-20.43-28.56-2.07-2.85-3.8-5.75-6.48-8.11-3.55 15.99-7.97 31.81-12.76 47.47-4.82 13.21-10.68 26.06-15.81 39.16-6.85 17-14.56 33.65-21.34 50.68-3.78 8.91-7.95 17.62-11.28 26.72-3.7 8.73-7.37 17.47-10.68 26.35-9.79 23.04-17.84 46.75-26.7 70.22-6.67 20.59-14.2 40.91-20.36 61.65-7.7 24.37-14.54 48.98-21.42 73.58-2.15 7.88-3.91 15.84-6.4 23.62-4.73 16.99-8.26 34.44-12.34 51.61-1.52 6.27-2.56 12.66-4.44 18.83h-13.09c.64-2.95 1.12-5.93 1.74-8.89 1.34-5.98 2.42-12.01 3.71-18 1.48-6.34 2.87-12.68 4.19-19.05 1.47-5.86 2.85-11.73 4.07-17.64 4.03-16.54 8.28-33.03 12.84-49.43 1.75-6.02 3.4-12.07 5.15-18.09.85-3.01 1.71-6.02 2.57-9.04 2.13-7.34 4.26-14.67 6.55-21.96 1.46-5.19 3.01-10.36 4.69-15.48 3.62-10.86 6.87-21.83 10.76-32.6 1.88-5.27 3.8-10.51 5.47-15.84 1.93-5.69 3.85-11.38 5.77-17.07 2.28-6.33 4.62-12.62 7.06-18.89 3.13-8.41 6.41-16.75 9.66-25.11 2.54-7.31 5.89-14.41 7.98-21.86-3.83 3.04-6.61 7.29-10.05 10.8-3.63 4.47-7.76 8.46-11.49 12.84-3.98 4.56-8.29 8.82-12.3 13.36-2.98 3.33-6.28 6.36-10.06 8.78-1.62.82-3.24 1.65-4.9 2.4-2.6.82-5.27 1.34-7.97 1.73-3.83-1.52-6.96-3.46-10.07-6.16-7.38-10.38-11.25-23.69-13.88-36.02-1.83-7.47-3.78-14.85-6.75-21.96-.47-1.24-.91-2.5-1.35-3.76-2.4-7.31-6.69-13.71-11.45-19.69-2.48-3.32-6.87-4.89-10.25-7.49 0-1.03 0-2.06-.01-3.09-.79.51-1.57 1.03-2.36 1.56-2.84 1.92-5.84 3.95-8.18 6.49-4.8 5.42-9.09 11.17-12.82 17.38l-.45.74c-2.85 4.69-6.05 9.13-8.79 13.89-1.93 2.98-3.95 5.89-5.72 8.97-5.98 9.05-10.88 18.66-17.35 27.39-2.6 3.75-5.59 7.13-8.49 10.63-3.65 4.71-5.58 11.16-7.39 16.77-1.72 5.76-3.15 11.61-4.49 17.46-1.17 4.93-2.33 9.85-3.52 14.77-3.59 15.55-7.49 31.1-10.24 46.83-1.72 7.12-2.97 14.33-4.37 21.52-.83 4.19-1.53 8.39-2.3 12.59-1.06 5.39-1.95 10.8-2.88 16.21-2.59 16.43-5.93 32.7-8.07 49.2-.91 5.6-1.61 11.23-2.37 16.86-1.01 6.67-1.93 13.4-2.7 20.1-.68 5.96-1.59 11.87-2.01 17.84-.96 6.66-1.87 13.31-2.42 20.01H370.4c.38-6.96.84-13.89 1.81-20.8.77-5.34 1.5-10.69 2.15-16.05.9-7.07 1.9-14.13 2.77-21.21.76-5.9 1.72-11.77 2.32-17.7 2.62-16.07 4.66-32.24 7.7-48.26 1.23-6.06 2.44-12.13 3.71-18.19.74-3.6 1.43-7.22 2.1-10.84 1.4-7 2.83-13.98 3.98-21.03 2.94-15.72 5.86-31.48 9.08-47.14 1.13-5.31 2.08-10.63 3.43-15.89 1.36-5.64 2.72-11.23 4.4-16.8 1.64-5.57 3.19-11.29 5.29-16.7 1.32-3.37 3.11-6.47 4.96-9.57 1.34-2.26 2.79-4.49 3.92-6.86-.68-1.58-2.98-2.52-4.21-3.77-3.38-3.09-6.82-6.2-10.01-9.48-4.74-5.38-9.84-10.55-15.03-15.48-1.44-1.77-2.65.44-3.82 1.31a25.792 25.792 0 0 0-3.18 4.24c-3.22 5.92-4.82 12.08-7.66 18.35-1.52 3.36-3.33 6.49-5.18 9.67-2.65 2.63-5.11 5.44-7.82 8.02-.75.72-1.49 1.45-2.22 2.19-2.26 1.38-5.03.82-6.51-1.4-5.45-8.14-9.22-16.77-13.39-25.59-2.35-5.08-4.51-10.67-7.94-15.08-1.44 5.23-1.94 10.76-3.04 16.09-1.39 6.98-2.75 13.96-4.08 20.94-1.11 5.62-2.05 11.26-3.1 16.88-1.1 5.28-2.23 10.53-2.96 15.87-.99 5.74-2.11 11.46-2.96 17.22-3.21 15.92-6.03 31.91-9.04 47.87-1.18 5.65-2.21 11.34-3.25 17.02-.93 4.67-1.65 9.39-2.54 14.07-.79 4.64-1.61 9.28-2.46 13.92-2.93 17.46-5.86 34.93-8.54 52.44-.87 5.14-1.59 10.31-2.42 15.47-1.21 5.75-1.88 11.55-2.7 17.36-.76 4.91-1.51 9.82-2.27 14.73-1.62 11.33-2.85 22.83-4.27 34.18h-12.73c1.82-8.86 1.87-18.05 3.27-27.02 3.27-22.45 5.55-45.16 9.43-67.57 2.6-19.34 6.36-38.45 9.31-57.72 2.88-14.57 5.33-29.22 8.09-43.81 5.81-30.37 11.32-60.77 16.91-91.18 3.28-13.98 5.8-28.07 7.71-42.31.45-3.67 1.88-8.06.84-11.66-1.05-3.98-2.49-7.72-2.98-11.84-1.54-13.61-.06-26.88 2.33-40.28 1.9-10.13 4.77-20.06 6.68-30.18.55-2.05-.84-3.56-2.93-3.11-3.81 2.51-6.28 7.34-9.2 10.82-8.34 10.37-16.78 20.63-24.73 31.31-11.63 13.77-22.36 28.22-34.03 41.95-1.73 2.01-3.29 4.11-4.58 6.43 10.52 7.7 21.48 14.86 32.45 21.9 1.29.8 2.17 1.89 3.04 3.1a82.126 82.126 0 0 1-5.6 3.88c-7.99 4.88-15.54 10.59-23.55 15.44-7.06 4.24-13.88 8.87-21 13.03-3.08 1.91-6.35 3.57-9.32 5.66-2.62 1.58-2.46 5.46-2.68 8.13-.16 10.23-.21 20.47.18 30.69-.51 17.31.27 34.08.66 51.35-.1 22.35 1.47 44.73 3.26 67.01 2.09 20.98 3.45 42.02 5.77 63 1.66 17.76 3.94 35.33 6.55 52.98h-13.44c-1.87-10.45-2.8-21.01-4.63-31.46-3.11-25.07-5.28-50.31-7.34-75.48-.24-11.08-2.1-22.02-2.25-33.1-.35-5.99-1.07-11.93-1-17.96.13-7.71-1.13-15.31-.96-23.04-.47-8.32-.93-16.62-.83-24.96-.2-22.01-.09-44.03-.13-66.04.08-3.39.52-7.38 3.1-9.86 4.69-4.58 11.58-7.46 17.27-10.73 7.23-3.67 14.05-8.04 21.24-11.77 3.1-1.6 6.21-3.19 9.25-4.91-6.6-5.33-14-9.67-20.81-14.72-2.74-2.06-6.05-4.14-8.03-6.96-1.32-1.93-1.14-3.98.18-5.85 3.87-5.67 8.39-10.93 12.71-16.25 13.36-16.92 27.17-33.46 40.67-50.34 2.57-3.24 5.37-6.19 7.45-9.8-2.46.88-4.77 1.92-7.05 3.17-9.98 5.39-19.91 10.96-30.13 15.89-10.04 4.87-19.78 10.35-29.85 15.17-7.95 3.95-15.64 8.42-23.58 12.4-11.62 5.92-22.72 12.73-34.32 18.67-1.54.92-3.07 1.46-3.62 3.34-7.5 22.25-11.26 44.57-15.39 67.65-3.99 28.55-5.05 58.19-7.03 86.91-.07 7.58.01 15.14-.64 22.71-.7 7.33-.09 14.67-.7 21.99-.53 7.09-.46 14.23-.67 21.33-.16 41.33.1 82.67-.13 124h-13c.23-26.99-.03-54 .22-80.99.83-16.65.74-33.35.96-50.01.46-8 .54-16 .89-24-.18-11.03.93-21.99 1.01-33 .01-3.69.34-7.35.68-11.02.58-6.19.01-12.35.81-18.53.55-4.47.45-8.94.75-13.42 2.39-27.76 5.79-55.37 11-82.74.92-4.82 2.29-9.58 2.74-14.39-2.93 2.99-4.32 6.69-6.68 10.4-4.38 7-7.64 14.36-11.25 21.77-10.14 19.31-17.62 40.43-25.07 60.9-4.58 13.57-8.93 27.27-12.97 41-8.58 32.24-16.27 64.75-23.78 97.26-3.36 17.14-6.72 34.26-9.45 51.52-3.05 15.01-5.04 30.19-7.82 45.25H41.78c9.72-57.64 21.08-114.65 36-171.2 8.81-33.22 18.54-65.9 31.09-97.92 5.3-13.45 10.81-26.69 17.5-39.51 7.16-14.48 15.97-28.19 26.86-40.14 5.72-6.3 12.54-11.07 20.09-14.91 28.79-15.82 58.34-30.41 87.55-45.46 20.56-10.6 41.3-20.85 61.73-31.69-18.14-30.74-34.36-62.69-48.14-95.63-11.95-28.94-21.16-61.01-20.64-92.54-.1-17.05 3.64-33.65 8.28-49.94-8.66-12.53-11.15-28.13-11.43-43.06-.43-7.61.67-15.25.2-22.83-1.27-3.49-6.67-5.65-7.5-9.61-1.27-6.06.11-12.83 2.93-18.29 10.3-2.69 20.72-4.74 31.16-6.79 1.57-5.21 2.86-10.5 4.25-15.76 4.81-19.35 11.03-38.37 19.62-56.39 11.92-24.53 27.24-47.1 46.85-66.15 42.03-42.12 99.25-69.31 158.8-73.16Z"/><path fill="#f0d9b2" d="M535.02 46.64c26.14 1.12 52.55 9.98 75.92 21.42 24.89 12.15 47.16 29.85 65.16 50.86 20.31 23.88 34.73 52.61 41.82 83.14 3.12 14.11 5.05 28.42 5.4 42.87 1.22 15.1-.11 29.86-.45 44.92-.38 4.97-.86 9.91-.99 14.9-5.07.69-11.23 5.13-15.89 2.23-28.86-12.56-57.55-25.47-86.75-37.21-3.13-1.17-5.67-2.62-8.08-4.95-5.06-4.87-12.24-6.16-18.71-8.27-6.67-2.18-12.94-2-18.63-5.37-4.15-2.35-8.09-4.84-12.66-6.36-7.69-2.75-15.14-2.94-23.2-3.69-13.03-.39-26.04-.04-39.04.83-9.91 1.02-19.47 3-28.42 7.52-7.06 3.44-13.97 3.52-19.95 8.08-3.38 2.41-5.25 6.05-8.33 8.66-2.12 1.81-4.72 1.02-7.23.8-9.23-1.39-18.61-2.69-27.95-1.73-2.47.25-5.21.96-7.67.51-2.76-2.64-4.47-6.3-6.98-9.2-7.05-8.6-16.4-13.56-26.67-17.34-15.96-5.62-32.77-7.28-49.58-5.96-8.45.94-16.32 3-23.96 6.77 5.17-23.49 12.87-46.65 23.75-68.13 10.4-19.85 23.03-38.23 38.8-54.21 14.97-15.36 31.92-28.64 50.25-39.76 22.39-13.55 47.39-23.17 73.15-27.82 18.64-3.13 38.01-5.03 56.89-3.51ZM345.81 259.17c10.14 1.47 20.82 3.16 29.95 8.05 2.78 1.6 5.59 3.16 6.47 6.48 1.42 5.17.8 11.08-.13 16.3-2.26 12.49-5.72 24.96-10.32 36.79-2.63 6.63-6 12.93-12.39 16.61-8.58 4.92-18.8 4.87-28.39 5.18-10.46-.29-20.85-.79-31.2-2.44-6.8-1.07-14.19-1.77-20.6-4.38 1.28-16.99 3.69-33.84 5.73-50.75 1.12-9.94 2.35-19.93 4.32-29.73.31-1.58 1.44-1.98 2.88-2.12 17.79-2.16 35.89-2.2 53.68.01Z"/><path fill="#f0d9b2" d="M492.13 263.36c5.63-.54 11.1-.31 16.87-.36 10.07.08 20.04-.39 30.06.83 10.93.88 22.82 1.94 33.05 6.06 3.95 1.66 8.3 3.66 10.29 7.71 3.37 6.52 2.94 14.13 2.39 21.23-1.96 14.86-5.41 30.38-12.08 43.88-2.75 5.44-6.72 8.63-12.48 10.53-17.68 5.71-36.04 3.53-54.16 2.53-11.13-1.32-23.61-3.04-33.69-8.16-6.61-3.37-10.43-9.38-12.76-16.22-5.01-14.48-7.13-30.14-6.63-45.43.08-4.39 1.14-8.88 3.23-12.75 1.84-3.29 5.59-4.89 9.02-5.95 8.54-2.45 18.09-3.03 26.89-3.9ZM277.33 264.65c-.47 5.81-1.71 11.53-2.32 17.33-2.24 16.05-3.26 32.22-5.29 48.29-3.27-7.11-3.51-15.91-4.5-23.59-.59-11.13-.52-22.41 3.47-32.98 1.52-4.07 4.61-7.4 8.64-9.05Z"/><path fill="#0a0c04" d="M344.34 281.33c3.77-.91 8.01.06 11.28 2.05 3.38 2.16 5.12 6.76 5.56 10.59 1.24 11.46-1.99 23.39-8.13 33.07-4.77 7.44-16.55 7.68-21.71.6-2.7-4.08-3.06-9.87-3.3-14.64.5-8.24 2.15-17.29 6.55-24.4 2.22-3.67 5.56-6.26 9.75-7.27Z"/><path fill="#f0d9b2" d="M420 283.97c4.34.03 9.75-.27 13.28 2.74 3.11 2.92 4.02 8.33 4.67 12.36 1.35 10.46 3.06 20.83 6 30.98 2.54 8.84 6.76 19.01 13.97 25.04 12.02 9.05 28.72 12.03 43.34 13.56 7.22.62 14.5 1.48 21.74 1.35 7.66-.07 15.38.33 23.03-.16 10.84-1.35 21.38-2.82 30.53-9.28 6.21-4.35 9.02-11.17 12.22-17.77 7.39-16.59 12.53-34.66 13.62-52.85 5.87.74 11.56 2.89 17.27 4.38 25.54 7.91 50.64 17.44 75.64 26.89-2.76 7.4-9.33 13.95-8.13 22.7 1.87-.57 2.78-1.19 4.01-2.7 8.92-10.89 21.38-18.6 35.03-21.95 4.53-.55 9.89-1.12 13.78 1.73 5.29 3.66 9.91 9.27 11.33 15.66 2.07 8.22 2.57 16.97 1.62 25.38-1.9 16.94-7.96 33.49-17.01 47.91-8.45 13.25-19.93 25.79-34.19 32.82-7.89 3.92-16.57 5.62-25.27 3.64-3.79-.91-6.66-3.09-9.99-4.93-1.96-1.22-4.81.6-5.44 2.6-1.47 3.84-1.88 8.11-2.84 12.1-1.7 7.36-2.98 14.79-4.96 22.09-1.9 8.08-3.49 16.38-3.78 24.7-.51 7.86.18 14.95-3.16 22.35-4.76 10.61-12.52 20.14-20.12 28.86-8.68 8.97-17.47 17.94-26.93 26.09-18.05 16.55-38 30.15-58.37 43.63-8.29 5.4-16.61 10.94-25.31 15.66-7.91 4.04-15.7 7.92-23.05 12.98-4.37 2.96-9.61 5.89-12.95 10.01-5.84 6.84-10.38 14.29-15.21 21.83-6.27 9.92-12.58 20.16-19.62 29.56-9.84-7.18-18.4-16.24-25.81-25.88-10.45-13.64-17.51-29.85-21.45-46.53-1.11-4.8-2.46-9.27-2.58-14.24 5.97 1.06 12 2.05 18.05 2.61 8.35.37 16.73.26 25.08.05 15.21-1.07 30.32-3.71 44.96-7.93 31.09-8.83 60.15-25.38 84.65-46.35 4.77-4.34 9.97-9.3 12.91-15.11 1.45-2.26-1.15-4.73-3.45-3.75-5.29 2.13-9.92 6.49-14.66 9.66-17.53 12.56-37.5 22.24-57.56 30.04.13-1.96 3.09-2.88 4.21-4.4 6.51-8.1 12.4-16.99 16.36-26.64 4.62-11.07 7.45-22.33 10.07-33.99 3.39-14.64 4.22-30.5 5.69-45.5.66-9.09 1.83-18.2 1.89-27.32 1.29-1.81 2.51-3.47 2.77-5.75 1-8.88-2.34-17.88-8.54-24.25-6.23-7-15.18-11.63-24.17-13.92-5.56-1.41-10.17-4.58-15.61-6.28-18.81-5.55-37.27-10.61-56.98-11.63-2.57-1.91-4.35-2.48-7.59-2.2-10.3 1.05-20.31 5.28-30.64 6.63-8.55 1.47-18.05.75-25.45-4.14-6.18-3.8-10.61-10.8-10.83-18.12 0-3.61 1.07-7.3 2.21-10.7 3.53-9.91 8.55-19.54 12.76-29.25 6.06-13.5 10.85-27.43 15.56-41.44 1.52-4.02 3.28-9.61 7.58-11.42 4.93-1.88 10.59-2.25 15.82-2.21Z"/><path fill="#0a0c04" d="M509.26 286.21c5.89-1.88 12.65.31 15.66 5.87 4.74 8.12 3.87 19.82 3.02 28.85-.75 7.4-3.69 15.91-11.21 18.86-4.78 1.31-11.69.65-14.95-3.58-3.63-4.38-4.91-10.63-4.91-16.19-.19-8.35.45-16.59 3.82-24.33 1.71-3.76 4.68-7.82 8.57-9.48ZM733.85 343.07c3.91.83 6.21 4.44 7.03 8.11.16 1.68.63 3.87-1.1 4.9-4.67-.47-8.37-2.41-13.18-.47-3.33 1.79-6.89 4.86-5.28 9.09 3.16 9.28 3.95 19.18 2.24 28.83-2.02 8.95-7.48 17.76-15.21 22.84-1.79 1.32-3.38.73-5.38.48-.02-3.73 2.44-6.45 3.92-9.95 2.73-6.24 5.9-13.07 6.56-19.9.27-2.58-.67-4.73-1.71-7.01-1.15-.01-2.3.04-3.44.15-6.07 4.7-8.58 12.67-15.22 16.81-.92-1.99-1.4-3.57-.87-5.78 3.31-17.67 13.48-35.4 29.16-44.79 3.93-2.18 7.83-4.22 12.48-3.31Z"/><path fill="#f0d9b2" d="M274.13 353.92c16.86 4.5 34.47 6.81 51.9 7.53 10.87.56 21.75-.25 32.18-3.54-3.07 9.24-7.98 16.72-8.16 27.07.26 4.03 1.43 8.05 3.2 11.68-7.97-1.71-16.78-.13-24.52 2.06-8.63 2.46-15.46 8.11-22.35 13.63-8.02 6.8-12.03 16.43-13.46 26.67-1.25 7.42-.28 14.33.39 21.76 1.77 12.84 3.43 25.93 6.52 38.53.3 1.34.37 2.7.45 4.07-6.43-10.93-11.26-22.88-16.04-34.6-8.82-22.85-16.31-48.16-16.61-72.78-.12-14.17 2.53-28.52 6.5-42.08Z"/><path fill="#b68c46" d="M353.25 396.66c6.24 11.4 18.65 17.07 30.99 19.03 15.65 1.81 32.01-3.09 46.32-9.11 2.81-1.17 6.33-2.24 8.31-4.66 1.17-1.28 1.28-3.46 1.71-5.1 19.71 1.02 38.17 6.08 56.98 11.63 5.44 1.7 10.05 4.87 15.61 6.28-1.08.1-2.16.23-3.23.39.31 2.99 2.37 4.6 4.27 6.68 3.4 3.47 6.59 7.11 9.15 11.27-1.65 1.01-3.34 1.92-5.14 2.62-2.29.14-4.22.82-6.27 1.8-2.39-.84-5.22-2.77-7.8-2.29-20.51 3.38-41.4 4.96-62.12 6.64-21.17.76-42.07.76-63.16-1.6-16.25-2.25-32.53-4.14-48.88-5.5-2.02-.1-3.71-.93-5.49-1.8.27-1.65 1.05-3.71-.4-5.02-1.4-1.53-4.24-1.13-6.1-1.03-4.11.21-7.66 3.04-9.49 6.62-2.16 3.99-1.83 9.31-.58 13.54.48 2.04 1.85 3.26 3.2 4.74 1.28-.75 2.55-1.51 3.79-2.33.88 2.81.91 5.65 1 8.56.09 6.72 2.22 13.26 3.09 20.02 1.3 9.64 3.39 19.26 6.44 28.5 3.4 8.91 7.99 17.58 13.92 25.07 10.89 12.78 25.09 24.6 41.3 29.73 10.65 3.49 22.14 4.93 33.33 4.87 13.77.64 27.54-1.32 40.64-5.57 11.64-3.08 22.46-8.67 31.94-16.05 9.34-7.71 17.02-17.59 22.86-28.17 9.05-17.8 14.58-37.56 16.3-57.44.34-4.22.66-8.27-.48-12.41 1.18-1.36 2.43-2.65 3.69-3.93 5.03 5.05 8.41 11.9 14.16 16.01-.06 9.12-1.23 18.23-1.89 27.32-1.47 15-2.3 30.86-5.69 45.5-2.62 11.66-5.45 22.92-10.07 33.99-3.96 9.65-9.85 18.54-16.36 26.64-1.12 1.52-4.08 2.44-4.21 4.4-26.05 10.52-53.72 16.4-81.89 15.5-17.25.18-33.34-3.85-49.5-9.48-6.43-2.1-12.63-5.04-18.28-8.76-8.92-6.37-14.98-14.89-21.48-23.5-7.85-10.66-13.16-22.2-19.02-33.98-4.79-10.97-9.96-21.81-14.44-32.9-.08-1.37-.15-2.73-.45-4.07-3.09-12.6-4.75-25.69-6.52-38.53-.67-7.43-1.64-14.34-.39-21.76 1.43-10.24 5.44-19.87 13.46-26.67 6.89-5.52 13.72-11.17 22.35-13.63 7.74-2.19 16.55-3.77 24.52-2.06Z"/><path fill="#0a0c04" d="M509.94 415.12c1.07-.16 2.15-.29 3.23-.39 8.99 2.29 17.94 6.92 24.17 13.92 6.2 6.37 9.54 15.37 8.54 24.25-.26 2.28-1.48 3.94-2.77 5.75-5.75-4.11-9.13-10.96-14.16-16.01-1.26 1.28-2.51 2.57-3.69 3.93-6.73 8.2-13.62 16.07-21.91 22.76-19.86 17-43.63 28.86-69.69 32.34-7.79.8-15.35 1.56-23.18.74-17.29-1.1-35.23-5.96-49.01-16.87-9.25-7.34-16.51-16.79-21.59-27.43-1.55-3.6-5.42-4.51-8.51-6.5-3.69-1.97-6.85-4.75-10.49-6.77-2.22-.49-4.61 3.14-5.96 4.62-1.24.82-2.51 1.58-3.79 2.33-1.35-1.48-2.72-2.7-3.2-4.74-1.25-4.23-1.58-9.55.58-13.54 1.83-3.58 5.38-6.41 9.49-6.62 1.86-.1 4.7-.5 6.1 1.03 1.45 1.31.67 3.37.4 5.02l-.39 1.43c12.73 8.97 28.52 14.45 43.59 18.02 39.75 8.81 80.77 6.25 119.76-4.95 10.54-3.1 20.81-7.09 30.76-11.75 1.8-.7 3.49-1.61 5.14-2.62-2.56-4.16-5.75-7.8-9.15-11.27-1.9-2.08-3.96-3.69-4.27-6.68Z"/><path fill="#f0d9b2" d="M324.5 432.94c1.78.87 3.47 1.7 5.49 1.8 16.35 1.36 32.63 3.25 48.88 5.5 21.09 2.36 41.99 2.36 63.16 1.6 20.72-1.68 41.61-3.26 62.12-6.64 2.58-.48 5.41 1.45 7.8 2.29 2.05-.98 3.98-1.66 6.27-1.8-9.95 4.66-20.22 8.65-30.76 11.75-38.99 11.2-80.01 13.76-119.76 4.95-15.07-3.57-30.86-9.05-43.59-18.02l.39-1.43Z"/><path fill="#f0d9b2" d="M320.88 444.84c3.64 2.02 6.8 4.8 10.49 6.77 3.09 1.99 6.96 2.9 8.51 6.5 5.08 10.64 12.34 20.09 21.59 27.43 13.78 10.91 31.72 15.77 49.01 16.87 7.83.82 15.39.06 23.18-.74 26.06-3.48 49.83-15.34 69.69-32.34 8.29-6.69 15.18-14.56 21.91-22.76 1.14 4.14.82 8.19.48 12.41-1.72 19.88-7.25 39.64-16.3 57.44-5.84 10.58-13.52 20.46-22.86 28.17-9.48 7.38-20.3 12.97-31.94 16.05-13.1 4.25-26.87 6.21-40.64 5.57-11.19.06-22.68-1.38-33.33-4.87-16.21-5.13-30.41-16.95-41.3-29.73-5.93-7.49-10.52-16.16-13.92-25.07-3.05-9.24-5.14-18.86-6.44-28.5-.87-6.76-3-13.3-3.09-20.02-.09-2.91-.12-5.75-1-8.56 1.35-1.48 3.74-5.11 5.96-4.62Z"/><path fill="#fefde7" d="M492.92 459.08c1.37 2.52-1.63 4.13-3.13 5.71-23.51 18.77-54.36 27.99-84.31 24.57-15.89-1.9-31.66-8.43-43.34-19.51-2.54-2.36-4.95-4.67-6.36-7.91 19.8 5.79 40.6 8.5 61.22 8.17 24.02.24 46.75-4.53 69.91-10.17 2.02-.49 3.91-1.03 6.01-.86Z"/><path fill="#3f7a92" d="M666.87 506.79c4.54 2.68 8.74 5.95 9.95 11.38.44 3.91.26 7.93.12 11.86-.3 5.94-2.57 11.15-4.06 16.98-1.22.74-2.43 1.52-3.6 2.34-4.57-4.07-8.74-8.56-13.33-12.58 3.18-6.05 7.07-12.16 7.76-18.98.59-3.53.83-8.13 3.16-11Z"/><path fill="#0a0c04" d="M375.27 514.74c12.61 5.24 26.95 9.83 40.73 9.29 8.79.33 17.02-2.1 25.78-2.71.64 1.63 1.43 2.91.03 4.44-5.31 5.62-13.39 8.98-20.95 10.09-9.88 1.26-19.98.58-29.57-2.12-8.14-2.49-15.6-6.25-20.91-13.12-1.09-1.63-2.83-3.19-2.35-5.33 1.66-2.48 4.96-1.39 7.24-.54Z"/><path fill="#554f3e" d="M692.31 534.11c2.68 2.36 4.41 5.26 6.48 8.11 7.06 9.33 13.85 18.89 20.43 28.56 2.87 4.06 5.99 8.31 8.22 12.77 2.12 4.2 2.44 8.63 3.74 13.31 1.13 3.99 2.12 7.98 2.93 12.05 5.27 23.06 10.86 46.18 15.62 69.35.71 3.75 2.23 7.64 2.21 11.47-2.69 2.79-7.49 3.56-10.93 5.29-14.42 6.57-29.36 11.82-43.92 18.02-4.1 1.51-8.54 3.79-12.93 3.99-6.13-3.18-11-8.99-17.4-11.87-1.72-.38-3.59-.67-4.43 1.26-.63 3.95 2.76 7.38 5.15 10.12 5.46 5.52 10.87 11.11 16.52 16.45 7.61 6.69 14.63 14.06 21.93 21.1 7.17 6.57 14.14 13.34 21.27 19.96-3.35 7.72-7.75 15.01-11.65 22.46-3.87 8.28-8.7 16.06-12.82 24.22-10.85 19-20.38 39.21-32.68 57.3-10.17 16.5-20.08 33.1-30.66 49.34-3.51 5.8-7.08 11.48-11.03 16.99-17.66 26.76-36.2 52.93-53.9 79.64h-45.68c1.88-6.17 2.92-12.56 4.44-18.83 4.08-17.17 7.61-34.62 12.34-51.61 2.49-7.78 4.25-15.74 6.4-23.62 6.88-24.6 13.72-49.21 21.42-73.58 6.16-20.74 13.69-41.06 20.36-61.65 8.86-23.47 16.91-47.18 26.7-70.22 3.31-8.88 6.98-17.62 10.68-26.35 3.33-9.1 7.5-17.81 11.28-26.72 6.78-17.03 14.49-33.68 21.34-50.68 5.13-13.1 10.99-25.95 15.81-39.16 4.79-15.66 9.21-31.48 12.76-47.47Z"/><path fill="#f0d9b2" d="M655.95 536.77c4.59 4.02 8.76 8.51 13.33 12.58-2.66 3.63-4.69 7.75-6.77 11.73-3.79-5.45-7.88-10.7-11.74-16.11 1.84-2.65 3.49-5.45 5.18-8.2Z"/><path fill="#3f7a92" d="M650.77 544.97c3.86 5.41 7.95 10.66 11.74 16.11-1.94 4.11-4.56 7.71-7.35 11.27-4.81-4.69-7.56-11.65-13.31-14.94 2.83-4.26 5.85-8.36 8.92-12.44Z"/><path fill="#b68c46" d="M672.88 547.01c-2.82 11.81-5.96 23.53-9.6 35.12-.92-.59-1.86-1.14-2.82-1.65-2.32 2.66-4.56 5.39-6.77 8.14-2.67 3.13-5.73 5.61-8.13 8.94-3.11 4.53-6.99 8.39-10 13.01-3.33 3.96-6.52 7.6-8.88 12.27-4.15 4.18-8.38 8.31-12.83 12.17-3.54 3.19-7.1 6.31-10.97 9.12-4.4 3.69-9.62 6.89-13.15 11.44-3.6 4.48-8.14 6.71-12.62 10.55-4.79 4.1-10.14 7.34-14.68 11.75-1.55 1.23-3.1 2.47-4.66 3.7-3.86 3.03-7.97 5.67-12 8.47-4.29 3.14-9.15 6.45-12.17 10.89-1.22-3.58-2.47-7.17-4.02-10.63 3.65-3.18 7.61-5.91 11.48-8.81 3.78-2.86 7.81-4.95 11.33-8.14 10.01-8.77 21.06-16.23 30.69-25.48 3.91-3.68 7.89-7.23 12-10.67 4.03-3.48 8.49-6.2 12.06-10.23 4.32-4.2 8.73-8.33 13.1-12.49 5.06-4.66 9.59-9.92 14.45-14.8 4.69-6.19 10.45-11.46 13.57-18.37 2.11-3.12 4.68-5.91 6.9-8.96 2.79-3.56 5.41-7.16 7.35-11.27 2.08-3.98 4.11-8.1 6.77-11.73 1.17-.82 2.38-1.6 3.6-2.34Z"/><path fill="#f0d9b2" d="M641.85 557.41c5.75 3.29 8.5 10.25 13.31 14.94-2.22 3.05-4.79 5.84-6.9 8.96-4.48-5.59-9.88-10.09-13.66-16.25 2.52-2.46 4.97-4.98 7.25-7.65Z"/><path fill="#3f7a92" d="M634.6 565.06c3.78 6.16 9.18 10.66 13.66 16.25-3.12 6.91-8.88 12.18-13.57 18.37-4.86 4.88-9.39 10.14-14.45 14.8-6.04-6.8-12.24-13.62-17.67-20.92 10.78-9.37 21.49-18.86 32.03-28.5Z"/><path fill="#f0d9b2" d="M660.46 580.48c.96.51 1.9 1.06 2.82 1.65-1.08 4.42-2.38 8.78-3.61 13.15-2.4-1.88-4.13-4.28-5.98-6.66 2.21-2.75 4.45-5.48 6.77-8.14Z"/><path fill="#554f3e" d="M743.14 585.99c17.08 9.23 33.82 19.24 51.34 27.55 14.01 7.7 28.16 15.11 42.14 22.86 9.28 4.63 18.02 10.19 27.45 14.54 8.95 5.04 18.03 9.86 26.81 15.19 7.14 4.37 14.49 7.95 21.08 13.18-3.41 2.58-7.28 4.4-10.73 6.92-4.24 3.04-8.24 6.39-12.01 9.99-5.3 5.07-10.65 9.98-15.48 15.51-9.87 11.37-18.79 23.5-26.75 36.28-8.47 12.86-15.69 26.79-22.26 40.71-7.15 16.34-13.43 33.12-18.87 50.11-7.63 26.14-13.06 52.97-17.07 79.9-1.49 12.76-3.56 25.39-4.09 38.26-.9 6.91-.5 13.85-1.24 20.77-.94 9.38-.03 18.77-.83 28.18-.54 6.01-.65 12.03-.72 18.06H592.49c3.62-5.54 7.14-11.16 10.87-16.63 4.5-6.6 8.4-13.55 13.03-20.05 6.56-.63 13.08.02 19.64-.5 3.99-.31 7.96-.74 11.97-.82 15.04-.62 29.88-3.06 44.93-3.42 14.41-.59 28.68-2.38 43.1-2.65 4.19-.24 8.51-.43 12.62-1.34 2.49-1.33 3.19-5.83 3.67-8.38 1.53-11.47 2.85-23 4.32-34.5.42-3.52.35-7.02-.93-10.37-.7-1.49-.84-3.24-2.8-3.43-8.13-.76-16.82 1.32-24.98 1.83-7.54.41-14.99 1.6-22.54 1.8-6.84.26-13.59 1.35-20.43 1.64-10.15.73-19.83 2.29-29.87 1.8 3.42-5.8 7.27-11.33 10.77-17.08 6.98-10.82 13.28-22.01 20.18-32.87 7.58-12.53 14.88-25.19 21.97-38.01 4.28-8.3 8.99-16.34 13.46-24.53 4.29-8.1 8.25-16.37 12.64-24.41 2.73-5.17 6.06-10.51 7.95-16.03.78-2.52 1.4-5.46-.44-7.68-3.91-4.67-8.65-8.76-13.25-12.74-9.6-8.92-19.14-17.87-28.64-26.9 2.38-1.5 4.97-2.51 7.6-3.47 10.65-4.3 21.27-8.66 31.89-13.04 6.77-2.79 13.78-5.34 20.3-8.69 2.76-1.54 6.2-3.66 7.59-6.61 1.09-3.27-.71-7.51-1.23-10.82-3.79-22.12-9.57-44.05-14.53-65.93-2.06-11.55-5.92-22.69-8.21-34.18Z"/><path fill="#3f7a92" d="M653.69 588.62c1.85 2.38 3.58 4.78 5.98 6.66-5.18 16.71-11.96 32.84-21.22 47.72l-1.41-.84c-.62 1.34-1.15 2.72-1.67 4.1-1.57.42-3.13.73-4.73.97 2.07-2.16 4.63-4.48 5.84-7.25-2.17-6.14-6.21-11.75-9.8-17.14 2.36-4.67 5.55-8.31 8.88-12.27 3.01-4.62 6.89-8.48 10-13.01 2.4-3.33 5.46-5.81 8.13-8.94Z"/><path fill="#f0d9b2" d="M602.57 593.56c5.43 7.3 11.63 14.12 17.67 20.92-4.37 4.16-8.78 8.29-13.1 12.49-5.03-8-11.97-14.91-19.16-20.96 5.1-3.94 9.71-8.24 14.59-12.45Z"/><path fill="#554f3e" d="M333.35 597.32c2.09-.45 3.48 1.06 2.93 3.11-1.91 10.12-4.78 20.05-6.68 30.18-2.39 13.4-3.87 26.67-2.33 40.28.49 4.12 1.93 7.86 2.98 11.84 1.04 3.6-.39 7.99-.84 11.66-1.91 14.24-4.43 28.33-7.71 42.31-5.59 30.41-11.1 60.81-16.91 91.18-2.76 14.59-5.21 29.24-8.09 43.81-2.95 19.27-6.71 38.38-9.31 57.72-3.88 22.41-6.16 45.12-9.43 67.57-1.4 8.97-1.45 18.16-3.27 27.02h-24.12c-2.61-17.65-4.89-35.22-6.55-52.98-2.32-20.98-3.68-42.02-5.77-63-1.79-22.28-3.36-44.66-3.26-67.01-.39-17.27-1.17-34.04-.66-51.35-.39-10.22-.34-20.46-.18-30.69.22-2.67.06-6.55 2.68-8.13 2.97-2.09 6.24-3.75 9.32-5.66 7.12-4.16 13.94-8.79 21-13.03 8.01-4.85 15.56-10.56 23.55-15.44 1.92-1.21 3.78-2.51 5.6-3.88-.87-1.21-1.75-2.3-3.04-3.1-10.97-7.04-21.93-14.2-32.45-21.9 1.29-2.32 2.85-4.42 4.58-6.43 11.67-13.73 22.4-28.18 34.03-41.95 7.95-10.68 16.39-20.94 24.73-31.31 2.92-3.48 5.39-8.31 9.2-10.82Z"/><path fill="#89a0a4" d="M348.25 606.24c3.81 2 7.31 4.58 11.07 6.69-4.46 1.09-8.98 1.4-13.53 1.84.83-2.83 1.53-5.72 2.46-8.53ZM587.98 606.01c7.19 6.05 14.13 12.96 19.16 20.96-3.57 4.03-8.03 6.75-12.06 10.23-2.69-3.07-5.44-6.1-8.13-9.17-3.73-4.42-8.53-7.64-12.16-12.18 4.43-3.23 8.74-6.63 13.19-9.84Z"/><path fill="#554f3e" d="M303.02 610.77c-2.08 3.61-4.88 6.56-7.45 9.8-13.5 16.88-27.31 33.42-40.67 50.34-4.32 5.32-8.84 10.58-12.71 16.25-1.32 1.87-1.5 3.92-.18 5.85 1.98 2.82 5.29 4.9 8.03 6.96 6.81 5.05 14.21 9.39 20.81 14.72-3.04 1.72-6.15 3.31-9.25 4.91-7.19 3.73-14.01 8.1-21.24 11.77-5.69 3.27-12.58 6.15-17.27 10.73-2.58 2.48-3.02 6.47-3.1 9.86.04 22.01-.07 44.03.13 66.04-.1 8.34.36 16.64.83 24.96-.17 7.73 1.09 15.33.96 23.04-.07 6.03.65 11.97 1 17.96.15 11.08 2.01 22.02 2.25 33.1 2.06 25.17 4.23 50.41 7.34 75.48 1.83 10.45 2.76 21.01 4.63 31.46h-87.22c.23-41.33-.03-82.67.13-124 .21-7.1.14-14.24.67-21.33.61-7.32 0-14.66.7-21.99.65-7.57.57-15.13.64-22.71 1.98-28.72 3.04-58.36 7.03-86.91 4.13-23.08 7.89-45.4 15.39-67.65.55-1.88 2.08-2.42 3.62-3.34 11.6-5.94 22.7-12.75 34.32-18.67 7.94-3.98 15.63-8.45 23.58-12.4 10.07-4.82 19.81-10.3 29.85-15.17 10.22-4.93 20.15-10.5 30.13-15.89 2.28-1.25 4.59-2.29 7.05-3.17Z"/><path fill="#f0d9b2" d="M359.32 612.93c2.89 1.43 5.76 2.86 8.75 4.07-.31 6.55-2.19 11.99-.78 18.44-.5 3.9-.27 6.93.63 10.74-.02.9-.05 1.8-.09 2.7-7.32.92-14.2 2.72-20.76 6.16-1.6-2.35-3.27-4.62-5.24-6.66-1.04.43-2.06.91-3.07 1.4 1.01-5.6 1.6-11.26 2.64-16.85.06 3.45-.14 6.83-.5 10.26 3.97-.86 7.5-2.7 11.32-3.97 4.53-1.56 9.25-2.1 13.87-3.42.26-3.85-1.44-7.44-.55-11.14-6.07-.08-12.06 1-17.74 3.11-2.15.96-4 2.46-6.12 3.48.96-5.6 2.49-11.03 4.11-16.48 4.55-.44 9.07-.75 13.53-1.84ZM574.79 615.85c3.63 4.54 8.43 7.76 12.16 12.18 2.69 3.07 5.44 6.1 8.13 9.17-4.11 3.44-8.09 6.99-12 10.67-6.77-7.79-14.09-15.56-22.25-21.92 4.96-3.01 9.17-6.87 13.96-10.1Z"/><path fill="#3f7a92" d="M368.07 617c3.49 1.48 7.09 2.78 10.48 4.47 1.19.59 1.95 1.25 2.5 2.47 2.15 4.67 3.12 10.01 4.09 15.04-3.3-.49-6.37-1.42-9.47-2.61-2.64-1.01-5.58-.85-8.38-.93-1.41-6.45.47-11.89.78-18.44Z"/><path fill="#f0d9b2" d="M626.68 622.84c3.59 5.39 7.63 11 9.8 17.14-1.21 2.77-3.77 5.09-5.84 7.25a55.022 55.022 0 0 0-4.34 4.69l-.44.53c-3.29-6.39-7.54-11.87-12.01-17.44 4.45-3.86 8.68-7.99 12.83-12.17Z"/><path fill="#89a0a4" d="M365.54 624.66c-.89 3.7.81 7.29.55 11.14-4.62 1.32-9.34 1.86-13.87 3.42-3.82 1.27-7.35 3.11-11.32 3.97.36-3.43.56-6.81.5-10.26.09-.56.19-1.12.28-1.68 2.12-1.02 3.97-2.52 6.12-3.48 5.68-2.11 11.67-3.19 17.74-3.11Z"/><path fill="#3f7a92" d="M560.83 625.95c8.16 6.36 15.48 14.13 22.25 21.92-9.63 9.25-20.68 16.71-30.69 25.48-6.42-10.25-15.19-18.16-22.59-27.61 10.42-6.48 20.56-13.4 31.03-19.79Z"/><path fill="#b68c46" d="M367.29 635.44c2.8.08 5.74-.08 8.38.93 3.1 1.19 6.17 2.12 9.47 2.61.36 1.87.77 3.73 1.21 5.59-6.19.2-12.32.65-18.43 1.61-.9-3.81-1.13-6.84-.63-10.74Z"/><path fill="#89a0a4" d="M613.85 635.01c4.47 5.57 8.72 11.05 12.01 17.44-2.95 3.82-6.31 7.23-9.59 10.75-4.66-6.32-8.37-13.09-13.39-19.07 3.87-2.81 7.43-5.93 10.97-9.12ZM637.04 642.16l1.41.84c-4.52 11.46-9.7 22.63-14.08 34.14-1.14-1.43-2.27-2.88-3.44-4.29 1.77-2.19 3.46-4.61 4.61-7.2.62-2.93.37-6.03.88-9 .67.02 1.35.04 2.03.07-1.05-1.52-1.66-3.03-2.15-4.8 1.36-1.66 2.8-3.2 4.34-4.69 1.6-.24 3.16-.55 4.73-.97.52-1.38 1.05-2.76 1.67-4.1Z"/><path fill="#f0d9b2" d="M602.88 644.13c5.02 5.98 8.73 12.75 13.39 19.07-.45.5-.91 1-1.36 1.49-3.96 3.64-7.33 7.77-10.96 11.73-4.93-6.96-8.83-14.16-14.22-20.85 3.53-4.55 8.75-7.75 13.15-11.44Z"/><path fill="#3f7a92" d="M386.35 644.57c1.32 5.19 1.98 10.19 3.83 15.21 1.74 4.81 3.7 9.55 5.76 14.23-1.28.02-2.56.06-3.84.11-2.29-3.54-4.01-7.17-7.08-10.16-.76 3.96-1.03 7.72-3.22 11.24-3.48-3.57-7.17-6.76-10.28-10.7-1.45-1.77-2.94-3.86-4.81-5.2-4.49-2.85-11.53-.71-12.35 5-1.23 9.37.09 19.65 4.59 28.06-2.58 2.43-5.62 4.06-8.71 5.75-2.77-6.62-5.9-13.15-8.43-19.86-1.74-6.46-4.22-13.48-3.87-20.16 3.31-.36 6.2-1.52 9.13-3.05 6.56-3.44 13.44-5.24 20.76-6.16.04-.9.07-1.8.09-2.7 6.11-.96 12.24-1.41 18.43-1.61Z"/><path fill="#f0d9b2" d="M529.8 645.74c7.4 9.45 16.17 17.36 22.59 27.61-3.52 3.19-7.55 5.28-11.33 8.14-3.49-4.13-5.99-8.87-9.75-12.8-4.7-5.11-9.95-11.47-16.49-14.12 5.08-2.78 9.95-5.95 14.98-8.83Z"/><path fill="#b68c46" d="M341.83 648.38c1.97 2.04 3.64 4.31 5.24 6.66-2.93 1.53-5.82 2.69-9.13 3.05.03-2.81.31-5.54.82-8.31 1.01-.49 2.03-.97 3.07-1.4Z"/><path fill="#3f7a92" d="m625.86 652.45.44-.53c.49 1.77 1.1 3.28 2.15 4.8-.68-.03-1.36-.05-2.03-.07-.51 2.97-.26 6.07-.88 9-1.15 2.59-2.84 5.01-4.61 7.2l-.43.48c-1.51-3.12-3.22-6.08-5.59-8.64.45-.49.91-.99 1.36-1.49 3.28-3.52 6.64-6.93 9.59-10.75Z"/><path fill="#89a0a4" d="M514.82 654.57c6.54 2.65 11.79 9.01 16.49 14.12 3.76 3.93 6.26 8.67 9.75 12.8-3.87 2.9-7.83 5.63-11.48 8.81-4.65-8.76-9.05-17.58-16.99-23.9-3.43-2.71-7.41-3.44-11.65-3.84 4.44-2.98 9.11-5.57 13.88-7.99Z"/><path fill="#3f7a92" d="M589.73 655.57c5.39 6.69 9.29 13.89 14.22 20.85 1.97 2.82 3.61 5.84 5.17 8.91l-.6.61c-6.83 6.35-13.65 12.86-21.13 18.44-3.38 2.53-6.28 5.74-8.82 9.1-.75.97-.8 2.35-1.06 3.52l-.59.34c-2.24-4.08-4.29-8.22-5.95-12.57 3.59-2.93 7.19-5.84 10.71-8.85-2.2-2.39-4.49-4.54-7.07-6.52-4.45-3.47-8.22-7.53-12.18-11.53 4.54-4.41 9.89-7.65 14.68-11.75 4.48-3.84 9.02-6.07 12.62-10.55Z"/><path fill="#89a0a4" d="M385.02 663.96c3.07 2.99 4.79 6.62 7.08 10.16-2.39-.6-4.75-1.12-7.23-1.08-.73 1.08-1.42 2.18-2.13 3.27l-.94-1.11c2.19-3.52 2.46-7.28 3.22-11.24ZM614.91 664.69c2.37 2.56 4.08 5.52 5.59 8.64-3.35 4.48-7.5 8.03-11.38 12-1.56-3.07-3.2-6.09-5.17-8.91 3.63-3.96 7-8.09 10.96-11.73Z"/><path fill="#3f7a92" d="M497.37 666.79c.01 1.03.01 2.06.01 3.09 3.38 2.6 7.77 4.17 10.25 7.49 4.76 5.98 9.05 12.38 11.45 19.69-4.89.04-9.59-.98-14.47-.63-8.31.33-16.14 1.65-23.96-1.92 3.21-6.01 6.6-11.93 10.09-17.78 1.39-2.37 3.52-4.37 4.68-6.85l-.41-1.53c.79-.53 1.57-1.05 2.36-1.56Z"/><path fill="#89a0a4" d="m495.01 668.35.41 1.53c-1.16 2.48-3.29 4.48-4.68 6.85-3.49 5.85-6.88 11.77-10.09 17.78l-1.37-.47c-1.76-.6-3.49-1.26-5.27-1.82 3.73-6.21 8.02-11.96 12.82-17.38 2.34-2.54 5.34-4.57 8.18-6.49Z"/><path fill="#3f7a92" d="M364.84 670.64c4.86 4.31 9.36 9 13.52 13.98 3.82 4.53 8.24 8.55 11.82 13.25-.61.64-1.23 1.28-1.84 1.92-2.73.13-4.91-.17-6.78 2.26-2.57-.09-4.64.4-6.69-1.51.24-1.08.47-2.16.71-3.23l-2.77-.24c1.4-.59 3.03-1.12 4.17-2.14.78-1.92.64-4.2-.68-5.86-1.53-.79-3.37-1.09-5.05-1.39-1.47 2.9-2.39 5.95-3.51 8.99-.71 1.3-1.41 2.61-2.09 3.92-2.5-.3-4.77-.84-6.43-2.92-.6-1.61-.27-3.61-.27-5.31.95-.21 1.9-.41 2.84-.62 5.32-6.94-1.87-14.81 3.05-21.1Z"/><path fill="#f0d9b2" d="M384.87 673.04c2.48-.04 4.84.48 7.23 1.08-3.14.77-6.13.84-7.8 4.05l-1.56-1.86c.71-1.09 1.4-2.19 2.13-3.27ZM620.5 673.33l.43-.48c1.17 1.41 2.3 2.86 3.44 4.29-2.12 6.11-7.09 11.42-11.31 16.24-1.76-2.35-3.22-4.83-4.54-7.44l.6-.61c3.88-3.97 8.03-7.52 11.38-12Z"/><path fill="#b68c46" d="M392.1 674.12c1.28-.05 2.56-.09 3.84-.11.72 1.55 1.51 3.07 2.36 4.56l-1.2 1.32c-2.75 1.28-5.6 2.37-8.39 3.55-1.45-1.77-2.92-3.53-4.41-5.27 1.67-3.21 4.66-3.28 7.8-4.05Z"/><path fill="#89a0a4" d="M562.43 677.87c3.96 4 7.73 8.06 12.18 11.53 2.58 1.98 4.87 4.13 7.07 6.52-3.52 3.01-7.12 5.92-10.71 8.85 1.66 4.35 3.71 8.49 5.95 12.57-2.23 1.2-4.3 2.52-6.12 4.3-4.12-1.27-8.13-2.9-12.27-4.09-4.28-.88-7.49 1.29-10.48 4.07-3.32-.23-4.68 3.46-6.75 5.53-2.27-8.84-4.69-17.59-7.7-26.22 3.02-4.44 7.88-7.75 12.17-10.89 2.18 5.9 4.96 11.93 5.87 18.19.41 2.93.72 5.87 1.21 8.78 5.39-5.01 11.95-8.26 17.5-13.01-3.56-7.76-8.15-15.13-12.58-22.43 1.56-1.23 3.11-2.47 4.66-3.7ZM398.3 678.57c2.06 3.43 4.09 6.88 6.19 10.28-3.21.34-6.41.37-9.63.32.69-3.1 1.48-6.19 2.24-9.28l1.2-1.32Z"/><path fill="#f0d9b2" d="M397.1 679.89c-.76 3.09-1.55 6.18-2.24 9.28l-.19.99c-2.05-2.19-4.09-4.38-5.96-6.72 2.79-1.18 5.64-2.27 8.39-3.55ZM557.77 681.57c4.43 7.3 9.02 14.67 12.58 22.43-5.55 4.75-12.11 8-17.5 13.01-.49-2.91-.8-5.85-1.21-8.78-.91-6.26-3.69-12.29-5.87-18.19 4.03-2.8 8.14-5.44 12-8.47Z"/><path fill="#89a0a4" d="M608.52 685.94c1.32 2.61 2.78 5.09 4.54 7.44-10.54 11.11-20.34 22.74-29.88 34.72-2.23-3.55-4.29-7.13-5.67-11.1.26-1.17.31-2.55 1.06-3.52 2.54-3.36 5.44-6.57 8.82-9.1 7.48-5.58 14.3-12.09 21.13-18.44ZM371.25 687.68c1.68.3 3.52.6 5.05 1.39 1.32 1.66 1.46 3.94.68 5.86-1.14 1.02-2.77 1.55-4.17 2.14-1.69-.12-3.38-.28-5.07-.4 1.12-3.04 2.04-6.09 3.51-8.99Z"/><path fill="#b68c46" d="M394.86 689.17c3.22.05 6.42.02 9.63-.32 1.56 2.34 3.12 4.67 4.64 7.03-3.07.44-6.14.46-9.24.43-1.79-2.01-3.49-4.08-5.22-6.15l.19-.99Z"/><path fill="#554f3e" d="M931.73 691.29c5.74 2.85 10.25 8.91 14.05 13.93 6.04 7.89 9.4 17.06 12.58 26.4 8.68 24.9 13.95 51.79 19.63 77.4 1.78 9.59 3.08 19.24 5.22 28.77 2.86 16.19 5.63 32.48 7.21 48.85.64 4.7 1.48 9.37 1.98 14.09 2.91 29.22 4.74 58.99 6.59 88.27-.39 11.74 1.57 23.26.82 35H794.67c-.65-18.31.45-36.67.33-55 .5-14.37 2.21-28.74 4.01-43 3.04-21.32 7.95-42.4 13.82-63.12 3.34-12.19 7.18-24.36 11.92-36.08 8.33-22.24 18.68-43.77 30.94-64.11 9.88-15.49 20.71-31.3 33.44-44.59 5.61-6.48 11.96-12.08 18.97-17 6.75-4.84 15.29-9.14 23.63-9.81Z"/><path fill="#b68c46" d="M358.95 692.36c0 1.7-.33 3.7.27 5.31 1.66 2.08 3.93 2.62 6.43 2.92 3.22.53 6.04 1.1 9.22-.05 2.05 1.91 4.12 1.42 6.69 1.51 1.23.38 2.45.78 3.66 1.2-2.05 3.41-3.68 7.11-5.24 10.77-.92.3-1.85.59-2.78.86-2.74.1-5.48.09-8.22.14-3.59-.15-6.8-1.05-10.4-.32-2.42-5.73-5.7-10.98-8.34-16.59 3.09-1.69 6.13-3.32 8.71-5.75Z"/><path fill="#f0d9b2" d="M474.01 692.22c1.78.56 3.51 1.22 5.27 1.82-.54.66-1.07 1.32-1.61 1.99-1.73-.78-2.89-1.6-4.11-3.07l.45-.74Z"/><path fill="#b68c46" d="M473.56 692.96c1.22 1.47 2.38 2.29 4.11 3.07.54-.67 1.07-1.33 1.61-1.99l1.37.47c7.82 3.57 15.65 2.25 23.96 1.92 4.88-.35 9.58.67 14.47.63.44 1.26.88 2.52 1.35 3.76-1.73 2.09-3.15 3.98-5.96 4.58-15.9 3.79-33.52 2.96-49.7 1.45 2.74-4.76 5.94-9.2 8.79-13.89Z"/><path fill="#554f3e" d="M155.97 695.9c-.45 4.81-1.82 9.57-2.74 14.39-5.21 27.37-8.61 54.98-11 82.74-.3 4.48-.2 8.95-.75 13.42-.8 6.18-.23 12.34-.81 18.53-.34 3.67-.67 7.33-.68 11.02-.08 11.01-1.19 21.97-1.01 33-.35 8-.43 16-.89 24-.22 16.66-.13 33.36-.96 50.01-.25 26.99.01 54-.22 80.99H58.95c2.78-15.06 4.77-30.24 7.82-45.25 2.73-17.26 6.09-34.38 9.45-51.52 7.51-32.51 15.2-65.02 23.78-97.26 4.04-13.73 8.39-27.43 12.97-41 7.45-20.47 14.93-41.59 25.07-60.9 3.61-7.41 6.87-14.77 11.25-21.77 2.36-3.71 3.75-7.41 6.68-10.4Z"/><path fill="#f0d9b2" d="M399.89 696.31c3.1.03 6.17.01 9.24-.43 4.76 6.07 9.71 12.02 15 17.64-3.74.28-6.79-1.11-10.22-2.35-4.87-4.78-9.46-9.79-14.02-14.86ZM367.74 696.67c1.69.12 3.38.28 5.07.4l2.77.24c-.24 1.07-.47 2.15-.71 3.23-3.18 1.15-6 .58-9.22.05.68-1.31 1.38-2.62 2.09-3.92Z"/><path fill="#89a0a4" d="M388.34 699.79c-1.07 1.13-2.13 2.27-3.12 3.46-1.21-.42-2.43-.82-3.66-1.2 1.87-2.43 4.05-2.13 6.78-2.26Z"/><path fill="#3f7a92" d="M520.43 700.82c2.97 7.11 4.92 14.49 6.75 21.96 2.63 12.33 6.5 25.64 13.88 36.02-2.98.41-5.97.85-8.96 1.15-5.45-.06-10.65.26-16.06.87-9.07.39-18.19.12-27.26.13l.12-.88c.3-3.34.48-6.68.95-10 .92-4.38 2.69-8.7 4.37-12.85 2.95-7.07 5.8-14.19 8.66-21.29-4.93.05-9.77.39-14.64 1.19-4.45 10.42-9.87 20.11-13.35 30.91-1.41 3.5-2.7 7.05-4.25 10.49-2.59 4.58-3.66 9.63-5.7 14.41-.59.78-1.19 1.56-1.81 2.32-3.61-5.13-4.87-10.38-11.09-13.12 1.29-.83 1.96-1.43 2.28-3 1.12-4.38 1.96-8.8 3.47-13.08 3.6-9.69 7.73-19.18 11.21-28.91-3.3-.5-6.62-1.05-9.95-1.32 1.77-3.08 3.79-5.99 5.72-8.97 16.18 1.51 33.8 2.34 49.7-1.45 2.81-.6 4.23-2.49 5.96-4.58ZM398.77 708.23c5.19 4.93 10.29 10.1 15.03 15.48-1.26 6.57-1.73 13.44-2.03 20.12-.06 3.12-.34 6.21-.67 9.3-6.71-.87-13.28-1.3-20.05-1.35-1.72-.26-4.62.19-5.39-1.8 2.33-9.73 5.47-19.31 8.69-28.77 1.22-2.81 1.48-5.22 1.17-8.26-.11-1.15-.33-2.28-.57-3.41 1.17-.87 2.38-3.08 3.82-1.31Z"/><path fill="#89a0a4" d="M341.05 709.94c3.43 4.41 5.59 10 7.94 15.08 4.17 8.82 7.94 17.45 13.39 25.59 1.48 2.22 4.25 2.78 6.51 1.4-.64 5.17-2.43 9.64-3.91 14.61-3.4-.29-6.82-.38-10.21-.71.63-5.73 2.96-10.91 4.05-16.51-8.27-.76-16.71-.9-24.89-2.43 1.33-6.98 2.69-13.96 4.08-20.94 1.1-5.33 1.6-10.86 3.04-16.09ZM394.95 709.54c.24 1.13.46 2.26.57 3.41-.71 1.22-1.49 2.4-2.3 3.56-.47-.92-.96-1.83-1.45-2.73.92-1.53 1.97-2.93 3.18-4.24Z"/><path fill="#3f7a92" d="M413.91 711.17c3.43 1.24 6.48 2.63 10.22 2.35 4.52 4.42 9.42 8.37 14.18 12.52-1.07 1.17-2.17 2.31-3.28 3.44-3.7-2.05-6.87-4.76-10.24-7.28-4.07-3-7.34-7.37-10.88-11.03Z"/><path fill="#0a0c04" d="M395.52 712.95c.31 3.04.05 5.45-1.17 8.26-.35-1.57-.7-3.15-1.13-4.7.81-1.16 1.59-2.34 2.3-3.56Z"/><path fill="#f0d9b2" d="M368.98 715.02c-1.6 3.72-2.86 7.57-4.42 11.31-1.99-3.88-4.12-7.69-5.98-11.63 3.6-.73 6.81.17 10.4.32ZM379.98 714.02c-1.57 3.84-3.32 7.54-5.31 11.19.35-3.6 1.68-6.85 2.53-10.33.93-.27 1.86-.56 2.78-.86Z"/><path fill="#b68c46" d="M391.77 713.78c.49.9.98 1.81 1.45 2.73.43 1.55.78 3.13 1.13 4.7-3.22 9.46-6.36 19.04-8.69 28.77-1.15 6.01-2.31 12-4.15 17.85 8.87 1.12 17.78 1.09 26.63 2.36 1.91.05 3.81-.01 5.71-.1-1.68 5.57-3.04 11.16-4.4 16.8-1.16-.38-2.33-.71-3.51-.99-4.93-.86-9.67-.73-14.75-1.28-4.69-.48-9.03-1.24-13.75-.32-1.14 5.51-2.1 11.05-3.22 16.57-2.02 15.86-5.26 31.49-8.01 47.23-1.27 6.07-1.88 12.28-2.71 18.43-.13 1.4-.23 1.74 1.3 1.92 7.7.64 15.44 1.28 23.16 1.57 1.68.23 3.34.57 5 .93-.67 3.62-1.36 7.24-2.1 10.84-1.28-.11-2.56-.2-3.85-.28-8.12-.27-16.16-1.66-24.26-1.84-1.74-.25-1.94 1.27-2.32 2.58-.94 4.82-1.59 9.68-1.87 14.58-2.08 16.69-5.07 33.33-7.64 49.98-.57 5.78-1.93 11.31-1.93 17.1 8.02-.26 15.86 1.07 23.86 1.16 1.44.24 2.86.55 4.28.87-.87 7.08-1.87 14.14-2.77 21.21l-.51-1.88c-1.28-.33-2.56-.62-3.85-.86-7.87-.86-15.86-2.09-23.77-2.29-1.68 5.97-1.91 11.83-2.92 17.94-1.07 7.93-1.17 16-2.5 23.94h-8.76c1.27-6.58 1.38-13.52 1.97-20.19.17-1.91.22-3.83.26-5.74-.09-5.96 2.33-11.9 1.56-17.76-2.35-.23-4.69-.42-7.04-.55l.06-.78c.03-5.78 1.05-11.37 1.99-17.05 2.72.02 5.43.08 8.15.08 1.13-5.31 1.47-10.68 2.11-16.05 1.92-11.44 3.74-22.93 4.98-34.46 1.26-5.15 2.26-10.29 3.14-15.52 1.04-5.59 1.9-11.22 2.6-16.86-2.53-.42-5.12-.86-7.67-1.05-3.61-.32-7.23-.26-10.84-.43-7.74-.56-15.49-1.5-23.24-1.74.89-4.68 1.61-9.4 2.54-14.07.19.92.4 1.84.62 2.76 7.53.81 15.05 1.34 22.61 1.7 3.4.47 6.78.74 10.2.9 2.5.18 5 .42 7.5.53 1.61-6.86 2.1-13.85 3.32-20.77 1.87-7.74 2.53-15.67 4.22-23.45 1.61-7.76 2.49-15.65 3.99-23.43 1.17-5.63 2.42-11.22 3.02-16.94-2.27-.16-4.53-.32-6.8-.55-3.43-.4-6.86-.71-10.31-.88-7.71-.58-15.39-1.54-23.12-1.98.73-5.34 1.86-10.59 2.96-15.87 7.98.63 15.96 1.33 23.94 2.06 3.39.33 6.81.42 10.21.71 2.25.21 4.49.33 6.75.33 1.67-5.36 2.51-10.91 4.11-16.28.97-2.97 2.08-5.91 3.09-8.87 1.85-3.18 3.66-6.31 5.18-9.67 2.84-6.27 4.44-12.43 7.66-18.35Z"/><path fill="#89a0a4" d="M368.98 715.02c2.74-.05 5.48-.04 8.22-.14-.85 3.48-2.18 6.73-2.53 10.33-1.48 3.51-3.44 6.74-5.55 9.9-1.65-2.86-3.09-5.83-4.56-8.78 1.56-3.74 2.82-7.59 4.42-11.31Z"/><path fill="#3f7a92" d="M607.9 715.05c-2.09 7.45-5.44 14.55-7.98 21.86-3.25 8.36-6.53 16.7-9.66 25.11-.16-.43-.33-.86-.49-1.29-3.27 2.11-6.42 1.21-10.08 1.16.07-4.71 3.14-8.82 4.63-13.44.94-3.03 2.84-6.59 2.04-9.76 3.73-4.38 7.86-8.37 11.49-12.84 3.44-3.51 6.22-7.76 10.05-10.8Z"/><path fill="#f0d9b2" d="M459.05 715.82c3.33.27 6.65.82 9.95 1.32-3.48 9.73-7.61 19.22-11.21 28.91-5.51-.21-10.77-1.5-16.09-2.84 6.47-8.73 11.37-18.34 17.35-27.39ZM502.88 715.93c-2.86 7.1-5.71 14.22-8.66 21.29-1.68 4.15-3.45 8.47-4.37 12.85-4.98-.73-9.98-1.28-14.96-2.04 3.48-10.8 8.9-20.49 13.35-30.91 4.87-.8 9.71-1.14 14.64-1.19Z"/><path fill="#0a0c04" d="M558.53 717.55c4.14 1.19 8.15 2.82 12.27 4.09 1.53 3.81 1.7 8.08.92 12.08-1.61 4.89-6.09 8.78-11.08 9.94-3.63.95-8.2 1.74-11.15-1.21-3.35-2.91-4.39-6.92-4.36-11.22.79-3.26 1.72-6.48 2.92-9.61 2.99-2.78 6.2-4.95 10.48-4.07Z"/><path fill="#f0d9b2" d="m576.92 717.34.59-.34c1.38 3.97 3.44 7.55 5.67 11.1-6.52 7.1-12.62 14.82-19.75 21.31-2.68 2.33-6.48 5.42-10.2 5.34-3.12-.78-4.69-4.53-5.75-7.24-1.74-5.03-3.47-10.09-4.85-15.22.58-.72 1.16-1.44 1.74-2.15l.76 1.09c-.03 4.3 1.01 8.31 4.36 11.22 2.95 2.95 7.52 2.16 11.15 1.21 4.99-1.16 9.47-5.05 11.08-9.94.78-4 .61-8.27-.92-12.08 1.82-1.78 3.89-3.1 6.12-4.3Z"/><path fill="#3f7a92" d="M548.05 721.62c-1.2 3.13-2.13 6.35-2.92 9.61l-.76-1.09c-.58.71-1.16 1.43-1.74 2.15-.46-1.71-.89-3.42-1.33-5.14 2.07-2.07 3.43-5.76 6.75-5.53Z"/><path fill="#f0d9b2" d="M413.8 723.71c3.19 3.28 6.63 6.39 10.01 9.48 1.23 1.25 3.53 2.19 4.21 3.77-1.13 2.37-2.58 4.6-3.92 6.86-4.19-1.09-8.16-1.34-12.33.01.3-6.68.77-13.55 2.03-20.12Z"/><path fill="#fefde7" d="M561.74 723.96c1.78 2.67 3.72 6.83 2.34 10.03-2.49 4.24-9.5 4.22-11.43-.67-2.44-5.36 4.57-9.43 9.09-9.36Z"/><path fill="#89a0a4" d="M586.36 738.69c.8 3.17-1.1 6.73-2.04 9.76-1.49 4.62-4.56 8.73-4.63 13.44 3.66.05 6.81.95 10.08-1.16.16.43.33.86.49 1.29-2.44 6.27-4.78 12.56-7.06 18.89-3.02-.7-6.02-1.09-9.13-1.25 1.97-5.68 3.41-11.66 4.87-17.5-5-.3-9.95-.93-14.94-1.33 3.78-2.42 7.08-5.45 10.06-8.78 4.01-4.54 8.32-8.8 12.3-13.36ZM378.93 741.8c-1.01 2.96-2.12 5.9-3.09 8.87-1.58-.31-3.15-.62-4.73-.85 2.71-2.58 5.17-5.39 7.82-8.02ZM424.1 743.82c-1.85 3.1-3.64 6.2-4.96 9.57-2.71.33-5.35.11-8.04-.26.33-3.09.61-6.18.67-9.3 4.17-1.35 8.14-1.1 12.33-.01ZM441.7 743.21c5.32 1.34 10.58 2.63 16.09 2.84-1.51 4.28-2.35 8.7-3.47 13.08l-.5-1.71c-6.87-1.88-14.16-.88-20.61-3.58 2.9-3.5 5.89-6.88 8.49-10.63Z"/><path fill="#f0d9b2" d="M333.93 746.97c8.18 1.53 16.62 1.67 24.89 2.43-1.09 5.6-3.42 10.78-4.05 16.51-7.98-.73-15.96-1.43-23.94-2.06 1.05-5.62 1.99-11.26 3.1-16.88Z"/><path fill="#89a0a4" d="M474.89 748.03c4.98.76 9.98 1.31 14.96 2.04-.47 3.32-.65 6.66-.95 10-6.13-.12-12.14-1.23-18.26-1.55 1.55-3.44 2.84-6.99 4.25-10.49Z"/><path fill="#f0d9b2" d="M371.11 749.82c1.58.23 3.15.54 4.73.85-1.6 5.37-2.44 10.92-4.11 16.28-2.26 0-4.5-.12-6.75-.33 1.48-4.97 3.27-9.44 3.91-14.61.73-.74 1.47-1.47 2.22-2.19Z"/><path fill="#89a0a4" d="M385.66 749.98c.77 1.99 3.67 1.54 5.39 1.8 6.77.05 13.34.48 20.05 1.35-1.28 5.66-1.47 11.44-2.96 17.06-8.85-1.27-17.76-1.24-26.63-2.36 1.84-5.85 3-11.84 4.15-17.85Z"/><path fill="#f0d9b2" d="M411.1 753.13c2.69.37 5.33.59 8.04.26-2.1 5.41-3.65 11.13-5.29 16.7-1.9.09-3.8.15-5.71.1 1.49-5.62 1.68-11.4 2.96-17.06ZM433.21 753.84c6.45 2.7 13.74 1.7 20.61 3.58l.5 1.71c-.32 1.57-.99 2.17-2.28 3-4.23-.69-8.39-.53-12.12 1.79-3.35 1.73-5.33 4.64-7.05 7.88-2.34-.45-4.69-.85-7.05-1.19 1.81-5.61 3.74-12.06 7.39-16.77ZM470.64 758.52c6.12.32 12.13 1.43 18.26 1.55l-.12.88c-1.14 4.48-2.7 8.84-3.97 13.28-6.69-.07-13.22-.66-19.87-1.3 2.04-4.78 3.11-9.83 5.7-14.41ZM541.06 758.8c3.11 2.7 6.24 4.64 10.07 6.16-3.93 3.72-3.16 8.81-6.45 12.88-5.23.94-11.38-.74-16.76-.9 1.2-5.77 3.46-11.18 4.18-16.99 2.99-.3 5.98-.74 8.96-1.15Z"/><path fill="#89a0a4" d="M532.1 759.95c-.72 5.81-2.98 11.22-4.18 16.99-14.36-1.11-28.79-1.28-43.11-2.71 1.27-4.44 2.83-8.8 3.97-13.28 9.07-.01 18.19.26 27.26-.13 5.41-.61 10.61-.93 16.06-.87Z"/><path fill="#f0d9b2" d="M564 760.83c4.99.4 9.94 1.03 14.94 1.33-1.46 5.84-2.9 11.82-4.87 17.5-5.95-.28-11.86-.54-17.73-1.68.72-4.96 1.95-9.81 2.76-14.75 1.66-.75 3.28-1.58 4.9-2.4Z"/><path fill="#0a0c04" d="M452.04 762.13c6.22 2.74 7.48 7.99 11.09 13.12.62-.76 1.22-1.54 1.81-2.32-.7 2.85-.87 5.78-1.48 8.65-.79 2.72-1.99 5.24-2.44 8.06-1.13-.06-2.09-.32-3.12.3-4.92 2.67-9.11 5.82-14.85 6.59-3.96-1.43-6.52-4.33-9.21-7.4-3.99-5.23-3.86-11.62-.97-17.33 1.72-3.24 3.7-6.15 7.05-7.88 3.73-2.32 7.89-2.48 12.12-1.79Z"/><path fill="#b68c46" d="M559.1 763.23c-.81 4.94-2.04 9.79-2.76 14.75 5.87 1.14 11.78 1.4 17.73 1.68 3.11.16 6.11.55 9.13 1.25-1.92 5.69-3.84 11.38-5.77 17.07-2.44-.37-4.9-.62-7.38-.7-6.54.07-13.19-.77-19.69-.1-1.17 4.9-2.18 9.84-3.32 14.75-4.01 15.8-6.84 31.86-10.17 47.83-1.11 7.39-1.8 14.76-3.74 22.01 5.67.56 11.25.85 16.83 2.09-.86 3.02-1.72 6.03-2.57 9.04-5.94 1.67-11.18-.54-17.22.15-1.05 5.23-1.64 10.43-2.28 15.71-2.08 5.64-2.56 11.46-3.86 17.29-2.39 11.23-4.15 22.56-5.83 33.92-.7 5.59-2.09 11.13-2.33 16.74 3.24.05 6.36.34 9.46 1.35-1.32 6.37-2.71 12.71-4.19 19.05-3-.15-6-.38-9.01-.49-1.09 5.76-1.59 11.58-3.1 17.26-.78 3.35-1.13 6.76-1.82 10.12h-6.31c.1-3.65.03-7.29.17-10.94.46-5.65 1.39-11.26 1.93-16.91-6.18-.88-12.34-1.22-18.56-1.53-7.46-.85-14.97-.81-22.45-1.66-6.94-.79-13.86-.92-20.82-1.33-5.45-.54-10.9-.85-16.33-1.58.09-6.74 1.86-13.6 3.27-20.18 5.61.02 11.14.63 16.71 1.16 14.34 1.26 28.73 2.39 43.1 3.27 5.96.66 11.93.87 17.92 1.2.76-5.42 1.59-10.83 2.32-16.26 3.19-16.89 7.13-33.84 9.18-50.9.8-5.45 1.66-10.88 2.44-16.33-5.56-.8-11.16-1.14-16.76-1.68-14.39-1.04-28.76-2.02-43.14-3.34-6.25.03-12.41-.98-18.66-.98-5.15 0-10.2-.93-15.34-1.03-8.4.33-16.61-1.06-24.98-1.2.77-4.2 1.47-8.4 2.3-12.59 8.15.88 16.29 1.7 24.47 2.27 5.38.78 10.79.75 16.19 1.32 6.04.23 12.02.66 18.04 1.28 14.37 1.68 28.82 2.35 43.2 4 5.6.64 11.15 1.21 16.79.9 2.19-6.93 3.57-14.06 5.56-21.05 2.72-11.25 4.59-22.71 7.54-33.9 1.19-5.06 2.18-10.15 3.73-15.12 1.25-4.82 2.39-9.66 3.2-14.57-5.9-.58-11.8-1.15-17.72-1.52-6.4-.5-12.78-1.2-19.17-1.69-8.37-.05-16.65-1.08-24.99-1.69-6.41-.68-12.66-.69-19.02-1.78.45-2.82 1.65-5.34 2.44-8.06.61-2.87.78-5.8 1.48-8.65 6.65.64 13.18 1.23 19.87 1.3 14.32 1.43 28.75 1.6 43.11 2.71 5.38.16 11.53 1.84 16.76.9 3.29-4.07 2.52-9.16 6.45-12.88 2.7-.39 5.37-.91 7.97-1.73ZM425.82 770.61c2.36.34 4.71.74 7.05 1.19-2.89 5.71-3.02 12.1.97 17.33-4.19-.13-8.32-.85-12.51-1.06 1.34-5.85 2.77-11.7 4.49-17.46Z"/><path fill="#fefde7" d="M441.42 771.4c4.72-2.17 13.23.47 13.24 6.6-.38 4.02-3.32 8.09-7 9.76-3.12 1.26-6.21-2.39-7.82-4.63-1.94-3.44-2.95-9.78 1.58-11.73Z"/><path fill="#f0d9b2" d="M327.87 779.72c7.73.44 15.41 1.4 23.12 1.98-1.55 5.41-2.49 10.93-3.84 16.38-7.49.29-14.76-1.36-22.24-1.14.85-5.76 1.97-11.48 2.96-17.22Z"/><path fill="#89a0a4" d="M350.99 781.7c3.45.17 6.88.48 10.31.88-1.31 5.46-2.37 10.91-3.12 16.47-3.69-.26-7.35-.76-11.03-.97 1.35-5.45 2.29-10.97 3.84-16.38Z"/><path fill="#f0d9b2" d="M361.3 782.58c2.27.23 4.53.39 6.8.55-.6 5.72-1.85 11.31-3.02 16.94-2.29-.42-4.58-.81-6.9-1.02.75-5.56 1.81-11.01 3.12-16.47Z"/><path fill="#89a0a4" d="M377.44 784.3c4.72-.92 9.06-.16 13.75.32 5.08.55 9.82.42 14.75 1.28-1.4 5.4-2.32 10.9-3.64 16.32-9.4.51-18.75-1.96-28.08-1.35 1.12-5.52 2.08-11.06 3.22-16.57Z"/><path fill="#f0d9b2" d="M405.94 785.9c1.18.28 2.35.61 3.51.99-1.35 5.26-2.3 10.58-3.43 15.89-1.24-.21-2.48-.41-3.72-.56 1.32-5.42 2.24-10.92 3.64-16.32Z"/><path fill="#0a0c04" d="M665.85 785.94c2.73 1.05 5.18 2.99 7.67 4.52 5.88 3.67 11.65 7.63 16.94 12.11 2.35 2.23 5.24 5.23 3.87 8.76-.52 1.91-1.64 3.82-3.91 3.06-7.28-3.08-13.05-9.66-19.02-14.78-3.49-3.46-7.67-6.64-10.47-10.69-.19-2.57 2.84-3.6 4.92-2.98Z"/><path fill="#f0d9b2" d="M421.33 788.07c4.19.21 8.32.93 12.51 1.06 2.69 3.07 5.25 5.97 9.21 7.4-.44 2.43-.87 4.88-1.44 7.28l-.4 1.25c-7.72-1.68-15.63-.47-23.4-2.22 1.19-4.92 2.35-9.84 3.52-14.77Z"/><path fill="#89a0a4" d="M461.02 789.64c-.67 5.52-2.78 10.68-3.14 16.21 5.79.59 12.67 1.92 18.32.46 1.99-4.54 3.42-9.95 3.84-14.89 8.34.61 16.62 1.64 24.99 1.69 6.39.49 12.77 1.19 19.17 1.69-.8 5.13-1.84 10.22-3 15.28-5.79.04-11.44-1.21-17.23-1.24-5.01-.08-9.94-.98-14.97-.96-4.3.03-8.54-.53-12.82-.84-2.52 5.52-2.93 10.94-4.3 16.81-1.52 6.59-2.52 13.27-4.14 19.83-.92 3.68-1.75 7.35-1.92 11.16 9.39.99 18.84.85 28.18 2.1 5.29.42 10.59.51 15.87 1.06 1.35-4.02 2.01-8.16 2.87-12.29 2.78-11.89 5.64-23.76 8.46-35.63 5.87.34 11.62 1.17 17.52.81-1.55 4.97-2.54 10.06-3.73 15.12-2.95 11.19-4.82 22.65-7.54 33.9-5.39-1.21-11.56-1.76-17.09-1.68-2.46 7.14-3.08 14.62-5.26 21.83-14.38-1.65-28.83-2.32-43.2-4 .7-7.32 2.56-14.49 3.19-21.81-6.02-.17-11.95-.4-17.93-1.14 1.18-10.72 3.98-20.93 6.45-31.4 1.36-5.96 3.59-11.21 3.68-17.41-5.25.24-10.46.28-15.68-.49.57-2.4 1-4.85 1.44-7.28 5.74-.77 9.93-3.92 14.85-6.59 1.03-.62 1.99-.36 3.12-.3Z"/><path fill="#f0d9b2" d="M461.02 789.64c6.36 1.09 12.61 1.1 19.02 1.78-.42 4.94-1.85 10.35-3.84 14.89-5.65 1.46-12.53.13-18.32-.46.36-5.53 2.47-10.69 3.14-16.21ZM524.2 794.8c5.92.37 11.82.94 17.72 1.52-.81 4.91-1.95 9.75-3.2 14.57-5.9.36-11.65-.47-17.52-.81 1.16-5.06 2.2-10.15 3-15.28Z"/><path fill="#89a0a4" d="M324.91 796.94c7.48-.22 14.75 1.43 22.24 1.14-1 6.3-2.64 12.45-3.3 18.79-.65 5.78-2.25 11.37-2.77 17.18-.37 4.13-1.21 8.17-2.02 12.24-7.7-1.2-15.42-1.38-23.19-1.48 3.01-15.96 5.83-31.95 9.04-47.87Z"/><path fill="#f0d9b2" d="M550.36 797.18c6.5-.67 13.15.17 19.69.1-1.66 5.22-1.87 10.84-4.11 15.8-6.3-.66-12.55-1.36-18.9-1.15 1.14-4.91 2.15-9.85 3.32-14.75Z"/><path fill="#89a0a4" d="M570.05 797.28c2.48.08 4.94.33 7.38.7-1.67 5.33-3.59 10.57-5.47 15.84-1.83-1.56-3.29-1.83-5.35-.36-.87 1.69-1.3 3.69-1.71 5.54-1.83 9.19-3.78 18.36-5.62 27.56.64-.05 1.28-.09 1.92-.14-1.68 5.12-3.23 10.29-4.69 15.48-6.27-1.77-13.17-1.59-19.64-2.14 3.33-15.97 6.16-32.03 10.17-47.83 6.35-.21 12.6.49 18.9 1.15 2.24-4.96 2.45-10.58 4.11-15.8Z"/><path fill="#3f7a92" d="M347.15 798.08c3.68.21 7.34.71 11.03.97-1.37 5.32-2.07 10.72-2.91 16.13-2.04 10.51-4.17 21.06-5.44 31.7-3.58-.28-7.18-.56-10.77-.59.81-4.07 1.65-8.11 2.02-12.24.52-5.81 2.12-11.4 2.77-17.18.66-6.34 2.3-12.49 3.3-18.79Z"/><path fill="#89a0a4" d="M358.18 799.05c2.32.21 4.61.6 6.9 1.02-1.5 7.78-2.38 15.67-3.99 23.43-1.69 7.78-2.35 15.71-4.22 23.45-2.35.01-4.69-.02-7.04-.07 1.27-10.64 3.4-21.19 5.44-31.7.84-5.41 1.54-10.81 2.91-16.13Z"/><path fill="#3f7a92" d="M402.3 802.22c-1.58 8.4-2.84 16.83-4.96 25.12-1.6 7.05-3.81 14.22-4.31 21.45 1.02.38 2.04.74 3.07 1.09l-3.98.15c-8.65-.16-17.28-2.25-25.91-1.93 2.75-15.74 5.99-31.37 8.01-47.23 9.33-.61 18.68 1.86 28.08 1.35Z"/><path fill="#89a0a4" d="M402.3 802.22c1.24.15 2.48.35 3.72.56-3.22 15.66-6.14 31.42-9.08 47.14l-.84-.04c-1.03-.35-2.05-.71-3.07-1.09.5-7.23 2.71-14.4 4.31-21.45 2.12-8.29 3.38-16.72 4.96-25.12ZM417.81 802.84c7.77 1.75 15.68.54 23.4 2.22-1.23 3.9-1.73 7.78-2.43 11.79-.86 5.34-2.7 10.41-3.45 15.77-.98 6.52-1.91 13.03-3.3 19.49-8.13-.69-16.48-.71-24.46-2.44 2.75-15.73 6.65-31.28 10.24-46.83Z"/><path fill="#3f7a92" d="M441.61 803.81c5.22.77 10.43.73 15.68.49-.09 6.2-2.32 11.45-3.68 17.41-2.47 10.47-5.27 20.68-6.45 31.4-5.12.45-10.18.29-15.29-.15l.16-.85c1.39-6.46 2.32-12.97 3.3-19.49.75-5.36 2.59-10.43 3.45-15.77.7-4.01 1.2-7.89 2.43-11.79l.4-1.25ZM476.18 807.04c4.28.31 8.52.87 12.82.84 5.03-.02 9.96.88 14.97.96 5.79.03 11.44 1.28 17.23 1.24-2.82 11.87-5.68 23.74-8.46 35.63-.86 4.13-1.52 8.27-2.87 12.29-5.28-.55-10.58-.64-15.87-1.06-9.34-1.25-18.79-1.11-28.18-2.1.17-3.81 1-7.48 1.92-11.16 1.62-6.56 2.62-13.24 4.14-19.83 1.37-5.87 1.78-11.29 4.3-16.81ZM571.96 813.82c-3.89 10.77-7.14 21.74-10.76 32.6-.64.05-1.28.09-1.92.14 1.84-9.2 3.79-18.37 5.62-27.56.41-1.85.84-3.85 1.71-5.54 2.06-1.47 3.52-1.2 5.35.36Z"/><path fill="#f0d9b2" d="M315.87 844.81c7.77.1 15.49.28 23.19 1.48-1.03 6.67-1.96 13.37-3.21 20-7.56-.36-15.08-.89-22.61-1.7-.22-.92-.43-1.84-.62-2.76 1.04-5.68 2.07-11.37 3.25-17.02Z"/><path fill="#89a0a4" d="M339.06 846.29c3.59.03 7.19.31 10.77.59-1.54 6.72-2.27 13.58-3.78 20.31-3.42-.16-6.8-.43-10.2-.9 1.25-6.63 2.18-13.33 3.21-20Z"/><path fill="#f0d9b2" d="M349.83 846.88c2.35.05 4.69.08 7.04.07-1.22 6.92-1.71 13.91-3.32 20.77-2.5-.11-5-.35-7.5-.53 1.51-6.73 2.24-13.59 3.78-20.31Z"/><path fill="#89a0a4" d="M366.21 848.1c8.63-.32 17.26 1.77 25.91 1.93-1.07 6.72-2.84 13.3-4.16 19.99-7.72-.29-15.46-.93-23.16-1.57-1.53-.18-1.43-.52-1.3-1.92.83-6.15 1.44-12.36 2.71-18.43Z"/><path fill="#f0d9b2" d="m392.12 850.03 3.98-.15.84.04c-1.15 7.05-2.58 14.03-3.98 21.03-1.66-.36-3.32-.7-5-.93 1.32-6.69 3.09-13.27 4.16-19.99ZM407.57 849.67c7.98 1.73 16.33 1.75 24.46 2.44l-.16.85c-1.57 6.8-2.79 13.66-4.2 20.5-8.18-.57-16.32-1.39-24.47-2.27 1.4-7.19 2.65-14.4 4.37-21.52Z"/><path fill="#89a0a4" d="M431.87 852.96c5.11.44 10.17.6 15.29.15-1.12 7.3-2.86 14.29-3.3 21.67-5.4-.57-10.81-.54-16.19-1.32 1.41-6.84 2.63-13.7 4.2-20.5Z"/><path fill="#f0d9b2" d="M447.16 853.11c5.98.74 11.91.97 17.93 1.14-.63 7.32-2.49 14.49-3.19 21.81-6.02-.62-12-1.05-18.04-1.28.44-7.38 2.18-14.37 3.3-21.67ZM527.45 859.91c-1.99 6.99-3.37 14.12-5.56 21.05-5.64.31-11.19-.26-16.79-.9 2.18-7.21 2.8-14.69 5.26-21.83 5.53-.08 11.7.47 17.09 1.68ZM536.87 859.76c6.47.55 13.37.37 19.64 2.14-2.29 7.29-4.42 14.62-6.55 21.96-5.58-1.24-11.16-1.53-16.83-2.09 1.94-7.25 2.63-14.62 3.74-22.01ZM310.08 875.9c7.75.24 15.5 1.18 23.24 1.74-.8 5.08-1.34 10.24-2.5 15.25l-.3 1.15c-7.54-1.8-14.89-1.6-22.51-2.31l-.39-1.91c.85-4.64 1.67-9.28 2.46-13.92Z"/><path fill="#89a0a4" d="M333.32 877.64c3.61.17 7.23.11 10.84.43-.78 5.57-1.88 11.04-2.27 16.66-3.84-.09-7.39-.75-11.07-1.84 1.16-5.01 1.7-10.17 2.5-15.25Z"/><path fill="#f0d9b2" d="M344.16 878.07c2.55.19 5.14.63 7.67 1.05-.7 5.64-1.56 11.27-2.6 16.86a86.5 86.5 0 0 0-7.34-1.25c.39-5.62 1.49-11.09 2.27-16.66Z"/><path fill="#89a0a4" d="M362.75 879.67c8.1.18 16.14 1.57 24.26 1.84-2.83 5.01-2.56 11.74-3.83 17.34-8.17-1.06-16.43-1.01-24.62-2.02.28-4.9.93-9.76 1.87-14.58.38-1.31.58-2.83 2.32-2.58Z"/><path fill="#f0d9b2" d="M387.01 881.51c1.29.08 2.57.17 3.85.28-1.27 6.06-2.48 12.13-3.71 18.19-1.32-.38-2.64-.76-3.97-1.13 1.27-5.6 1-12.33 3.83-17.34ZM400.9 883.78c8.37.14 16.58 1.53 24.98 1.2-1.36 4.57-1.86 9.26-2.81 13.91-.24 1.06-.47 2.13-.69 3.2-2.82-.82-5.42-1.15-8.36-1.1-5.38.09-10.64-.86-16-1 .93-5.41 1.82-10.82 2.88-16.21Z"/><path fill="#89a0a4" d="M425.88 884.98c5.14.1 10.19 1.03 15.34 1.03-.13 5.47-1.17 10.75-2.01 16.13-4.87-.49-9.67-.74-14.56-.78-.53-.82-1.06-1.64-1.58-2.47.95-4.65 1.45-9.34 2.81-13.91Z"/><path fill="#f0d9b2" d="M441.22 886.01c6.25 0 12.41 1.01 18.66.98-1.82 4.85-1.94 9.9-3.08 14.88-.36 2.58-2.77 1.79-4.64 1.82-4.37-.51-8.69-.85-13.1-.68l.15-.87c.84-5.38 1.88-10.66 2.01-16.13Z"/><path fill="#89a0a4" d="M459.88 886.99c14.38 1.32 28.75 2.3 43.14 3.34-.8 5.55-1.75 11.05-2.85 16.55 5.72.57 11.43 1.12 17.17 1.46-2.05 17.06-5.99 34.01-9.18 50.9-5.75-.55-11.43-1.39-17.22-1.29 1.73-12.5 4.49-24.87 6.73-37.29.72-4.52 1.98-8.72 2.2-13.3-11.74-1.98-23.8-1.8-35.63-3.11-2.68-.31-5.37-.42-8.07-.2-4.26 16.64-6.36 33.64-10.29 50.33-4.86-.56-9.67-.19-14.47-1.44.45-2.91.36-5.97.59-8.93 1.37-2.6 3.04-5.37 3.77-8.23.76-4.1-.25-7.75-1.48-11.62 2.25-6.85 3.26-14.11 4.77-21.15 4.41-.17 8.73.17 13.1.68 1.87-.03 4.28.76 4.64-1.82 1.14-4.98 1.26-10.03 3.08-14.88ZM307.62 889.82l.39 1.91c7.62.71 14.97.51 22.51 2.31-2.63 16.64-5.38 33.24-7.51 49.96-3.26.09-6.52.04-9.77-.37-4.72-.64-9.47-.48-14.16-1.37 2.68-17.51 5.61-34.98 8.54-52.44Z"/><path fill="#f0d9b2" d="M503.02 890.33c5.6.54 11.2.88 16.76 1.68-.78 5.45-1.64 10.88-2.44 16.33-5.74-.34-11.45-.89-17.17-1.46 1.1-5.5 2.05-11 2.85-16.55ZM547.39 892.9c-1.75 6.02-3.4 12.07-5.15 18.09-4.75-1.32-9.5-1.55-14.35-2.23.64-5.28 1.23-10.48 2.28-15.71 6.04-.69 11.28 1.52 17.22-.15Z"/><path fill="#3f7a92" d="M330.82 892.89c3.68 1.09 7.23 1.75 11.07 1.84-.67 2.49-1.33 4.98-1.67 7.54-1.91 14.29-4.92 28.43-7.08 42.69-3.41-.25-6.81-.36-10.22-.09l.09-.87c2.13-16.72 4.88-33.32 7.51-49.96l.3-1.15Z"/><path fill="#89a0a4" d="M341.89 894.73c2.47.32 4.91.72 7.34 1.25-.88 5.23-1.88 10.37-3.14 15.52-1.24 11.53-3.06 23.02-4.98 34.46-2.64-.46-5.3-.77-7.97-1 2.16-14.26 5.17-28.4 7.08-42.69.34-2.56 1-5.05 1.67-7.54Z"/><path fill="#3f7a92" d="M358.56 896.83c8.19 1.01 16.45.96 24.62 2.02-2.66 16.71-5.76 33.36-8.09 50.12-8.03-.96-16.12-1.23-24.17-2.16 2.57-16.65 5.56-33.29 7.64-49.98Z"/><path fill="#89a0a4" d="M383.18 898.85c1.33.37 2.65.75 3.97 1.13-3.04 16.02-5.08 32.19-7.7 48.26-1.46.22-2.91.47-4.36.73 2.33-16.76 5.43-33.41 8.09-50.12Z"/><path fill="#3f7a92" d="M423.07 898.89c.52.83 1.05 1.65 1.58 2.47 4.89.04 9.69.29 14.56.78l-.15.87c-1.51 7.04-2.52 14.3-4.77 21.15-3.53-4.55-7.92-7.75-13.53-9.23.55-4.28.92-8.59 1.62-12.84.22-1.07.45-2.14.69-3.2Z"/><path fill="#89a0a4" d="M398.02 899.99c5.36.14 10.62 1.09 16 1 2.94-.05 5.54.28 8.36 1.1-.7 4.25-1.07 8.56-1.62 12.84-3.69.41-7.08 1.39-9.88 3.94-6.19 5.49-10.25 14.66-8.7 22.94 1.83 5.2 6.64 6.78 11.08 9.14-7.67.16-15.71-.69-23.31-1.76 2.14-16.5 5.48-32.77 8.07-49.2Z"/><path fill="#3f7a92" d="M456.17 904.05c2.7-.22 5.39-.11 8.07.2 11.83 1.31 23.89 1.13 35.63 3.11-.22 4.58-1.48 8.78-2.2 13.3-2.24 12.42-5 24.79-6.73 37.29l-.81-.02c-8.73-.79-17.36-2.03-26.15-2.11-5.6-.6-11.29-.43-16.86-1.21l-1.24-.23c3.93-16.69 6.03-33.69 10.29-50.33Z"/><path fill="#89a0a4" d="M527.89 908.76c4.85.68 9.6.91 14.35 2.23-4.56 16.4-8.81 32.89-12.84 49.43-3.73-.12-7.46-.33-11.2-.45 1.68-11.36 3.44-22.69 5.83-33.92 1.3-5.83 1.78-11.65 3.86-17.29Z"/><path fill="#0a0c04" d="M420.76 914.93c5.61 1.48 10 4.68 13.53 9.23 1.23 3.87 2.24 7.52 1.48 11.62-.73 2.86-2.4 5.63-3.77 8.23-3.72 2.7-7.47 5.37-11.22 8.02-1.88.31-3.99-.24-5.83-.65l-1.69-.43c-4.44-2.36-9.25-3.94-11.08-9.14-1.55-8.28 2.51-17.45 8.7-22.94 2.8-2.55 6.19-3.53 9.88-3.94Z"/><path fill="#fefde7" d="M418.43 924.4c3.76-1.18 7.52 2.1 8.76 5.44 1.61 3.69-.73 7.53-2.96 10.38-2.23 2.66-6.11 4.83-9.53 3.09-3.04-1.22-6.6-5.08-5.02-8.56 1.17-4.81 4.13-8.51 8.75-10.35Z"/><path fill="#554f3e" d="M745.78 936.1c-.74 7.5-1.73 14.95-2.11 22.47-.28 3.2-.57 7.05-2.35 9.77-2.96 1.55-6.9 1.52-10.17 1.95-13.58 1.43-27.25 1.41-40.8 3.1-5.44.67-10.88.64-16.35.72-16.29.88-32.69 2.28-49.01 1.81 3.46-5.54 7.27-10.8 10.44-16.52 3.58-5.39 6.66-11.23 10.79-16.22 7.86-.47 15.7-1.11 23.57-1.48 15.69-1.95 31.44-2.23 47.18-3.69 9.63-.09 19.2-2.08 28.81-1.91Z"/><path fill="#f0d9b2" d="M299.08 942.26c4.69.89 9.44.73 14.16 1.37 3.25.41 6.51.46 9.77.37l-.09.87c-.62 5.11-1.49 10.19-2.08 15.3-8.07-.79-16.06-2.06-24.18-2.44.83-5.16 1.55-10.33 2.42-15.47Z"/><path fill="#89a0a4" d="M333.14 944.96c-.42 5.42-1.32 10.76-2.16 16.13-3.45.12-6.76-.26-10.14-.92.59-5.11 1.46-10.19 2.08-15.3 3.41-.27 6.81-.16 10.22.09Z"/><path fill="#3f7a92" d="M432 944.01c-.23 2.96-.14 6.02-.59 8.93-1.54 5.58-1.82 11.34-3.3 16.93-5.03-.85-10.09-.85-15.18-.81l.09-.94c.32-5.63 1.4-11.14 1.93-16.74 1.84.41 3.95.96 5.83.65 3.75-2.65 7.5-5.32 11.22-8.02Z"/><path fill="#f0d9b2" d="M333.14 944.96c2.67.23 5.33.54 7.97 1-.64 5.37-.98 10.74-2.11 16.05-2.72 0-5.43-.06-8.15-.08l.13-.84c.84-5.37 1.74-10.71 2.16-16.13Z"/><path fill="#89a0a4" d="M350.92 946.81c8.05.93 16.14 1.2 24.17 2.16-.8 5.36-1.7 10.7-2.24 16.1-8-.09-15.84-1.42-23.86-1.16 0-5.79 1.36-11.32 1.93-17.1Z"/><path fill="#f0d9b2" d="M379.45 948.24c-.6 5.93-1.56 11.8-2.32 17.7-1.42-.32-2.84-.63-4.28-.87.54-5.4 1.44-10.74 2.24-16.1 1.45-.26 2.9-.51 4.36-.73ZM389.95 949.19c7.6 1.07 15.64 1.92 23.31 1.76l1.69.43c-.53 5.6-1.61 11.11-1.93 16.74-8.48-.03-17.03-.97-25.44-2.07.76-5.63 1.46-11.26 2.37-16.86ZM431.41 952.94c4.8 1.25 9.61.88 14.47 1.44l1.24.23c-1.86 5.32-2.27 10.82-2.3 16.42-5.57-.53-11.1-1.14-16.71-1.16 1.48-5.59 1.76-11.35 3.3-16.93Z"/><path fill="#89a0a4" d="M447.12 954.61c5.57.78 11.26.61 16.86 1.21 8.79.08 17.42 1.32 26.15 2.11.43 5.37-1.06 11.13-2.21 16.37-14.37-.88-28.76-2.01-43.1-3.27.03-5.6.44-11.1 2.3-16.42Z"/><path fill="#b68c46" d="M296.66 957.73c8.12.38 16.11 1.65 24.18 2.44-.66 6.07-1.31 12.11-2.57 18.1-8.14-.8-16.26-1.67-24.31-3.18.82-5.81 1.49-11.61 2.7-17.36Z"/><path fill="#f0d9b2" d="m490.13 957.93.81.02c5.79-.1 11.47.74 17.22 1.29-.73 5.43-1.56 10.84-2.32 16.26-5.99-.33-11.96-.54-17.92-1.2 1.15-5.24 2.64-11 2.21-16.37Z"/><path fill="#554f3e" d="M320.84 960.17c3.38.66 6.69 1.04 10.14.92l-.13.84c-.94 5.68-1.96 11.27-1.99 17.05-3.54-.04-7.06-.41-10.59-.71 1.26-5.99 1.91-12.03 2.57-18.1Z"/><path fill="#f0d9b2" d="M518.2 959.97c3.74.12 7.47.33 11.2.45-1.22 5.91-2.6 11.78-4.07 17.64-3.1-1.01-6.22-1.3-9.46-1.35.24-5.61 1.63-11.15 2.33-16.74Z"/><path fill="#b68c46" d="M387.58 966.05c8.41 1.1 16.96 2.04 25.44 2.07l-.09.94c-.9 6.65-2.12 13.25-2.96 19.9-8.34-1.16-16.76-1.6-25.09-2.81.77-6.7 1.69-13.43 2.7-20.1Z"/><path fill="#554f3e" d="M412.93 969.06c5.09-.04 10.15-.04 15.18.81-1.41 6.58-3.18 13.44-3.27 20.18l-.83-.11c-4.7-.71-9.28-1.02-14.04-.98.84-6.65 2.06-13.25 2.96-19.9Z"/><path fill="#f0d9b2" d="M293.96 975.09c8.05 1.51 16.17 2.38 24.31 3.18-.47 6.03-1.6 11.86-1.51 17.92l-.82-.04c-7.99-.85-16.14-1.71-24.03-3.26-.08-1.02-.15-2.04-.22-3.07.76-4.91 1.51-9.82 2.27-14.73Z"/><path fill="#89a0a4" d="M318.27 978.27c3.53.3 7.05.67 10.59.71l-.06.78c-.84 6.04-1.97 11.96-1.97 18.09-3.33-.6-6.71-1.34-10.07-1.66-.09-6.06 1.04-11.89 1.51-17.92Z"/><path fill="#f0d9b2" d="M328.8 979.76c2.35.13 4.69.32 7.04.55.77 5.86-1.65 11.8-1.56 17.76-2.49-.05-4.97-.13-7.45-.22 0-6.13 1.13-12.05 1.97-18.09Z"/><path fill="#89a0a4" d="M346.23 982.12c7.91.2 15.9 1.43 23.77 2.29-1.76 5.53-2.32 11.54-2.29 17.32 1.13.98 3.09 1.05 4.5 1.47-.97 6.91-1.43 13.84-1.81 20.8h-5.67c.33-7.02 1.25-13.88 2.28-20.81l-.35-.7c-2.6-.6-5.39-.73-8.05-.92-5.12-.35-10.17-1.22-15.3-1.51 1.01-6.11 1.24-11.97 2.92-17.94Z"/><path fill="#f0d9b2" d="M370 984.41c1.29.24 2.57.53 3.85.86l.51 1.88c-.65 5.36-1.38 10.71-2.15 16.05-1.41-.42-3.37-.49-4.5-1.47-.03-5.78.53-11.79 2.29-17.32ZM384.88 986.15c8.33 1.21 16.75 1.65 25.09 2.81-.82 5.67-1.14 11.39-2.14 17.03-8.28-.09-16.74-.95-24.96-2 .42-5.97 1.33-11.88 2.01-17.84Z"/><path fill="#3f7a92" d="M409.97 988.96c4.76-.04 9.34.27 14.04.98.09 6.14-1.23 12.09-1.4 18.21-.76 5.29-1.56 10.52-1.99 15.85h-14.93c0-6.12 1.26-11.99 2.14-18.01 1-5.64 1.32-11.36 2.14-17.03Z"/><path fill="#89a0a4" d="M291.69 989.82c.07 1.03.14 2.05.22 3.07 7.89 1.55 16.04 2.41 24.03 3.26-.94 9.31-2.54 18.58-3.83 27.85h-24.69c1.42-11.35 2.65-22.85 4.27-34.18Z"/><path fill="#f0d9b2" d="m424.01 989.94.83.11c5.43.73 10.88 1.04 16.33 1.58-1.87 5.56-2.1 11.3-3.35 17.17-5.09 0-10.14-.46-15.21-.65.17-6.12 1.49-12.07 1.4-18.21Z"/><path fill="#89a0a4" d="M441.17 991.63c6.96.41 13.88.54 20.82 1.33 7.48.85 14.99.81 22.45 1.66-.6 5.52-1.41 11-2.3 16.47-14.08.21-28.02-1.71-42.06-2.17-1.98-.2-1.86 1.69-2.28 3.06-.74 3.9-.77 8.06-.96 12.02h-16.22c.43-5.33 1.23-10.56 1.99-15.85 5.07.19 10.12.65 15.21.65 1.25-5.87 1.48-11.61 3.35-17.17Z"/><path fill="#f0d9b2" d="M484.44 994.62c6.22.31 12.38.65 18.56 1.53-.54 5.65-1.47 11.26-1.93 16.91-6.37-.51-12.66-1.34-19.07-1.08l.14-.89c.89-5.47 1.7-10.95 2.3-16.47Z"/><path fill="#3f7a92" d="m315.94 996.15.82.04c3.36.32 6.74 1.06 10.07 1.66-2.58 8.66-1.64 17.42-3.64 26.15h-11.08c1.29-9.27 2.89-18.54 3.83-27.85Z"/><path fill="#f0d9b2" d="M512.13 996.62c3.01.11 6.01.34 9.01.49-1.29 5.99-2.37 12.02-3.71 18-2.76-1.1-5.47-1.27-8.4-1.23 1.51-5.68 2.01-11.5 3.1-17.26Z"/><path fill="#89a0a4" d="M326.83 997.85c2.48.09 4.96.17 7.45.22-.04 1.91-.09 3.83-.26 5.74-1.03.69-2.05 1.4-3.06 2.12.03 1.23.04 2.46.01 3.7l1.89 1.08c-1.16.36-2.32.69-3.48 1.05l.96 1.8c-3 2.84-3.22 6.57-3.62 10.44h-3.53c2-8.73 1.06-17.49 3.64-26.15Z"/><path fill="#3f7a92" d="M343.31 1000.06c5.13.29 10.18 1.16 15.3 1.51 2.66.19 5.45.32 8.05.92l.35.7c-1.03 6.93-1.95 13.79-2.28 20.81h-23.92c1.33-7.94 1.43-16.01 2.5-23.94ZM334.02 1003.81c-.59 6.67-.7 13.61-1.97 20.19h-5.33c.4-3.87.62-7.6 3.62-10.44l-.96-1.8c1.16-.36 2.32-.69 3.48-1.05l-1.89-1.08c.03-1.24.02-2.47-.01-3.7 1.01-.72 2.03-1.43 3.06-2.12Z"/><path fill="#89a0a4" d="M382.87 1003.99c8.22 1.05 16.68 1.91 24.96 2-.88 6.02-2.14 11.89-2.14 18.01h-25.24c.55-6.7 1.46-13.35 2.42-20.01Z"/><path fill="#3f7a92" d="M440.08 1008.92c14.04.46 27.98 2.38 42.06 2.17l-.14.89c-.68 4.01-1.29 8.05-2.18 12.02h-42.98c.19-3.96.22-8.12.96-12.02.42-1.37.3-3.26 2.28-3.06Z"/><path fill="#89a0a4" d="M482 1011.98c6.41-.26 12.7.57 19.07 1.08-.14 3.65-.07 7.29-.17 10.94h-21.08c.89-3.97 1.5-8.01 2.18-12.02ZM509.03 1013.88c2.93-.04 5.64.13 8.4 1.23-.62 2.96-1.1 5.94-1.74 8.89h-8.48c.69-3.36 1.04-6.77 1.82-10.12Z"/></svg>
