<svg xmlns="http://www.w3.org/2000/svg" width="1024pt" height="1024pt" viewBox="0 0 1024 1024"><path fill="#459bca" d="M0 0h1024v883c-3.72-9.95-6.96-20.05-11.21-29.81-7.29-17.8-15.65-35.65-26.27-51.72-16.55-25.34-40.44-46.65-65.23-63.73-16.77-11.2-34.03-21.77-51.89-31.16-27.9-14.17-57.2-25.68-87.12-34.84-1.46-.48-2.88-1.07-4.29-1.7.03-3.57.32-6.8-2.68-9.34-3.45-2.6-6.83-5.05-9.58-8.44-7.69-9.12-13.17-21.42-21.65-30.33-4.73-4.84-9.93-9.08-16.24-11.68-4.72-2.04-10-3.19-14.48-5.62-.86-.52-2.16-1.19-1.77-2.42.49-2.38 1.65-4.69 2.73-6.86 7.17-13.79 14.06-27.7 19.91-42.11 1.12-2.46 1.92-5.3 3.49-7.51 1.7-1.05 3.69-1.68 5.53-2.49 13.18-5.63 24.43-14.38 34.02-24.96 16.38-18.18 27.2-41.43 30.02-65.78 1.38-8.7 1.01-17.75.63-26.53-1.19-10.02-4.32-19.71-9.56-28.35-3.42-5.36-7.87-9.94-13.51-12.96.26-2.97 1.66-5.34 2.82-8.01 11.31-26.16 19.4-53.19 22.29-81.62-.06-6.73 1.34-13.27 1.03-20.03-.93-26.34-4.68-52.45-15.28-76.79-7.66-18.43-19.82-35.03-35.13-47.84-13.86-11.36-30.33-20.82-48.2-23.8-3.01-.73-6.32-.58-9.22-1.65-1.29-1.47-2.06-3.43-3.01-5.13-4.96-9.61-12.43-18.31-19.86-26.1-14.43-16.43-32.07-30.1-51-40.96-21.09-11.82-45.35-18.69-69.25-21.75-2.64-.25-5.2-.82-7.67.46-1.51 1.98.4 4.82 2.03 6.17 7.16 6.07 14.99 11.63 21.9 18.09 5.3 4.96 9.33 11.18 11.37 18.16-4.62-3.92-8.52-8.51-13.47-12.08-6.83-5.42-14.4-8.49-22.49-11.48-26.22-9.16-54.21-12.96-81.91-11-27.68 3.15-54.92 12.29-79.79 24.71-14.46 7.51-27.15 15.92-42.76 21.28-17.72 6.25-36.87 7.19-54.47-.05-6.11-2.58-11.84-6.07-17.72-9.12-2.95-.11-2.15 4.69-1.71 6.53 2.67 7.79 10.59 14.22 16.34 19.84-8.04-.98-15.63-3.99-21.46-9.72-5.77-5.77-8.83-13.11-13.6-19.37-1.7-2.39-5.46-2.19-6.69.55-6.77 16.12-13.45 31.59-16.18 49.03-.93 3.74-.35 7.91-2.08 11.27-1.4-3.2-3.3-6.8-6.07-9.01-1.57-.67-2.14-.01-3 1.18-5.5 9.29-8.27 19.27-10.27 29.78-2.51 18.73 5.01 37.31 17.16 51.32 5.69 6.76 13.86 11.79 21.84 15.42-4.33 9.77-6.92 20.4-7.89 31.03-.78 4.8-.19 9.29.29 14.08a61.05 61.05 0 0 0 4.09 16.57c-8.51 22.91-14.86 46.69-20.6 70.43-5.71 25.21-10.07 51.18-12.21 76.93.36 6.42-1.2 12.62-.94 19.02.12 12.31.19 24.79 1.51 37.02 1.51 18.95 5.68 37.55 11.92 55.49 12.59 38.06 32.4 73.29 57.52 104.47 8.69 10.55 17.97 21.3 28.43 30.13-5.37 5.81-12.75 10.12-15.23 18.08-2.04 1.44-4.66 2.16-6.96 3.08-41.64 15.61-82.68 37.31-116.39 66.56-31.55 25.94-55.75 58.89-73.54 95.51-13.31 28.24-23.05 58.61-31.34 88.67-7.01 24.38-12.78 49.08-17.59 73.99H0V0Z"/><path d="M552.37 31.44c2.47-1.28 5.03-.71 7.67-.46 23.9 3.06 48.16 9.93 69.25 21.75 18.93 10.86 36.57 24.53 51 40.96 7.43 7.79 14.9 16.49 19.86 26.1.95 1.7 1.72 3.66 3.01 5.13 2.9 1.07 6.21.92 9.22 1.65 17.87 2.98 34.34 12.44 48.2 23.8 15.31 12.81 27.47 29.41 35.13 47.84 10.6 24.34 14.35 50.45 15.28 76.79.31 6.76-1.09 13.3-1.03 20.03-2.89 28.43-10.98 55.46-22.29 81.62-1.16 2.67-2.56 5.04-2.82 8.01 5.64 3.02 10.09 7.6 13.51 12.96 5.24 8.64 8.37 18.33 9.56 28.35.38 8.78.75 17.83-.63 26.53-2.82 24.35-13.64 47.6-30.02 65.78-9.59 10.58-20.84 19.33-34.02 24.96-1.84.81-3.83 1.44-5.53 2.49-1.57 2.21-2.37 5.05-3.49 7.51-5.85 14.41-12.74 28.32-19.91 42.11-1.08 2.17-2.24 4.48-2.73 6.86-.39 1.23.91 1.9 1.77 2.42 4.48 2.43 9.76 3.58 14.48 5.62 6.31 2.6 11.51 6.84 16.24 11.68 8.48 8.91 13.96 21.21 21.65 30.33 2.75 3.39 6.13 5.84 9.58 8.44 3 2.54 2.71 5.77 2.68 9.34 1.41.63 2.83 1.22 4.29 1.7 29.92 9.16 59.22 20.67 87.12 34.84 17.86 9.39 35.12 19.96 51.89 31.16 24.79 17.08 48.68 38.39 65.23 63.73 10.62 16.07 18.98 33.92 26.27 51.72 4.25 9.76 7.49 19.86 11.21 29.81v95.38c-3.13-18.76-7.45-37.12-12.04-55.56-4.37-17.36-9.41-34.67-15.43-51.53-3.09-8.43-5.94-16.89-9.81-25-3.67-8.51-7.51-16.88-12.04-24.97-3.73-6.34-8.31-12.32-12.58-18.31-5.88-7.77-12.43-14.84-18.83-22.08-3.49-3.9-7.18-7.62-11.32-10.84-16.1-14.1-35.11-25.06-53.79-35.58-3.49-1.92-7.13-3.55-10.67-5.39-9.1-5.3-18.4-9.21-27.92-13.66-5.88-2.5-11.59-5.36-17.51-7.77-15.04-6.2-30.34-12.01-45.86-16.91-1.06 7.11-2.46 14.15-3.85 21.2-3.27 15.98-7.18 31.78-11.41 47.53-4.45 16.99-9.86 33.66-15.04 50.43-4.08 12.58-7.89 25.23-12.32 37.69-1.84 4.83-2.08 9.45-6.59 12.66-5.1-.26-8.54-3.08-12.9-5.41-12.84-7.1-25.61-14.37-38.32-21.7-15.1-7.71-29.04-15.68-45.62-20.42-4.05-1.21-8.05-.75-12.25-.74 1.38 6.82 2.72 14.07 5.59 20.43 1.13 2.58 2.16 5.38 1.14 8.18-1.96 3.17-6.1 5.04-9.25 6.79-8.69 4.91-17.2 10.11-25.82 15.15-8.61 4.94-16.98 10.33-25.38 15.62-14.87 9.06-29.45 17.72-43.7 27.98-9.1 5.76-18.42 11.34-27.07 17.76-19.4 12.92-38.36 26.46-56.79 40.73-3.3 2.21-5.25 5.3-7.48 8.48-4.55 6.5-7.63 14.06-8.85 21.9-1.59 9.7-4.07 19.16-4.99 28.96h-10.59c1.18-16.77 4.4-33.5 8.67-49.74 2.24-8.15 4.52-16.44 7.85-24.22-3.77-4.35-7.22-8.98-10.81-13.48-7.15-9.96-15.81-19.34-23.92-28.53-6.81-7.62-13.05-15.73-19.86-23.36-6.35-7.42-12.42-15.08-19.14-22.16-5.36-5.89-10.52-12.05-16.43-17.4-7.11-7.8-15.05-14.92-22.82-22.05-3.94-3.25-8.05-6.46-8.14-12.05.98-4.86 3.47-9.48 5.35-14.04l.38-.68c1.37-2.41 2.58-4.89 3.77-7.39-5.22.21-10.28 1.3-15.39 2.34l-.44.07c-4.58.75-9.09 1.95-13.53 3.28-9.43 2.63-18.52 6.17-27.82 9.19-5.55 1.28-10.54 3.74-15.78 5.84-3.2 1.4-7.16.99-9.41-1.88-1.96-1.86-1.49-5.56-.22-7.69 2.61-4.54 5.28-9.05 7.84-13.62 7.17-12.3 15.57-24.06 24.11-35.44 6.6-8.72 14.12-16.95 20.12-26.07-4.09 1.77-8.34 3.07-12.49 4.67-17.05 7.49-33.63 15.24-49.12 25.69-4.48 2.89-8.86 5.94-13.3 8.91-8.04 5.26-15.26 12.23-22.71 18.53-4.31 3.27-8.03 7.11-11.81 10.94-8.83 8.51-17.1 17.79-24.21 27.79-9.56 15.26-18.93 30.33-26.14 46.88-3.43 6.98-6.35 13.9-8.91 21.25-6.12 15.79-10.85 32.2-15.57 48.45-5.04 17.43-9.8 34.93-14.35 52.49-1.68 6.76-3.06 13.59-4.74 20.35-1.1 4.44-1.5 8.83-2.91 13.13H50.41c4.81-24.91 10.58-49.61 17.59-73.99 8.29-30.06 18.03-60.43 31.34-88.67 17.79-36.62 41.99-69.57 73.54-95.51 33.71-29.25 74.75-50.95 116.39-66.56 2.3-.92 4.92-1.64 6.96-3.08 2.48-7.96 9.86-12.27 15.23-18.08-10.46-8.83-19.74-19.58-28.43-30.13-25.12-31.18-44.93-66.41-57.52-104.47-6.24-17.94-10.41-36.54-11.92-55.49-1.32-12.23-1.39-24.71-1.51-37.02-.26-6.4 1.3-12.6.94-19.02 2.14-25.75 6.5-51.72 12.21-76.93 5.74-23.74 12.09-47.52 20.6-70.43a61.05 61.05 0 0 1-4.09-16.57c-.48-4.79-1.07-9.28-.29-14.08.97-10.63 3.56-21.26 7.89-31.03-7.98-3.63-16.15-8.66-21.84-15.42-12.15-14.01-19.67-32.59-17.16-51.32 2-10.51 4.77-20.49 10.27-29.78.86-1.19 1.43-1.85 3-1.18 2.77 2.21 4.67 5.81 6.07 9.01 1.73-3.36 1.15-7.53 2.08-11.27 2.73-17.44 9.41-32.91 16.18-49.03 1.23-2.74 4.99-2.94 6.69-.55 4.77 6.26 7.83 13.6 13.6 19.37 5.83 5.73 13.42 8.74 21.46 9.72-5.75-5.62-13.67-12.05-16.34-19.84-.44-1.84-1.24-6.64 1.71-6.53 5.88 3.05 11.61 6.54 17.72 9.12 17.6 7.24 36.75 6.3 54.47.05 15.61-5.36 28.3-13.77 42.76-21.28 24.87-12.42 52.11-21.56 79.79-24.71 27.7-1.96 55.69 1.84 81.91 11 8.09 2.99 15.66 6.06 22.49 11.48 4.95 3.57 8.85 8.16 13.47 12.08-2.04-6.98-6.07-13.2-11.37-18.16-6.91-6.46-14.74-12.02-21.9-18.09-1.63-1.35-3.54-4.19-2.03-6.17Z"/><path fill="#775023" d="M593.63 55.67c6.12 1.66 12.02 4.29 17.78 6.9 7.26 3.33 13.49 7.72 20.11 12.12-1.91-.58-3.83-1.08-5.75-1.59.77 5.8 2.8 11.27 3.91 16.98 1.53 11.44 1.56 22.76-1.65 33.95-2.6 8.51-6.45 17.03-12.02 24.03-3.58 4.04-7.49 7.8-11.17 11.75-3.57 3.84-8.18 5.59-12.01 9.04-1 .84-1.17 1.93-1.64 3.09-2.53.33-4.89 1.18-7.35 1.82 3.92 2.05 8.15 2.78 12.28 4.18 1.4.44 2.06 1.5 3.07 2.47-13.32-4.97-26.82-7.36-40.63-10.36 2.09-12.58.19-25.38-4.45-37.17-1.76-4.43-3.4-9.07-7.21-12.16.85 6.19 2.54 12.09 3.18 18.28.59 5 1.15 10 1.77 14.99.35 5.03.09 10.1.15 15.14-3.19-.26-6.35-.72-9.5-1.27.72-5.62.79-11.29-.3-16.88-1.57-9.54-3.43-18.6-7.97-27.24-4.84-10.13-12.87-18.39-20.99-25.97-9.82-7.64-22.18-15.04-34.79-16.21 3.48 2.67 7.59 4.24 11.09 6.91 12.29 8.82 22.26 21.16 29.83 34.18 8 13.24 11.79 29.02 12 44.41-7.12-.07-14.24-.09-21.37.03-5.39-14.62-12.55-28.29-23.76-39.33-10.97-11.22-23.95-19.87-39.44-23.31-10.06-2.11-21.09-2.14-31.05.34 5.14.35 10.18.02 15.25 1.27 14.53 2.6 27.93 11.41 38.04 21.91 3.87 4.07 8.07 8.17 11.17 12.86 5.86 8.3 11.15 16.68 14.87 26.18-1.57-.02-3.15-.04-4.73-.07-10.67-11.95-25.52-19.56-41.37-21.7-14.54-2.07-29.12.77-43.14 4.5-10.71 2.65-20.87 6.97-30.15 12.94-10.76 5.99-21.03 13.1-33.65 14.27-3.1.44-7.37-.27-9.12 3-3.1 4.62-8.06 8.08-12.42 11.54-5.49 3.84-11.23 8.09-17.43 10.59-6.31 2.92-13.17 4.14-20.05 4.93-6.2.31-12.87.45-18.9-1.22-7.22-1.76-13.97-5.5-19.57-10.34-9.44-8.59-14.51-20.79-14.7-33.49 7.5 7 16.33 10.74 25.42 15.09.72-.95 1.43-1.9 2.14-2.86-3.04-3.66-6.01-7.24-7.94-11.65-3.36-7.45-6.95-15.17-6.51-23.54-.49-9.75 2.65-19.9 6.1-28.92.94-2.47 2.47-4.54 4.05-6.63 1.92 1.58 3.46 3.48 5.13 5.3 11.28 10.74 26.7 14.99 41.75 17.08 10.3.53 20.68-.23 31.01.17 12.88.91 27.17.23 39.25-4.73 6.06-2.4 10.5-6.47 15.3-10.7 2.31-2.09 4.61-4.11 6.38-6.7-11.37 5.96-22.87 11.23-35.89 12.47a72.2 72.2 0 0 1-25.55-.9c-8.58-1.73-17.53-5.45-23.96-11.52 8.3 1.53 17.08 2.6 25.5 1.93 7.74-.94 15.33-2.35 22.61-5.23 11.08-4.59 20.87-10.8 31.15-16.83 27.13-15.27 57.03-25.01 88.21-26.82 7.67.1 15.36-.13 23.03.1 24.35 1.91 49.23 8.33 70.69 20.2 10.61 6.05 21.47 14.93 26.95 26.06 3.82 7.49 3.45 14.98 3.31 23.12 5.24-1.49 4.48-7.38 5.63-11.64 1.87-7.24 1.36-14.43 1.38-21.82-.1-6.06-2.76-11.94-4.3-17.73-1.76-6.66-4.65-13.14-7.06-19.59Z"/><path fill="#5c3c19" d="M625.77 73.1c1.92.51 3.84 1.01 5.75 1.59 7.06 4.77 13.76 9.98 19.87 15.94 14.66 13.28 26.37 29.22 33.1 47.92.9 2.04.98 5.31 2.52 6.85 15.85-.74 31.58 3.99 44.69 12.86 15.04 9.62 27.67 22.85 37.12 37.96 9.2 14.91 15.21 31.5 18.14 48.76 2.34 11.82 2.18 23.63 2.85 35.6-6.59-4.66-13.04-9.4-20.17-13.23-9.71-5.17-19.68-10.71-30.28-13.75-6.7-1.94-12.76-4.15-19.81-3.75 2.77 2.06 5.92 3.14 9 4.62 17.13 9.12 34.02 17.66 49.67 29.29 3.34 2.61 7.24 4.89 10.1 8.04.58 1.65.14 3.7.01 5.42-.47 3.57-.17 6.96-1.12 10.44-8.85-6.99-17.11-14.22-26.82-20.06-14.23-9.08-30.36-16.62-46.92-20.13 2.13 2.52 5.54 4.05 8.41 5.64 19.71 10.15 38.08 22.72 55 37.04 2.72 2.31 5.86 4.33 8.29 6.95.32 1.5-.21 3.19-.47 4.68-1.03 4.17-1.74 8.41-2.85 12.56-10.49-9.84-20.74-19.36-32.64-27.55-5.76-3.92-11.56-7.93-17.69-11.25-9.87-5.12-19.98-9.74-30.35-13.78-1.57-.58-3.21-.86-4.86-1.17.82.88 1.68 1.72 2.56 2.52 20.02 16.1 43.76 27.4 63.04 44.03 6.13 5.08 12.22 9.92 17.56 15.87-1.34 6.67-3.64 12.96-5.99 19.31-3.61-4.65-7.98-8.52-11.91-12.88-12.99-13.67-28.06-24.38-44.36-33.74-2.11-1.04-4.43-3.57-6.87-3.33-4.68-10.35-12.18-19.58-19.97-27.76-5.69-6.15-12.99-10.3-19.79-15.51 7.29-6.6 14.71-12.56 23.54-17.01 5.65-2.82 11.55-4.26 17.71-5.48 1.53-.41 2.99-.47 3.89-1.97.99-1.62-.34-2.89-1.04-4.31-10.13-15.37-23.27-27.42-38-38.28 4.09-.09 8.22-.15 12.32.09 10.97.99 21.25 1.41 31.85 5.02 2.46.94 4.86 1.93 7.49 2.35-.31-1.56-.19-3.33-1.23-4.59-4.72-6.26-12.57-10.24-19.59-13.41-13.97-5.77-29.47-8.2-44.54-7.43-8.38.76-16.43 2.98-24.25 6.04 1.97-3.71 4.02-7.06 5.22-11.13 1.59-4.69.91-9.97 1.07-14.99.1-3.73-.8-7.29-.98-10.99-.14-1.82-.08-3.47-1.22-5.01-2.36-.52-3.67 2.53-4.53 4.25-3.64 9.61-5.18 19.83-11.54 28.46-2.33 2.92-4.62 6.48-7.8 8.51-2.46-.4-4.76-2.09-7.01-3.14-4.11-2.23-8.55-3.65-12.75-5.67-1.01-.97-1.67-2.03-3.07-2.47-4.13-1.4-8.36-2.13-12.28-4.18 2.46-.64 4.82-1.49 7.35-1.82.47-1.16.64-2.25 1.64-3.09 3.83-3.45 8.44-5.2 12.01-9.04 3.68-3.95 7.59-7.71 11.17-11.75 5.57-7 9.42-15.52 12.02-24.03 3.21-11.19 3.18-22.51 1.65-33.95-1.11-5.71-3.14-11.18-3.91-16.98Z"/><path fill="#ffe0b8" d="M431.03 164.1c12.16.61 24.08 3.28 34.86 9.07 4.98 2.95 9.52 8.26 15.18 9.88 3.27 1.16 6.52.97 9.93.9 6.36.08 12.68-1.33 18.99-1.93 11.41-.35 22.68.02 34.01 1.44 16.61 2.13 32.94 4.62 48.34 11.27 8.29 3.68 17.26 5.56 25.45 9.39.95 2.44 2.41 3.55 4.53 4.94 9.79-.19 21.17-4.52 31.19-1.62 6.01 1.96 12.68 4.76 18.26 7.75 6.34 3.41 10.54 8.47 15.45 13.62 2.9 3.47 5.75 7.13 8.08 11-7.51.21-13.54 3.98-19.8 7.68-9.66 5.75-18.63 12.12-24.49 21.98.04 1.38-.66 3.9.7 4.76 2.8 2.02 6.23 3.16 9.21 4.9 9.23 5.21 17.06 13.03 24.32 20.65 4.66 5.36 8.8 11.47 12.13 17.74 7.07 14.02 10.18 30.41 10.92 45.99 1.05 10.17.61 20.3.76 30.49.37 8.53-1.95 16.2-.79 24.83.46 2.1 2.19 4.65 4.64 4.13 2.94-1.15 4.93-4.73 7.1-6.95 4.49-4.59 9.54-8.58 15.03-11.91 10.02-5.76 20.43-9.84 32.23-8.08-1.65 1.92-2.75 4.08-3.58 6.47-1.69 4.9-3.75 9.32-4.32 14.53-.23 3.06-2.25 5.81-3.32 8.73 2.26.49 4.51.97 6.77 1.45l-.54 1.3c-4.81-1.1-10.83-1.12-15.12 1.67-9.72 6.02-17 15.33-21.03 25.99-1.64 4.43-3.59 9.04-3.09 13.86.33 2.84 3.53 5.01 6.12 3.19 4.61-3.37 5.69-10.84 7.8-15.3 2.99-.53 5.41.78 7.62 2.67-2.3-.01-4.35-.8-6.48-1.58-2.2 5.32-3.21 10.54-7.24 14.91-.99 1.14-2.25 1.38-3.6 1.88-1.76 3.53-2.96 7.23-4.48 10.87-2.66 6.62-5.83 13.22-8.06 20-4.07 12.85-7.82 25.71-12.96 38.2-2.79 7.98-7.65 15.17-9.83 23.3-1.12 3.81-3.1 7.11-5.26 10.39-1.16-2.59-1.63-3.45-4.29-4.57-1.53 2.4-2.69 5.18-4.43 7.41l-1.56.26c5.5-9.39 9.14-19.53 12.49-29.84 6.47-21.65 9.52-43.8 11.55-66.24.41.8.82 1.6 1.23 2.39.11-3.24.42-6.35-.58-9.51-.25-4.22.95-8.23.92-12.43-.1-6.35.96-12.65 1-19-.04-6.69.37-13.34.04-20.02-.26-3.87 1.25-8.2-.15-11.73-1.09-1.46-3.07-2.47-4.76-1.35-1.87 1.44-3.03 3.95-4.31 5.9-6.16 9.71-11.71 19.67-17.39 29.64-11.92 20.22-25.37 39.31-43.4 54.57-12.97 11.04-28.1 19.77-44.25 25.21.32-7.05.42-14.2-.4-21.21-.97-12.81-4.15-26.41-10.95-37.44-4.48-7.37-10.68-13.42-17.85-18.17-10.79-7.25-23.55-12.25-36.59-13.08-16.74-1.41-34.37 2.38-50.32 7.25-9.88 2.95-19.99 5.06-29.8 8.22-11.64 3.53-23.41 6.38-35.46 8.05-3.28-.71-6.08-.79-9.41-.41 2.11.26 4.23.51 6.35.71-2.31.54-4.58.89-6.95.82-5.07-1.18-10.66-1-15.77-.14-4.34-.55-8.62-1.69-12.92-2.51 1.92-.2 3.15-1.51.37-1.66-.78.17-1.46.6-2.03 1.29-9.81-2.15-19.29-5.54-29.02-8.03-12.44-3.56-25.94-8.32-39.03-7.32-11.43.04-22.76 5.64-30.72 13.66-6.02 6.58-10.47 14.98-13.83 23.19-1.5 3.68-3.14 7-3.63 10.97-.52-.15-1.03-.31-1.54-.47-9.72-10.82-13.52-25.78-14.32-39.97-.87-7.88-1.23-16.06-.27-23.94.57-41.07 9.76-81.53 21.97-120.6 9.06-28.85 21.65-57.17 40.12-81.3 10.79 2.89 22.71-2.54 30.52-9.86 7-6.37 8.58-15.19 14.86-22.2 7.21 4.34 15.22 6.72 23.39 3.46 8.74-3.51 16.34-10.56 22.2-17.81 2.08-2.35 4.39-4.41 7.25-5.77 11.23-5.44 23.41-10.46 36.04-10.87Z"/><path fill="#775023" d="M267.32 237.89c-3.45 4.83-5.33 10.32-8.28 15.4.82-5.04 2.69-9.95 4.65-14.64.72-1.58 2.29-1.36 3.63-.76Z"/><path d="M348.01 241.97c6.27 1.45 13.97 3.77 17.49 9.63 1.48 2.11-.75 4.38-2.36 5.6-3.91 1.97-7.97 1.69-12.14 1.93-2.66.24-5.3.64-7.96.84-15.13 1.49-29.66 7.81-40.37 18.72-1.59 1.45-3.5 3.23-5.64 3.75-2.08.26-3.19-.51-3.76-2.53 1.9-6.71 5.7-12.21 10.02-17.58 6.39-8.83 15.14-16.13 25.59-19.56 6.25-1.83 12.76-2.45 19.13-.8ZM529.45 247.56c12.67 4.93 23.63 14.5 31.41 25.53 5.64 7.38 8.96 16.25 12 24.93.48 1.63-.58 2.73-1.22 4.12-1.9-.17-3.52-.42-4.82-1.96-3.82-4.45-7.36-9.29-11.53-13.46-4.7-4.97-10.85-8.71-16.51-12.51-9.41-6.06-19.65-10.01-30.78-11.39-4.78-1.03-9.92-1.49-14.48-3.29-3.2-1.24-3.32-4.97-1.31-7.31 3.14-4.28 7.7-5.94 12.69-7.07 8.5-1.99 16.56-.91 24.55 2.41Z"/><path fill="#fefefa" d="m325.01 310.89-1.72.53c-2.43-1.78.68-2.45 1.72-.53Z"/><path d="m323.29 311.42 1.72-.53c1.88.05 3.8-.01 5.66.26 4.07 1.25 7.26 4.23 9.16 8 3.06 5.5 3.77 11.63 4.06 17.83-.53 6.02-1.18 11.86-3.53 17.5-2.57 6.08-6.29 12.27-11.88 16.01-3.24 1.82-7.02 3.34-10.71 1.92-5.73-1.82-10.03-7.96-11.77-13.48-3.28-9.2-2.11-18.9.78-28.02 3.04-8.31 7.72-16.36 16.51-19.49Z"/><path fill="#775023" d="M717.21 315.7c16.3 9.36 31.37 20.07 44.36 33.74 3.93 4.36 8.3 8.23 11.91 12.88-.84 2.78-1.73 5.51-3.01 8.12a224.707 224.707 0 0 0-23.78-26.13c-9.57-8.62-20.26-16.17-31.67-22.16-1.73-3.18-3.15-6.5-4.68-9.78 2.44-.24 4.76 2.29 6.87 3.33Z"/><path d="M505.33 318.34c2.68-.77 5.69-.95 8.38-.16 3.87 1.14 7.09 4.51 9.17 7.84 4.47 7.88 4.62 16.18 3.96 24.98-1.16 7.75-3.98 15.78-8.84 22.01-2.86 3.83-7.22 6.95-11.97 7.85-4.2.89-8.6-1.53-11.7-4.16-4.68-4.45-6.99-11.46-8.09-17.67-.94-9.03.26-18.09 4.63-26.13 3.04-5.88 8.08-12.19 14.46-14.56ZM408.34 320.02c1.77-.17 2.4-.1 3.6 1.34.63 5.35-.74 10.19-2.42 15.19-2.44 6.99-5.16 13.87-8.37 20.55-3.38 7.89-7.57 15.34-13.23 21.84-6.05 7.45-13.29 13.16-19.64 20.42-2.93 3.45-5.51 7.05-6.43 11.59-1.02 4.39.78 9.35 2.97 13.15 5.08 8.33 13.15 14.59 22.44 17.56 4.75 1.4 9.82 1.83 14.75 2.11 5.99-.39 12.01-1.4 17.92-2.46l1.39-.27c3.19-.33 6.24-1.92 9.41-2.03 2.97 2.2.49 4.64-1.66 6.12-15.21 10.42-36.38 13.43-53.56 6.34-12.36-5.15-22.8-14.67-27.72-27.27-2.41-5.74-3.49-11.81-1.33-17.82 3.63-10.94 11.25-18.77 19.19-26.73 6.24-6.31 12.84-11.71 17.94-19.09 6.99-10.19 12.96-21.18 19.05-31.92 1.89-2.84 3.42-6.07 5.7-8.62Z"/><path fill="#5c3c19" d="M715.02 322.15c11.41 5.99 22.1 13.54 31.67 22.16 8.6 8.07 16.55 16.81 23.78 26.13-.44.93-.84 1.87-1.22 2.83-4.19-3.36-7.56-7.41-11.18-11.34-12.02-12.56-25.54-23.52-40.55-32.32-.67-2.54-1.49-5.03-2.5-7.46Z"/><path fill="#775023" d="M717.52 329.61c15.01 8.8 28.53 19.76 40.55 32.32 3.62 3.93 6.99 7.98 11.18 11.34-.81 3.04-1.56 6.04-3.08 8.84-9.6-.49-19.23 3.2-27.69 7.42-4.46 2.35-9.26 4.66-13.21 7.76-1.34 1.04-2.81 1.79-4.36 2.47.09-2.36.38-4.57.98-6.86 1.45.67 2.9 1.33 4.37 1.95-1.33-.82-2.71-1.56-4.12-2.26-.24-7.07-.32-14.38.08-21.44.35-1.64.81-3.28 1.25-4.91.2 1.55.39 3.11.57 4.66 5.59 3.16 10.56 7.29 16.18 10.34-3.81-7.2-11.44-12.72-18.06-17.22-.34-3.97.08-7.89-.53-11.84-.03-1.49-.04-2.97-.03-4.45 10.4 7.51 20.49 14.94 29.16 24.5 1.38 1.56 2.76 3.11 4.2 4.61-1.91-4.67-4.53-9.14-7.84-12.96-8.04-8.7-16.6-16.76-26.94-22.68-.88-3.87-1.74-7.73-2.66-11.59Z"/><path fill="#5c3c19" d="M720.18 341.2c10.34 5.92 18.9 13.98 26.94 22.68 3.31 3.82 5.93 8.29 7.84 12.96-1.44-1.5-2.82-3.05-4.2-4.61-8.67-9.56-18.76-16.99-29.16-24.5-.01 1.48 0 2.96.03 4.45-.81-3.65-.55-7.36-1.45-10.98ZM722.16 364.02c6.62 4.5 14.25 10.02 18.06 17.22-5.62-3.05-10.59-7.18-16.18-10.34-.18-1.55-.37-3.11-.57-4.66-.44 1.63-.9 3.27-1.25 4.91.26-2.38.16-4.75-.06-7.13Z"/><path fill="#f9ce95" d="M767.26 396.02c5.04.65 9.9 3.71 13.22 7.5 4.4 5.22 6.72 11.39 8.16 18 1.21 7.55 1.74 15.08.67 22.7-.73 14.41-4.99 28.73-11.47 41.59-3.39 6.02-7.19 12.05-11.99 17.06-6.94 7.9-15.47 15.6-25.26 19.71-6.03 2.52-13.26 2.69-19.68 2.83-2.75.19-5.2 1.56-4.9 4.69 1.08 2.63 2.96 4.51 5.11 6.3-5.32 19.98-13.18 38.7-22.66 57.04-2.2 3.86-4.26 7.55-4.62 12.09-1.3 12.69-1.16 25.61.61 38.24.75 3.06 1.07 6.06-.67 8.86-4.33 6.88-9.29 13.41-14.49 19.66-10.51 13.29-22.2 26.02-33.56 38.42-9.63 9.89-18.56 20.15-28.96 29.29-3.5.55-5.23 3.12-8.3 4.59-2.84 1.39-5.66 2.73-8.29 4.51-3.02 2.01-6.39 2.87-9.56 4.59-8.61 4.91-18.54 7.82-27.89 11.06-12.34 4.16-25.05 6.64-37.84 8.98-10.52 1.51-21.26 2.51-31.9 2.14-8.5-.86-16.5-.39-24.77-2.11-8.78-1.73-17.72-3.76-26.12-6.89-12.42-5.01-24.38-10.96-35.46-18.52-6.11-4.19-13.43-8.41-17.91-14.4 5 .82 9.6 2.9 14.59 3.7 1.54.37 2.8-.16 4.26-.55 15.09 2.19 30.79.9 45.54-2.87 21.59-5.48 42.68-13.08 63.03-22.09 25.95-11.96 50.72-26.57 74.23-42.78 21.66-14.61 41.72-31.37 59.21-50.81 9.97-11.62 19.4-23.42 26.79-36.9l1.56-.26c1.74-2.23 2.9-5.01 4.43-7.41 2.66 1.12 3.13 1.98 4.29 4.57 2.16-3.28 4.14-6.58 5.26-10.39 2.18-8.13 7.04-15.32 9.83-23.3 5.14-12.49 8.89-25.35 12.96-38.2 2.23-6.78 5.4-13.38 8.06-20 1.52-3.64 2.72-7.34 4.48-10.87 1.35-.5 2.61-.74 3.6-1.88 4.03-4.37 5.04-9.59 7.24-14.91 2.13.78 4.18 1.57 6.48 1.58 3.08 3.41 4.79 7.8 4.49 12.42.29 5.27-2.23 9.87-2.16 15.05-.18 1.84.73 2.53 1.8 3.82 5.43-2.79 8.9-9.11 10.23-14.85.98-7.03.86-15.75-3.08-21.93-2.18-3.19-5.11-6.68-9.13-7.37 2.29-5.25 8.95-8.95 14.11-10.87 1.79-.75 5.14-1.51 5.23-3.91.46-2.35-2.21-3.35-3.79-4.44l.54-1.3c-2.26-.48-4.51-.96-6.77-1.45 1.07-2.92 3.09-5.67 3.32-8.73.57-5.21 2.63-9.63 4.32-14.53.83-2.39 1.93-4.55 3.58-6.47Z"/><path d="M762.27 428.5c1.58 1.09 4.25 2.09 3.79 4.44-.09 2.4-3.44 3.16-5.23 3.91-5.16 1.92-11.82 5.62-14.11 10.87 4.02.69 6.95 4.18 9.13 7.37 3.94 6.18 4.06 14.9 3.08 21.93-1.33 5.74-4.8 12.06-10.23 14.85-1.07-1.29-1.98-1.98-1.8-3.82-.07-5.18 2.45-9.78 2.16-15.05.3-4.62-1.41-9.01-4.49-12.42-2.21-1.89-4.63-3.2-7.62-2.67-2.11 4.46-3.19 11.93-7.8 15.3-2.59 1.82-5.79-.35-6.12-3.19-.5-4.82 1.45-9.43 3.09-13.86 4.03-10.66 11.31-19.97 21.03-25.99 4.29-2.79 10.31-2.77 15.12-1.67Z"/><path fill="#775023" d="M693.97 436.66c.13 4.57-1.29 8.91-1.01 13.52-.54-1.09-1.14-2.15-1.75-3.2-1.25 1.84-1.56 3.98-3.82 4.67 2.6-4.83 4.39-9.98 6.58-14.99Z"/><path fill="#fefefa" d="M417.45 440.36c.96-1.09 4.14-1.45 3.87.68l-1.39.27c-.93-.15-1.76-.47-2.48-.95Z"/><path fill="#5c3c19" d="M691.21 446.98c.61 1.05 1.21 2.11 1.75 3.2-2.11 23.9-4.39 48.62-9.56 72.11-4.04 19.24-9.84 38.13-20.03 55.07-4.57 8-10.73 15.13-17.48 21.37 1.54-10.33 3.27-20.23 2.37-30.75-.09-7.48-1.58-14.73-3.21-21.99-.15-1.06-.71-1.85-1.68-2.38-.34 10.16-.57 20.18-2.66 30.18-2.87 14.17-8.01 28.57-16.5 40.39-5.48 8.2-12.34 14.83-19.77 21.24-3.88 3.49-7.91 6.83-12.14 9.89-4.93 3.54-9.41 7.58-14.51 10.89 6.55-13.23 11.35-26.98 14.8-41.33l.47 1.95c1.44-2.13 2.72-4.33 4.62-6.07 7.19-5.7 11.25-15.68 15.47-23.72 1.36-3.38 4.65-7.03 3.95-10.75 4.54-4.4 5.56-11.7 6.96-17.56 2.08-4.61 3.17-9.47 4.22-14.4.29-1.12-.13-2.02-.43-3.07 2.73-2.35 2.37-6.04 2.78-9.32.11-4.51 1.51-9.06.96-13.52 11.9-7.5 22.11-18.01 31.07-28.76 9.69-11.55 17.69-24.71 24.73-38 2.26-.69 2.57-2.83 3.82-4.67Z"/><path fill="#775023" d="M517 448.49c11.98-.03 23.86 3.03 34.01 9.48 12.17 7.8 21.45 19.89 25.18 33.92 3.47 11.64 3.07 23.13 2.83 35.12-.14 4.38-1.1 8.63-1.22 13.01-.22 1.82.33 2.73 1.26 4.21 2.11-.52 4.2-1.1 6.21-1.92 16.17-6.5 31.76-14.29 46.32-23.9.55 4.46-.85 9.01-.96 13.52-.41 3.28-.05 6.97-2.78 9.32.3 1.05.72 1.95.43 3.07-1.05 4.93-2.14 9.79-4.22 14.4-1.4 5.86-2.42 13.16-6.96 17.56.7 3.72-2.59 7.37-3.95 10.75-4.22 8.04-8.28 18.02-15.47 23.72-1.9 1.74-3.18 3.94-4.62 6.07l-.47-1.95c1.05-5.71 1.69-11.8 1.02-17.59-.48-3.38-1.3-6.72-2.01-10.06-2.56 7.52-4.51 15.23-7.07 22.76-4.05 2.77-5.43 8.07-8.8 11.75-5.11 5.79-10.09 12-16.03 16.95-3.02 2.52-5.35 5.52-8.88 7.4-4.58 3.23-7.51 7.29-13.37 8.54 2.78-8.23 4.45-16.47 5.63-25.07-2.1 2.22-2.64 4.83-4.01 7.5-5.06 9.92-9.18 19.9-16.45 28.52-6.66 7.63-13.57 15.16-21.25 21.78-5.88 5.12-13.25 9.13-19.93 13.12-4.5 2.71-9.19 4.92-14.01 6.98-4.18 1.75-8.14 3.67-12.62 4.56 4.54-12.42 8.44-24.7 7.97-38.19-1.92 2.24-2.18 4.79-3.46 7.48-3.84 7.76-6.61 15.77-13.44 21.56-9.32 7.7-21.8 11.97-33.91 11.11-5.43-.48-10.08-3.26-13.74-7.2-5.42-5.9-9.61-13.47-13.61-20.4-2.09-3.54-3.1-7.5-5.37-10.93.43 3.55 1.37 7 1.75 10.56.75 7.83 4.24 15.82 6.28 23.45-4.69-1.93-9.09-4.6-13.33-7.35-8.68-5.85-14.81-13.87-20.52-22.51-3.2-4.85-5.26-10.15-7.58-15.44-2-4.63-3.26-9.33-5.92-13.66-.41 10.77 2.3 21 5.87 31.05-1.08-.69-2.16-1.4-3.15-2.21-8.42-7.27-16.91-14.29-24.61-22.35-11.17-11.68-22.09-23.48-31.26-36.78-13.43-18.28-24.09-38.27-32.83-59.17-7.63-17.11-13.53-34.74-16.65-53.25-1.19-7.37-2.82-14.78-3.34-22.23 4.63 8.58 10.39 16.32 18.02 22.47 2.13 1.44 3.82 3.32 6.61 2.8 2.1-6.88 1.04-13.88 3.41-20.79 2.7-7.62 6.73-14.9 12.09-20.97 6.41-7.1 15.17-12.03 24.91-12.11 13.54-1.05 26.76 4.87 39.69 8.42 6.74 1.7 13.27 4 19.88 6.14 7.81 2.72 16.25 4.05 24.42 5.29 6.29.34 12.78.55 18.99-.66 12.34-2.16 24.86-4.1 37-7.22 15.05-4.57 31.01-8.38 45.48-14.45a111.68 111.68 0 0 1 32.54-5.98Z"/><path fill="#fefefa" d="M369.07 459.67c2.78.15 1.55 1.46-.37 1.66l-1.66-.37c.57-.69 1.25-1.12 2.03-1.29ZM397.99 462.45c3.33-.38 6.13-.3 9.41.41-1.02.1-2.04.21-3.06.3-2.12-.2-4.24-.45-6.35-.71ZM397.39 463.98c-5.24.24-10.54.32-15.77-.14 5.11-.86 10.7-1.04 15.77.14Z"/><path d="M526.89 468.16c13.12 2.98 24.34 15.21 25.09 28.82.37 4.15-1.4 7.86-1.11 12.02.36 8.98.47 18.03-.12 27-3.17 23.18-10.59 47.92-25.06 66.66-15.89 21.07-40.29 35.27-66.68 37.63-13.25 2.25-26.86-2.64-36.54-11.76-5.99-6.04-9.88-13.06-13.79-20.53-6.47-.04-13.39.61-19.7-.99-8.77 8.91-15.99 19.11-28.17 23.74-6.66 2.86-13.69 2.88-20.77 1.97-13.16-2.72-23.9-10.13-33.1-19.66-9.05-10.02-16.07-22.15-19.81-35.15-4.18-15.22-5.23-30.23-6.01-45.91-.37-6.23 2.59-14.09-.38-19.73-2.66-5.32-2.6-11.93-1.08-17.57 2.47-6.49 6.49-13.77 12.63-17.43 4.03-2.7 8.67-4.76 13.56-5.02 1.54.18 2.53 1.51 3.05 2.86-.24 3.54-3.04 6.99-5.06 9.77 7.32 4.66 14.75 8.75 23.15 11.11 20.84 5.6 42.45 8.74 64.01 9.46 7.32.18 14.67-.36 22-.53 22.07-2.05 43.92-6.96 64.94-13.96 10.98-3.92 21.49-9.09 32.39-13.23-1.51-1.45-3.43-2.9-4.43-4.77-.19-2.09 1.49-3.06 3.02-4.06 5.4-2.7 12.29-2.26 17.97-.74Z"/><path fill="#fefefa" d="M701.07 478.45c1 3.16.69 6.27.58 9.51-.41-.79-.82-1.59-1.23-2.39.4-2.36.58-4.73.65-7.12ZM522.31 484.97c2.93 1.67 5.36 3.9 7.79 6.2-3.65 6.25-7.31 12.33-12.34 17.6-13.83 14.89-32.82 25.49-51.87 32.15-17.92 6.39-36.86 9.75-55.89 9.68-12.95-.4-25.56-1.02-38.14-4.4-15.71-3.38-30.32-12.22-42.11-22.95-5.64-5.79-12.54-11.9-16.16-19.19 17.92 5.93 36.64 10.68 55.4 12.93 16.61 2.23 33.36 1.69 49.98-.11 19.31-2.35 38.4-6.01 56.96-11.91 16.36-4.89 31.27-12.18 46.38-20Z"/><path fill="#ffe0b8" d="M294.16 503.97c.51.39 1.02.79 1.52 1.2 4.83 8.18 11.23 15.53 17.59 22.56 9.07 9.74 20.96 17.21 32.71 23.3 14.73 6.98 30.76 11.36 46.98 12.91 4.74.16 9.28 1.3 14.04 1.06 28.86.74 58.1-7.13 83.71-20.24 11.08-5.53 21.29-13.43 31.02-21.09 1.72.81 4.06-.32 2.38-2.2 5.87-5.23 11.17-10.83 15.39-17.51 2.03 4.79 3.02 9.88 3.44 15.05.34 4.77-.59 9.05-1.16 13.79-1.97 11.47-4.8 22.88-9.05 33.73-4.1 11.08-9.09 21.48-16.46 30.79-13.86 18.04-35.5 31.21-58.27 33.54-4.99.36-9.84.47-14.57-1.43-11.29-3.93-19.03-14.17-24.67-24.22 4.82-2.01 9.87-4.26 13.86-7.69 1.8-1.77 2.16-3.85 1.29-6.2-.87-1.21-2.37-1.56-3.66-2.16-6.37 1.67-12.69 2.01-19.24 2.75-11.45.29-25.63.72-36.04-4.85-3.95-1.85-7.31-7.32-11.92-5.99-1.71.85-1.98 2.38-2.79 3.96.57 1.62 1.08 3.18 2.22 4.51 4.47 5.33 9.22 10.11 15.54 13.22-5.22 6.85-11.69 13.89-19.54 17.71-7.79 3.83-16.85 3.31-24.57-.42-13.49-6.18-23.04-18.54-29.67-31.44-7.25-13.63-10.1-28.44-12.05-43.6-.4-9.44-1.55-18.54-.26-28.01.25-4.46 1.98-8.59 2.23-13.03Z"/><path fill="#fefefa" d="M524.11 521.47c1.68 1.88-.66 3.01-2.38 2.2.76-.77 1.56-1.51 2.38-2.2Z"/><path fill="#5c3c19" d="M584.53 609.98c-3.46 16.43-11.84 31.12-23.14 43.42-4.73 5.93-10.23 11.07-15.6 16.39-6.28 5.87-13.8 10.61-21.02 15.25 4.27-10.11 8.84-20.14 12.68-30.42 5.86-1.25 8.79-5.31 13.37-8.54 3.53-1.88 5.86-4.88 8.88-7.4 5.94-4.95 10.92-11.16 16.03-16.95 3.37-3.68 4.75-8.98 8.8-11.75Z"/><path fill="#284f5e" d="M720.92 632.01c5.05 1.66 9.36 6.35 12.86 10.19 5.23 6.51 9.37 13.88 14.55 20.44 4.74 5.42 9.93 10.32 15.8 14.5-.97 9.24-3.59 18.41-5.67 27.47-1.87-1.17-3.76-2.31-5.76-3.28-13.41-6.4-26.37-12.98-38.81-21.17-4.75-3.13-9.75-5.88-14.91-8.29 4.51-7.52 9.35-15.15 12.55-23.31 2.03-4.86 4.01-9.84 6.63-14.41.67-.93 1.37-2.51 2.76-2.14Z"/><path fill="#527066" d="M698.98 671.87c5.16 2.41 10.16 5.16 14.91 8.29 12.44 8.19 25.4 14.77 38.81 21.17 2 .97 3.89 2.11 5.76 3.28-3.76 15.97-8.53 31.72-12.99 47.52-3.52-2.04-7.45-3.52-10.76-5.88-9.84-7.68-21.26-13.59-31.98-19.95-6.5-3.85-12.32-7.9-19.46-10.6-4.27-1.59-8.38-3.55-12.69-4.98 10.14-12.35 19.93-25.27 28.4-38.85Z"/><path fill="#284f5e" d="M776.2 690.78c15.52 4.9 30.82 10.71 45.86 16.91-2.82 3.87-4.09 8.03-5.92 12.4 7.52 1.59 15.15 2.61 22.64 4.44 8.01 1.83 16.11 2.44 24.02 4.67 1.75.57 2.96.41 4.69-.08 3.54 1.84 7.18 3.47 10.67 5.39-3.58 8.65-6.09 17.63-9.17 26.45-2.34 6-3.79 12.25-6.28 18.19 8.36 2.26 16.75 4.14 24.87 7.24 5.61 2.17 11.4 3.81 16.95 6.12 6.69 2.68 13.23 4.81 19.58 8.35-4.51 5.26-8.59 10.85-13.14 16.06-2.12 2.37-3.78 5.03-5.55 7.65-4.64 5.51-8.38 11.6-12.03 17.78-5.21-.73-10.22-2.3-15.4-3.17-10.84-1.49-21.43-4.37-32.18-6.41-1.73 3.03-2.46 6.22-3.48 9.52-3.93 12.07-7.26 24.35-10.3 36.67-.7 2.89-1.82 5.61-3 8.33-14.11-2.99-28.26-5.7-42.36-8.77-7.17-2.07-14.62-2.48-21.79-4.53-1.17-.2-2.8-.91-3.92-.35-2.26 3.92-2.65 9.05-4 13.37-2.91 9.61-5.39 19.32-7.7 29.09-.98 4.23-2.41 8.3-3.09 12.6 5.76 2 11.83 1.92 17.71 3.54 5.3 1.41 10.76 1.75 16.08 2.95 5.71 1.47 11.57 1.85 17.25 3.5 5.85 1.11 11.64 3.05 17.56 3.55 1.4-4.7 2.3-9.46 3.3-14.24 2.69-9.12 4.98-18.33 7.38-27.53 1.53-4.51 2.21-9.07 4.64-12.96 12.05 2.55 24.16 4.61 36.27 6.8-7.83 18.36-15.19 36.85-20.88 56-10.1-2.84-20.29-5.07-30.49-7.46-1.71 5.34-2.47 10.72-3.81 16.27-2.02 7.9-3.04 16.01-5.05 23.91-1.48 5.65-2.69 11.34-3.46 17.12 9.51 1.97 19.26 3.57 28.67 6.19-1.2 5.88-2.21 11.76-3.23 17.66h-30.56c.24-8.27 4.74-16.18 4.18-24.28-7.36-.62-14.51-2.19-21.73-3.63-6.7-.84-13.2-2.6-19.91-3.28-4.8-.63-9.47-1.93-14.27-2.62-4.55-.86-8.82-1-13.04-3.02 3.75-19.43 8.87-38.72 13.12-58.02-8.91-2.07-18.07-3.02-27.06-4.77-15.7-2.3-31.28-5.15-47.03-6.88-8-1.07-16.01-2.18-24.06-2.79.05-5.3 2.22-9.62 3.44-14.68 2.43-10.15 6.54-19.82 8.94-30 1.34-4.33 1.92-8.94 3.95-12.91 1.38-2.89 2.55-5.85 3.73-8.82 3.11-.54 4.29 1.64 6.86 2.7 3.53 1.09 7.41 1.34 11.07 1.69-.23-.52-.46-1.03-.69-1.54 2.02.35 3.09 1.32 4.48 2.74 4.8.44 8.3 2.91 12.35 5.2 3.33.33 5.5 1.01 8.44 2.52.38.85.76 1.69 1.14 2.54 4.26.09 8.17.29 12.08 2.23v-2.85c.67-.64 1.33-1.28 2-1.92l-.06 1.91c9.63 3.1 19.68 5.12 29.45 7.72 2.07.56 4.17.98 6.28 1.34 3.26-10.69 6.55-21.4 10.4-31.89 2.55-7.72 4.74-15.34 7.84-22.87-4.24-1.74-8.6-2.25-13.01-3.37-6.78-1.58-13.69-3.94-20.54-4.51 5.18-16.77 10.59-33.44 15.04-50.43 12.06.26 24.07 4.3 36.04 5.65 1.65-1.14 2.06-4.43 3.03-6.23 2.92-6.36 4.57-13.16 7.53-19.49 2.23-4.81 4.11-9.76 6.32-14.58.75-1.58 1.21-3.06 1.46-4.8-6.22-1.2-12.45-2.16-18.61-3.65-8.11-1.52-16.3-2.61-24.36-4.43 1.39-7.05 2.79-14.09 3.85-21.2Z"/><path fill="#0b3851" d="M327.71 694.03c1.61 1.24 3.12 2.59 4.68 3.88-2.88.72-5.63 1.41-7.94 3.37-.88-.87-1.75-1.74-2.63-2.61 1.79-1.76 3.73-3.35 5.89-4.64Z"/><path fill="#284f5e" d="M332.39 697.91c5.27 4.06 10.82 7.76 16.17 11.72-1.14-.09-2.28-.15-3.42-.18l-.12.01c-4.82 5.59-6.1 12.46-9.96 18.52-14.32 1.66-28.7 1.99-42.98 4.04 9.51-11.43 18.94-23.11 29.74-33.35.88.87 1.75 1.74 2.63 2.61 2.31-1.96 5.06-2.65 7.94-3.37Z"/><path fill="#0b3851" d="M822.06 707.69c5.92 2.41 11.63 5.27 17.51 7.77 9.52 4.45 18.82 8.36 27.92 13.66-1.73.49-2.94.65-4.69.08-7.91-2.23-16.01-2.84-24.02-4.67-7.49-1.83-15.12-2.85-22.64-4.44 1.83-4.37 3.1-8.53 5.92-12.4ZM345.02 709.46l.12-.01c1.14.03 2.28.09 3.42.18 2.99 2.33 6.08 4.5 9.11 6.77 1.06 2.94.46 7.08 1.06 10.34-7.8-.74-15.92.38-23.67 1.24 3.86-6.06 5.14-12.93 9.96-18.52Z"/><path fill="#284f5e" d="M670.58 710.72c4.31 1.43 8.42 3.39 12.69 4.98 7.14 2.7 12.96 6.75 19.46 10.6 10.72 6.36 22.14 12.27 31.98 19.95 3.31 2.36 7.24 3.84 10.76 5.88-4.71 15.83-9.48 31.63-14.29 47.44-9.91-2.42-18.92-9.17-27.92-13.84-5.75-2.77-10.84-6.59-16.58-9.36-5.84-2.79-10.95-6.63-17.01-8.99-13.34-5.83-27.18-8.38-41.04-12.27 7.78-7.67 15.95-15.1 23.17-23.3 6.58-6.76 12.84-13.76 18.78-21.09Z"/><path fill="#527066" d="M772.35 711.98c8.06 1.82 16.25 2.91 24.36 4.43 6.16 1.49 12.39 2.45 18.61 3.65-.25 1.74-.71 3.22-1.46 4.8-2.21 4.82-4.09 9.77-6.32 14.58-2.96 6.33-4.61 13.13-7.53 19.49-.97 1.8-1.38 5.09-3.03 6.23-11.97-1.35-23.98-5.39-36.04-5.65 4.23-15.75 8.14-31.55 11.41-47.53Z"/><path fill="#ffe0b8" d="M371.88 723.72c10.64 6.97 23.27 11.08 35.7 13.38-1.46.39-2.72.92-4.26.55-4.99-.8-9.59-2.88-14.59-3.7 4.48 5.99 11.8 10.21 17.91 14.4 11.08 7.56 23.04 13.51 35.46 18.52 8.4 3.13 17.34 5.16 26.12 6.89 8.27 1.72 16.27 1.25 24.77 2.11 10.64.37 21.38-.63 31.9-2.14 12.79-2.34 25.5-4.82 37.84-8.98 9.35-3.24 19.28-6.15 27.89-11.06 3.17-1.72 6.54-2.58 9.56-4.59 2.63-1.78 5.45-3.12 8.29-4.51 3.07-1.47 4.8-4.04 8.3-4.59-4.13 3.8-7.99 7.88-12.11 11.68-13.65 12.18-25.97 25.25-38.41 38.56-8.61 8.42-16.35 17.64-25 26.02-30.31 30.94-60.35 62.55-88.13 95.8-2.72 3.08-4.83 6.48-7.87 9.21-7.29-10.41-12.13-22.74-17.2-34.35-5.28-14-11.93-27.33-18-40.98-13.8-32.08-25.24-65.26-33.8-99.12-1.87-7.47-4.01-15.39-4.37-23.1Z"/><path fill="#284f5e" d="M279.09 724.92c-6 9.12-13.52 17.35-20.12 26.07-8.54 11.38-16.94 23.14-24.11 35.44-.22-1.26-.44-2.52-.66-3.79-4.04.62-8.16-.47-12.27-.16-5.33.36-10.65.16-15.97.31 2.93-7.28 7.06-14.09 9.38-21.56.7-1.98 1.47-3.95 2.14-5.95 15.49-10.45 32.07-18.2 49.12-25.69 4.15-1.6 8.4-2.9 12.49-4.67ZM358.73 726.74c1.39 16.92 5.37 33.21 10.19 49.44-3.28 5.13-4.19 11.61-6.52 17.24-4.51.18-9 1.13-13.31.39-3.76-.49-7.55-.13-11.32-.53-4.91-.63-8.89 1.09-13.29-1.84 1.5-3.16 2.37-7.27.64-10.5-2.09-3.18-5.23-5.18-8.79-6.38 1.97-3.75 2.88-7.81 4.43-11.72 4.58-11.69 9.3-23.35 14.3-34.86 7.75-.86 15.87-1.98 23.67-1.24Z"/><path fill="#527066" d="M335.06 727.98c-5 11.51-9.72 23.17-14.3 34.86-1.55 3.91-2.46 7.97-4.43 11.72-11.52-2.95-24.13.62-35.46 3.26-9.54 2.67-19.26 5.5-28.33 9.52 10.8-20.72 25.14-37.25 39.54-55.32 14.28-2.05 28.66-2.38 42.98-4.04ZM878.16 734.51c18.68 10.52 37.69 21.48 53.79 35.58 4.14 3.22 7.83 6.94 11.32 10.84-7.09 5.84-13.32 12.86-19.16 19.93-6.35-3.54-12.89-5.67-19.58-8.35-5.55-2.31-11.34-3.95-16.95-6.12-8.12-3.1-16.51-4.98-24.87-7.24 2.49-5.94 3.94-12.19 6.28-18.19 3.08-8.82 5.59-17.8 9.17-26.45ZM628.63 755.11c13.86 3.89 27.7 6.44 41.04 12.27 6.06 2.36 11.17 6.2 17.01 8.99 5.74 2.77 10.83 6.59 16.58 9.36 9 4.67 18.01 11.42 27.92 13.84-3.32 11.73-7.1 23.31-10.66 34.96-.41 1.53-.58 3.17-.8 4.74-4.89-2.13-9.08-5.69-13.85-8.13A446.232 446.232 0 0 0 658 805c-10.65-4.89-22.28-8.84-34-9.94-7.58-.36-15.89.92-21.94 5.88-5.38-1.86-10.69-2.93-15.72-5.49 4.88-4.5 9.78-8.97 14.77-13.35 9.35-8.81 18.15-18.18 27.52-26.99ZM217.48 755.28c-.67 2-1.44 3.97-2.14 5.95-2.32 7.47-6.45 14.28-9.38 21.56l-.81.06c-7.88.4-15.78-.43-23.68-.13 7.45-6.3 14.67-13.27 22.71-18.53 4.44-2.97 8.82-6.02 13.3-8.91Z"/><path fill="#0b3851" d="M797.9 765.56c4.57.1 8.8 1.1 13.15 2.33 13.51 2.16 26.83 5.73 40.26 8.47 3.5.89 7.09 1.92 10.5 3.11l.41.6c-.59 3.36-2.24 6.62-3.29 9.87-3.35 10.67-7.05 21.25-10.14 32-1.21 3.83-1.89 7.45-4.65 10.54-3.4-1.18-6.7-2.38-10.24-3.05-8.95-1.55-17.82-3.7-26.65-5.84-4.34-1.07-8.67-1.4-12.93-2.85-4.84-1.75-9.97-1.87-14.82-3.61 2.18-6.93 4.56-13.79 7.13-20.58 1.86-4.87 2.9-9.94 5.12-14.68 2.56-5.44 3.12-11.2 6.15-16.31Z"/><path fill="#527066" d="M368.92 776.18c1.95 6.61 4.35 13.07 6.45 19.63-4.67.53-8.72-.36-13.16-1.62l.19-.77c2.33-5.63 3.24-12.11 6.52-17.24Z"/><path fill="#0b3851" d="M943.27 780.93c6.4 7.24 12.95 14.31 18.83 22.08-5.18.78-9.75 2.84-14.78 4.26-5.94 1.79-11.36 4.56-16.85 7.38-6.11 2.68-11.95 5.82-17.72 9.14-3.1 1.75-5.37 4.2-7.72 6.81.21-2.01.35-4.01.39-6.03 1.77-2.62 3.43-5.28 5.55-7.65 4.55-5.21 8.63-10.8 13.14-16.06 5.84-7.07 12.07-14.09 19.16-19.93ZM221.93 782.48c4.11-.31 8.23.78 12.27.16.22 1.27.44 2.53.66 3.79-2.56 4.57-5.23 9.08-7.84 13.62-1.27 2.13-1.74 5.83.22 7.69 2.25 2.87 6.21 3.28 9.41 1.88 5.24-2.1 10.23-4.56 15.78-5.84.52 1.92.81 3.51.16 5.46-1.49 4.92-2.84 9.82-4.81 14.58-2.11 5.27-3.4 10.78-5.26 16.12l-.38 1.05c-3.37-.57-6.72-.81-10.14-.81-5.9.08-11.67-1-17.57-.62-8.24.01-16.43-.94-24.69-.74.17-3.8 1.66-7.08 2.29-10.82 1.74-9.37 4.54-18.29 7.34-27.36 1.45-6.11 4.28-11.7 5.78-17.79l.81-.06c5.32-.15 10.64.05 15.97-.31Z"/><path fill="#284f5e" d="M181.47 782.72c7.9-.3 15.8.53 23.68.13-1.5 6.09-4.33 11.68-5.78 17.79-2.8 9.07-5.6 17.99-7.34 27.36-.63 3.74-2.12 7.02-2.29 10.82 8.26-.2 16.45.75 24.69.74 5.9-.38 11.67.7 17.57.62 3.42 0 6.77.24 10.14.81-1.4 3.86-2.35 7.85-3.66 11.74-3.89 11.53-6.06 23.84-9.14 35.63-.78 2.93-1.5 5.86-2.17 8.82 11.59.32 23.26.6 34.81 1.61 5.26.36 10.52.05 15.78.53 6.73.63 13.49.82 20.24.92 4.55-18.55 9.59-36.96 14.84-55.32-14.1-1.83-28.41-2.7-42.61-3.28-9.19-1.01-18.57-.41-27.71-1.7 1.86-5.34 3.15-10.85 5.26-16.12 1.97-4.76 3.32-9.66 4.81-14.58.65-1.95.36-3.54-.16-5.46 9.3-3.02 18.39-6.56 27.82-9.19l.36.95c-3.83 1.91-7.39 4.27-11.16 6.29 1.72.84 3.12 2.12 5.16 1.49 2.95-.89 5.86-.72 8.9-.51-.02-1.03-.05-2.05-.08-3.08 1.06.87 2.11 1.75 3.17 2.62 4.33-.52 8.66-1.22 12.94-2.06 2.36-.48 4.05-1.91 5.92-3.32-1.88 4.56-4.37 9.18-5.35 14.04.09 5.59 4.2 8.8 8.14 12.05-.89.35-1.77.73-2.64 1.12 1.86 3.05 3.63 6.66 6.18 9.17 1.09 1.21 3.18 1.45 4.66 1.96-2.95 2.71-2.71 5.01-2.73 8.78 4.94 1.83 10.68 2.06 15.89 2.41.49-.46.97-.93 1.46-1.39 5.91 5.35 11.07 11.51 16.43 17.4 6.72 7.08 12.79 14.74 19.14 22.16-1.88 6.59-3.74 13.45-4.86 20.21 8.16 1.26 16.49 2.47 24.72 3.15 8.11 9.19 16.77 18.57 23.92 28.53 3.59 4.5 7.04 9.13 10.81 13.48-3.33 7.78-5.61 16.07-7.85 24.22-9.82-1.33-19.53-3.36-29.4-4.44-12.22-1.92-24.52-3.17-36.77-4.86 1.6-7.77 3.17-15.54 4.96-23.27 2.39-12.47 7.1-24.25 9.17-36.81-4.1-.69-8.22-.85-12.35-1.17-13.01-1-25.95-2.4-39-2.86-3.4-.05-6.96-.65-10.33-.18-2.09.24-2.41 3.46-2.93 5.04-2.28 10.6-5.11 21.05-7.26 31.66-1.06 4.65-1.51 9.26-2.94 13.82-.88 2.81-1.57 5.54-1.53 8.51 6.78.38 13.51.98 20.29 1.12 8.31 1.37 16.66 2.11 25.05 2.73 5.69.81 11.28.63 16.75 2.15-2.26 16.21-6.15 32.05-7.27 48.29-.14 2.63-.86 5.12-1.6 7.63-4.22.3-8.05-.01-12.22-.54-12.26-.65-24.45-2.1-36.73-2.54-4.95-.13-10.12-1.56-14.87-.55-.54 2.08-1.07 4.12-2.13 6.01h-69.41c.7-3.57 1.04-7.11.9-10.74-3-.38-6-.68-9.02-.63-8.26.21-16.15-.24-24.41.55-1.47.07-2.46.87-3.62 1.68.1-.72.21-1.44.32-2.15 2.28-1.71.12-5.54 0-7.93 1.13-18.83 3.28-37.46 6-56.14.36 1.8.81 3.59 1.23 5.37 6.48.35 12.92-.18 19.39.33 6.84-.09 13.71.53 20.52.07 2.38-10.73 4.44-21.52 7.16-32.18 1.95-8.3 3.39-16.71 5.47-24.99-15.31-.6-30.6-1.4-45.93-1.22 1.44-7.62 2.35-15.32 2.93-23.04.25-1.38-1.17-2.66-1.82-3.77 2.48-10.11 5.04-20.23 7.3-30.4-8.71-.85-17.55.05-26.29-.62-4.96.02-9.86-.43-14.8-.66-1.87 1.25-2.33 4.52-3.18 6.5-5.02 14.2-9.22 28.56-13.08 43.11-1.37.06-2.57.35-3.9-.16-4.55-1.64-9.02-3.34-13.73-4.5-1.15 1.94-1.24 6.86-3.9 7.1 2.56-7.35 5.48-14.27 8.91-21.25 7.21-16.55 16.58-31.62 26.14-46.88 7.11-10 15.38-19.28 24.21-27.79 3.78-3.83 7.5-7.67 11.81-10.94ZM309.61 788.9c-1.19 2.5-2.4 4.98-3.77 7.39l-1.78-.39c.87-1.62 1.75-3.23 2.62-4.85-3.97-.24-8.89 2.13-12.46.19 5.11-1.04 10.17-2.13 15.39-2.34Z"/><path fill="#0b3851" d="m293.78 791.31.44-.07c3.57 1.94 8.49-.43 12.46-.19-.87 1.62-1.75 3.23-2.62 4.85l1.78.39-.38.68c-1.87 1.41-3.56 2.84-5.92 3.32-4.28.84-8.61 1.54-12.94 2.06-1.06-.87-2.11-1.75-3.17-2.62.03 1.03.06 2.05.08 3.08-3.04-.21-5.95-.38-8.9.51-2.04.63-3.44-.65-5.16-1.49 3.77-2.02 7.33-4.38 11.16-6.29l-.36-.95c4.44-1.33 8.95-2.53 13.53-3.28ZM324.48 791.44c4.4 2.93 8.38 1.21 13.29 1.84 3.77.4 7.56.04 11.32.53 4.31.74 8.8-.21 13.31-.39l-.19.77c-.9 6.15-4.11 11.3-5.86 17.25-2.8 6.23-5.36 12.54-8.04 18.82-.81 2.07-1.71 2.34-3.66 2.97-4.83-4.85-9.07-10.18-14.11-14.8-3.78-3.57-7.24-7.43-10.98-11.04-.77-.88-2.08-1.88-1.45-3.2 1.45-4.64 3.76-8.69 6.37-12.75Z"/><path fill="#284f5e" d="M362.21 794.19c4.44 1.26 8.49 2.15 13.16 1.62 4.1 12.5 9 24.77 13.93 36.96 5.15 12.4 11.1 24.43 16.59 36.66-3.53-3.98-3.54-8.57-8.78-10.56-8.12-2.76-17.13-3.21-25.45-5.36-3.48-.9-6.64-1.21-10.23-1.07-5.58-6.41-11.03-12.95-16.78-19.21 1.95-.63 2.85-.9 3.66-2.97 2.68-6.28 5.24-12.59 8.04-18.82 1.75-5.95 4.96-11.1 5.86-17.25ZM586.23 795.55l.11-.1c5.03 2.56 10.34 3.63 15.72 5.49-1.78 2.8-1.92 5.84-1.9 9.07.3 9 2.64 17.3 4.26 25.89-16.7 9.17-32.89 19.33-48.82 29.78-9.63-3.65-19.5-6.91-29.32-10.01-.66-.49-1.31-1.01-1.95-1.53 5.2-5.08 10.39-10.14 15.5-15.31 7.55-6.78 14.71-13.95 22-21 8.24-7.32 16.05-15.08 24.4-22.28ZM962.1 803.01c4.27 5.99 8.85 11.97 12.58 18.31 4.53 8.09 8.37 16.46 12.04 24.97 3.87 8.11 6.72 16.57 9.81 25-10.55 1.37-20.97 3.44-31.53 4.71-5.55 1.12-11.14 1.99-16.69 3.1 1.24 4.65 2.58 9.22 3.54 13.95 1.65 8.61 4.15 16.97 5.25 25.7 1.11 5.63 2.07 11.33 3.68 16.84 8.03-2.2 16.42-3.04 24.51-5.04 5.92-1.12 11.75-2.59 17.71-3.52 2.21-.37 4.58-.64 6.71-1.36.98-.65 1.57-1.93 2.25-2.85 4.59 18.44 8.91 36.8 12.04 55.56v3.87c-6.56 2.03-13.27 2.62-19.99 3.77-11.3 2.67-22.79 4.5-34.11 7.06-.06 4.04.34 7.95 1.08 11.91 1.16 6.36 1.62 12.76 3.05 19.01h-58.41c-.8-5.08-1.53-10.17-2.73-15.18-2.72-.78-5.76.97-8.48 1.52-7.02 1.58-13.91 3.62-20.95 5.12-9.52 3.23-19.37 4.23-28.53 8.54h-12.31c3.92-20.55 6.8-41.13 11.94-61.42 2.61-.12 5.31.1 7.89-.31 12.38-6.1 26.96-8.37 39.93-13 2.51-.62 1.22-3.89 1.11-5.69-2.86-14.72-5.55-29.72-10.04-44.03-.79-3.26-.38-6.11-2.07-9.03 12.87-2.82 25.71-5.73 38.67-8.17 6.04-1.01 12.01-2.19 17.98-3.55-.4-5.9-2.88-11.67-4.26-17.54-1.57-6.87-3.98-13.48-5.79-20.28-1.93-7.33-4.6-14.54-7.28-21.63-.73-1.58-.42-3.06-.23-4.7 5.49-2.82 10.91-5.59 16.85-7.38 5.03-1.42 9.6-3.48 14.78-4.26Z"/><path fill="#527066" d="M745.9 809.94c6.85.57 13.76 2.93 20.54 4.51 4.41 1.12 8.77 1.63 13.01 3.37-3.1 7.53-5.29 15.15-7.84 22.87-3.85 10.49-7.14 21.2-10.4 31.89-2.11-.36-4.21-.78-6.28-1.34-9.77-2.6-19.82-4.62-29.45-7.72l.06-1.91c.48-.45.96-.89 1.45-1.32 4.51-3.21 4.75-7.83 6.59-12.66 4.43-12.46 8.24-25.11 12.32-37.69Z"/><path fill="#0b3851" d="M617.9 812.02c4.2-.01 8.2-.47 12.25.74 16.58 4.74 30.52 12.71 45.62 20.42 12.71 7.33 25.48 14.6 38.32 21.7 4.36 2.33 7.8 5.15 12.9 5.41-.49.43-.97.87-1.45 1.32-.67.64-1.33 1.28-2 1.92v2.85c-3.91-1.94-7.82-2.14-12.08-2.23-.38-.85-.76-1.69-1.14-2.54-2.94-1.51-5.11-2.19-8.44-2.52-4.05-2.29-7.55-4.76-12.35-5.2-1.39-1.42-2.46-2.39-4.48-2.74-5.64-1.24-9.92-5.22-15.48-6.98-.61 1.36-1.19 2.74-1.76 4.13-1.18 2.97-2.35 5.93-3.73 8.82-2.03 3.97-2.61 8.58-3.95 12.91-2.4 10.18-6.51 19.85-8.94 30-1.22 5.06-3.39 9.38-3.44 14.68l-.43-.04c-7.48-.89-14.93-1.85-22.47-2-9.25-1.16-18.51-2.04-27.82-2.47-6.16-.19-12.16-1.21-18.34-.77-.11-3.2 1.06-5.84 1.78-9.02 2.22-9.37 5.65-18.12 7.35-27.63 1.01-3.4 1.75-6.63 1.74-10.21 8.62-5.04 17.13-10.24 25.82-15.15 3.15-1.75 7.29-3.62 9.25-6.79 1.02-2.8-.01-5.6-1.14-8.18-2.87-6.36-4.21-13.61-5.59-20.43Z"/><path fill="#527066" d="M930.47 814.65c-.19 1.64-.5 3.12.23 4.7 2.68 7.09 5.35 14.3 7.28 21.63 1.81 6.8 4.22 13.41 5.79 20.28 1.38 5.87 3.86 11.64 4.26 17.54-5.97 1.36-11.94 2.54-17.98 3.55-12.96 2.44-25.8 5.35-38.67 8.17-4.86 1.22-9.84 1.75-14.7 2.96 4.19-10.26 8.73-20.34 13.38-30.4 4.63-11.01 10.29-21.5 14.97-32.48 2.35-2.61 4.62-5.06 7.72-6.81 5.77-3.32 11.61-6.46 17.72-9.14Z"/><path fill="#0b3851" d="M308.25 823.06c7.77 7.13 15.71 14.25 22.82 22.05-.49.46-.97.93-1.46 1.39-5.21-.35-10.95-.58-15.89-2.41.02-3.77-.22-6.07 2.73-8.78-1.48-.51-3.57-.75-4.66-1.96-2.55-2.51-4.32-6.12-6.18-9.17.87-.39 1.75-.77 2.64-1.12Z"/><path d="M905.42 824.57c-.04 2.02-.18 4.02-.39 6.03-4.68 10.98-10.34 21.47-14.97 32.48-4.65 10.06-9.19 20.14-13.38 30.4-6.12 13.59-10.35 28.16-14.93 42.33-2.71 8.85-5.22 17.73-7.19 26.77-5.14 20.29-8.02 40.87-11.94 61.42h-14.51c1.02-5.9 2.03-11.78 3.23-17.66 2.39-13.52 6.1-27.15 9.48-40.46 1.33-5.27 3.12-10.37 4.66-15.57 5.69-19.15 13.05-37.64 20.88-56 8.01-17.78 16.82-35.34 27.03-51.96 3.65-6.18 7.39-12.27 12.03-17.78Z"/><path fill="#527066" d="M845.81 832.77c10.75 2.04 21.34 4.92 32.18 6.41 5.18.87 10.19 2.44 15.4 3.17-10.21 16.62-19.02 34.18-27.03 51.96-12.11-2.19-24.22-4.25-36.27-6.8l-1.06-.22c1.18-2.72 2.3-5.44 3-8.33 3.04-12.32 6.37-24.6 10.3-36.67 1.02-3.3 1.75-6.49 3.48-9.52ZM148.19 837.53c4.94.23 9.84.68 14.8.66 8.74.67 17.58-.23 26.29.62-2.26 10.17-4.82 20.29-7.3 30.4-4.48 9.05-8.82 18.07-11.83 27.75-4-1.05-8.06-1.59-12.15-2.15-4.3-.62-8.04-2.27-12.16-3.5-4.63-1.37-9.35-2.49-14.04-3.61l.13-.56c3.86-14.55 8.06-28.91 13.08-43.11.85-1.98 1.31-5.25 3.18-6.5ZM242.52 839.94c9.14 1.29 18.52.69 27.71 1.7 14.2.58 28.51 1.45 42.61 3.28-5.25 18.36-10.29 36.77-14.84 55.32-6.75-.1-13.51-.29-20.24-.92-5.26-.48-10.52-.17-15.78-.53-11.55-1.01-23.22-1.29-34.81-1.61.67-2.96 1.39-5.89 2.17-8.82 3.08-11.79 5.25-24.1 9.14-35.63 1.31-3.89 2.26-7.88 3.66-11.74l.38-1.05ZM669.57 844.17c5.56 1.76 9.84 5.74 15.48 6.98.23.51.46 1.02.69 1.54-3.66-.35-7.54-.6-11.07-1.69-2.57-1.06-3.75-3.24-6.86-2.7.57-1.39 1.15-2.77 1.76-4.13ZM371.66 853.51c8.32 2.15 17.33 2.6 25.45 5.36 5.24 1.99 5.25 6.58 8.78 10.56 7.38 16.28 14.75 32.55 22.5 48.66-1.19.31-2.04.35-3.23-.07-3.44-1.08-6.74-2.29-10.38-2.46-17.38-21.38-35.14-42.44-53.35-63.12 3.59-.14 6.75.17 10.23 1.07ZM524.33 854.14c.64.52 1.29 1.04 1.95 1.53 9.82 3.1 19.69 6.36 29.32 10.01-17.36 11.16-34.86 22.23-51.59 34.34-12.3 8.61-23.94 17.99-35.83 27.16-5.92 4.4-11.84 8.8-17.53 13.5-3.12 2.34-5.37 4.94-8.84 6.48 24.92-32.93 53.75-63.43 82.52-93.02Z"/><path fill="#284f5e" d="M589.56 862.57c.01 3.58-.73 6.81-1.74 10.21-1.7 9.51-5.13 18.26-7.35 27.63-.72 3.18-1.89 5.82-1.78 9.02 6.18-.44 12.18.58 18.34.77 9.31.43 18.57 1.31 27.82 2.47 7.54.15 14.99 1.11 22.47 2-1.79 8.48-4.68 16.65-6.6 25.1-2.78 9.34-3.95 18.99-6.46 28.38-.65 2.51-1.1 5.06-1.52 7.62-4.58-.53-9.18-.78-13.76-1.38-12.23-1.88-24.65-2.48-36.98-3.41-6.51.29-12.67-.43-19.1-1.19 4.58-20.41 10.13-40.48 15.29-60.73-5.42-.11-10.78-.97-16.19-1.03-7.72.13-15.26-1.51-23-1.23-6.12.35-12.46.41-18.52-.63 14.25-10.26 28.83-18.92 43.7-27.98 8.4-5.29 16.77-10.68 25.38-15.62Z"/><path d="M181.98 869.21c.65 1.11 2.07 2.39 1.82 3.77-.58 7.72-1.49 15.42-2.93 23.04-1.88 11.3-3.51 22.64-5.02 34-.83 6.22-2.21 12.39-2.82 18.62-2.72 18.68-4.87 37.31-6 56.14-.06 2.65-.03 5.29 0 7.93-.11.71-.22 1.43-.32 2.15-.18 3.03-.2 6.1-.23 9.14h-16.75c.8-6.37 1.23-12.78 2.03-19.15 1.07-16.29 3.24-32.62 5.62-48.77 2.82-20.01 6.73-39.81 12.77-59.12 3.01-9.68 7.35-18.7 11.83-27.75Z"/><path fill="#0b3851" d="M996.53 871.29c6.02 16.86 11.06 34.17 15.43 51.53-.68.92-1.27 2.2-2.25 2.85-2.13.72-4.5.99-6.71 1.36-5.96.93-11.79 2.4-17.71 3.52-8.09 2-16.48 2.84-24.51 5.04-1.61-5.51-2.57-11.21-3.68-16.84-1.1-8.73-3.6-17.09-5.25-25.7-.96-4.73-2.3-9.3-3.54-13.95 5.55-1.11 11.14-1.98 16.69-3.1 10.56-1.27 20.98-3.34 31.53-4.71ZM764.88 873.99c7.17 2.05 14.62 2.46 21.79 4.53 14.1 3.07 28.25 5.78 42.36 8.77l1.06.22c-2.43 3.89-3.11 8.45-4.64 12.96-2.4 9.2-4.69 18.41-7.38 27.53-1 4.78-1.9 9.54-3.3 14.24-5.92-.5-11.71-2.44-17.56-3.55-5.68-1.65-11.54-2.03-17.25-3.5-5.32-1.2-10.78-1.54-16.08-2.95-5.88-1.62-11.95-1.54-17.71-3.54.68-4.3 2.11-8.37 3.09-12.6 2.31-9.77 4.79-19.48 7.7-29.09 1.35-4.32 1.74-9.45 4-13.37 1.12-.56 2.75.15 3.92.35ZM114.3 882.48c4.71 1.16 9.18 2.86 13.73 4.5 1.33.51 2.53.22 3.9.16l-.13.56c-1.11 5.28-3.48 10.1-4.67 15.35-1.13 4.99-2.91 9.77-3.72 14.78-1.39 9.52-5.05 18.4-6.87 27.86l-.3 1.21c-6.17-4.37-15.14-3.86-21.41-8.87 4.72-16.25 9.45-32.66 15.57-48.45 2.66-.24 2.75-5.16 3.9-7.1Z"/><path fill="#527066" d="M366.64 884.67c6.81 7.63 13.05 15.74 19.86 23.36-8.23-.68-16.56-1.89-24.72-3.15 1.12-6.76 2.98-13.62 4.86-20.21Z"/><path fill="#284f5e" d="M131.8 887.7c4.69 1.12 9.41 2.24 14.04 3.61 4.12 1.23 7.86 2.88 12.16 3.5 4.09.56 8.15 1.1 12.15 2.15-6.04 19.31-9.95 39.11-12.77 59.12l-.4-1.96c-5.73-.98-11.66-1.33-17.45-2.58-7.73-1.89-15.51-3.02-22.99-5.85 1.82-9.46 5.48-18.34 6.87-27.86.81-5.01 2.59-9.79 3.72-14.78 1.19-5.25 3.56-10.07 4.67-15.35Z"/><path fill="#0b3851" d="M891.38 890.52c1.69 2.92 1.28 5.77 2.07 9.03 4.49 14.31 7.18 29.31 10.04 44.03.11 1.8 1.4 5.07-1.11 5.69-12.97 4.63-27.55 6.9-39.93 13-2.58.41-5.28.19-7.89.31 1.97-9.04 4.48-17.92 7.19-26.77 4.58-14.17 8.81-28.74 14.93-42.33 4.86-1.21 9.84-1.74 14.7-2.96ZM180.87 896.02c15.33-.18 30.62.62 45.93 1.22-2.08 8.28-3.52 16.69-5.47 24.99-2.72 10.66-4.78 21.45-7.16 32.18-6.81.46-13.68-.16-20.52-.07-6.47-.51-12.91.02-19.39-.33-.42-1.78-.87-3.57-1.23-5.37.61-6.23 1.99-12.4 2.82-18.62 1.51-11.36 3.14-22.7 5.02-34ZM309.99 900.85c13.05.46 25.99 1.86 39 2.86 4.13.32 8.25.48 12.35 1.17-2.07 12.56-6.78 24.34-9.17 36.81-1.79 7.73-3.36 15.5-4.96 23.27l-.12.74c-5.47-1.52-11.06-1.34-16.75-2.15-8.39-.62-16.74-1.36-25.05-2.73-6.78-.14-13.51-.74-20.29-1.12-.04-2.97.65-5.7 1.53-8.51 1.43-4.56 1.88-9.17 2.94-13.82 2.15-10.61 4.98-21.06 7.26-31.66.52-1.58.84-4.8 2.93-5.04 3.37-.47 6.93.13 10.33.18Z"/><path fill="#527066" d="M520.48 906.17c6.06 1.04 12.4.98 18.52.63 7.74-.28 15.28 1.36 23 1.23 5.41.06 10.77.92 16.19 1.03-5.16 20.25-10.71 40.32-15.29 60.73l-.54-.05c-16.73-1.68-33.48-2.5-50.34-3.65-9.01-.06-18.01-.68-27.02-.49 1.76-9.24 4.44-18.25 6.34-27.46.94-4.64 3.09-9.55 2.07-14.21 8.65-6.42 17.97-12 27.07-17.76Z"/><path fill="#284f5e" d="M425.16 918.02c1.19.42 2.04.38 3.23.07 2.18 3.71 4.21 7.52 6.18 11.35 1.8 2.85-.22 6.06-.8 9.04-.86-.58-1.62-1.24-2.29-1.98-5.79-6.82-11.09-13.99-16.7-20.94 3.64.17 6.94 1.38 10.38 2.46Z"/><path fill="#527066" d="m647.32 914.67.43.04c8.05.61 16.06 1.72 24.06 2.79 15.75 1.73 31.33 4.58 47.03 6.88 8.99 1.75 18.15 2.7 27.06 4.77-4.25 19.3-9.37 38.59-13.12 58.02l-.22 1.05c-5.89-1.28-11.84-2.07-17.81-2.76-9.29-1.03-18.44-2.92-27.77-3.69-6.56-.85-13.01-1.86-19.63-2.19-11.5-1.65-23.04-2.76-34.61-3.81.42-2.56.87-5.11 1.52-7.62 2.51-9.39 3.68-19.04 6.46-28.38 1.92-8.45 4.81-16.62 6.6-25.1Z"/><path fill="#284f5e" d="M493.41 923.93c1.02 4.66-1.13 9.57-2.07 14.21-1.9 9.21-4.58 18.22-6.34 27.46-9.95-.83-20.02-.59-30-.61-4.92-.09-9.86-.73-14.77-.67-1.21.06-2.41.19-3.61.34 18.43-14.27 37.39-27.81 56.79-40.73Z"/><path fill="#527066" d="M960.11 935.82c2.71 11.89 4.02 24.13 6.13 36.14.83 7.08 2.5 13.99 3.09 21.09-9.37 2.94-19.06 4.84-28.48 7.62-9.34 1.97-18.26 5.67-27.61 7.46-1.1-5-1.33-10.07-2.09-15.12-1.21-8.68-2.58-17.33-3.81-26.01-.8-5.96-2.27-11.79-2.85-17.79 6.84-1.64 13.58-3.64 20.39-5.4 11.82-2.5 23.23-6.27 35.23-7.99Z"/><path fill="#284f5e" d="M94.83 938.03c6.27 5.01 15.24 4.5 21.41 8.87-2.43 11.14-4.61 22.31-6.69 33.52-.99 5.67-1.62 11.59-3.34 17.01-8.48-2.55-17.3-4.12-25.73-6.91 4.55-17.56 9.31-35.06 14.35-52.49Z"/><path fill="#527066" d="M814.99 942.85c10.2 2.39 20.39 4.62 30.49 7.46-1.54 5.2-3.33 10.3-4.66 15.57-3.38 13.31-7.09 26.94-9.48 40.46-9.41-2.62-19.16-4.22-28.67-6.19.77-5.78 1.98-11.47 3.46-17.12 2.01-7.9 3.03-16.01 5.05-23.91 1.34-5.55 2.1-10.93 3.81-16.27ZM116.54 945.69c7.48 2.83 15.26 3.96 22.99 5.85 5.79 1.25 11.72 1.6 17.45 2.58l.4 1.96c-2.38 16.15-4.55 32.48-5.62 48.77-.24 1.13-.49 2.26-.76 3.39-6.22-.73-12.12-2.7-18.27-3.96-8.44-2.17-17.27-3.66-25.5-6.36l-1.02-.49c1.72-5.42 2.35-11.34 3.34-17.01 2.08-11.21 4.26-22.38 6.69-33.52l.3-1.21ZM214.12 954.97c7.32.12 14.57 1.04 21.89 1.09 15.91 1.53 32.62 1 48.38 3.77-2.3 10.23-3.67 20.62-5.78 30.89-1.83 8.74-3.09 17.56-4.59 26.35-3.71.04-7.38-.26-11.06-.65-4.99-.51-9.99-.26-14.97-.71-9.62-1.04-19.34-.68-28.98-1.69-4.95-.63-9.94-.41-14.89-1.1.47-4.02 1.49-7.94 2.03-11.95 1.87-15.42 4.84-30.79 7.97-46Z"/><path fill="#0b3851" d="M440.23 964.32c4.91-.06 9.85.58 14.77.67 9.98.02 20.05-.22 30 .61-1.45 5.84-2.49 11.77-3.93 17.62-1.97 7.49-2.45 15.23-4.36 22.75-1.69 5.97-1.62 12.13-3.67 18.03H415.3c.92-9.8 3.4-19.26 4.99-28.96 1.22-7.84 4.3-15.4 8.85-21.9 2.23-3.18 4.18-6.27 7.48-8.48 1.2-.15 2.4-.28 3.61-.34Z"/><path fill="#527066" d="M347.21 964.96c12.25 1.69 24.55 2.94 36.77 4.86 9.87 1.08 19.58 3.11 29.4 4.44-4.27 16.24-7.49 32.97-8.67 49.74h-48.44c-5.54-1.16-11.14-1.52-16.74-2.21l-1.31-.17c.74-2.51 1.46-5 1.6-7.63 1.12-16.24 5.01-32.08 7.27-48.29l.12-.74Z"/><path fill="#284f5e" d="M512.02 966.09c16.86 1.15 33.61 1.97 50.34 3.65-.42 10.6-3.74 21.33-5.76 31.74-1.54 7.51-2.59 15.08-4.5 22.52h-79.06c2.05-5.9 1.98-12.06 3.67-18.03 1.91-7.52 2.39-15.26 4.36-22.75 1.44-5.85 2.48-11.78 3.93-17.62 9.01-.19 18.01.43 27.02.49Z"/><path fill="#0b3851" d="m562.36 969.74.54.05c6.43.76 12.59 1.48 19.1 1.19 12.33.93 24.75 1.53 36.98 3.41 4.58.6 9.18.85 13.76 1.38-1.99 5.3-2.45 10.79-3.93 16.25-1.42 5.22-1.71 10.62-3.06 15.84-1.33 5.45-1.59 10.85-3.63 16.14H552.1c1.91-7.44 2.96-15.01 4.5-22.52 2.02-10.41 5.34-21.14 5.76-31.74Z"/><path fill="#284f5e" d="M632.74 975.77c11.57 1.05 23.11 2.16 34.61 3.81 6.62.33 13.07 1.34 19.63 2.19 9.33.77 18.48 2.66 27.77 3.69 5.97.69 11.92 1.48 17.81 2.76-2.41 11.86-3.57 23.92-6.04 35.78h-104.4c2.04-5.29 2.3-10.69 3.63-16.14 1.35-5.22 1.64-10.62 3.06-15.84 1.48-5.46 1.94-10.95 3.93-16.25Z"/><path fill="#0b3851" d="M1024 982.25V1024h-49.97c-1.43-6.25-1.89-12.65-3.05-19.01-.74-3.96-1.14-7.87-1.08-11.91 11.32-2.56 22.81-4.39 34.11-7.06 6.72-1.15 13.43-1.74 19.99-3.77Z"/><path d="M443.29 986.3c3.96-.97 9.4-1.06 12.71 1.72 2.82 2.05 5.24 4.41 6.27 7.84 2.63 7.71-2.5 16.9-10.25 19.18-8.69 3.7-19.17-5.08-19.04-14.02-.57-6.31 4.44-12.81 10.31-14.72Z"/><path fill="#0b3851" d="M732.78 987.17c4.22 2.02 8.49 2.16 13.04 3.02 4.8.69 9.47 1.99 14.27 2.62 6.71.68 13.21 2.44 19.91 3.28 7.22 1.44 14.37 3.01 21.73 3.63.56 8.1-3.94 16.01-4.18 24.28h-71.03c2.47-11.86 3.63-23.92 6.04-35.78l.22-1.05ZM80.48 990.52c8.43 2.79 17.25 4.36 25.73 6.91l1.02.49c-1.85 6.59-1.7 13.38-3.38 19.99-.52 2.05-.26 4.03-.04 6.09H72.83c1.41-4.3 1.81-8.69 2.91-13.13 1.68-6.76 3.06-13.59 4.74-20.35Z"/><path fill="#284f5e" d="M107.23 997.92c8.23 2.7 17.06 4.19 25.5 6.36 6.15 1.26 12.05 3.23 18.27 3.96.27-1.13.52-2.26.76-3.39-.8 6.37-1.23 12.78-2.03 19.15h-45.92c-.22-2.06-.48-4.04.04-6.09 1.68-6.61 1.53-13.4 3.38-19.99Z"/><path fill="#527066" d="M167.03 1004.78c.12 2.39 2.28 6.22 0 7.93-.03-2.64-.06-5.28 0-7.93Z"/><path fill="#0b3851" d="M912.89 1008.82c1.2 5.01 1.93 10.1 2.73 15.18h-60.69c9.16-4.31 19.01-5.31 28.53-8.54 7.04-1.5 13.93-3.54 20.95-5.12 2.72-.55 5.76-2.3 8.48-1.52ZM194.74 1012.63c3.02-.05 6.02.25 9.02.63.14 3.63-.2 7.17-.9 10.74h-36.38c.03-3.04.05-6.11.23-9.14 1.16-.81 2.15-1.61 3.62-1.68 8.26-.79 16.15-.34 24.41-.55ZM289.27 1018.54c12.28.44 24.47 1.89 36.73 2.54 4.17.53 8 .84 12.22.54l1.31.17c-.66.74-1.32 1.48-1.98 2.21h-65.28c1.06-1.89 1.59-3.93 2.13-6.01 4.75-1.01 9.92.42 14.87.55Z"/><path fill="#284f5e" d="M339.53 1021.79c5.6.69 11.2 1.05 16.74 2.21h-18.72c.66-.73 1.32-1.47 1.98-2.21Z"/></svg>
