<svg xmlns="http://www.w3.org/2000/svg" width="1024pt" height="1024pt" viewBox="0 0 1024 1024"><path fill="#abd4da" d="M0 0h1024v1024h-38.92c1.91-11.07 1.82-22.81 2.81-34.01.21-13.34.14-26.69.07-40.02-1.03-15.13-1.49-29.82-4.08-44.83 5.42-4.37 11.43-7.98 15.74-13.54 2.92-3.83 3.45-8.59 2.92-13.25-1.99-18.94-6.87-37.98-11.5-56.44-3.53-13.71-7.72-27.27-12.28-40.68-4.26-12.47-9.34-24.48-14.33-36.66-5.54-13.46-11.66-26.69-18.41-39.59-6.57-12.2-13.79-24.05-21.34-35.65-14.65-21.53-33.31-40.41-54.58-55.43-20.55-14.7-43.91-26.4-66.66-37.34-26.54-12.36-53.88-23.12-81.17-33.72-.82-9.24-2.94-18.42-5.93-27.2-2.56-7.77-7.57-14.96-12.78-21.2-3.86-4.64-8.57-8-13.52-11.37 4.88-14.09 9.32-28.46 13.32-42.82 15.71-2.18 29.97-9.7 41.63-20.29 14.99-13.93 24.52-32.61 28.32-52.63 2.93-15.78 2.66-33.23-4.87-47.76-3.37-6.92-8.38-12.33-13.73-17.73 4.13-14.67 8.62-29.19 12.12-44.03 4.22-17.85 7.31-35.83 8.55-54.15.93-7.27.53-14.36.62-21.67-.33-21.17-5.36-41.88-17.59-59.4-7.73-11.1-19.1-20.24-30.24-27.76-9.97-6.83-21.76-12.57-33.86-14.05-4.69-15.92-14.98-29.03-27.8-39.29-12.7-9.81-27.72-16.91-42.8-22.21-21.46-7.39-43.47-12.06-66.28-10.78-23.96 1.04-48.24 6.35-71.32 12.72-17.92 4.81-35.33 11.17-52.33 18.55-7.76 3.21-15.94 7.28-24.17 8.86-4.33.93-9.26.08-13.09-2.15-4.7-2.84-6.19-9.14-5.28-14.26.59-3.21.95-6.01-.03-9.2-3.78.78-7.49 1.57-11.03 3.18-10.84 4.96-21.09 11.05-30.14 18.86-9.87 8.22-16.82 19.47-20.13 31.86-3.55 13.79-4.32 28.13.44 41.74 1.2 3.58 3.63 6.7 4.74 10.26-5.14 11.92-10.36 23.75-13.88 36.29-5.51 19.26-9.06 39.11-11.36 58.99-9.84.99-20.27 1.3-30.24 3.46-3.55.88-6.83 2.09-8 5.93-1.14 3.84-1.05 9.08-.24 12.99 2 3.46 6.42 5.75 9.69 7.86-1.5 9.74-1.35 19.78-1.06 29.61 1.01 15.27 6.14 29.78 14.12 42.78-3.48 10.83-6.5 21.98-7.89 33.29-.6 7-1.41 13.85-1.21 20.9.81 16.16 2.35 32.11 6.07 47.89 5.31 23.32 13.83 45.92 24.88 67.12 8.62 16.17 18.85 32.19 31.3 45.69 5.5 5.6 11.01 11.3 17.06 16.31-2.07 2.59-4.02 7.11-7.48 7.87-24.47 7.72-48.95 15.73-72.83 25.12-18.13 7.29-35.57 15.32-51.98 26.02-15.11 9.49-28.26 20.65-41.76 32.23-13.31 11.4-25.6 24.47-37.96 37.06-26.65 29.36-54.04 57.95-80.88 87.12-4.24 4.81-8.37 9.69-12.09 14.92-1.78 2.6-3.36 5.38-3.38 8.63-.51 7.3 2.37 13.65 5 20.27-10.14 12.64-19.65 25.9-27.75 39.95-11.72 20.47-20.68 42.83-20.3 66.79-.33 13.1 2.21 25.71 5.81 38.25 3.29 11.75 7.7 23.25 12.6 34.42 4.14 9.22 8.47 18.64 13.67 27.32H0V0Z"/><path d="M557.43 8.5c22.81-1.28 44.82 3.39 66.28 10.78 15.08 5.3 30.1 12.4 42.8 22.21 12.82 10.26 23.11 23.37 27.8 39.29 12.1 1.48 23.89 7.22 33.86 14.05 11.14 7.52 22.51 16.66 30.24 27.76 12.23 17.52 17.26 38.23 17.59 59.4-.09 7.31.31 14.4-.62 21.67-1.24 18.32-4.33 36.3-8.55 54.15-3.5 14.84-7.99 29.36-12.12 44.03 5.35 5.4 10.36 10.81 13.73 17.73 7.53 14.53 7.8 31.98 4.87 47.76-3.8 20.02-13.33 38.7-28.32 52.63-11.66 10.59-25.92 18.11-41.63 20.29-4 14.36-8.44 28.73-13.32 42.82 4.95 3.37 9.66 6.73 13.52 11.37 5.21 6.24 10.22 13.43 12.78 21.2 2.99 8.78 5.11 17.96 5.93 27.2 27.29 10.6 54.63 21.36 81.17 33.72 22.75 10.94 46.11 22.64 66.66 37.34 21.27 15.02 39.93 33.9 54.58 55.43 7.55 11.6 14.77 23.45 21.34 35.65 6.75 12.9 12.87 26.13 18.41 39.59 4.99 12.18 10.07 24.19 14.33 36.66 4.56 13.41 8.75 26.97 12.28 40.68 4.63 18.46 9.51 37.5 11.5 56.44.53 4.66 0 9.42-2.92 13.25-4.31 5.56-10.32 9.17-15.74 13.54 2.59 15.01 3.05 29.7 4.08 44.83.07 13.33.14 26.68-.07 40.02-.99 11.2-.9 22.94-2.81 34.01h-18.41c4.63-25.86 4.63-52.82 3.36-79-.49-17.52-2.38-34.88-4.4-52.28-21.24 9.36-42.69 18.06-64.24 26.67-19.47 7.49-38.48 14.51-58.92 19.08-12.18 2.75-24.43 4.88-36.9 5.69 5.4 26.07 9.12 53.18 8.3 79.84h-16.81c-.27-7.84.33-15.75-.38-23.56-2.23 7.63-2.34 15.8-4.1 23.56h-16.41c1.08-4.04 1.73-8.21 2.45-12.33 2.45-15.02 5.27-29.98 6.9-45.13.76-6.12 1.06-12.26.73-18.42-2.84-.29-6.44.01-8.99-1.4-2.29-1.94-2.9-5.82-3.35-8.62-2.12-17.47-6.6-34.6-8.95-52.05-2.14-13.59-3.35-27.27-3.92-41.01.06-13.99-.69-27.69 1.48-41.58 3.56-26.32 10.19-52.16 20.17-76.78 11.87-27.19 25.03-54.66 45.15-76.83 8.75-9.03 19.33-16.97 31.5-20.67-15.64-11.15-32.43-20.99-49.22-30.33-6.96-3.89-14.15-7.31-21.44-10.55-22.2-10.1-44.74-19.87-67.6-28.38-5.71 11.59-9.25 24.58-14.82 36.34-11.49 24.42-28.02 46.01-46.08 65.91-14.06 14.56-28.37 29.09-43.78 42.22-2.2 1.73-4.7 4.18-7.5 4.76-3.12.48-5.09-2.03-6.81-4.2-12.77-18.18-27.5-35.15-43.92-50.14-8.55-7.22-17.7-13.65-26.05-21.14-7.38 4.37-14.51 9.13-21.78 13.67-17.23 11.04-33.55 23.31-51.16 33.81-4.64 2.8-9.14 5.15-12.98 9.05-8.11 7.65-9.3 21.04-11.62 31.43-5.52 28.41-10.99 56.77-15.61 85.35-5.11 32.62-10.21 65.09-14.17 97.87-3.98 31.79-7.03 63.69-10.32 95.56-.69 7.86-1.37 15.73-2.07 23.59h-15.55c1.35-22.79 4-45.41 6.92-68.05 2.69-25.17 6.4-50.18 9.92-75.25 5.78-38.5 11.92-76.9 19.97-115.01 3.88-19.75 8.49-39.34 13.08-58.93 1.67-7.52 3.6-14.54 8.08-20.93 3.22-4.66 7.49-7.67 11.64-11.55-6.33-6.89-11.54-14.49-16.08-22.66-11.58-20.75-21.7-42.34-30.63-64.37-1.48-3.38-2.48-7.35-4.69-10.32-1.97-1.78-4.85-2.71-7.25-3.8-4.43-1.77-8.67-3.95-13.02-5.9-10.08 11.97-17.5 26.76-23.36 41.21-3.96 10.58-7.71 21.46-9.7 32.61 12.76-9.37 25.47-20.2 39.9-27.42 3.87-1.94 9.06-2.61 12.82-.07 3.93 2.48 6.16 6.56 8.63 10.35 8.37 13 16.75 26 24.81 39.19 2.5 4.06 5.26 7.81 7.17 12.22-2.77-.57-5-1.31-7.04-3.35-8.29-7.69-16.5-15.49-24.41-23.59-6.72-6.7-13.22-13.53-18.69-21.32-14.81 10.73-28.56 24.18-45.02 33.85-2.99 1.65-6.44 3.61-9.89 3.93-3.57-.15-7.98-4.26-8.27-7.87-.2-4.33 1.12-8.86 2.21-13.03 5.23-18.45 11.87-36.55 20.1-53.88.76-1.67 1.5-3.35 2.22-5.04-24.1 9.06-49.09 17.12-72.3 27.95-15.05 7.01-29.33 15.54-42.88 25.13-16.93 12.34-32.37 26.06-47.51 40.5-8.08 7.19-15.3 15.37-22.78 23.23-13.64 15.33-27.58 30.39-41.63 45.35-9.25 9.43-18.24 19.1-27.38 28.63-5.24 5.96-11.38 11.62-15.68 18.28-1.35 1.89-.32 3.54.15 5.54 13.13 39.61 41.48 74.11 76.2 96.89 10.45 6.67 20.64 13.09 32.01 18.01 9.4 4.09 18.88 8.21 28.57 11.58-.43-15.69-2.18-31.4-2.05-47.11.08-10.51-.32-20.87.69-31.36 1.47-32.77 6.98-65.55 14.51-97.46 4.83-19.2 10.5-38.43 18.33-56.65 2.59-5.45 4.11-10.64 9.27-14.28 1.19 8.71-1.73 15.77-3.36 24.22-3.68 17.47-7.27 34.99-10.43 52.56-5.27 27.34-8.75 55.08-10.21 82.88-1.42 16.61-.74 33.43-.83 50.09-.19 8.38 1.15 16.63 1.07 25.01 1.74 29.03 2.47 59.48 6.72 88.25 1.25 7.27 2.51 14.62 4.47 21.74h-20.67c-12.25-26.25-21.82-53.65-28.78-81.77-.42-1.47-.71-3.13-1.52-4.44-1.62-1.15-3.58-1.88-5.4-2.66-24-9.95-46.51-22.77-66.25-39.76-6.67-5.6-12.75-11.93-18.82-18.18-11.97-13.32-22.22-28.05-30.81-43.75-14.34 18.29-28.16 39.17-35.03 61.53-4.62 14.54-5.25 29.96-2.86 44.98 2.18 12.77 6.16 24.95 11.03 36.92 6.61 16.38 14.6 32.36 24.31 47.13H45c-5.2-8.68-9.53-18.1-13.67-27.32-4.9-11.17-9.31-22.67-12.6-34.42-3.6-12.54-6.14-25.15-5.81-38.25-.38-23.96 8.58-46.32 20.3-66.79 8.1-14.05 17.61-27.31 27.75-39.95-2.63-6.62-5.51-12.97-5-20.27.02-3.25 1.6-6.03 3.38-8.63 3.72-5.23 7.85-10.11 12.09-14.92 26.84-29.17 54.23-57.76 80.88-87.12 12.36-12.59 24.65-25.66 37.96-37.06 13.5-11.58 26.65-22.74 41.76-32.23 16.41-10.7 33.85-18.73 51.98-26.02 23.88-9.39 48.36-17.4 72.83-25.12 3.46-.76 5.41-5.28 7.48-7.87-6.05-5.01-11.56-10.71-17.06-16.31-12.45-13.5-22.68-29.52-31.3-45.69-11.05-21.2-19.57-43.8-24.88-67.12-3.72-15.78-5.26-31.73-6.07-47.89-.2-7.05.61-13.9 1.21-20.9 1.39-11.31 4.41-22.46 7.89-33.29-7.98-13-13.11-27.51-14.12-42.78-.29-9.83-.44-19.87 1.06-29.61-3.27-2.11-7.69-4.4-9.69-7.86-.81-3.91-.9-9.15.24-12.99 1.17-3.84 4.45-5.05 8-5.93 9.97-2.16 20.4-2.47 30.24-3.46 2.3-19.88 5.85-39.73 11.36-58.99 3.52-12.54 8.74-24.37 13.88-36.29-1.11-3.56-3.54-6.68-4.74-10.26-4.76-13.61-3.99-27.95-.44-41.74 3.31-12.39 10.26-23.64 20.13-31.86 9.05-7.81 19.3-13.9 30.14-18.86 3.54-1.61 7.25-2.4 11.03-3.18.98 3.19.62 5.99.03 9.2-.91 5.12.58 11.42 5.28 14.26 3.83 2.23 8.76 3.08 13.09 2.15 8.23-1.58 16.41-5.65 24.17-8.86 17-7.38 34.41-13.74 52.33-18.55 23.08-6.37 47.36-11.68 71.32-12.72Z"/><path fill="#5a2905" d="M569.86 25.28c7.96.62 15.92 1.58 23.77 3.04 11.99 2.22 23.78 7.08 34.76 12.3 7.94 3.76 15.2 8.54 22.29 13.7 6.63 4.84 12.84 10.71 17.5 17.49 4.54 6.69 7.71 14.27 10.35 21.87 7.36 1.13 14.29 1.24 20.97 3.81 10.33 3.83 19.9 10.71 28.43 17.59 8.49 6.85 15.76 14.83 19.96 25.05 8.46 18.8 7.46 39.77 7.05 59.91-4.63-2.99-8.96-6.21-12.21-10.74-2.01-2.8-3.7-4.26-6.78-5.83.6 7.93 4.67 14.08 9.47 20.12 2.6 3.27 6.42 6.02 8.38 9.7.37 2.27-.09 4.76-.42 7.02-1.39 7.7-2.25 15.41-4.3 22.98-6.91-5.91-12.62-12.94-19.56-18.8-12.15-9.87-24.4-19.78-35.61-30.72 2.91-7.71 6.35-14.86 7.83-23.05 2.46-10.72.69-22-3.4-32.09-5.04-11.98-14.46-21.03-25.74-27.21-10.11-5.81-20.79-8.36-31.51-12.56-1.12-5.06-2.15-10.28-3.8-15.2-4.3-12.06-10.98-22.97-21.87-30.12-2.61-1.76-5.48-2.19-8.52-2.7 1.73 2.97 3.7 5.72 5.88 8.36 8.55 10.24 13.83 23.13 14.27 36.51-7.93-.86-15.84-1.71-23.82-1.89-.83-5.64-1.55-11.02-3.69-16.36-4.16-10.49-11.79-19.46-20.59-26.39-7.35-5.16-15.2-9.37-24.46-9.01 1.31 2.52 2.65 4.76 5.07 6.37 7.45 5.25 14.27 10.86 19.98 18.04 5.99 8.12 9.47 18 8.5 28.17-10.99 1.05-21.39 3.83-31.82 7.34-.62-9.2-2.23-17.93-7.51-25.69-7.29-10.54-18.42-18.03-30.15-22.84-7.2-2.87-14.3-5.65-22.05-6.34 1.23 2.38 2.48 4.21 4.93 5.45 11.66 6.56 22.75 11.94 32.07 21.92 7.97 8.7 12.14 20.34 11.4 32.13-9.23 4.15-18.18 9.16-27.73 12.55-.87-6.93-1.3-14.35-3.32-21.04-5.36-17.2-21.69-31.58-40.13-31.99 2.07 2.35 4.3 4.48 6.86 6.29 7.94 5.52 15.01 12.78 19.74 21.25 4.48 8.51 7.25 18.45 6.52 28.11-10.46 2.4-21.3 1.41-31.34-2.28-12.24-4.64-21.52-14.23-33.98-19.01-6.89-2.79-14.2-2.96-21.52-2.39-8.29.69-16.36 5.09-22.91 10.02-6.4 4.76-11.52 11.64-18.24 15.76-4.76 3.01-10.96 3.07-16.19 1.39-7.13-2.57-12.83-8.25-15.69-15.24-3.47-8.84-5.01-18.24-2.51-27.56 4.03-16.4 17.02-30.32 30.97-39.17 1.16 4.01 2.05 8.15 4.95 11.3 4.77 5.08 11.63 8.1 18.58 8.39 8.09.5 15.57-1.36 23.19-3.84 14.32-4.8 28.37-10.45 42.68-15.3a492.89 492.89 0 0 1 39.93-11.1c9.8-2.28 19.25-4.6 29.27-5.7 11.84-1.33 23.9-2.69 35.82-1.77Z"/><path fill="#fed9a9" d="M630.16 108.84c9.32 2.85 18.25 5.22 26.66 10.34 9.2 5.5 19.34 13.05 24.08 22.93 4.67 9.47 3.6 19.78.91 29.65-4.98 19.01-14.95 34.86-26.69 50.35-1.37 1.82-3.04 3.54-3.55 5.83.66 1.14 1.51 2.13 2.42 3.1 7.3 7.41 14.01 15.49 19.92 24.06 3.93 5.65 6.12 12.01 7.77 18.63-12.83-4.33-25.61-8.79-38.5-12.95-3.17-.58-2.81-5.95-5.59-7.36-4.08-2.26-8.91-3.37-13.38-4.62-29.23-6.99-60.39-9.34-90.3-11.68-8.62-.22-17.28-.13-25.91-.06-9.19.79-18.65 1.41-27.38 4.57-5.45 2.26-8.66 6.85-11.25 11.92-5.96-2.7-12.17-3.5-18.58-4.34 1.47-.22 2.93-.5 4.4-.78-5.06-.45-10.12-.6-15.19-.33-4.49.11-8.41.86-12.45-1.57-2.21-3.79-4.72-7.21-8.46-9.63-4.27-2.8-10.08-3.78-15-5.01-16.79-3.99-33.91-6.18-51.13-7.16-9.82-1.07-19.8-.79-29.68-.87 1.29-11.35 3.77-22.52 7.15-33.42 5.44-18.13 12.96-35.58 22.23-52.08 2.2.51 4.41 1.01 6.63 1.46-1.19.23-2.37.48-3.55.75 7.62.79 14.96 1.28 22.37-1.21l-2.22-.48c8.13-2.4 14.78-6.28 20.99-12.02 8.19-7.02 19.91-14.19 31.11-12.89 6.21.67 11.16 4.33 15.71 8.32 12.27 10.75 28.11 16.18 44.3 16.69 4.23-.06 8.45-.81 12.65-1.28 19.61-2.63 37.49-12.58 55.04-21.01 12.64-5.67 26.1-9.78 39.93-11.02 11.37-1.78 23.52.14 34.54 3.17Z"/><path fill="#fff6db" d="m375.89 138.88 2.22.48c-7.41 2.49-14.75 2-22.37 1.21 1.18-.27 2.36-.52 3.55-.75 5.77.49 10.93.25 16.6-.94Z"/><path d="M371.89 196.1c13.23 5.08 22.74 15.1 30.36 26.72.76 1.42 1.29 2.11.31 3.63-2.28 1-4.97 1.54-7.47 1.42-9.07-.91-17.74-3.04-26.5-5.48-4.11-1.21-7.93-2.45-12.28-2.43-6.36-.16-12.71.23-19.08-.08-1.81-.6-3.57-1.33-5.31-2.12 4.67-4.87 9.48-9.59 14.4-14.19 3.92-3.17 6.92-6.69 11.82-8.46 4.36-1.77 9.48-.48 13.75.99Z"/><path fill="#5a2905" d="M690.13 201.21c3.82 2.57 7.02 6.13 10.47 9.18 9.57 9.13 19.65 17.69 29.3 26.72 5.48 5.13 11.27 9.91 16.75 15.04-1.35 6.14-2.75 12.24-4.64 18.23-5.69-6.45-11.14-13.07-17.4-18.99-13.04-13.12-29.96-25.25-40.89-40.26 1.95-3.33 3.81-7.06 6.41-9.92Z"/><path fill="#fff6db" d="M346.32 203.57c-4.92 4.6-9.73 9.32-14.4 14.19 3.16-6.03 8.27-11.19 14.4-14.19Z"/><path d="M574.81 204.22c10.34 4.18 18.79 13.34 23.84 23.13 1.69 3.61 3.55 6.78 2.72 10.92-8.72-1.21-16.68-4.82-25.33-6.38-13.24-2.88-27.64-2.12-41.07-.91-6.69.41-14.43 2.22-20.92.07-.06-1.03-.11-2.06-.16-3.1 9.83-8.01 20.51-15.73 32.13-20.93 8.7-3.85 19.61-6.3 28.79-2.8Z"/><path fill="#5a2905" d="M679.94 217.85c5.27 5.1 9.86 10.96 14.89 16.31 4.69 4.98 9.16 10.17 13.94 15.07 5.41 5.62 11.54 10.42 17 16 4.47 4.55 9.36 8.51 14.1 12.77-1.57 6.13-3.4 12.09-5.85 17.93-7.04-3.02-13.91-6.23-21.14-8.79-3.36-1.26-6.9-2.31-10.1-3.93-.94-.56-2.34-1.26-2.51-2.45-1.04-4.2-1.2-8.57-2.28-12.78-2.32-9.14-7-17.71-13.13-24.85-4.44-5.37-9.53-9.34-14.63-14.21 3.09-3.75 6.2-7.74 9.71-11.07Z"/><path fill="#fff6db" d="M337.23 219.88c6.37.31 12.72-.08 19.08.08-7.57 1.22-14.86 1.5-22.49.62 1.14-.23 2.27-.46 3.41-.7Z"/><path fill="#fed9a9" d="M319.13 239.76c21.84-.15 43.63 1.61 65.23 4.84 7.7 1.2 16.7 2.46 23.45 6.58 5.01 2.88 8.47 8.1 9.14 13.84.33 5.07.13 10.1-.88 15.08-2.46 12.92-6.63 26.05-13.78 37.19-4.44 6.84-9.96 13.42-17.99 16.02-7.43 2.26-15.57 2.94-23.3 2.72-10.79.19-22.21-.21-32.61-3.41-6.81-1.97-13.05-6.34-18.25-11.05-.52-4.51 1.02-9.35 1.39-13.89 2.76-22.6 5.04-45.29 7.6-67.92Z"/><path fill="#abd4da" d="M308.1 240.66c-.54 4.75-1.03 9.48-1.42 14.24-1.8 17.08-2.6 35.42-7.97 51.82-2.5-5.35-3.72-11.05-4.44-16.89-1.12-13.01.3-26.11 3.91-38.65.86-2.71 1.99-5.94 4.1-7.93 1.71-1.2 3.89-1.84 5.82-2.59Z"/><path fill="#fff6db" d="M427.55 246.53c4.04 2.43 7.96 1.68 12.45 1.57 5.07-.27 10.13-.12 15.19.33-1.47.28-2.93.56-4.4.78-7.23-.54-14.19-.31-21.34.88-.62-1.19-1.24-2.38-1.9-3.56Z"/><path fill="#fed9a9" d="M515 251.96c9.15.11 18.23-.33 27.34.84 3.68.21 7.36.31 11.02.84 15.17 1.59 30.84 3.37 45.83 6.22 5.33.97 9.14 4.91 11.21 9.74 2.67 5.61 1.68 12.53.55 18.42-2.21 11.59-3.92 24.42-8.64 35.28-4.83 10.69-13.67 20.61-25.4 23.58-8.34 2.01-17.37 2.27-25.91 2.13-5.79-.1-11.85.37-17.54-.55-7.65-1.09-15.53-2.4-22.78-5.14-6.47-2.48-11.34-7.14-15.29-12.71-6.29-8.37-9.5-18.94-12.04-28.97-2.46-10.35-3.69-20.51-.64-30.91 1.73-6.1 4.59-11.57 10.43-14.6 6.64-3.25 14.52-4.32 21.86-4.17Z"/><path d="M367.36 260.35c4.21-.91 9.86-1.29 12.99 2.3 4.08 4.02 5.39 11.07 6.36 16.52 1.14 10.36-.69 22.76-7.47 31.06-2.82 3.25-6.59 7.11-11.24 6.98-4.57.29-8.92-1.94-11.63-5.57-2.57-3.48-4.34-7.59-5.15-11.83-1.07-8.65-.47-17.35 3.3-25.31 2.59-5.65 6.5-12.25 12.84-14.15Z"/><path fill="#fed9a9" d="M430.34 267.19c12.32-.79 24.63-.02 36.66 2.84.89.15 1.62.5 2.18 1.04-.12 7.81-.91 15.47.22 23.45 1.45 9.21 3.63 18.14 7.38 26.7 4 9.55 9.55 19.7 17.51 26.51 6.01 5.19 14.16 7.61 21.79 9.19 14.46 2.87 29.19 4.65 43.92 5.02 11.46-.55 22.43-1.15 33.05-5.88 7.7-3.37 13.33-10.49 17.4-17.62 5.35-8.83 7.91-18.96 10.1-28.95 1.87-9.6 3.44-19.27 4.98-28.93 2.76-1.35 5.6-2.99 8.58-3.75 2.35-.7 4.81.35 7.07 1.02 13.72 4.6 27.51 8.99 41.3 13.36-.82 13.72-3.63 27.36-6.51 40.78-2.9 14.51-9.7 28.22-16.91 41.07-6.48 11.57-15.96 20.74-26.79 28.24-13.66 9.45-28.91 15.09-45 18.82-.3-7.33-1.98-15.08-6.14-21.23-5.34-7.99-13.29-14.28-22.24-17.77-9.71-3.81-20.52-5.42-30.93-5.03-15.31 1.35-30.59 3.47-45.96 4.18-12.69 1.06-25.98.82-38.37-2.38.92-2.36 1.93-4.68 2.78-7.07-5.26-1.11-10.79-1.37-16.11-2.07-5.07-.85-10.14-2.68-14.33-5.7-5.4-3.78-8.86-10.44-8.47-17.07.3-3.73 1.74-7.35 4.99-9.45 6.85-4.39 16.34-4.9 23.14-7.91 4.1-1.68 5.88-5.8 7.22-9.73 2.33-7.59 4.35-15.39 5.98-23.16.73-2.87-.75-4.7-2.02-7.09-3.3.68-5.56 1.86-7.89 4.29-6.44 6.73-10.72 16.06-14.49 24.47-2.56.5-5.12 1.05-7.66 1.69 5.19-11.51 8.98-23.62 11.37-36.01 1.05-5.26 1.04-10.61 2.2-15.87Z"/><path d="M546.28 267.24c4.17-1.02 9.4-1.41 12.81 1.72 4.1 3.58 6.04 9.85 6.74 15.09.71 9.87-.27 20.65-5.47 29.31-2.73 4.45-6.59 8.78-11.74 10.35-3.62 1.01-7.77-.5-10.75-2.58-3.95-2.89-6.32-7.94-7.42-12.6-1.77-8.57-.75-17.44 2.56-25.52 2.35-6.35 6.55-13.4 13.27-15.77Z"/><path fill="#5a2905" d="M698.31 297.23c6.21 1.09 12.26 3.95 17.97 6.56-4.05 2.07-8.2 3.94-11.9 6.58-3.51 2.48-6.43 5.41-9.46 8.42 1.36-7.14 1.69-14.5 3.39-21.56Z"/><path fill="#fed9a9" d="M725.48 312.56c6.84-1.87 14.24-1.28 20.22 2.73 5.96 4.16 9.73 10.45 11.51 17.43 3.24 12.29 2.18 25.98-1.38 38.11-4.33 14.75-12.14 29.03-23.14 39.87-7.66 7.22-17.28 13.51-27.86 15.1-4.09.68-7.83-.21-11.82-.92-2.47 6.77-4.27 13.84-6.4 20.73-3.07 9.88-6.14 19.76-9.42 29.57-4.93 14.48-9.59 29.26-15.76 43.26-3.9 6.92-9.4 14.55-14.9 20.3-5.49 2.85-8.69 7.56-13.18 11.6-2.32 2.08-4.07 4.52-5.65 7.18-23.59 21.52-51.34 38.23-79.87 52.32-6.95 3.29-13.86 6.6-20.49 10.5-19.86 11.81-38.02 25.13-57.23 37.78-4.45 2.97-9.05 5.73-13.8 8.2-4.26-5.15-7.76-10.77-11.1-16.54-9.62-15.61-16.75-32.32-23.8-49.19-2.41-5.91-5.04-11.28-6.84-17.29 8.13 2.28 16.37 4.12 24.75 5.27 12.71 2 25.88 1.83 38.72 1.39 29-2.24 56.82-10.5 83.07-22.85 22.73-10.7 43.74-24.68 62.44-41.43 2.56-1.54 5.05-2.77 7.2-4.9 2.16-2.14 3.4-4.63 4.93-7.19 8.01-9.16 15.53-18.66 21.77-29.13 14.59-24.18 21.81-50.17 27.37-77.62 2.61-13.62 4.15-27.45 6.96-41.06 2.12-10.77 3.74-21.7 7.96-32.04 1.69-3.9 3.77-8.14 7.04-10.96 5.33-4.72 11.85-8.3 18.7-10.22ZM306.34 336.79c3.12 1.46 5.8 3.58 9.07 4.79 8.04 3.09 17.08 4.36 25.59 5.42 17.12 1.81 34.3 2.24 50-5.84-.82 12.34 5.29 24.44 15.6 31.24 3.71 2.71 8.21 3.86 11.71 6.8-6.41 2.22-12.66 1.91-19.33 1.75-9.3-.69-18.07-3.06-27.15-4.67-7.1-.67-15.22-1.04-21.98 1.56-6.44 2.23-11.36 7.3-15.42 12.59-3.97 5.28-6.06 11.16-8.42 17.23-4.75-3.47-9.21-7.15-13.35-11.33-5.21-4.83-9.5-10.02-10.58-17.29.97-7.37.56-14.79 1.66-22.14.53-3.67.6-7.34.51-11.03.53-3.06 1.19-6.11 2.09-9.08Z"/><path fill="#5a2905" d="M685.23 337.4c.88.16 1.75.36 2.61.61-2.5 17.71-6.35 35.28-11.35 52.45-4.91 19.33-10.87 38.37-18.06 56.98-9.12 22.3-22.93 42.98-40.14 59.85-7.85 7.92-16.55 15.12-26.07 20.95-11 6.95-22.13 13.62-34.01 18.99-11.75 5.75-23.97 10.32-36.28 14.69-35.82 13.03-76.16 12.98-112.05.2-10.84-4.15-21.1-8.47-30.36-15.63-9.89-7.64-18.75-16.68-26.77-26.24-21.55-26.47-35.48-59.63-43.38-92.62-2.26-8.77-3.26-17.73-5.1-26.58 5.78 5.47 11.92 10.5 17.49 16.2 2.7 2.52 5.85 5.98 9.89 5.66 2.09-2.37 2.7-5.86 3.45-8.85 1.61-7.33 3.94-15.46 8.36-21.62 3.91-5.32 11-7.06 17.19-7.91 10.63-1.51 20.46 2.4 31.41 3.18 8.91.56 17.97.51 26.81-.83 4.15-.59 8.09-1.9 12.18-2.73 3.2-.7 6.36.5 9.43 1.28 7.99 2.37 16.17 2.84 24.5 3.41 9.6.61 18.56-.83 28.07-1.59 11.99-.92 23.95-2.27 35.95-3.06 10.28-.4 20.35.84 29.03 6.77 9.06 5.66 15.07 14.86 17.89 25.05 1.08 5.06 1.62 10.2 3.07 15.2 6.01-.5 11.75-1.92 17.48-3.74 14.96-4.16 29.28-11.07 41.93-20.08 10.64-7.62 19.62-17.29 26.73-28.27 7.25-10.22 12.38-21.56 16.59-33.32 1.04-2.81 1.97-5.83 3.51-8.4Z"/><path d="M728.98 337.78c4.27-.42 8.83 0 11.83 3.42 4.02 4.34 4 11.34 3.54 16.86-.65 5-2.13 9.68-3.78 14.42-2.93 5.55-6.19 12-11.05 16.08-1.98 1.7-3.4 1.16-5.68.58 3.01-7.63 7.43-15.82 9.18-24.11.88-4.34 1.58-9.6-.17-13.81-1.42-3.2-5.34-2.64-7.87-1.25-4.61 2.64-7.69 8.47-11.19 12.44-1.22-.41-2.92-.63-3.8-1.64-.09-4.95 2.96-10.13 5.65-14.14 3.13-4.67 7.58-8.3 13.34-8.85Z"/><path fill="#fff6db" d="M304.25 345.87c.09 3.69.02 7.36-.51 11.03-1.1 7.35-.69 14.77-1.66 22.14-.16-1-.3-2.01-.43-3.03-.35-4.41-.32-8.83.06-13.24.43-5.7 1.47-11.3 2.54-16.9ZM745.67 347.78c.21 3.38.38 6.69-.01 10.06-.79 5.41-1.2 10.44-5.09 14.64 1.65-4.74 3.13-9.42 3.78-14.42.51-3.42.77-6.87 1.32-10.28Z"/><path fill="#b9463e" d="M301.71 362.77c-.38 4.41-.41 8.83-.06 13.24-.69-4.43-.55-8.81.06-13.24Z"/><path d="M536.97 392.93c5.54.36 11.07 3.39 15.49 6.6 5.14 3.71 8.74 9.21 9.54 15.56 1.42 8.97-.94 17.24-4.57 25.36-3.67 8.03-7.62 16.08-12.62 23.37-6.3 9-12.87 17.57-21.2 24.8-7.45 6.86-16.04 12.27-25.76 15.23-6.28 1.76-13.94 2.28-19.9-.8-5.03-2.46-8.78-7.7-12.08-12.07-6.18.92-12.61 2.04-18.86 2.11-7.27.07-14.55-.77-21.62-2.48-6.58-1.55-12.93-4.59-19.38-6.89-3.43 4.17-6.97 10.59-12.63 11.72-4.77 1.3-9.24-1.23-13.18-3.63-9.58-5.76-16-17.13-21.39-26.61-9.38-16.28-14.92-34.22-12.91-53.16.59-5.3 2.14-11.18 6.65-14.51 1.72-1.24 4.65-2.32 6.12-.15.37 2.43.12 5.04-.01 7.49 10.48 4.45 21.14 5.73 32.32 7.25 11.57 1.31 23.39 2.9 35.02 3.01 13.1.15 25.96.41 39.01-.9 23.24-1.71 46.29-6.26 68.63-12.79-.84-1.72-1.83-3.5-2.36-5.35.56-2.82 3.25-3.23 5.69-3.16Z"/><path fill="#fff6db" d="M538.53 410.87c-4.28 8.3-10.17 15.41-17.75 20.91-18.12 13.75-41.72 19.51-63.97 21.86-9.53.8-19.19.81-28.73.14-10.72-1.26-22.19-3.4-31.26-9.61-8.6-5.84-13.1-15.59-18.25-24.29 9.47 2.3 19.28 3.47 28.93 4.73 31.85 3.74 64.19 2.49 95.51-4.54 12.02-2.51 23.66-6.14 35.52-9.2Z"/><path fill="#fed9a9" d="M355.13 417.2c3.2.55 6.63 1.48 9.35 3.32 2.42 2.65 3.88 6.32 5.49 9.51 3.6 7.74 7.88 14.95 14.15 20.84 10.1 10.04 24.22 14.32 38.06 15.76 23.32 1.94 46.83-.25 69.19-7.27 17.06-5.32 33.86-14.73 45.83-28.18 3.94-4.54 7.12-9.53 11.59-13.63 1.27.53 2.54 1.08 3.8 1.63-.71 13.41-7.29 26.85-14.32 38.08-6.54 10.34-14.03 19.74-23.66 27.37-6.52 4.9-13.69 8.77-21.8 10.23-6.01.86-12.97-.93-16.59-6.13-2.06-2.47.04-6.8-.05-9.78-5.12-2.14-9.01.23-14.04 1.27-11.67 3.01-23.12 4.62-35.02 1.69-6.18-1.52-11.11-4.78-16.84-7.23-2.34-.83-4.92-2.06-7.34-.83-1.94.75-2.8 3.68-3.72 5.38-1.42 3.08-3.46 6.68-7.28 6.83-3.85.38-6.96-1.91-9.77-4.22-12.24-10.29-20.27-25.31-24.44-40.57-2.24-7.85-3.32-15.91-2.59-24.07Z"/><path fill="#b9463e" d="M688.25 502.92c7.02 4.59 12.06 12.47 14.44 20.42 2.34 7.9 3.45 16.36 3.02 24.59-.4 10.55-4.97 21.06-9.1 30.66-5.28 11.73-10.61 23.67-17.43 34.59-19.43 29.53-46.05 54.93-71.8 78.87-9.67-15.75-21.05-30.28-33.68-43.75-5.14-5.37-10.71-10.96-16.89-15.12-3.76-2.56-7.84-4.01-12.05-5.62 32.26-15.15 63.66-33.77 90.71-57.11 16.01-14.14 30.29-29.35 41-47.98 3.86-6.36 6.94-13.93 11.78-19.55Z"/><path fill="#fff6db" d="M635.68 513.59c-1.53 2.56-2.77 5.05-4.93 7.19-2.15 2.13-4.64 3.36-7.2 4.9 4.19-3.88 8.24-7.91 12.13-12.09ZM646.53 538.74c-6.07 6.46-12.32 12.76-18.83 18.78 1.58-2.66 3.33-5.1 5.65-7.18 4.49-4.04 7.69-8.75 13.18-11.6Z"/><path fill="#b9463e" d="M721.08 559.92c22.86 8.51 45.4 18.28 67.6 28.38 7.29 3.24 14.48 6.66 21.44 10.55 16.79 9.34 33.58 19.18 49.22 30.33-12.17 3.7-22.75 11.64-31.5 20.67-20.12 22.17-33.28 49.64-45.15 76.83-9.98 24.62-16.61 50.46-20.17 76.78-2.17 13.89-1.42 27.59-1.48 41.58.57 13.74 1.78 27.42 3.92 41.01 2.35 17.45 6.83 34.58 8.95 52.05.45 2.8 1.06 6.68 3.35 8.62 2.55 1.41 6.15 1.11 8.99 1.4.33 6.16.03 12.3-.73 18.42-1.63 15.15-4.45 30.11-6.9 45.13-.72 4.12-1.37 8.29-2.45 12.33H392.41c.7-7.86 1.38-15.73 2.07-23.59 3.29-31.87 6.34-63.77 10.32-95.56 3.96-32.78 9.06-65.25 14.17-97.87 4.62-28.58 10.09-56.94 15.61-85.35 2.32-10.39 3.51-23.78 11.62-31.43 3.84-3.9 8.34-6.25 12.98-9.05 17.61-10.5 33.93-22.77 51.16-33.81 7.27-4.54 14.4-9.3 21.78-13.67 8.35 7.49 17.5 13.92 26.05 21.14 16.42 14.99 31.15 31.96 43.92 50.14 1.72 2.17 3.69 4.68 6.81 4.2 2.8-.58 5.3-3.03 7.5-4.76 15.41-13.13 29.72-27.66 43.78-42.22 18.06-19.9 34.59-41.49 46.08-65.91 5.57-11.76 9.11-24.75 14.82-36.34Z"/><path fill="#b9463e" d="M374.8 567.23c4.35 1.95 8.59 4.13 13.02 5.9 2.4 1.09 5.28 2.02 7.25 3.8 2.21 2.97 3.21 6.94 4.69 10.32 8.93 22.03 19.05 43.62 30.63 64.37 4.54 8.17 9.75 15.77 16.08 22.66-4.15 3.88-8.42 6.89-11.64 11.55-4.48 6.39-6.41 13.41-8.08 20.93-4.59 19.59-9.2 39.18-13.08 58.93-8.05 38.11-14.19 76.51-19.97 115.01-3.52 25.07-7.23 50.08-9.92 75.25-2.92 22.64-5.57 45.26-6.92 68.05H241.23c-1.96-7.12-3.22-14.47-4.47-21.74-4.25-28.77-4.98-59.22-6.72-88.25.08-8.38-1.26-16.63-1.07-25.01.09-16.66-.59-33.48.83-50.09 1.46-27.8 4.94-55.54 10.21-82.88 3.16-17.57 6.75-35.09 10.43-52.56 1.63-8.45 4.55-15.51 3.36-24.22-5.16 3.64-6.68 8.83-9.27 14.28-7.83 18.22-13.5 37.45-18.33 56.65-7.53 31.91-13.04 64.69-14.51 97.46-1.01 10.49-.61 20.85-.69 31.36-.13 15.71 1.62 31.42 2.05 47.11-9.69-3.37-19.17-7.49-28.57-11.58-11.37-4.92-21.56-11.34-32.01-18.01-34.72-22.78-63.07-57.28-76.2-96.89-.47-2-1.5-3.65-.15-5.54 4.3-6.66 10.44-12.32 15.68-18.28 9.14-9.53 18.13-19.2 27.38-28.63 14.05-14.96 27.99-30.02 41.63-45.35 7.48-7.86 14.7-16.04 22.78-23.23 15.14-14.44 30.58-28.16 47.51-40.5 13.55-9.59 27.83-18.12 42.88-25.13 23.21-10.83 48.2-18.89 72.3-27.95-.72 1.69-1.46 3.37-2.22 5.04-8.23 17.33-14.87 35.43-20.1 53.88-1.09 4.17-2.41 8.7-2.21 13.03.29 3.61 4.7 7.72 8.27 7.87 3.45-.32 6.9-2.28 9.89-3.93 16.46-9.67 30.21-23.12 45.02-33.85 5.47 7.79 11.97 14.62 18.69 21.32 7.91 8.1 16.12 15.9 24.41 23.59 2.04 2.04 4.27 2.78 7.04 3.35-1.91-4.41-4.67-8.16-7.17-12.22-8.06-13.19-16.44-26.19-24.81-39.19-2.47-3.79-4.7-7.87-8.63-10.35-3.76-2.54-8.95-1.87-12.82.07-14.43 7.22-27.14 18.05-39.9 27.42 1.99-11.15 5.74-22.03 9.7-32.61 5.86-14.45 13.28-29.24 23.36-41.21ZM863.63 632.41c7.41 5.42 14.29 11.69 21.09 17.86 14.58 13.9 26.64 30.07 36.31 47.71 4.72 8.6 9.74 17.06 14.17 25.81 10.86 22.36 20.54 45.2 28.13 68.88 2.59 8.13 5.3 16.3 7.48 24.52 4.28 16.01 8.6 32.21 11.37 48.55-14.63 6.2-29.26 12.38-43.91 18.54-20.98 8.53-41.6 17.63-63.06 24.95-11.97 4.02-23.57 8.12-35.81 11.17-16.06 4.05-32.68 6.59-49.1 8.75-1.89-7.53-4.01-15-5.97-22.51-5.16-19.96-8.85-40.26-10.15-60.85-.79-21.05.02-41.98 3.86-62.74 4.04-23.96 11.7-46.56 21.11-68.89 11.66-27.32 29.14-52.85 51.52-72.48 4.04-3.64 7.96-6.99 12.96-9.27Z"/><path d="M458.38 701.42c3.82-1 8.16-1.07 11.88.37 8.6 3.49 14.03 12.73 12.49 21.96-1.56 10.88-10.54 20.02-21.77 20.28-8.17.65-14.53-5.52-17.31-12.66-3.82-11.52 2.83-26.35 14.71-29.95Z"/><path fill="#fed9a9" d="M458.54 710.55c3.85-1.14 10.99 1.2 13.16 4.74 3.36 5.71.5 14.96-5.33 18.09-4.13 2.46-9.62 1.57-12.88-1.86-4.5-6.48-3.41-18.26 5.05-20.97Z"/><path d="M545.1 792.11c4.51-.33 9.21.67 13.71 1.13 20.02 2.66 40 5.34 60.17 6.63 9.35.37 18.66 1.18 28.03 1.36 9.34.91 18.7.59 28.03 1.53 9.67.42 19.35 1.03 28.98 2.06 3.81.47 7.39 1.06 9.51 4.64 2.23 3.47 1.45 8.12.95 11.99-2.01 12.1-3.46 24.27-4.65 36.48-2.04 21.07-4.81 42.08-7.89 63.03-1.11 6.86-2.06 14.09-4.31 20.68-3.24 9.74-10.88 17.84-20.51 21.46-11.36 4.42-25.22 4.54-37.27 5.56-22 1.08-43.78.11-65.44-4.06-12.43-2.56-25.9-5.53-36.88-12.14-5.76-3.6-11.61-8.7-13.47-15.48-2.37-8.49-1.66-18.32-1.17-27.02.21-5.94.91-11.82 1.43-17.74 2.75-26.95 6.2-53.85 10.3-80.63.83-4.71 1.57-9.96 3.77-14.24 1.43-2.7 3.49-4.95 6.71-5.24Z"/><path fill="#b9463e" d="M548.24 804.03c4.1-.27 8.43.65 12.51 1.16 21 3.08 42.04 5.71 63.25 6.81 12.26.75 24.52 1.67 36.8 2.2 14.59 1.13 29.32 1.21 43.88 2.79-1.64 8.87-2.79 17.84-3.95 26.78-9.95.19-19.77 1.52-29.73 1.25-13.42-.2-26.69.47-39.96-.7-29.93-1.1-59.73-4.59-88.87-11.62.88-6.85 1.83-13.65 3.08-20.44.59-2.9 1.22-5.79 2.99-8.23Z"/><path d="M436.41 824.45c6.62-1.56 14.03.57 19.05 5.1 3.55 3.44 5.6 8.48 5.78 13.4.32 6.26-1 13.34-4.9 18.42-3.37 4.27-8.77 7.7-14.35 7.67-6.39.28-13.31-2.69-16.96-8.06-3.52-5.35-4.7-11.94-3.29-18.19 1.16-7.85 6.83-16.05 14.67-18.34Z"/><path fill="#fed9a9" d="M68.98 833.44c8.59 15.7 18.84 30.43 30.81 43.75 6.07 6.25 12.15 12.58 18.82 18.18 19.74 16.99 42.25 29.81 66.25 39.76 1.82.78 3.78 1.51 5.4 2.66.81 1.31 1.1 2.97 1.52 4.44 6.96 28.12 16.53 55.52 28.78 81.77H66.43c-9.71-14.77-17.7-30.75-24.31-47.13-4.87-11.97-8.85-24.15-11.03-36.92-2.39-15.02-1.76-30.44 2.86-44.98 6.87-22.36 20.69-43.24 35.03-61.53ZM439.32 834.24c3.18-.68 7.09-.29 9.79 1.65 2.21 1.85 4.05 6.18 3.86 9.03-.57 3.96-2.09 8.22-4.89 11.16-3.84 3.93-11.43 4.37-14.9-.28-2.65-3.44-2.41-7.65-2.17-11.75.47-4.64 3.81-8.58 8.31-9.81Z"/><path fill="#b9463e" d="M541.23 841.08c8.37 1.59 16.45 4.46 24.9 5.8 38.05 7.92 76.04 9.2 114.77 7.89 6.16-.55 12.31-.85 18.48-1.16-.88 10.12-2.58 20.14-3.56 30.25-1.86 15.32-3.57 30.69-6.02 45.93-1.24 6.87-3.18 14.54-9.05 18.96-9.39 7.19-20.3 8.38-31.71 9.16-11.35.34-22.69.42-34.04.15-7.2.12-14.31-.7-21.45-1.56-13.41-1.51-26.89-4.13-39.74-8.3-4.75-1.56-9.4-3.55-13.37-6.64-3.11-2.45-5.88-5.39-6.59-9.43-1.51-8.08.11-16.95.16-25.17 1.17-16.13 2.44-32.26 4.59-48.31.85-5.83 1.23-11.83 2.63-17.57Z"/><path fill="#fed9a9" d="M965.63 892.72c2.02 17.4 3.91 34.76 4.4 52.28 1.27 26.18 1.27 53.14-3.36 79h-152.8c.82-26.66-2.9-53.77-8.3-79.84 12.47-.81 24.72-2.94 36.9-5.69 20.44-4.57 39.45-11.59 58.92-19.08 21.55-8.61 43-17.31 64.24-26.67Z"/><path d="M423.39 945.4c6.01-1.51 12.74 1.05 17.47 4.75 5.83 4.63 7.8 12.62 7.05 19.76-.68 5.84-4.55 11.31-8.98 15-4.73 3.99-11.36 5.09-17.24 3.36-6.04-1.93-9.91-7.48-11.64-13.34-2.33-7.3-.37-15.76 3.91-21.96 2.3-3.24 5.44-6.57 9.43-7.57Z"/><path fill="#fff6db" d="M209.93 946.34c1.65.24 3.28.62 4.92.93l.45 4.59c-.88 1.86-.8 2.73.49 4.34.27 3.03.71 6.03.97 9.06-2.96-5.92-5.4-12.46-6.83-18.92Z"/><path fill="#abd4da" d="M215.3 951.86c.99 1.67 1.07 2.5.49 4.34-1.29-1.61-1.37-2.48-.49-4.34Z"/><path fill="#fed9a9" d="M425.44 954.4c2.86-.88 6.6-.81 9.02 1.18 4.65 3.4 5.66 10.5 3.72 15.62-2.24 5.59-8.43 8.26-14.19 7.13-2.72-.18-4.29-2.61-5.6-4.69-3.62-6.67-.5-16.83 7.05-19.24Z"/><path fill="#fff6db" d="M796.68 1000.44c.71 7.81.11 15.72.38 23.56h-4.48c1.76-7.76 1.87-15.93 4.1-23.56Z"/></svg>
