<?xml version="1.0" encoding="UTF-8" standalone="no"?>
<!DOCTYPE svg PUBLIC "-//W3C//DTD SVG 1.1//EN" "http://www.w3.org/Graphics/SVG/1.1/DTD/svg11.dtd">
<svg xmlns="http://www.w3.org/2000/svg" version="1.1" viewBox="0 0 1024 1024" width="1024.0pt" height="1024.0pt">
<path d="M 0.00 0.00 L 1024.00 0.00 L 1024.00 688.24 C 1016.76 676.80 1006.56 670.88 996.09 662.90 C 984.33 654.52 972.09 646.38 959.22 639.79 C 949.41 634.58 939.25 630.12 928.90 626.09 C 916.61 621.17 904.05 616.45 890.98 614.01 C 888.42 613.45 885.51 613.11 883.18 611.85 C 880.29 608.27 878.45 604.20 874.72 601.26 C 863.43 591.42 850.10 588.74 836.11 584.88 C 825.88 581.70 815.45 579.50 804.83 578.17 C 798.06 577.71 790.74 577.79 784.39 580.43 C 778.42 583.12 775.51 588.40 770.86 592.86 C 768.28 595.27 765.82 598.15 762.82 600.01 C 758.40 599.80 753.97 598.54 749.77 597.21 C 738.67 593.36 727.95 588.93 717.88 582.83 C 717.91 576.67 718.60 570.02 716.88 564.13 C 715.19 557.66 711.57 551.81 706.01 547.98 C 701.91 545.27 697.49 544.05 692.80 542.82 C 693.54 535.19 692.67 527.82 688.98 521.02 C 684.67 512.55 677.22 507.10 668.75 503.24 C 664.81 501.48 660.60 500.67 656.63 499.03 C 663.84 498.92 670.12 500.68 677.31 498.34 C 681.02 497.32 683.82 494.93 687.16 493.26 C 695.82 494.07 703.26 492.04 710.68 487.69 C 715.84 484.57 722.12 480.90 724.43 475.05 C 718.98 473.97 714.12 473.99 709.39 470.62 C 706.19 468.21 702.84 464.26 702.96 460.03 C 702.71 456.67 705.52 453.90 707.73 451.73 C 713.69 446.37 720.45 441.84 726.26 436.25 C 742.94 420.92 754.82 400.56 759.37 378.32 C 762.17 364.31 763.33 350.13 758.63 336.38 C 756.99 331.25 754.55 326.52 751.68 321.97 C 758.71 310.47 764.24 297.98 768.15 285.08 C 772.74 269.77 772.95 253.37 769.22 237.86 C 768.10 232.78 766.56 227.84 764.31 223.15 C 774.34 222.07 783.67 217.99 790.79 210.79 C 792.41 209.00 795.34 206.77 795.40 204.20 C 794.03 202.88 791.37 203.00 789.59 202.30 C 780.53 199.30 772.61 192.49 767.49 184.52 C 762.98 177.86 760.60 170.63 757.82 163.17 C 751.29 145.92 743.59 129.62 731.41 115.56 C 719.08 101.12 702.59 88.96 684.08 83.96 C 677.76 82.15 671.44 81.76 664.94 81.18 C 661.33 80.87 657.83 81.38 654.28 81.94 C 651.08 65.47 640.24 50.95 627.14 40.85 C 617.50 33.50 606.59 27.28 594.81 24.18 C 580.48 20.17 565.87 19.43 551.07 20.20 C 536.31 21.59 521.66 23.52 507.31 27.31 C 485.52 32.73 466.05 39.77 443.05 37.68 C 431.82 36.17 420.14 34.70 411.82 26.17 C 408.19 22.56 408.02 17.70 404.92 13.88 C 401.15 17.30 399.82 21.71 398.56 26.47 C 396.48 35.04 397.69 43.78 401.04 51.85 C 384.17 52.06 366.50 57.49 353.53 68.55 C 344.70 76.17 338.24 85.13 331.60 94.59 C 328.35 98.56 324.67 104.11 319.50 105.51 C 313.98 107.56 307.76 103.57 305.25 98.74 C 301.89 91.19 304.97 84.46 303.99 76.85 C 301.93 75.72 300.04 78.49 298.67 79.69 C 291.43 87.82 285.18 97.39 281.79 107.80 C 278.48 117.53 277.40 128.39 279.53 138.49 C 281.25 146.54 285.51 153.87 291.47 159.53 C 295.26 163.11 299.71 166.11 304.12 168.87 C 298.42 184.48 296.54 201.16 301.82 217.17 C 303.44 222.39 306.18 226.99 309.65 231.19 C 305.09 246.57 301.48 262.27 297.78 277.87 C 289.59 313.63 280.56 349.10 281.73 386.00 C 281.96 407.80 287.44 429.87 294.68 450.33 C 299.79 464.32 305.86 477.95 312.92 491.06 C 318.82 501.54 324.93 511.88 330.44 522.58 C 336.28 534.00 341.55 545.72 347.48 557.10 C 338.04 565.05 329.97 573.70 326.64 585.92 C 315.92 587.97 305.63 590.78 295.94 595.93 C 290.68 598.73 286.05 602.67 282.26 607.27 C 279.66 610.39 278.58 613.78 274.71 615.69 C 260.41 623.37 246.17 629.78 234.59 641.60 C 231.85 644.15 229.73 647.46 226.81 649.78 C 211.31 658.56 196.07 665.86 181.91 676.90 C 176.15 681.45 170.39 686.03 164.82 690.80 C 145.99 707.99 128.96 727.23 113.44 747.44 C 103.60 760.71 94.04 774.22 85.12 788.13 C 80.12 796.17 75.35 804.35 70.40 812.41 C 58.13 831.59 46.99 851.35 36.54 871.57 C 27.29 889.36 16.70 906.31 6.66 923.66 C 4.56 927.33 2.24 930.87 0.00 934.46 L 0.00 0.00 Z" fill="#fefde7" />
<path d="M 404.92 13.88 C 408.02 17.70 408.19 22.56 411.82 26.17 C 420.14 34.70 431.82 36.17 443.05 37.68 C 466.05 39.77 485.52 32.73 507.31 27.31 C 521.66 23.52 536.31 21.59 551.07 20.20 C 565.87 19.43 580.48 20.17 594.81 24.18 C 606.59 27.28 617.50 33.50 627.14 40.85 C 640.24 50.95 651.08 65.47 654.28 81.94 C 657.83 81.38 661.33 80.87 664.94 81.18 C 671.44 81.76 677.76 82.15 684.08 83.96 C 702.59 88.96 719.08 101.12 731.41 115.56 C 743.59 129.62 751.29 145.92 757.82 163.17 C 760.60 170.63 762.98 177.86 767.49 184.52 C 772.61 192.49 780.53 199.30 789.59 202.30 C 791.37 203.00 794.03 202.88 795.40 204.20 C 795.34 206.77 792.41 209.00 790.79 210.79 C 783.67 217.99 774.34 222.07 764.31 223.15 C 766.56 227.84 768.10 232.78 769.22 237.86 C 772.95 253.37 772.74 269.77 768.15 285.08 C 764.24 297.98 758.71 310.47 751.68 321.97 C 754.55 326.52 756.99 331.25 758.63 336.38 C 763.33 350.13 762.17 364.31 759.37 378.32 C 754.82 400.56 742.94 420.92 726.26 436.25 C 720.45 441.84 713.69 446.37 707.73 451.73 C 705.52 453.90 702.71 456.67 702.96 460.03 C 702.84 464.26 706.19 468.21 709.39 470.62 C 714.12 473.99 718.98 473.97 724.43 475.05 C 722.12 480.90 715.84 484.57 710.68 487.69 C 703.26 492.04 695.82 494.07 687.16 493.26 C 683.82 494.93 681.02 497.32 677.31 498.34 C 670.12 500.68 663.84 498.92 656.63 499.03 C 660.60 500.67 664.81 501.48 668.75 503.24 C 677.22 507.10 684.67 512.55 688.98 521.02 C 692.67 527.82 693.54 535.19 692.80 542.82 C 697.49 544.05 701.91 545.27 706.01 547.98 C 711.57 551.81 715.19 557.66 716.88 564.13 C 718.60 570.02 717.91 576.67 717.88 582.83 C 727.95 588.93 738.67 593.36 749.77 597.21 C 753.97 598.54 758.40 599.80 762.82 600.01 C 765.82 598.15 768.28 595.27 770.86 592.86 C 775.51 588.40 778.42 583.12 784.39 580.43 C 790.74 577.79 798.06 577.71 804.83 578.17 C 815.45 579.50 825.88 581.70 836.11 584.88 C 850.10 588.74 863.43 591.42 874.72 601.26 C 878.45 604.20 880.29 608.27 883.18 611.85 C 885.51 613.11 888.42 613.45 890.98 614.01 C 904.05 616.45 916.61 621.17 928.90 626.09 C 939.25 630.12 949.41 634.58 959.22 639.79 C 972.09 646.38 984.33 654.52 996.09 662.90 C 1006.56 670.88 1016.76 676.80 1024.00 688.24 L 1024.00 720.59 C 1020.90 714.68 1017.35 708.99 1013.36 703.64 C 1010.13 699.30 1007.36 695.01 1003.81 691.09 C 998.30 695.25 993.86 701.17 991.76 707.77 C 990.60 710.61 993.25 713.99 994.51 716.44 C 1000.60 726.15 1005.25 736.51 1010.32 746.75 C 1015.29 756.87 1019.34 767.42 1024.00 777.69 L 1024.00 824.80 C 1020.13 815.03 1017.70 804.74 1014.23 794.81 C 1010.39 783.87 1006.53 772.98 1001.52 762.51 C 994.33 745.10 985.24 728.75 975.12 712.88 C 970.83 706.61 966.62 700.07 961.70 694.32 C 957.34 689.07 952.20 683.12 946.11 679.89 C 943.81 678.53 941.28 680.16 939.18 681.14 C 931.81 685.24 924.80 690.01 918.06 695.05 C 914.59 697.61 911.81 700.81 909.19 704.20 C 899.70 716.00 890.02 728.44 882.71 741.72 C 878.25 749.31 873.81 756.90 870.03 764.87 C 884.05 771.75 896.64 781.35 906.50 793.50 C 914.48 802.94 921.65 812.92 926.79 824.22 C 934.48 839.54 940.26 855.66 944.89 872.14 C 949.82 887.12 954.63 902.13 960.15 916.91 C 965.93 931.85 971.07 947.01 977.14 961.85 C 982.52 976.37 988.52 990.63 993.85 1005.17 C 996.34 1011.42 998.88 1017.61 1001.04 1024.00 L 986.91 1024.00 C 980.41 1005.83 973.40 987.86 965.95 970.06 C 957.50 949.21 949.77 928.04 942.06 906.91 C 936.18 891.94 932.14 876.41 926.65 861.32 C 922.53 849.83 918.38 838.01 912.86 827.12 C 907.95 818.00 902.19 809.31 895.93 801.05 C 887.32 790.75 875.98 782.09 865.18 774.11 C 856.53 794.17 848.54 814.43 842.40 835.41 C 833.24 865.47 826.29 896.13 821.22 927.14 C 820.76 930.47 820.71 933.71 822.20 936.81 C 825.04 943.45 829.51 949.63 833.10 955.91 C 845.53 977.31 855.15 1000.41 862.56 1024.00 L 850.03 1024.00 C 849.15 1021.81 848.43 1019.58 847.71 1017.34 C 844.11 1005.79 839.39 994.58 834.41 983.57 C 830.08 973.47 824.67 964.01 818.66 954.83 C 817.39 958.15 816.51 961.52 816.07 965.06 C 814.21 978.72 812.38 993.13 813.37 1006.90 C 813.72 1012.60 813.81 1018.30 813.82 1024.00 L 801.92 1024.00 C 799.89 1004.97 801.59 984.95 803.03 965.87 C 800.34 969.87 797.65 973.85 794.64 977.61 C 790.76 982.60 787.29 987.42 785.80 993.70 C 783.66 1003.47 784.29 1013.77 782.99 1024.00 L 768.29 1024.00 C 769.41 1019.35 769.44 1014.73 770.01 1010.02 C 773.41 985.26 776.63 960.36 779.63 935.55 C 781.39 927.51 781.63 919.34 783.06 911.26 C 783.74 907.04 784.20 902.79 784.81 898.56 C 782.71 898.72 780.63 898.77 778.52 898.71 C 776.31 911.87 774.14 925.02 772.24 938.23 C 769.18 955.18 766.88 972.20 764.20 989.21 C 762.58 1000.76 761.36 1012.57 758.96 1024.00 L 747.11 1024.00 C 748.18 1016.42 748.97 1008.82 750.28 1001.26 C 751.73 987.07 754.97 973.12 756.91 958.98 C 757.88 950.85 759.69 942.86 760.79 934.74 C 763.01 921.90 764.92 908.98 767.69 896.25 C 758.15 895.39 748.72 893.89 739.14 893.42 C 726.07 892.27 713.09 890.18 700.01 889.07 C 695.05 888.73 690.07 887.56 685.12 887.61 C 683.44 887.54 683.25 889.51 682.75 890.70 C 678.81 906.17 676.08 921.83 673.51 937.57 C 671.59 950.49 669.03 963.29 667.24 976.23 C 665.86 984.72 664.96 993.26 663.69 1001.76 C 662.65 1009.16 662.35 1016.55 660.82 1024.00 L 648.65 1024.00 C 649.96 1013.24 651.32 1002.48 652.72 991.74 C 655.79 972.79 658.54 953.81 661.85 934.90 C 664.30 918.53 667.92 902.38 670.74 886.08 C 667.37 885.40 663.74 884.39 660.30 884.61 C 657.43 886.82 657.35 892.43 656.58 895.72 C 651.28 921.43 647.51 947.59 643.27 973.50 C 641.83 981.65 641.19 989.86 640.09 998.06 C 638.84 1006.68 639.07 1015.39 637.61 1024.00 L 624.39 1024.00 C 625.83 1007.89 627.41 991.84 629.81 975.84 C 634.80 942.23 640.37 908.80 647.52 875.57 C 650.23 860.73 653.95 846.20 657.55 831.56 C 661.48 817.20 665.10 802.76 669.53 788.54 C 674.11 772.50 679.65 756.93 685.22 741.21 C 689.94 728.00 695.56 715.04 700.11 701.79 C 695.03 704.69 690.38 708.32 685.38 711.38 C 674.14 718.40 662.59 726.08 650.57 731.60 C 635.39 738.91 620.42 746.13 604.34 751.35 C 584.18 758.58 564.11 764.12 543.05 768.11 C 538.66 784.01 534.81 800.13 531.22 816.22 C 520.65 868.37 510.46 920.33 504.26 972.99 C 502.61 989.97 500.38 1006.95 499.59 1024.00 L 489.90 1024.00 C 490.50 1007.06 492.74 990.02 494.45 973.16 C 497.41 946.76 501.05 920.46 505.20 894.23 C 511.13 858.87 516.35 822.97 525.21 788.20 C 526.80 781.85 528.93 775.70 530.26 769.27 C 521.76 770.52 513.24 771.68 504.68 772.50 C 501.29 772.79 497.72 772.88 494.43 773.78 C 485.77 804.13 478.79 834.91 472.90 865.91 C 463.28 918.30 455.33 971.04 449.65 1024.00 L 437.92 1024.00 C 439.40 1015.74 439.89 1007.31 441.01 999.00 C 442.33 985.95 444.39 973.01 445.90 959.99 C 450.74 926.05 456.64 892.23 462.51 858.45 C 464.13 848.10 466.45 837.89 468.60 827.64 C 471.70 813.83 474.55 799.99 478.23 786.32 C 479.44 781.98 480.36 777.66 481.04 773.20 C 478.45 773.16 475.86 773.09 473.28 773.16 C 471.53 778.34 470.45 783.88 469.21 789.22 C 466.19 801.94 463.56 814.75 460.54 827.47 C 455.73 849.83 451.79 872.39 447.97 894.93 C 445.55 908.89 442.93 922.81 440.78 936.81 C 438.53 950.26 437.76 963.88 435.37 977.31 C 433.38 992.85 430.62 1008.40 429.67 1024.00 L 419.21 1024.00 C 420.40 1013.26 421.66 1002.53 422.69 991.77 C 424.58 979.18 425.91 966.53 427.99 953.97 C 429.05 945.58 430.88 937.33 431.95 928.95 C 433.57 916.60 435.71 904.33 438.06 892.10 C 441.53 870.71 445.62 849.42 450.26 828.26 C 452.20 819.90 454.13 811.54 455.78 803.12 C 452.63 802.77 449.62 802.35 446.44 802.48 C 444.06 810.07 442.44 817.94 440.74 825.70 C 438.92 836.06 436.30 846.25 434.60 856.63 C 432.77 867.57 430.17 878.36 428.37 889.31 C 422.45 920.88 418.53 952.71 413.61 984.45 C 412.37 994.63 411.07 1004.81 410.23 1015.03 C 409.97 1018.04 409.70 1021.02 409.14 1024.00 L 401.44 1024.00 C 402.44 1013.94 403.93 1003.95 404.68 993.87 C 406.51 978.05 408.25 962.20 410.60 946.44 C 412.10 937.50 413.31 928.51 414.77 919.55 C 417.04 904.94 418.66 890.42 421.83 875.86 C 426.30 854.60 430.26 833.32 435.11 812.14 C 436.80 805.67 438.18 799.13 439.65 792.61 C 441.24 785.40 443.46 778.53 444.10 771.14 C 441.92 771.10 439.72 771.08 437.54 771.14 C 436.70 775.67 435.87 780.18 434.65 784.63 C 431.65 796.10 429.28 807.71 426.11 819.14 C 422.25 834.77 418.96 850.56 416.40 866.46 C 408.99 901.45 404.19 936.66 398.96 971.99 C 397.57 982.21 396.58 992.46 395.53 1002.71 C 394.76 1009.80 394.02 1016.87 393.75 1024.00 L 381.79 1024.00 C 388.02 966.68 396.37 909.58 406.91 852.89 C 410.90 831.90 415.11 810.91 420.16 790.14 C 421.79 782.70 423.93 775.41 425.37 767.93 C 417.57 765.76 409.65 764.71 401.98 762.02 C 397.28 760.51 392.82 758.24 388.08 756.90 C 386.92 757.35 386.78 759.32 386.31 760.36 C 382.62 772.63 378.88 784.90 375.15 797.16 C 365.31 829.22 357.41 861.60 349.06 894.05 C 343.97 914.97 338.87 935.70 334.86 956.88 C 330.21 979.06 327.24 1001.66 323.55 1024.00 L 313.22 1024.00 C 315.58 1010.86 316.85 997.53 319.41 984.41 C 324.40 955.77 330.31 927.30 336.99 899.01 C 338.75 891.77 340.71 884.57 342.31 877.29 C 352.27 834.70 364.62 793.03 376.94 751.08 C 371.35 748.45 366.16 745.50 361.23 741.77 C 350.51 735.05 339.07 726.57 332.40 715.60 C 330.03 711.92 328.52 707.92 326.84 703.91 C 320.00 721.86 313.00 739.80 307.10 758.09 C 292.20 801.37 279.59 845.46 268.97 889.98 C 262.40 919.68 257.01 949.65 252.84 979.79 C 250.43 994.45 249.26 1009.30 247.24 1024.00 L 234.62 1024.00 C 236.10 1015.23 236.38 1006.26 237.49 997.43 C 238.39 988.59 240.23 979.90 241.17 971.06 C 243.67 952.96 247.13 935.06 250.07 917.03 C 252.11 905.75 254.80 894.58 257.07 883.35 C 252.72 885.97 249.29 887.20 244.21 887.68 C 242.26 896.02 240.08 904.26 238.72 912.72 C 234.45 932.46 231.87 952.07 229.16 972.09 C 226.85 989.34 225.61 1006.72 223.74 1024.00 L 211.52 1024.00 C 211.35 1008.25 214.04 992.36 215.73 976.73 C 217.41 966.46 217.92 956.08 219.83 945.86 C 222.31 931.91 224.55 917.78 228.03 904.04 C 229.56 897.46 230.70 890.82 232.65 884.34 C 219.02 882.02 205.43 879.47 191.81 877.14 C 186.29 876.23 180.80 874.78 175.28 874.23 C 172.17 886.14 169.88 898.30 167.40 910.37 C 163.04 936.33 160.27 962.64 159.13 988.95 C 158.77 996.07 157.70 1003.02 157.70 1010.15 C 157.71 1014.79 157.30 1019.39 156.84 1024.00 L 140.93 1024.00 C 142.00 1008.34 142.33 992.63 143.80 976.99 C 144.42 970.51 144.89 964.03 145.44 957.55 C 145.98 950.95 147.14 944.49 147.18 937.85 C 140.39 943.06 135.33 949.42 129.84 955.88 C 125.22 960.88 120.26 965.61 115.32 970.30 C 103.04 981.76 91.81 994.17 80.95 1006.96 C 75.81 1012.45 71.16 1018.06 66.56 1024.00 L 52.34 1024.00 C 58.51 1015.66 64.95 1007.56 71.66 999.65 C 80.45 989.28 89.02 978.25 98.75 968.75 C 115.50 952.14 131.39 934.73 147.86 917.85 C 149.23 916.33 150.66 915.12 150.77 912.92 C 151.82 902.53 153.43 892.19 154.78 881.83 C 155.28 877.29 156.56 872.77 156.77 868.20 C 155.49 865.69 153.08 863.53 152.01 860.89 C 150.88 857.54 151.50 853.49 151.93 850.05 C 153.72 838.02 157.85 826.03 161.41 814.41 C 163.24 809.08 162.19 802.63 162.37 796.99 C 162.18 790.50 163.25 784.19 163.67 777.74 C 160.22 780.24 157.09 783.08 153.96 785.94 C 143.75 794.73 133.47 803.43 123.37 812.34 C 115.32 819.46 108.83 827.80 101.97 835.99 C 95.62 843.00 88.89 849.61 82.89 856.93 C 69.36 871.69 55.04 885.75 40.52 899.53 C 38.39 901.73 37.05 904.92 35.60 907.61 C 24.64 928.09 13.36 948.33 0.00 967.37 L 0.00 934.46 C 2.24 930.87 4.56 927.33 6.66 923.66 C 16.70 906.31 27.29 889.36 36.54 871.57 C 46.99 851.35 58.13 831.59 70.40 812.41 C 75.35 804.35 80.12 796.17 85.12 788.13 C 94.04 774.22 103.60 760.71 113.44 747.44 C 128.96 727.23 145.99 707.99 164.82 690.80 C 170.39 686.03 176.15 681.45 181.91 676.90 C 196.07 665.86 211.31 658.56 226.81 649.78 C 229.73 647.46 231.85 644.15 234.59 641.60 C 246.17 629.78 260.41 623.37 274.71 615.69 C 278.58 613.78 279.66 610.39 282.26 607.27 C 286.05 602.67 290.68 598.73 295.94 595.93 C 305.63 590.78 315.92 587.97 326.64 585.92 C 329.97 573.70 338.04 565.05 347.48 557.10 C 341.55 545.72 336.28 534.00 330.44 522.58 C 324.93 511.88 318.82 501.54 312.92 491.06 C 305.86 477.95 299.79 464.32 294.68 450.33 C 287.44 429.87 281.96 407.80 281.73 386.00 C 280.56 349.10 289.59 313.63 297.78 277.87 C 301.48 262.27 305.09 246.57 309.65 231.19 C 306.18 226.99 303.44 222.39 301.82 217.17 C 296.54 201.16 298.42 184.48 304.12 168.87 C 299.71 166.11 295.26 163.11 291.47 159.53 C 285.51 153.87 281.25 146.54 279.53 138.49 C 277.40 128.39 278.48 117.53 281.79 107.80 C 285.18 97.39 291.43 87.82 298.67 79.69 C 300.04 78.49 301.93 75.72 303.99 76.85 C 304.97 84.46 301.89 91.19 305.25 98.74 C 307.76 103.57 313.98 107.56 319.50 105.51 C 324.67 104.11 328.35 98.56 331.60 94.59 C 338.24 85.13 344.70 76.17 353.53 68.55 C 366.50 57.49 384.17 52.06 401.04 51.85 C 397.69 43.78 396.48 35.04 398.56 26.47 C 399.82 21.71 401.15 17.30 404.92 13.88 Z" fill="#1a1f04" />
<path d="M 550.98 35.04 C 574.45 34.51 597.87 39.99 617.07 53.91 C 626.53 60.43 634.05 69.43 637.46 80.51 C 640.73 89.75 640.86 99.83 636.84 108.84 C 633.72 115.14 629.10 120.66 622.89 124.11 C 623.84 117.93 625.42 112.46 624.82 106.10 C 624.30 98.31 618.87 90.85 613.72 85.29 C 608.78 80.52 603.52 75.52 596.14 75.89 C 596.18 76.85 596.21 77.81 596.24 78.77 C 600.09 81.76 603.66 84.58 606.01 88.98 C 609.48 95.67 612.04 103.02 610.48 110.64 C 607.75 123.75 599.54 135.83 590.10 145.10 C 581.99 152.37 573.15 159.04 563.03 163.23 C 566.48 156.72 570.76 151.30 573.42 144.38 C 577.53 134.17 579.97 123.49 576.28 112.73 C 573.84 104.74 568.46 99.02 562.19 93.81 C 551.84 85.47 536.42 81.97 524.19 88.15 L 524.45 89.59 C 529.19 90.85 534.19 90.73 538.96 92.03 C 548.07 94.43 557.00 99.69 562.73 107.27 C 565.35 111.12 566.84 115.86 568.02 120.33 C 568.59 122.07 567.00 123.49 566.15 124.84 C 561.32 121.11 556.43 117.61 550.76 115.22 C 542.68 111.73 534.04 108.58 525.25 107.54 C 515.13 106.09 504.23 108.37 494.63 111.61 C 486.96 114.13 481.23 119.01 475.46 124.45 C 470.19 129.52 466.06 136.09 462.35 142.36 C 459.27 147.44 457.72 152.80 455.25 158.16 C 454.82 150.75 454.91 143.22 455.72 135.84 C 456.90 124.27 462.91 113.24 471.96 105.95 C 474.67 103.75 477.14 101.33 479.48 98.75 C 475.46 96.87 472.36 99.02 468.85 100.84 C 458.28 107.03 448.85 115.98 444.84 127.82 C 441.84 138.11 442.96 150.06 439.11 160.12 C 435.70 167.43 429.88 174.01 422.57 177.59 C 413.61 182.26 403.82 184.73 393.78 185.57 C 395.83 180.40 398.97 174.72 398.03 169.03 C 396.73 160.62 393.53 152.60 392.80 143.99 C 391.96 136.49 393.81 128.93 397.32 122.32 C 401.84 114.06 410.03 107.53 416.45 100.68 C 414.98 99.76 413.87 98.75 412.01 98.99 C 400.58 99.57 389.21 105.29 380.54 112.55 C 376.10 116.33 371.64 119.90 369.54 125.54 C 367.65 130.73 366.16 136.25 365.64 141.75 C 365.22 145.67 365.84 149.15 363.72 152.68 C 357.63 162.92 349.38 171.53 338.32 176.34 C 332.40 178.77 325.82 179.06 319.73 177.03 C 320.19 174.35 319.46 170.45 322.36 169.00 C 325.89 167.18 329.84 166.30 333.33 164.35 C 340.62 160.33 347.31 154.92 349.92 146.71 C 344.00 147.23 340.28 150.91 334.93 152.92 C 324.70 156.80 312.73 155.71 303.80 149.19 C 296.63 144.05 292.47 135.79 291.61 127.11 C 290.95 121.06 292.39 115.38 294.67 109.83 C 297.22 112.59 299.59 115.24 302.92 117.10 C 307.92 119.90 314.21 121.17 319.91 120.82 C 326.07 120.05 332.03 116.73 336.57 112.58 C 344.32 105.51 348.42 96.13 355.25 88.25 C 360.04 82.63 365.58 76.76 372.01 73.03 C 382.53 67.23 394.14 65.71 406.00 66.01 C 415.86 65.91 426.30 66.96 435.99 64.98 C 436.00 64.05 435.99 63.13 435.97 62.20 C 429.94 60.11 424.04 58.04 418.95 54.05 C 414.67 50.86 412.28 47.25 410.71 42.16 C 414.62 43.78 418.41 45.50 422.54 46.53 C 432.26 48.89 441.93 50.78 451.97 50.88 C 466.58 50.80 481.13 49.02 495.27 45.32 C 513.54 40.54 532.04 35.95 550.98 35.04 Z" fill="#93591c" />
<path d="M 655.08 95.06 C 658.74 94.75 662.51 95.14 666.10 95.86 C 679.74 98.86 692.66 103.61 703.83 112.17 C 713.59 119.27 721.18 129.24 727.77 139.24 C 736.00 152.08 739.76 166.16 746.49 179.50 C 750.85 188.05 756.84 195.67 764.48 201.52 C 767.76 203.95 771.55 205.85 775.12 207.82 C 764.51 210.68 754.30 208.81 744.12 205.41 C 743.60 206.84 742.20 208.71 742.85 210.22 C 744.59 215.17 747.45 219.71 749.47 224.56 C 752.49 231.07 753.99 238.00 754.88 245.09 C 756.62 258.60 754.95 272.92 748.38 285.01 C 747.93 272.49 743.84 258.93 734.92 249.80 C 732.14 253.74 734.17 259.38 734.14 264.00 C 735.43 277.75 732.70 291.28 726.61 303.62 C 725.51 306.06 723.37 306.18 721.16 307.14 C 718.69 298.97 717.44 290.59 715.61 282.29 C 714.78 278.51 713.53 276.06 710.86 273.25 C 709.13 277.81 708.92 282.49 708.38 287.27 C 707.41 297.53 705.32 308.38 700.63 317.63 C 696.95 324.25 692.96 330.71 685.53 333.49 C 685.64 329.05 686.14 324.66 686.46 320.23 C 687.00 314.05 685.19 307.47 683.35 301.61 C 682.86 299.69 681.61 298.73 680.13 297.56 C 677.87 306.90 677.92 316.47 674.72 325.71 C 671.68 335.53 663.43 343.15 655.19 348.82 C 656.38 343.25 657.42 337.68 657.96 332.00 C 658.92 322.29 659.84 311.96 658.72 302.24 C 657.17 291.34 651.82 280.49 649.25 269.75 C 647.72 263.16 646.50 256.81 647.19 250.01 C 647.77 244.82 648.26 239.66 648.16 234.42 C 656.90 235.29 665.39 236.06 674.07 234.16 C 682.40 232.55 692.01 229.90 696.30 221.83 C 689.86 220.47 683.95 220.89 677.81 218.20 C 670.94 215.54 666.32 210.84 660.92 206.08 C 653.64 199.63 649.09 189.75 644.73 181.28 C 643.55 179.03 642.52 178.33 640.13 177.52 C 639.90 182.37 639.77 187.06 641.19 191.77 C 644.58 203.05 652.06 212.54 661.44 219.53 C 663.80 221.20 666.09 222.94 668.21 224.93 C 665.42 224.94 662.71 224.87 660.07 223.88 C 650.08 220.13 640.83 217.74 632.85 210.16 C 624.07 201.40 617.58 190.04 615.12 177.85 C 612.31 165.32 611.57 150.91 616.83 138.90 C 617.84 136.81 618.45 133.71 621.05 133.13 C 625.12 131.82 629.21 130.40 633.37 129.38 C 635.45 128.65 637.72 130.53 639.43 131.55 C 645.57 135.91 651.38 141.06 655.87 147.13 C 659.17 151.44 660.49 156.12 664.96 159.50 C 667.56 154.12 664.65 147.59 662.52 142.50 C 658.13 134.05 651.15 126.59 643.05 121.58 C 645.70 117.94 648.20 114.20 650.29 110.20 C 662.17 114.36 674.46 119.69 684.25 127.76 C 689.33 131.76 692.41 137.70 698.10 140.30 C 697.98 136.45 697.22 133.03 695.36 129.65 C 691.40 121.69 684.55 116.55 677.52 111.47 C 672.61 107.96 667.12 105.47 661.39 103.65 C 658.93 102.80 656.16 102.14 653.97 100.72 C 653.87 98.75 654.21 96.85 655.08 95.06 Z" fill="#93591c" />
<path d="M 525.01 123.23 C 537.19 124.31 548.67 129.95 558.87 136.40 C 559.20 138.12 558.98 140.00 558.64 141.70 C 556.07 153.50 549.24 164.28 539.84 171.82 C 537.24 173.86 534.20 175.32 531.39 177.13 C 532.57 178.03 533.39 179.02 534.99 179.02 C 542.06 179.77 549.17 179.63 556.15 178.19 C 562.81 176.95 569.27 175.44 575.33 172.33 C 584.52 167.54 593.46 161.60 600.60 154.04 C 599.31 166.00 598.86 179.03 602.31 190.68 C 607.27 206.73 617.89 221.03 632.45 229.58 C 634.10 230.51 633.95 231.02 633.77 232.76 C 632.48 241.46 631.93 250.19 632.75 258.97 C 633.15 271.09 636.69 282.44 641.54 293.46 C 643.48 298.14 646.11 303.03 646.85 308.06 C 647.83 323.55 647.88 338.67 643.77 353.76 C 642.71 358.50 640.27 362.00 640.93 367.01 C 642.86 366.98 644.77 366.96 646.68 366.64 C 655.24 365.12 663.58 362.95 671.20 358.61 C 674.71 362.69 675.77 367.45 677.04 372.51 C 678.64 372.04 680.14 371.56 681.35 370.36 C 685.99 365.98 689.27 360.74 692.11 355.08 C 695.79 347.61 701.30 341.00 707.39 335.38 C 712.31 331.14 718.15 326.65 724.98 326.83 C 732.31 326.37 739.88 330.26 742.84 337.14 C 744.58 341.41 745.76 345.95 746.58 350.48 C 748.00 359.54 746.18 368.30 744.15 377.10 C 741.35 388.61 736.30 399.16 730.34 409.34 C 725.90 417.28 719.97 424.16 713.18 430.19 C 704.96 437.27 694.69 443.82 683.87 445.73 C 678.62 446.34 672.51 446.46 668.37 442.62 C 663.91 438.40 664.58 430.37 664.27 424.73 C 663.20 424.64 661.37 423.63 660.49 424.43 C 658.77 426.46 657.66 429.05 656.36 431.36 C 648.95 444.77 643.19 459.48 635.95 472.96 C 631.85 480.69 626.81 487.58 621.59 494.58 C 605.87 515.28 587.13 533.78 566.20 549.20 C 556.06 556.88 545.34 564.16 534.05 570.06 C 506.23 585.15 473.50 591.62 442.00 590.12 C 428.90 589.95 415.73 587.70 403.23 583.81 C 390.63 579.68 378.93 574.09 369.94 564.06 C 362.68 555.84 357.91 546.55 353.32 536.68 C 347.01 522.96 339.97 509.62 332.52 496.48 C 323.17 480.40 315.27 463.43 309.17 445.84 C 300.71 423.13 295.97 399.23 296.13 374.95 C 297.00 343.19 305.00 310.76 311.52 279.54 C 316.22 257.56 321.91 236.01 330.05 215.04 C 333.34 206.64 336.37 198.11 339.81 189.77 C 340.42 187.72 342.74 187.29 344.45 186.46 C 356.41 181.93 365.57 172.51 373.15 162.52 C 375.27 165.31 378.30 168.55 378.95 172.07 C 378.33 177.01 374.70 181.83 371.69 185.68 C 368.26 190.09 363.58 192.44 359.42 195.98 C 362.92 199.69 367.29 200.15 372.04 201.07 C 386.99 203.44 402.97 201.44 417.50 197.45 C 434.65 192.45 450.40 183.80 461.57 169.56 C 471.30 157.47 472.97 143.24 485.27 133.26 C 496.29 125.03 511.49 122.00 525.01 123.23 Z" fill="#ecd5ab" />
<path d="M 316.35 184.50 C 319.97 185.54 323.32 187.55 326.79 189.01 C 325.00 197.80 321.33 206.39 316.02 213.64 C 314.27 209.60 312.98 205.48 312.91 201.04 C 312.48 195.39 314.47 189.79 316.35 184.50 Z" fill="#93591c" />
<path d="M 380.86 222.13 C 386.20 222.97 392.09 225.15 394.78 230.20 C 397.18 234.47 396.49 241.33 391.83 243.82 C 387.69 246.16 382.55 244.11 377.97 244.19 C 366.97 244.50 356.18 246.99 346.65 252.64 C 342.49 255.11 339.06 258.23 335.40 261.34 C 333.64 262.51 332.52 264.50 330.31 262.92 C 330.30 258.48 331.94 254.71 333.77 250.76 C 338.51 241.27 345.90 233.24 355.43 228.44 C 363.03 224.66 372.28 221.31 380.86 222.13 Z" fill="#1a1f04" />
<path d="M 524.86 222.30 C 536.57 223.53 547.76 229.71 555.85 238.14 C 561.88 244.04 567.02 251.55 569.28 259.73 C 570.37 264.06 571.44 268.14 570.03 272.55 C 568.35 272.12 566.85 271.71 565.65 270.37 C 560.36 264.76 555.50 259.29 548.97 255.03 C 538.45 247.81 524.52 245.41 512.00 245.03 C 505.92 244.74 497.21 246.99 492.12 242.94 C 488.57 238.59 491.14 231.42 495.44 228.45 C 503.68 222.46 514.98 221.15 524.86 222.30 Z" fill="#1a1f04" />
<path d="M 426.00 264.95 C 428.11 265.03 428.05 268.47 427.99 269.97 C 427.42 277.63 426.25 285.27 424.85 292.82 C 421.68 309.97 414.92 326.72 407.41 342.40 C 403.74 350.15 398.61 356.70 393.53 363.53 C 391.61 366.22 389.26 370.30 390.20 373.70 C 392.27 378.25 395.63 382.33 399.13 385.86 C 406.22 392.95 416.03 396.67 425.99 396.77 C 430.83 396.80 435.58 395.93 440.42 395.88 C 440.02 397.48 440.34 398.84 438.70 399.73 C 430.41 404.90 419.65 406.54 410.04 405.95 C 399.96 404.89 390.50 399.70 383.20 392.80 C 377.61 387.63 373.52 380.70 371.68 373.32 C 370.75 369.38 372.07 365.63 374.58 362.58 C 380.20 355.49 386.71 349.38 391.78 341.78 C 401.86 326.74 408.54 309.88 415.09 293.09 C 417.93 285.20 420.75 277.29 423.34 269.31 C 423.91 267.66 424.70 266.14 426.00 264.95 Z" fill="#1a1f04" />
<path d="M 363.43 281.43 C 367.83 279.93 372.72 280.58 376.16 283.84 C 381.01 288.26 382.54 295.67 382.96 301.95 C 383.26 310.29 381.75 319.25 377.54 326.55 C 375.47 330.17 372.39 333.10 368.34 334.34 C 363.55 336.07 357.91 334.11 354.82 330.17 C 351.01 325.43 349.75 318.95 349.64 313.01 C 349.59 306.01 349.89 299.40 352.96 292.97 C 355.15 288.37 358.47 283.31 363.43 281.43 Z" fill="#1a1f04" />
<path d="M 511.40 285.38 C 516.14 284.11 521.46 285.56 524.66 289.34 C 527.63 292.80 529.07 297.70 529.76 302.12 C 530.79 311.04 529.29 320.39 525.53 328.54 C 523.41 332.90 520.58 337.15 515.84 338.90 C 511.19 340.82 505.44 339.74 502.17 335.83 C 498.20 331.39 496.77 324.82 496.65 319.03 C 496.42 310.44 497.47 301.44 501.88 293.90 C 504.15 290.11 506.94 286.59 511.40 285.38 Z" fill="#1a1f04" />
<path d="M 733.06 345.91 C 735.43 347.34 736.03 349.60 737.14 351.95 C 732.89 354.04 728.23 352.92 724.16 355.15 C 720.17 357.31 717.77 360.59 715.12 364.13 C 722.74 375.36 722.08 391.65 714.96 402.97 C 711.72 408.29 707.60 413.77 702.23 417.10 C 701.79 416.37 701.35 415.63 700.92 414.90 C 703.88 405.18 709.32 395.05 709.45 384.99 C 709.57 381.22 708.45 377.96 706.72 374.69 C 700.82 381.15 698.56 388.84 694.01 396.01 C 693.11 397.69 691.78 397.92 690.09 398.40 C 688.92 394.88 688.71 391.90 689.29 388.23 C 690.66 376.74 697.16 366.15 704.30 357.31 C 709.13 351.90 715.27 345.32 722.49 343.44 C 726.35 342.19 729.85 343.90 733.06 345.91 Z" fill="#1a1f04" />
<path d="M 518.75 396.20 C 527.31 398.60 535.21 403.22 541.38 409.62 C 546.73 414.77 550.52 421.29 551.31 428.76 C 551.65 432.77 552.43 436.36 550.06 439.94 C 547.69 436.99 545.62 433.65 542.99 431.02 C 540.96 429.01 538.47 427.57 536.04 426.10 C 528.80 439.27 518.64 450.68 506.45 459.45 C 494.11 468.12 481.08 475.66 466.91 480.94 C 453.51 486.23 439.62 489.34 425.15 488.63 C 413.22 487.66 401.03 484.42 390.65 478.36 C 377.56 470.89 367.71 458.53 362.43 444.50 C 361.89 443.05 361.27 441.97 359.91 441.14 C 356.28 438.77 352.55 436.61 349.14 433.93 C 346.70 436.37 344.28 438.46 342.51 441.48 C 341.06 443.94 339.82 446.49 338.06 448.76 C 333.86 444.34 332.70 438.81 332.03 432.95 C 331.58 426.86 332.40 420.32 336.59 415.57 C 340.38 411.41 345.26 407.82 351.13 407.79 C 351.30 412.04 349.62 415.80 349.17 419.92 C 348.89 422.08 352.06 423.46 353.56 424.46 C 375.97 436.84 400.80 439.95 426.00 440.76 C 444.35 440.62 462.58 438.31 480.52 434.48 C 494.13 431.50 506.88 426.87 519.84 421.85 C 522.47 420.81 525.04 419.65 527.58 418.40 C 522.27 411.99 516.08 406.56 509.46 401.55 C 507.00 399.35 503.94 398.09 505.10 394.16 C 509.90 393.75 514.18 394.95 518.75 396.20 Z" fill="#1a1f04" />
<path d="M 507.19 439.52 C 503.97 446.93 498.07 451.23 491.60 455.60 C 473.96 467.09 453.18 475.36 432.02 476.59 C 419.83 477.25 406.65 475.22 395.95 469.05 C 387.26 464.20 380.77 455.85 376.53 446.99 C 397.73 452.49 420.46 455.48 442.33 453.26 C 464.49 451.69 486.42 447.54 507.19 439.52 Z" fill="#fefde7" />
<path d="M 688.44 460.30 C 689.53 464.04 690.45 468.20 692.47 471.56 C 694.52 474.35 697.50 476.55 700.05 478.89 C 695.83 479.79 691.82 480.66 687.55 479.42 C 683.71 478.26 681.07 475.22 677.73 473.65 C 675.27 473.36 673.17 474.40 672.94 477.10 C 671.93 480.56 673.96 482.52 675.70 485.16 C 672.63 485.87 669.32 486.95 666.17 486.94 C 664.35 486.62 661.79 485.42 662.37 483.16 C 663.21 475.66 665.56 468.21 668.14 461.13 C 674.94 461.43 681.67 460.87 688.44 460.30 Z" fill="#93591c" />
<path d="M 646.71 480.93 C 644.26 489.88 641.89 498.72 641.40 508.04 C 640.80 513.40 641.64 519.61 639.56 524.52 C 635.58 534.23 628.46 540.07 621.04 547.05 C 606.02 560.19 589.05 571.63 572.06 582.06 C 551.61 594.37 530.05 605.51 507.53 613.53 C 490.85 619.19 473.14 624.11 455.51 625.33 C 444.03 626.72 432.52 625.89 421.20 623.73 C 419.40 623.39 418.64 622.89 417.67 621.35 C 414.34 615.86 411.80 609.83 409.89 603.71 C 420.17 605.75 430.50 607.18 440.96 607.94 C 448.59 608.16 456.38 608.07 464.02 607.96 C 500.98 605.89 537.02 592.74 566.81 570.81 C 576.31 564.13 585.19 556.61 593.34 548.34 C 609.06 533.28 623.36 516.55 635.42 498.42 C 639.57 492.80 643.15 486.92 646.71 480.93 Z" fill="#ecd5ab" />
<path d="M 392.15 499.00 C 395.19 499.03 398.25 500.99 401.18 501.80 C 413.60 505.71 426.94 507.84 439.95 506.77 C 445.91 505.95 451.70 504.42 457.73 504.06 C 457.92 505.05 458.11 506.05 458.30 507.04 C 454.40 509.99 451.33 513.09 447.15 515.17 C 436.66 520.55 423.89 521.43 412.57 518.44 C 403.83 515.98 396.23 510.32 391.08 502.89 C 390.10 501.13 389.78 499.61 392.15 499.00 Z" fill="#1a1f04" />
<path d="M 655.36 512.03 C 662.70 512.90 669.66 517.81 674.07 523.59 C 671.53 530.11 669.27 536.76 667.63 543.57 C 666.31 549.22 663.82 554.43 662.30 560.03 C 665.94 560.33 669.58 560.62 673.20 561.03 C 671.59 567.51 669.92 573.99 668.51 580.51 C 667.96 583.08 668.26 585.53 668.41 588.11 C 667.59 598.96 664.89 609.06 662.72 619.66 C 660.91 628.17 657.40 635.56 657.24 644.46 C 650.72 650.14 644.05 655.60 636.82 660.37 C 636.63 652.37 643.26 644.28 645.69 636.80 C 648.55 627.94 651.48 619.11 654.35 610.25 C 654.81 608.65 655.44 606.81 655.25 605.13 C 652.72 602.90 648.73 602.90 645.73 604.02 C 643.61 605.32 642.73 608.74 641.96 610.96 C 638.93 621.47 636.84 631.68 631.57 641.56 C 630.01 644.33 628.17 647.22 625.73 649.29 C 622.87 651.62 618.58 651.83 615.18 653.29 C 612.11 654.60 609.05 655.76 605.76 656.41 C 607.96 649.81 611.43 643.57 614.13 637.13 C 614.88 635.37 615.23 633.52 615.46 631.64 C 620.37 625.82 625.91 622.13 627.89 614.45 C 626.93 613.51 625.97 612.58 624.98 611.67 C 629.31 607.35 634.25 603.79 638.23 599.15 C 633.99 597.88 629.77 597.75 625.74 599.82 C 621.52 602.16 617.67 605.24 613.93 608.26 C 610.02 607.50 606.31 606.38 602.60 604.94 C 605.66 597.14 610.04 590.34 613.87 582.91 C 616.86 576.97 619.65 570.95 621.75 564.63 C 627.74 558.91 634.12 553.64 639.95 547.73 C 639.75 550.68 639.47 553.57 638.49 556.38 C 635.25 566.21 632.26 576.27 628.26 585.82 C 633.31 585.77 638.09 584.56 643.05 583.83 C 646.43 583.32 648.78 584.97 651.51 586.62 C 655.44 582.88 659.28 578.85 662.37 574.38 C 663.23 573.40 662.03 571.49 661.42 570.63 C 656.16 569.85 650.26 571.28 644.98 571.77 C 648.26 559.72 652.78 547.75 654.59 535.14 C 653.00 534.40 651.42 533.66 649.82 532.96 C 653.26 526.32 654.30 519.32 655.36 512.03 Z" fill="#297981" />
<path d="M 674.07 523.59 C 678.27 528.24 676.91 534.18 676.88 539.98 C 675.94 546.91 674.72 554.21 673.20 561.03 C 669.58 560.62 665.94 560.33 662.30 560.03 C 663.82 554.43 666.31 549.22 667.63 543.57 C 669.27 536.76 671.53 530.11 674.07 523.59 Z" fill="#a8b745" />
<path d="M 649.82 532.96 C 651.42 533.66 653.00 534.40 654.59 535.14 C 652.78 547.75 648.26 559.72 644.98 571.77 C 650.26 571.28 656.16 569.85 661.42 570.63 C 662.03 571.49 663.23 573.40 662.37 574.38 C 659.28 578.85 655.44 582.88 651.51 586.62 C 648.78 584.97 646.43 583.32 643.05 583.83 C 638.09 584.56 633.31 585.77 628.26 585.82 C 632.26 576.27 635.25 566.21 638.49 556.38 C 639.47 553.57 639.75 550.68 639.95 547.73 C 642.91 542.54 647.16 538.37 649.82 532.96 Z" fill="#a8b745" />
<path d="M 691.25 553.66 C 695.48 555.66 698.28 558.39 700.51 562.49 C 696.28 561.40 692.27 560.77 687.93 561.60 C 689.06 558.96 690.11 556.30 691.25 553.66 Z" fill="#a8b745" />
<path d="M 700.51 562.49 C 703.21 568.45 703.76 574.82 703.43 581.28 C 700.80 581.59 698.09 581.84 695.54 582.59 C 692.23 588.28 691.03 595.42 688.50 601.53 C 686.84 605.47 685.98 608.91 686.73 613.22 C 682.52 618.91 678.19 624.28 673.12 629.25 C 673.64 618.78 675.05 608.33 676.85 598.01 C 677.30 595.90 677.70 593.08 679.24 591.46 C 681.35 589.50 684.43 588.54 686.50 586.50 C 686.83 584.23 686.59 581.82 686.53 579.53 C 683.64 579.29 680.75 579.03 677.86 578.90 C 681.63 573.39 685.47 567.79 687.93 561.60 C 692.27 560.77 696.28 561.40 700.51 562.49 Z" fill="#297981" />
<path d="M 621.75 564.63 C 619.65 570.95 616.86 576.97 613.87 582.91 C 610.04 590.34 605.66 597.14 602.60 604.94 C 606.31 606.38 610.02 607.50 613.93 608.26 C 617.67 605.24 621.52 602.16 625.74 599.82 C 629.77 597.75 633.99 597.88 638.23 599.15 C 634.25 603.79 629.31 607.35 624.98 611.67 C 621.14 614.74 617.13 617.46 612.98 620.08 C 604.13 619.49 595.86 616.35 587.04 615.48 C 587.68 608.36 591.95 604.04 594.84 597.81 C 597.56 592.16 600.44 586.34 601.25 580.09 C 608.02 574.85 614.97 569.86 621.75 564.63 Z" fill="#a8b745" />
<path d="M 354.69 569.22 C 361.95 576.57 368.29 584.21 377.24 589.73 C 378.73 596.11 382.89 600.14 387.24 604.68 C 388.54 604.04 389.83 603.41 391.13 602.78 C 392.77 607.98 394.92 613.04 396.84 618.14 C 387.00 616.28 377.38 610.67 368.75 605.72 C 366.66 603.87 365.16 601.67 363.31 599.63 C 361.65 597.81 359.24 596.54 357.09 595.40 C 355.97 598.45 356.39 601.17 357.12 604.24 C 357.72 603.95 358.32 603.66 358.91 603.37 C 360.43 605.66 362.38 607.24 364.57 608.85 C 372.23 616.34 380.23 623.20 390.02 627.79 C 386.84 630.02 383.85 632.35 381.56 635.52 C 379.73 638.11 377.76 640.40 375.22 642.33 C 371.88 637.52 369.63 632.94 367.81 627.39 C 369.30 625.59 371.60 623.66 371.80 621.20 C 369.58 618.21 365.62 616.74 363.05 613.96 C 360.34 611.26 357.99 607.64 353.95 606.94 C 352.52 606.66 351.35 607.59 350.86 608.90 C 349.67 611.53 349.15 614.86 349.52 617.73 C 350.36 621.77 355.82 623.18 357.12 626.94 C 358.68 630.52 359.91 634.34 361.15 638.05 C 358.56 635.87 356.17 633.58 354.13 630.87 C 351.46 627.33 348.03 623.87 346.15 619.88 C 341.96 610.57 339.73 600.67 341.52 590.46 C 344.03 589.80 346.48 589.27 349.09 589.63 C 354.69 590.29 360.25 591.26 365.86 591.91 C 364.71 587.76 363.32 583.82 360.20 580.68 C 358.65 579.29 355.88 579.72 353.96 579.77 C 350.87 580.05 347.89 579.86 344.84 579.41 C 346.91 574.90 350.40 571.60 354.69 569.22 Z" fill="#297981" />
<path d="M 344.84 579.41 C 347.89 579.86 350.87 580.05 353.96 579.77 C 355.88 579.72 358.65 579.29 360.20 580.68 C 363.32 583.82 364.71 587.76 365.86 591.91 C 360.25 591.26 354.69 590.29 349.09 589.63 C 346.48 589.27 344.03 589.80 341.52 590.46 C 342.26 586.72 343.18 582.86 344.84 579.41 Z" fill="#a8b745" />
<path d="M 677.86 578.90 C 680.75 579.03 683.64 579.29 686.53 579.53 C 686.59 581.82 686.83 584.23 686.50 586.50 C 684.43 588.54 681.35 589.50 679.24 591.46 C 677.70 593.08 677.30 595.90 676.85 598.01 C 675.05 608.33 673.64 618.78 673.12 629.25 C 668.24 634.74 663.00 639.88 657.24 644.46 C 657.40 635.56 660.91 628.17 662.72 619.66 C 664.89 609.06 667.59 598.96 668.41 588.11 C 672.25 585.72 675.07 582.39 677.86 578.90 Z" fill="#a8b745" />
<path d="M 601.25 580.09 C 600.44 586.34 597.56 592.16 594.84 597.81 C 591.95 604.04 587.68 608.36 587.04 615.48 C 595.86 616.35 604.13 619.49 612.98 620.08 C 605.95 624.51 599.23 629.42 592.15 633.79 C 588.91 633.25 585.53 632.36 582.23 632.47 C 580.20 633.09 578.36 634.48 576.55 635.56 C 571.91 638.62 566.55 640.70 561.27 642.36 C 557.39 643.61 553.65 643.21 549.66 642.92 C 557.25 634.71 562.77 625.23 569.03 616.05 C 573.86 608.80 578.65 602.33 580.89 593.72 C 587.63 589.11 594.63 584.87 601.25 580.09 Z" fill="#297981" />
<path d="M 703.43 581.28 C 702.03 593.54 694.98 604.36 686.73 613.22 C 685.98 608.91 686.84 605.47 688.50 601.53 C 691.03 595.42 692.23 588.28 695.54 582.59 C 698.09 581.84 700.80 581.59 703.43 581.28 Z" fill="#a8b745" />
<path d="M 377.24 589.73 C 381.00 592.04 385.30 593.54 388.91 596.05 C 390.11 598.01 390.40 600.61 391.13 602.78 C 389.83 603.41 388.54 604.04 387.24 604.68 C 382.89 600.14 378.73 596.11 377.24 589.73 Z" fill="#a8b745" />
<path d="M 810.31 593.54 C 827.14 596.46 844.52 600.75 859.76 608.66 C 851.53 618.64 843.30 628.42 836.53 639.49 C 835.47 640.98 834.44 643.12 832.85 644.08 C 831.24 644.15 829.52 643.36 828.00 642.87 C 822.30 640.68 816.36 640.18 810.21 638.69 C 801.62 636.65 792.98 635.03 784.27 633.66 C 780.30 633.18 778.03 630.60 774.97 628.41 C 776.80 621.56 779.52 614.93 782.53 608.52 C 784.41 604.83 786.35 600.26 789.80 597.80 C 795.74 593.60 803.19 592.17 810.31 593.54 Z" fill="#574e2f" />
<path d="M 580.89 593.72 C 578.65 602.33 573.86 608.80 569.03 616.05 C 562.77 625.23 557.25 634.71 549.66 642.92 C 553.65 643.21 557.39 643.61 561.27 642.36 C 566.55 640.70 571.91 638.62 576.55 635.56 C 578.36 634.48 580.20 633.09 582.23 632.47 C 585.53 632.36 588.91 633.25 592.15 633.79 C 579.34 641.98 566.06 649.02 552.16 655.17 C 544.64 654.92 537.45 653.38 530.03 652.35 C 532.17 648.11 535.58 645.04 538.16 641.12 C 540.55 637.56 543.22 634.24 545.92 630.91 C 550.90 624.74 554.57 618.07 558.85 611.43 C 556.43 610.99 554.02 610.50 551.60 610.07 C 561.49 604.88 571.22 599.33 580.89 593.72 Z" fill="#a8b745" />
<path d="M 357.09 595.40 C 359.24 596.54 361.65 597.81 363.31 599.63 C 365.16 601.67 366.66 603.87 368.75 605.72 C 367.33 606.74 365.94 607.78 364.57 608.85 C 362.38 607.24 360.43 605.66 358.91 603.37 C 358.32 603.66 357.72 603.95 357.12 604.24 C 356.39 601.17 355.97 598.45 357.09 595.40 Z" fill="#a8b745" />
<path d="M 325.70 597.59 C 326.59 605.84 328.91 613.95 330.64 622.06 C 324.17 628.62 318.68 635.79 316.34 644.87 C 314.23 642.66 312.19 640.33 309.89 638.32 C 308.17 636.81 305.49 636.24 303.35 635.62 C 296.20 633.83 289.06 632.01 281.88 630.35 C 283.55 628.21 285.25 626.11 287.21 624.22 C 292.47 619.09 297.23 613.53 302.03 607.98 C 307.52 601.45 317.72 599.51 325.70 597.59 Z" fill="#574e2f" />
<path d="M 714.31 601.20 C 718.25 602.26 721.89 604.76 725.60 606.46 C 732.49 609.95 739.72 612.09 747.05 614.44 C 740.36 625.55 733.01 636.32 726.71 647.69 C 724.16 652.44 721.51 657.13 718.83 661.80 C 716.12 666.47 714.87 671.07 710.70 674.72 C 701.98 682.65 691.69 689.32 682.00 696.02 C 657.58 712.56 631.17 724.99 603.81 735.80 C 589.33 741.10 574.56 745.40 559.80 749.80 C 550.10 753.06 540.14 755.11 530.13 757.14 C 524.07 758.51 518.00 759.67 511.79 760.07 C 512.13 756.53 512.63 753.02 513.54 749.58 C 515.12 743.53 515.74 737.31 517.14 731.21 C 535.22 726.85 552.96 721.33 570.09 714.07 C 579.95 709.64 589.94 705.66 599.41 700.41 C 611.85 693.56 624.19 686.56 636.50 679.47 C 657.47 665.86 676.64 649.98 693.26 631.26 C 699.08 625.01 705.01 618.65 709.05 611.05 C 710.84 607.81 712.25 604.27 714.31 601.20 Z" fill="#237630" />
<path d="M 655.25 605.13 C 655.44 606.81 654.81 608.65 654.35 610.25 C 651.48 619.11 648.55 627.94 645.69 636.80 C 643.26 644.28 636.63 652.37 636.82 660.37 C 632.67 663.63 628.42 666.69 623.91 669.43 C 623.88 667.28 623.90 665.13 623.91 662.98 C 617.82 665.08 611.84 667.47 605.71 669.44 C 602.61 670.61 598.44 671.65 596.60 674.63 C 594.15 678.41 592.60 682.72 592.72 687.26 C 585.08 691.21 577.28 695.03 569.26 698.15 C 577.02 686.38 584.70 674.19 590.31 661.23 C 592.18 657.33 590.75 654.11 590.08 650.13 C 594.01 647.84 597.65 645.02 601.39 642.40 C 606.20 639.04 611.15 635.62 615.46 631.64 C 615.23 633.52 614.88 635.37 614.13 637.13 C 611.43 643.57 607.96 649.81 605.76 656.41 C 609.05 655.76 612.11 654.60 615.18 653.29 C 618.58 651.83 622.87 651.62 625.73 649.29 C 628.17 647.22 630.01 644.33 631.57 641.56 C 636.84 631.68 638.93 621.47 641.96 610.96 C 642.73 608.74 643.61 605.32 645.73 604.02 C 648.73 602.90 652.72 602.90 655.25 605.13 Z" fill="#a8b745" />
<path d="M 353.95 606.94 C 357.99 607.64 360.34 611.26 363.05 613.96 C 365.62 616.74 369.58 618.21 371.80 621.20 C 371.60 623.66 369.30 625.59 367.81 627.39 C 369.63 632.94 371.88 637.52 375.22 642.33 C 377.76 640.40 379.73 638.11 381.56 635.52 C 383.85 632.35 386.84 630.02 390.02 627.79 C 394.32 629.79 398.73 631.69 403.16 633.41 C 399.19 639.76 392.22 641.07 387.56 646.56 C 384.47 650.05 381.23 653.38 378.09 656.81 C 377.42 656.66 376.76 656.50 376.09 656.35 C 375.56 653.50 374.88 652.19 372.71 650.30 C 368.34 646.55 364.57 642.69 361.15 638.05 C 359.91 634.34 358.68 630.52 357.12 626.94 C 355.82 623.18 350.36 621.77 349.52 617.73 C 349.15 614.86 349.67 611.53 350.86 608.90 C 351.35 607.59 352.52 606.66 353.95 606.94 Z" fill="#a8b745" />
<path d="M 551.60 610.07 C 554.02 610.50 556.43 610.99 558.85 611.43 C 554.57 618.07 550.90 624.74 545.92 630.91 C 543.22 634.24 540.55 637.56 538.16 641.12 C 535.58 645.04 532.17 648.11 530.03 652.35 C 537.45 653.38 544.64 654.92 552.16 655.17 C 539.06 661.28 525.13 665.74 511.06 669.02 C 503.96 670.66 496.82 671.94 489.51 672.14 C 491.70 667.57 494.85 663.91 497.96 659.98 C 504.53 651.51 512.19 644.08 518.19 635.22 C 522.13 629.88 524.67 624.17 529.98 619.91 C 537.35 616.96 544.29 613.15 551.60 610.07 Z" fill="#297981" />
<path d="M 624.98 611.67 C 625.97 612.58 626.93 613.51 627.89 614.45 C 625.91 622.13 620.37 625.82 615.46 631.64 C 611.15 635.62 606.20 639.04 601.39 642.40 C 597.65 645.02 594.01 647.84 590.08 650.13 C 583.43 653.80 576.80 657.50 570.08 661.03 C 562.12 664.99 554.24 669.01 545.93 672.19 C 537.55 675.72 528.79 678.35 520.08 680.89 C 509.30 683.36 498.37 683.41 487.40 682.52 C 481.45 681.78 475.92 680.01 470.19 678.36 C 469.85 677.53 469.52 676.70 469.19 675.87 C 475.09 672.70 482.96 673.26 489.51 672.14 C 496.82 671.94 503.96 670.66 511.06 669.02 C 525.13 665.74 539.06 661.28 552.16 655.17 C 566.06 649.02 579.34 641.98 592.15 633.79 C 599.23 629.42 605.95 624.51 612.98 620.08 C 617.13 617.46 621.14 614.74 624.98 611.67 Z" fill="#1a1f04" />
<path d="M 529.98 619.91 C 524.67 624.17 522.13 629.88 518.19 635.22 C 512.19 644.08 504.53 651.51 497.96 659.98 C 494.85 663.91 491.70 667.57 489.51 672.14 C 482.96 673.26 475.09 672.70 469.19 675.87 C 469.52 676.70 469.85 677.53 470.19 678.36 C 468.83 679.57 467.45 680.96 465.84 681.84 C 460.62 680.99 455.70 677.26 450.89 675.11 C 445.33 672.63 440.17 669.88 435.09 666.52 C 437.91 662.66 442.54 657.45 447.87 658.26 C 450.40 658.24 451.57 659.84 453.30 661.33 C 455.50 663.49 459.31 663.92 462.16 665.03 C 464.98 665.88 467.91 667.68 470.86 667.83 C 474.89 667.26 478.80 665.61 481.25 662.21 C 486.50 655.28 492.86 650.49 497.14 642.88 C 491.55 644.53 485.81 646.86 480.07 647.82 C 475.80 648.41 471.48 648.61 467.20 649.11 C 463.79 649.50 460.17 649.19 456.97 647.92 C 455.61 647.32 454.15 646.58 453.69 645.05 C 454.67 643.24 456.07 641.64 457.25 639.96 C 464.14 639.01 471.05 638.25 477.96 637.48 C 483.45 636.93 488.55 634.48 493.99 633.16 C 506.12 629.18 518.28 625.06 529.98 619.91 Z" fill="#a8b745" />
<path d="M 760.58 620.65 C 757.78 628.38 754.03 635.68 751.33 643.47 C 749.96 647.09 747.14 646.79 743.87 647.22 C 746.64 641.00 750.52 635.84 754.16 630.14 C 756.22 626.91 758.31 623.72 760.58 620.65 Z" fill="#574e2f" />
<path d="M 867.08 621.00 C 865.76 627.14 862.26 632.78 859.82 638.67 C 855.93 646.24 851.57 653.47 848.38 661.42 C 846.29 666.71 843.39 671.60 841.31 676.90 C 841.35 674.01 841.54 670.96 840.99 668.12 C 840.27 665.26 838.27 662.54 836.57 660.16 C 840.51 654.59 844.91 649.38 848.84 643.80 C 853.20 637.79 857.07 630.73 861.94 624.80 C 863.31 623.05 865.14 622.00 867.08 621.00 Z" fill="#574e2f" />
<path d="M 341.00 633.00 C 345.42 638.47 350.24 643.54 355.81 647.85 C 353.51 659.18 359.59 668.11 358.30 679.48 C 354.62 675.44 351.17 671.36 348.31 666.68 C 342.18 657.07 340.75 644.16 341.00 633.00 Z" fill="#a8b745" />
<path d="M 403.16 633.41 C 408.48 634.99 413.82 636.47 419.24 637.70 C 418.55 637.93 417.86 638.16 417.17 638.39 C 419.25 639.25 421.35 640.07 423.44 640.89 C 412.66 649.74 399.29 657.25 389.44 667.54 C 397.80 673.67 406.77 677.93 416.56 681.26 C 415.10 683.58 413.72 685.82 411.71 687.72 C 408.01 691.40 403.27 693.59 399.64 697.35 C 394.16 695.13 389.62 691.29 386.36 686.39 C 384.71 683.86 383.62 680.66 381.52 678.51 C 378.37 675.75 374.09 674.02 370.41 672.03 C 372.48 680.44 376.14 688.19 378.84 696.36 C 371.27 691.63 364.27 686.15 358.30 679.48 C 359.59 668.11 353.51 659.18 355.81 647.85 C 361.95 652.00 368.74 655.12 376.09 656.35 C 376.76 656.50 377.42 656.66 378.09 656.81 C 381.23 653.38 384.47 650.05 387.56 646.56 C 392.22 641.07 399.19 639.76 403.16 633.41 Z" fill="#297981" />
<path d="M 879.09 635.79 C 884.11 637.83 888.86 640.80 893.68 643.32 C 906.07 650.00 917.76 657.75 928.52 666.82 C 923.62 669.96 918.81 672.57 914.35 676.35 C 909.89 680.15 905.22 684.00 901.27 688.28 C 892.03 698.13 884.22 709.60 876.94 720.95 C 872.01 728.53 868.13 736.72 863.88 744.89 C 859.56 753.13 856.13 761.91 852.50 770.49 C 850.10 776.22 848.22 782.09 845.21 787.55 C 839.29 783.63 833.03 780.91 827.89 775.88 C 828.74 772.14 829.56 768.41 830.66 764.73 C 834.68 750.84 838.25 736.74 843.08 723.10 C 850.46 700.07 859.48 677.53 869.61 655.58 C 872.69 648.99 875.40 642.06 879.09 635.79 Z" fill="#237630" />
<path d="M 909.96 635.86 C 921.62 639.39 932.78 645.08 943.81 650.20 C 949.23 652.68 954.51 655.37 959.68 658.32 C 966.03 661.97 972.42 665.29 978.34 669.65 C 983.48 673.50 989.01 676.48 993.62 681.02 C 988.00 685.02 986.33 690.68 981.85 696.05 C 979.06 692.53 976.24 689.07 973.13 685.83 C 971.84 684.53 971.14 683.19 970.60 681.47 C 968.00 679.72 965.60 677.84 963.49 675.51 C 956.94 668.61 949.50 662.86 942.05 656.98 C 936.23 652.72 930.11 648.87 924.10 644.89 C 919.38 641.69 914.39 639.46 909.96 635.86 Z" fill="#574e2f" />
<path d="M 419.24 637.70 C 425.56 638.58 431.94 639.77 438.32 640.08 C 435.87 643.76 433.72 647.39 430.18 650.17 C 422.88 656.08 414.58 660.31 407.78 666.92 C 413.93 669.29 420.04 671.71 426.33 673.69 C 429.13 674.54 431.49 676.10 433.84 677.77 C 429.86 681.60 426.80 686.11 423.24 690.29 C 417.41 696.54 413.34 703.89 406.70 709.43 C 396.86 706.18 387.37 702.38 378.84 696.36 C 376.14 688.19 372.48 680.44 370.41 672.03 C 374.09 674.02 378.37 675.75 381.52 678.51 C 383.62 680.66 384.71 683.86 386.36 686.39 C 389.62 691.29 394.16 695.13 399.64 697.35 C 403.27 693.59 408.01 691.40 411.71 687.72 C 413.72 685.82 415.10 683.58 416.56 681.26 C 406.77 677.93 397.80 673.67 389.44 667.54 C 399.29 657.25 412.66 649.74 423.44 640.89 C 421.35 640.07 419.25 639.25 417.17 638.39 C 417.86 638.16 418.55 637.93 419.24 637.70 Z" fill="#a8b745" />
<path d="M 438.32 640.08 C 444.63 639.84 450.95 640.24 457.25 639.96 C 456.07 641.64 454.67 643.24 453.69 645.05 C 454.15 646.58 455.61 647.32 456.97 647.92 C 460.17 649.19 463.79 649.50 467.20 649.11 C 471.48 648.61 475.80 648.41 480.07 647.82 C 485.81 646.86 491.55 644.53 497.14 642.88 C 492.86 650.49 486.50 655.28 481.25 662.21 C 478.80 665.61 474.89 667.26 470.86 667.83 C 467.91 667.68 464.98 665.88 462.16 665.03 C 459.31 663.92 455.50 663.49 453.30 661.33 C 451.57 659.84 450.40 658.24 447.87 658.26 C 442.54 657.45 437.91 662.66 435.09 666.52 C 440.17 669.88 445.33 672.63 450.89 675.11 C 455.70 677.26 460.62 680.99 465.84 681.84 C 467.45 680.96 468.83 679.57 470.19 678.36 C 475.92 680.01 481.45 681.78 487.40 682.52 L 486.21 683.67 C 489.72 684.90 493.24 686.08 496.75 687.27 C 494.01 690.75 491.67 695.38 488.03 697.94 C 485.65 699.55 483.42 698.75 480.83 698.30 C 475.16 697.03 469.42 696.78 463.81 695.16 C 458.90 693.93 453.83 691.75 448.79 691.36 C 446.96 691.15 445.79 692.39 444.52 693.50 C 438.11 700.08 434.55 707.66 429.81 715.32 C 421.96 713.87 414.24 712.06 406.70 709.43 C 413.34 703.89 417.41 696.54 423.24 690.29 C 426.80 686.11 429.86 681.60 433.84 677.77 C 431.49 676.10 429.13 674.54 426.33 673.69 C 420.04 671.71 413.93 669.29 407.78 666.92 C 414.58 660.31 422.88 656.08 430.18 650.17 C 433.72 647.39 435.87 643.76 438.32 640.08 Z" fill="#297981" />
<path d="M 266.82 642.53 C 276.10 642.26 285.78 644.36 294.85 646.23 C 291.48 652.26 288.45 657.96 288.62 665.11 C 280.28 664.48 272.31 662.46 264.18 660.68 C 263.83 657.22 263.07 653.60 263.40 650.13 C 263.95 647.45 265.30 644.78 266.82 642.53 Z" fill="#f5edd8" />
<path d="M 777.91 647.08 C 790.70 648.83 804.45 650.66 816.49 655.52 C 813.88 658.30 811.09 660.96 809.41 664.45 C 808.09 667.41 807.53 670.87 806.83 674.03 C 796.15 672.99 785.60 671.16 775.12 668.88 C 773.21 668.39 770.97 667.85 769.40 666.61 C 767.42 661.01 769.05 654.31 772.76 649.79 C 774.17 648.30 775.64 646.61 777.91 647.08 Z" fill="#f5edd8" />
<path d="M 324.86 648.46 C 326.52 653.60 327.36 659.02 328.52 664.29 C 328.98 666.07 327.95 667.11 327.21 668.62 C 325.45 663.66 324.35 658.45 323.40 653.28 C 322.95 651.34 323.84 650.03 324.86 648.46 Z" fill="#574e2f" />
<path d="M 590.08 650.13 C 590.75 654.11 592.18 657.33 590.31 661.23 C 584.70 674.19 577.02 686.38 569.26 698.15 C 568.63 698.38 567.99 698.61 567.35 698.83 C 563.29 698.34 558.94 697.50 554.85 697.94 C 551.10 698.85 547.59 700.53 543.78 701.29 C 545.22 697.96 546.93 695.03 549.14 692.15 C 552.96 687.08 555.97 681.60 559.11 676.11 C 562.26 670.58 566.26 666.16 570.08 661.03 C 576.80 657.50 583.43 653.80 590.08 650.13 Z" fill="#297981" />
<path d="M 250.33 650.77 C 250.05 652.46 250.26 654.78 249.13 656.15 C 246.25 660.08 242.98 663.31 240.74 667.74 C 237.98 673.45 236.06 679.28 237.34 685.69 C 238.03 689.36 240.09 691.94 242.11 694.96 C 239.96 697.01 237.88 699.11 235.85 701.27 C 232.61 698.81 229.12 696.11 228.24 691.90 C 227.50 687.15 227.85 682.17 228.56 677.44 C 229.50 671.63 232.29 667.10 235.05 662.03 C 236.55 659.42 238.12 656.40 240.36 654.36 C 243.12 652.04 246.92 651.46 250.33 650.77 Z" fill="#f5edd8" />
<path d="M 311.79 656.21 C 314.36 658.89 314.22 662.56 314.07 666.02 C 313.21 673.95 310.77 681.66 306.33 688.32 C 296.89 702.99 281.84 712.93 265.03 717.16 C 265.62 714.89 266.08 712.37 267.20 710.28 C 272.86 704.69 280.10 702.13 286.05 697.08 C 295.20 689.56 302.27 679.20 302.39 666.99 C 302.91 662.18 299.50 659.05 301.10 654.27 C 304.74 652.40 308.90 653.56 311.79 656.21 Z" fill="#f5edd8" />
<path d="M 756.11 658.32 C 755.89 660.54 755.69 662.40 754.13 664.13 C 748.70 670.40 747.13 679.00 745.90 686.97 C 744.84 694.04 745.66 700.44 748.70 706.90 C 747.35 708.50 746.06 710.16 744.64 711.70 C 737.67 710.52 732.37 702.93 732.51 696.04 C 732.35 686.65 734.24 677.00 738.67 668.66 C 740.75 664.70 742.72 661.03 746.94 658.98 C 749.77 657.29 752.99 658.14 756.11 658.32 Z" fill="#f5edd8" />
<path d="M 570.08 661.03 C 566.26 666.16 562.26 670.58 559.11 676.11 C 555.97 681.60 552.96 687.08 549.14 692.15 C 546.93 695.03 545.22 697.96 543.78 701.29 C 547.59 700.53 551.10 698.85 554.85 697.94 C 558.94 697.50 563.29 698.34 567.35 698.83 C 551.42 705.87 534.74 711.00 517.67 714.40 C 518.58 712.77 519.58 711.25 520.86 709.88 C 528.08 702.38 533.93 693.46 540.21 685.17 C 543.25 681.29 544.53 676.83 545.93 672.19 C 554.24 669.01 562.12 664.99 570.08 661.03 Z" fill="#a8b745" />
<path d="M 623.91 662.98 C 623.90 665.13 623.88 667.28 623.91 669.43 C 613.83 675.85 603.50 682.09 592.72 687.26 C 592.60 682.72 594.15 678.41 596.60 674.63 C 598.44 671.65 602.61 670.61 605.71 669.44 C 611.84 667.47 617.82 665.08 623.91 662.98 Z" fill="#297981" />
<path d="M 830.13 671.88 C 833.38 676.83 833.58 683.58 832.16 689.18 C 830.15 697.26 826.81 705.18 821.98 711.99 C 816.85 719.03 809.00 724.74 800.01 725.00 C 793.58 725.35 788.02 722.57 782.05 720.70 C 783.38 718.94 784.40 716.29 786.20 715.07 C 792.39 714.38 799.99 716.74 805.48 713.49 C 810.88 710.79 813.05 704.15 814.94 698.86 C 816.60 693.42 819.47 687.66 819.80 682.02 C 819.78 677.70 817.79 673.70 818.04 669.28 C 822.27 667.76 827.14 668.33 830.13 671.88 Z" fill="#f5edd8" />
<path d="M 254.28 671.48 C 257.45 672.16 260.45 673.55 263.58 674.39 C 270.86 676.39 278.78 677.27 286.24 678.38 C 283.66 683.54 279.83 687.74 275.66 691.66 C 273.94 693.16 271.99 694.75 269.83 695.54 C 267.03 694.65 264.59 692.67 261.77 691.78 C 258.90 691.02 255.77 691.25 252.92 690.45 C 249.39 687.45 249.42 682.76 250.59 678.60 C 251.31 676.33 252.08 672.74 254.28 671.48 Z" fill="#574e2f" />
<path d="M 215.10 671.89 C 214.25 675.91 213.05 679.76 211.54 683.57 C 206.99 696.10 201.18 708.07 196.59 720.59 C 190.29 735.09 185.93 750.18 181.32 765.27 C 180.36 768.58 179.62 772.11 178.23 775.26 C 177.20 777.66 175.00 779.34 173.11 781.06 C 173.36 775.27 173.89 769.50 174.76 763.77 C 176.00 755.68 176.04 747.49 177.48 739.42 C 177.87 735.42 179.34 732.02 177.26 728.31 C 169.04 736.84 168.55 750.54 165.61 761.54 C 156.30 765.91 149.99 772.77 142.27 779.26 C 138.46 782.46 134.75 785.74 131.16 789.18 C 119.71 799.82 107.92 810.00 98.58 822.58 C 90.75 832.31 81.99 841.33 73.57 850.56 C 67.97 856.23 62.59 862.38 56.24 867.21 C 63.19 852.49 71.97 839.09 80.00 824.99 C 85.03 816.42 90.23 807.97 95.60 799.62 C 101.18 790.30 107.56 781.54 113.36 772.35 C 123.29 756.99 134.70 742.54 146.87 728.89 C 153.29 722.20 159.11 715.21 166.10 709.11 C 176.91 699.12 188.41 689.91 200.47 681.46 C 205.24 678.04 209.79 674.46 215.10 671.89 Z" fill="#237630" />
<path d="M 545.93 672.19 C 544.53 676.83 543.25 681.29 540.21 685.17 C 533.93 693.46 528.08 702.38 520.86 709.88 C 519.58 711.25 518.58 712.77 517.67 714.40 C 507.78 716.54 497.67 717.76 487.62 718.77 C 489.85 711.09 495.00 705.96 500.66 700.66 C 507.00 693.97 514.30 688.07 520.08 680.89 C 528.79 678.35 537.55 675.72 545.93 672.19 Z" fill="#297981" />
<path d="M 338.78 677.08 C 342.35 683.23 345.58 689.23 350.88 694.14 C 370.27 712.90 396.79 724.18 422.76 730.28 C 422.97 738.96 424.21 747.51 424.94 756.14 C 419.37 755.03 414.07 753.14 408.73 751.24 C 394.68 746.22 379.44 740.55 367.35 731.66 C 354.78 723.56 344.00 712.30 336.90 699.11 C 335.58 696.59 333.86 693.86 333.41 691.03 C 334.69 686.25 337.08 681.73 338.78 677.08 Z" fill="#237630" />
<path d="M 946.11 679.89 C 952.20 683.12 957.34 689.07 961.70 694.32 C 966.62 700.07 970.83 706.61 975.12 712.88 C 985.24 728.75 994.33 745.10 1001.52 762.51 C 1006.53 772.98 1010.39 783.87 1014.23 794.81 C 1017.70 804.74 1020.13 815.03 1024.00 824.80 L 1024.00 1024.00 L 1001.04 1024.00 C 998.88 1017.61 996.34 1011.42 993.85 1005.17 C 988.52 990.63 982.52 976.37 977.14 961.85 C 971.07 947.01 965.93 931.85 960.15 916.91 C 954.63 902.13 949.82 887.12 944.89 872.14 C 940.26 855.66 934.48 839.54 926.79 824.22 C 921.65 812.92 914.48 802.94 906.50 793.50 C 896.64 781.35 884.05 771.75 870.03 764.87 C 873.81 756.90 878.25 749.31 882.71 741.72 C 890.02 728.44 899.70 716.00 909.19 704.20 C 911.81 700.81 914.59 697.61 918.06 695.05 C 924.80 690.01 931.81 685.24 939.18 681.14 C 941.28 680.16 943.81 678.53 946.11 679.89 Z" fill="#237630" />
<path d="M 760.23 680.14 C 764.35 680.90 768.29 682.67 772.34 683.78 C 779.12 685.84 785.86 686.27 792.83 687.18 C 797.24 687.76 801.66 688.19 806.08 688.53 C 805.49 694.70 803.36 699.85 799.93 704.96 C 794.74 703.14 789.27 702.76 784.11 700.87 C 776.01 697.73 766.25 699.71 758.22 696.74 C 756.00 691.60 757.40 684.79 760.23 680.14 Z" fill="#574e2f" />
<path d="M 520.08 680.89 C 514.30 688.07 507.00 693.97 500.66 700.66 C 495.00 705.96 489.85 711.09 487.62 718.77 C 481.75 719.17 475.81 719.36 469.93 719.23 C 471.98 716.31 474.07 713.42 476.26 710.60 C 473.26 709.17 470.14 708.46 466.86 708.02 C 461.95 707.32 457.00 706.03 452.04 705.86 C 450.08 705.70 449.43 707.05 448.30 708.34 C 446.07 711.32 444.00 714.42 441.74 717.38 C 437.76 716.72 433.78 716.05 429.81 715.32 C 434.55 707.66 438.11 700.08 444.52 693.50 C 445.79 692.39 446.96 691.15 448.79 691.36 C 453.83 691.75 458.90 693.93 463.81 695.16 C 469.42 696.78 475.16 697.03 480.83 698.30 C 483.42 698.75 485.65 699.55 488.03 697.94 C 491.67 695.38 494.01 690.75 496.75 687.27 C 493.24 686.08 489.72 684.90 486.21 683.67 L 487.40 682.52 C 498.37 683.41 509.30 683.36 520.08 680.89 Z" fill="#a8b745" />
<path d="M 1003.81 691.09 C 1007.36 695.01 1010.13 699.30 1013.36 703.64 C 1017.35 708.99 1020.90 714.68 1024.00 720.59 L 1024.00 777.69 C 1019.34 767.42 1015.29 756.87 1010.32 746.75 C 1005.25 736.51 1000.60 726.15 994.51 716.44 C 993.25 713.99 990.60 710.61 991.76 707.77 C 993.86 701.17 998.30 695.25 1003.81 691.09 Z" fill="#574e2f" />
<path d="M 718.70 699.09 C 719.62 702.51 720.74 705.92 721.32 709.41 C 721.70 711.06 720.55 712.38 719.82 713.77 C 717.57 717.31 715.50 720.93 713.73 724.74 C 710.78 731.04 707.70 737.04 705.56 743.68 C 701.69 755.38 697.17 766.40 697.39 778.99 C 697.36 782.94 698.76 786.77 698.71 790.68 C 697.11 793.99 693.76 796.58 691.35 799.32 C 686.12 805.20 680.62 810.79 675.84 817.05 C 676.97 810.85 679.55 805.21 681.20 799.17 C 684.80 785.93 689.79 773.07 694.05 760.02 C 697.02 750.94 701.03 742.26 704.30 733.28 C 709.22 721.95 713.20 710.14 718.70 699.09 Z" fill="#574e2f" />
<path d="M 219.82 701.88 C 222.87 704.89 225.97 707.47 229.80 709.45 C 228.64 711.65 227.58 714.09 225.96 715.99 C 223.44 718.46 220.07 720.07 217.35 722.36 C 212.55 726.23 210.21 731.39 205.92 736.32 C 208.87 724.36 214.61 713.00 219.82 701.88 Z" fill="#574e2f" />
<path d="M 700.11 701.79 C 695.56 715.04 689.94 728.00 685.22 741.21 C 679.65 756.93 674.11 772.50 669.53 788.54 C 665.10 802.76 661.48 817.20 657.55 831.56 C 653.95 846.20 650.23 860.73 647.52 875.57 C 640.37 908.80 634.80 942.23 629.81 975.84 C 627.41 991.84 625.83 1007.89 624.39 1024.00 L 499.59 1024.00 C 500.38 1006.95 502.61 989.97 504.26 972.99 C 510.46 920.33 520.65 868.37 531.22 816.22 C 534.81 800.13 538.66 784.01 543.05 768.11 C 564.11 764.12 584.18 758.58 604.34 751.35 C 620.42 746.13 635.39 738.91 650.57 731.60 C 662.59 726.08 674.14 718.40 685.38 711.38 C 690.38 708.32 695.03 704.69 700.11 701.79 Z" fill="#a8b745" />
<path d="M 326.84 703.91 C 328.52 707.92 330.03 711.92 332.40 715.60 C 339.07 726.57 350.51 735.05 361.23 741.77 C 366.16 745.50 371.35 748.45 376.94 751.08 C 364.62 793.03 352.27 834.70 342.31 877.29 C 340.71 884.57 338.75 891.77 336.99 899.01 C 330.31 927.30 324.40 955.77 319.41 984.41 C 316.85 997.53 315.58 1010.86 313.22 1024.00 L 247.24 1024.00 C 249.26 1009.30 250.43 994.45 252.84 979.79 C 257.01 949.65 262.40 919.68 268.97 889.98 C 279.59 845.46 292.20 801.37 307.10 758.09 C 313.00 739.80 320.00 721.86 326.84 703.91 Z" fill="#a8b745" />
<path d="M 257.26 705.77 C 256.10 713.43 252.97 720.14 250.40 727.37 C 249.31 730.10 248.40 733.24 246.61 735.60 C 244.28 737.84 240.72 736.96 237.99 736.06 C 236.52 735.50 234.23 734.54 233.77 732.89 C 233.94 728.68 235.99 724.39 237.32 720.42 C 239.04 715.49 241.19 709.75 245.57 706.55 C 248.69 704.52 253.71 705.59 257.26 705.77 Z" fill="#574e2f" />
<path d="M 452.04 705.86 C 457.00 706.03 461.95 707.32 466.86 708.02 C 470.14 708.46 473.26 709.17 476.26 710.60 C 474.07 713.42 471.98 716.31 469.93 719.23 C 460.45 719.17 451.10 719.08 441.74 717.38 C 444.00 714.42 446.07 711.32 448.30 708.34 C 449.43 707.05 450.08 705.70 452.04 705.86 Z" fill="#297981" />
<path d="M 309.06 706.72 C 307.87 713.74 304.69 719.78 302.49 726.47 C 300.40 732.62 297.90 738.60 295.70 744.71 C 292.36 753.69 290.20 763.02 287.02 772.07 C 283.83 781.15 281.50 790.87 277.11 799.44 C 274.36 796.26 271.70 793.00 268.98 789.79 C 269.87 785.89 270.98 782.13 272.43 778.40 C 276.04 768.79 278.13 757.37 283.67 748.74 C 285.40 746.17 284.77 743.74 284.89 740.85 C 284.96 737.30 286.63 734.34 286.70 730.75 C 286.86 728.50 286.43 726.03 286.99 723.85 C 289.00 721.34 292.25 719.69 294.84 717.82 C 299.92 714.51 303.88 709.93 309.06 706.72 Z" fill="#574e2f" />
<path d="M 760.47 709.45 C 764.99 708.25 770.94 709.82 775.48 710.74 C 771.00 717.81 767.64 725.75 765.88 733.93 C 764.71 739.28 765.15 744.52 765.19 749.93 C 760.27 749.65 753.12 749.56 750.23 744.78 C 747.44 739.87 748.90 732.54 750.39 727.37 C 752.49 721.11 755.48 713.94 760.47 709.45 Z" fill="#f5edd8" />
<path d="M 740.09 724.12 C 739.02 728.41 738.36 733.26 735.93 736.93 C 733.23 741.40 730.47 745.69 728.55 750.58 C 725.69 758.00 723.36 765.51 724.57 773.56 C 725.40 779.45 727.57 784.90 732.69 788.30 C 739.72 792.85 748.59 795.27 756.94 793.89 C 763.93 793.12 770.53 790.58 775.68 785.68 C 781.59 780.62 783.57 773.03 784.62 765.62 C 785.74 758.42 785.09 750.22 781.04 743.97 C 779.66 741.58 777.34 741.47 774.99 740.47 C 775.40 738.25 775.71 735.76 776.72 733.73 C 781.65 733.05 788.22 734.39 791.29 738.72 C 794.97 743.34 795.65 750.07 795.91 755.75 C 794.89 756.90 793.73 758.01 792.91 759.31 C 792.80 760.87 793.09 762.48 793.27 764.03 C 793.52 761.24 792.89 759.01 795.39 757.01 C 796.17 771.49 791.17 786.49 780.90 796.90 C 773.24 803.84 762.32 807.70 752.00 806.93 C 740.48 806.79 728.00 803.62 719.27 795.74 C 714.31 791.58 711.75 785.79 710.52 779.55 C 708.52 768.30 711.97 758.28 715.92 747.93 C 718.55 741.47 721.36 734.27 725.90 728.89 C 729.83 724.64 734.66 724.39 740.09 724.12 Z" fill="#f5edd8" />
<path d="M 826.91 724.11 C 820.16 744.65 814.53 765.61 809.33 786.58 C 806.28 800.71 803.58 814.94 800.43 829.05 C 797.58 822.86 795.49 816.32 793.17 809.92 C 792.20 806.71 790.58 802.38 792.19 799.14 C 794.42 794.53 797.78 790.56 799.98 785.91 C 804.33 777.25 804.72 768.34 806.49 758.81 C 807.84 750.65 806.13 743.18 804.41 735.27 C 808.32 733.97 812.31 732.75 816.09 731.10 C 820.13 729.30 823.39 726.72 826.91 724.11 Z" fill="#574e2f" />
<path d="M 261.18 728.85 C 264.71 728.40 266.73 729.85 269.28 731.99 C 266.19 742.57 261.50 752.43 255.85 761.87 C 255.09 762.90 254.34 764.01 252.90 763.99 C 248.00 764.22 242.93 762.70 238.06 762.03 C 229.69 760.80 221.32 759.68 212.98 758.21 C 210.92 757.83 209.00 757.09 207.08 756.28 C 209.60 747.82 214.36 740.69 219.85 733.89 C 221.17 732.84 221.59 730.68 223.34 732.49 C 224.46 736.29 223.99 740.08 226.85 743.16 C 230.88 747.53 237.21 749.32 243.02 749.06 C 246.66 749.13 250.09 748.37 252.71 745.70 C 256.96 741.34 258.15 733.77 261.18 728.85 Z" fill="#574e2f" />
<path d="M 505.02 733.08 C 504.75 742.78 502.23 752.09 501.36 761.70 C 492.17 763.51 482.32 763.37 473.00 762.91 C 473.72 753.88 475.42 744.90 477.18 736.02 C 486.47 734.95 495.76 734.57 505.02 733.08 Z" fill="#237630" />
<path d="M 439.14 733.85 C 446.70 734.04 454.18 735.18 461.75 735.33 C 462.41 744.35 460.99 753.09 460.57 762.06 C 452.81 762.10 445.59 760.38 438.04 758.94 C 437.76 750.53 439.09 742.25 439.14 733.85 Z" fill="#237630" />
<path d="M 739.28 754.98 C 742.15 755.91 744.60 757.37 747.40 758.47 C 755.73 761.59 764.74 761.76 772.98 758.30 C 773.12 763.46 774.10 769.64 771.29 774.25 C 768.52 779.02 763.47 783.06 757.93 783.88 C 751.99 784.57 746.11 784.20 740.77 781.31 C 738.69 780.10 735.94 778.96 735.59 776.26 C 734.28 769.10 735.81 761.34 739.28 754.98 Z" fill="#574e2f" />
<path d="M 388.08 756.90 C 392.82 758.24 397.28 760.51 401.98 762.02 C 409.65 764.71 417.57 765.76 425.37 767.93 C 423.93 775.41 421.79 782.70 420.16 790.14 C 415.11 810.91 410.90 831.90 406.91 852.89 C 396.37 909.58 388.02 966.68 381.79 1024.00 L 323.55 1024.00 C 327.24 1001.66 330.21 979.06 334.86 956.88 C 338.87 935.70 343.97 914.97 349.06 894.05 C 357.41 861.60 365.31 829.22 375.15 797.16 C 378.88 784.90 382.62 772.63 386.31 760.36 C 386.78 759.32 386.92 757.35 388.08 756.90 Z" fill="#a8b745" />
<path d="M 195.19 766.70 C 198.23 769.80 196.45 772.51 195.73 776.13 C 194.89 775.36 193.96 774.61 193.27 773.71 C 193.13 771.36 194.29 768.82 195.19 766.70 Z" fill="#574e2f" />
<path d="M 530.26 769.27 C 528.93 775.70 526.80 781.85 525.21 788.20 C 516.35 822.97 511.13 858.87 505.20 894.23 C 501.05 920.46 497.41 946.76 494.45 973.16 C 492.74 990.02 490.50 1007.06 489.90 1024.00 L 449.65 1024.00 C 455.33 971.04 463.28 918.30 472.90 865.91 C 478.79 834.91 485.77 804.13 494.43 773.78 C 499.02 774.08 503.54 773.70 508.11 773.45 C 506.97 773.12 505.83 772.81 504.68 772.50 C 513.24 771.68 521.76 770.52 530.26 769.27 Z" fill="#a8b745" />
<path d="M 206.05 771.72 C 214.20 773.72 222.46 774.89 230.68 776.53 C 237.85 777.91 245.10 778.36 252.31 779.47 C 253.15 783.04 253.91 786.62 254.47 790.24 C 248.22 789.58 242.30 787.54 236.09 786.70 C 227.54 785.47 219.13 784.30 210.64 782.16 C 208.32 781.50 204.90 780.45 203.80 778.05 C 203.30 775.88 204.60 773.29 206.05 771.72 Z" fill="#574e2f" />
<path d="M 437.54 771.14 C 439.72 771.08 441.92 771.10 444.10 771.14 C 443.46 778.53 441.24 785.40 439.65 792.61 C 438.18 799.13 436.80 805.67 435.11 812.14 C 430.26 833.32 426.30 854.60 421.83 875.86 C 418.66 890.42 417.04 904.94 414.77 919.55 C 413.31 928.51 412.10 937.50 410.60 946.44 C 408.25 962.20 406.51 978.05 404.68 993.87 C 403.93 1003.95 402.44 1013.94 401.44 1024.00 L 393.75 1024.00 C 394.02 1016.87 394.76 1009.80 395.53 1002.71 C 396.58 992.46 397.57 982.21 398.96 971.99 C 404.19 936.66 408.99 901.45 416.40 866.46 C 418.96 850.56 422.25 834.77 426.11 819.14 C 429.28 807.71 431.65 796.10 434.65 784.63 C 435.87 780.18 436.70 775.67 437.54 771.14 Z" fill="#237630" />
<path d="M 452.44 773.48 C 455.84 773.18 459.38 773.81 462.77 774.12 C 460.93 781.24 459.24 788.40 457.72 795.60 C 454.41 795.31 451.19 794.78 447.95 794.05 C 449.52 787.22 450.63 780.24 452.44 773.48 Z" fill="#237630" />
<path d="M 473.28 773.16 C 475.86 773.09 478.45 773.16 481.04 773.20 C 480.36 777.66 479.44 781.98 478.23 786.32 C 474.55 799.99 471.70 813.83 468.60 827.64 C 466.45 837.89 464.13 848.10 462.51 858.45 C 456.64 892.23 450.74 926.05 445.90 959.99 C 444.39 973.01 442.33 985.95 441.01 999.00 C 439.89 1007.31 439.40 1015.74 437.92 1024.00 L 429.67 1024.00 C 430.62 1008.40 433.38 992.85 435.37 977.31 C 437.76 963.88 438.53 950.26 440.78 936.81 C 442.93 922.81 445.55 908.89 447.97 894.93 C 451.79 872.39 455.73 849.83 460.54 827.47 C 463.56 814.75 466.19 801.94 469.21 789.22 C 470.45 783.88 471.53 778.34 473.28 773.16 Z" fill="#237630" />
<path d="M 504.68 772.50 C 505.83 772.81 506.97 773.12 508.11 773.45 C 503.54 773.70 499.02 774.08 494.43 773.78 C 497.72 772.88 501.29 772.79 504.68 772.50 Z" fill="#f5edd8" />
<path d="M 865.18 774.11 C 875.98 782.09 887.32 790.75 895.93 801.05 C 902.19 809.31 907.95 818.00 912.86 827.12 C 918.38 838.01 922.53 849.83 926.65 861.32 C 932.14 876.41 936.18 891.94 942.06 906.91 C 949.77 928.04 957.50 949.21 965.95 970.06 C 973.40 987.86 980.41 1005.83 986.91 1024.00 L 862.56 1024.00 C 855.15 1000.41 845.53 977.31 833.10 955.91 C 829.51 949.63 825.04 943.45 822.20 936.81 C 820.71 933.71 820.76 930.47 821.22 927.14 C 826.29 896.13 833.24 865.47 842.40 835.41 C 848.54 814.43 856.53 794.17 865.18 774.11 Z" fill="#a8b745" />
<path d="M 163.67 777.74 C 163.25 784.19 162.18 790.50 162.37 796.99 C 162.19 802.63 163.24 809.08 161.41 814.41 C 157.85 826.03 153.72 838.02 151.93 850.05 C 151.50 853.49 150.88 857.54 152.01 860.89 C 153.08 863.53 155.49 865.69 156.77 868.20 C 156.56 872.77 155.28 877.29 154.78 881.83 C 153.43 892.19 151.82 902.53 150.77 912.92 C 150.66 915.12 149.23 916.33 147.86 917.85 C 131.39 934.73 115.50 952.14 98.75 968.75 C 89.02 978.25 80.45 989.28 71.66 999.65 C 64.95 1007.56 58.51 1015.66 52.34 1024.00 L 0.00 1024.00 L 0.00 967.37 C 13.36 948.33 24.64 928.09 35.60 907.61 C 37.05 904.92 38.39 901.73 40.52 899.53 C 55.04 885.75 69.36 871.69 82.89 856.93 C 88.89 849.61 95.62 843.00 101.97 835.99 C 108.83 827.80 115.32 819.46 123.37 812.34 C 133.47 803.43 143.75 794.73 153.96 785.94 C 157.09 783.08 160.22 780.24 163.67 777.74 Z" fill="#a8b745" />
<path d="M 827.26 780.15 C 833.52 782.60 839.31 786.64 844.36 791.03 C 833.83 820.60 825.68 851.70 818.15 882.16 C 813.67 901.62 809.81 921.21 807.04 940.99 C 806.36 946.80 802.72 950.01 799.42 954.43 C 795.69 959.11 792.59 964.21 789.02 969.00 C 790.51 959.36 791.51 949.66 792.82 939.99 C 794.41 926.24 797.28 912.71 798.94 898.98 C 799.26 896.81 799.41 894.47 800.57 892.56 C 802.42 889.46 804.61 886.96 805.26 883.27 C 806.18 878.27 807.23 873.32 808.33 868.35 C 813.63 843.68 817.08 818.75 823.26 794.24 C 824.51 789.55 825.51 784.69 827.26 780.15 Z" fill="#a8b745" />
<path d="M 191.91 784.65 C 193.81 786.73 195.38 788.78 198.00 790.01 C 204.89 793.13 212.12 795.14 219.55 796.47 C 228.65 798.61 237.91 799.89 247.02 801.99 C 251.26 802.78 255.49 803.39 259.62 804.73 C 256.56 812.11 253.48 819.46 251.06 827.08 C 246.56 841.09 241.59 855.59 239.92 870.16 C 228.87 869.27 217.54 866.53 206.74 864.30 C 198.24 862.78 189.76 861.14 181.25 859.68 C 175.66 858.69 170.34 857.28 165.01 855.35 C 165.49 852.14 165.95 848.95 166.74 845.79 C 170.39 831.55 174.84 817.57 179.63 803.68 C 181.13 799.46 182.09 794.98 183.92 790.90 C 185.30 787.56 189.00 786.32 191.91 784.65 Z" fill="#574e2f" />
<path d="M 705.37 799.65 C 707.92 801.32 710.08 803.65 712.45 805.56 C 717.05 809.49 723.59 811.65 729.18 813.84 C 735.82 816.46 742.76 817.57 749.82 818.33 C 757.48 819.29 765.49 819.48 772.87 816.91 C 776.16 815.80 778.20 813.51 780.59 811.15 C 782.00 813.74 783.30 816.36 784.15 819.20 C 785.81 824.64 788.19 829.79 789.71 835.28 C 791.28 840.89 793.39 845.81 793.53 851.73 C 793.51 853.38 793.86 855.98 792.54 857.21 C 788.20 857.02 783.91 855.89 779.60 855.39 C 764.48 853.38 749.36 851.19 734.17 849.82 C 716.47 847.11 698.64 845.50 680.89 843.19 C 678.22 842.78 675.66 842.04 673.08 841.26 C 677.70 835.98 680.85 829.72 685.43 824.44 C 689.31 819.92 692.48 814.91 696.51 810.55 C 699.86 807.19 702.51 803.39 705.37 799.65 Z" fill="#574e2f" />
<path d="M 446.44 802.48 C 449.62 802.35 452.63 802.77 455.78 803.12 C 454.13 811.54 452.20 819.90 450.26 828.26 C 445.62 849.42 441.53 870.71 438.06 892.10 C 435.71 904.33 433.57 916.60 431.95 928.95 C 430.88 937.33 429.05 945.58 427.99 953.97 C 425.91 966.53 424.58 979.18 422.69 991.77 C 421.66 1002.53 420.40 1013.26 419.21 1024.00 L 409.14 1024.00 C 409.70 1021.02 409.97 1018.04 410.23 1015.03 C 411.07 1004.81 412.37 994.63 413.61 984.45 C 418.53 952.71 422.45 920.88 428.37 889.31 C 430.17 878.36 432.77 867.57 434.60 856.63 C 436.30 846.25 438.92 836.06 440.74 825.70 C 442.44 817.94 444.06 810.07 446.44 802.48 Z" fill="#237630" />
<path d="M 270.28 812.86 C 270.92 817.50 272.36 822.42 270.94 826.97 C 269.15 833.50 267.10 839.95 265.57 846.55 C 263.83 854.11 261.41 861.35 260.33 869.05 C 258.08 866.88 255.54 864.92 253.50 862.56 C 253.41 859.35 255.05 855.96 255.86 852.87 C 258.87 842.13 262.12 831.48 265.99 821.02 C 267.24 817.96 267.36 814.77 270.28 812.86 Z" fill="#574e2f" />
<path d="M 668.28 857.16 C 677.97 856.46 688.03 858.73 697.72 859.49 C 707.22 860.16 716.53 862.11 726.01 863.02 C 743.32 865.33 760.63 867.56 777.91 870.14 C 782.79 870.93 787.65 871.76 792.57 872.25 C 792.11 876.61 791.29 880.64 789.97 884.84 C 783.01 883.32 775.95 883.08 768.92 882.01 C 760.94 880.80 752.85 880.25 744.84 879.24 C 726.22 876.56 707.44 875.16 688.80 872.63 C 681.10 871.51 673.61 871.50 666.20 868.81 C 665.48 864.49 665.81 860.89 668.28 857.16 Z" fill="#574e2f" />
<path d="M 175.28 874.23 C 180.80 874.78 186.29 876.23 191.81 877.14 C 205.43 879.47 219.02 882.02 232.65 884.34 C 230.70 890.82 229.56 897.46 228.03 904.04 C 224.55 917.78 222.31 931.91 219.83 945.86 C 217.92 956.08 217.41 966.46 215.73 976.73 C 214.04 992.36 211.35 1008.25 211.52 1024.00 L 156.84 1024.00 C 157.30 1019.39 157.71 1014.79 157.70 1010.15 C 157.70 1003.02 158.77 996.07 159.13 988.95 C 160.27 962.64 163.04 936.33 167.40 910.37 C 169.88 898.30 172.17 886.14 175.28 874.23 Z" fill="#574e2f" />
<path d="M 257.07 883.35 C 254.80 894.58 252.11 905.75 250.07 917.03 C 247.13 935.06 243.67 952.96 241.17 971.06 C 240.23 979.90 238.39 988.59 237.49 997.43 C 236.38 1006.26 236.10 1015.23 234.62 1024.00 L 223.74 1024.00 C 225.61 1006.72 226.85 989.34 229.16 972.09 C 231.87 952.07 234.45 932.46 238.72 912.72 C 240.08 904.26 242.26 896.02 244.21 887.68 C 249.29 887.20 252.72 885.97 257.07 883.35 Z" fill="#574e2f" />
<path d="M 660.30 884.61 C 663.74 884.39 667.37 885.40 670.74 886.08 C 667.92 902.38 664.30 918.53 661.85 934.90 C 658.54 953.81 655.79 972.79 652.72 991.74 C 651.32 1002.48 649.96 1013.24 648.65 1024.00 L 637.61 1024.00 C 639.07 1015.39 638.84 1006.68 640.09 998.06 C 641.19 989.86 641.83 981.65 643.27 973.50 C 647.51 947.59 651.28 921.43 656.58 895.72 C 657.35 892.43 657.43 886.82 660.30 884.61 Z" fill="#574e2f" />
<path d="M 685.12 887.61 C 690.07 887.56 695.05 888.73 700.01 889.07 C 713.09 890.18 726.07 892.27 739.14 893.42 C 748.72 893.89 758.15 895.39 767.69 896.25 C 764.92 908.98 763.01 921.90 760.79 934.74 C 759.69 942.86 757.88 950.85 756.91 958.98 C 754.97 973.12 751.73 987.07 750.28 1001.26 C 748.97 1008.82 748.18 1016.42 747.11 1024.00 L 660.82 1024.00 C 662.35 1016.55 662.65 1009.16 663.69 1001.76 C 664.96 993.26 665.86 984.72 667.24 976.23 C 669.03 963.29 671.59 950.49 673.51 937.57 C 676.08 921.83 678.81 906.17 682.75 890.70 C 683.25 889.51 683.44 887.54 685.12 887.61 Z" fill="#574e2f" />
<path d="M 784.81 898.56 C 784.20 902.79 783.74 907.04 783.06 911.26 C 781.63 919.34 781.39 927.51 779.63 935.55 C 776.63 960.36 773.41 985.26 770.01 1010.02 C 769.44 1014.73 769.41 1019.35 768.29 1024.00 L 758.96 1024.00 C 761.36 1012.57 762.58 1000.76 764.20 989.21 C 766.88 972.20 769.18 955.18 772.24 938.23 C 774.14 925.02 776.31 911.87 778.52 898.71 C 780.63 898.77 782.71 898.72 784.81 898.56 Z" fill="#574e2f" />
<path d="M 147.18 937.85 C 147.14 944.49 145.98 950.95 145.44 957.55 C 144.89 964.03 144.42 970.51 143.80 976.99 C 142.33 992.63 142.00 1008.34 140.93 1024.00 L 66.56 1024.00 C 71.16 1018.06 75.81 1012.45 80.95 1006.96 C 91.81 994.17 103.04 981.76 115.32 970.30 C 120.26 965.61 125.22 960.88 129.84 955.88 C 135.33 949.42 140.39 943.06 147.18 937.85 Z" fill="#237630" />
<path d="M 818.66 954.83 C 824.67 964.01 830.08 973.47 834.41 983.57 C 839.39 994.58 844.11 1005.79 847.71 1017.34 C 848.43 1019.58 849.15 1021.81 850.03 1024.00 L 813.82 1024.00 C 813.81 1018.30 813.72 1012.60 813.37 1006.90 C 812.38 993.13 814.21 978.72 816.07 965.06 C 816.51 961.52 817.39 958.15 818.66 954.83 Z" fill="#237630" />
<path d="M 803.03 965.87 C 801.59 984.95 799.89 1004.97 801.92 1024.00 L 782.99 1024.00 C 784.29 1013.77 783.66 1003.47 785.80 993.70 C 787.29 987.42 790.76 982.60 794.64 977.61 C 797.65 973.85 800.34 969.87 803.03 965.87 Z" fill="#237630" />
</svg>
