<svg xmlns="http://www.w3.org/2000/svg" width="836pt" height="1672" viewBox="0 0 836 1254"><path fill="#eed095" d="M0 0h836v888.02c-9.56-15.54-20.32-29.86-34.27-41.75-8.54-7.6-17.32-14.86-26.95-21.06-31.41-20.9-65.69-38.45-99.17-55.82-16.9-8.5-33.64-17.23-50.85-25.12-2.32-1.25-4.66-1.74-5.42-4.59-5.54-16.81-13.78-33.06-26.03-46-6.68-6.67-14.3-13.37-23.24-16.75-4.19-1.71-8.54-2.5-12.97-3.36.55-8.18.46-16.39 1.13-24.55.03-1.63.76-2.82 1.69-4.1 7.96-10.75 16.08-22.19 21.58-34.42 3.41-7.59 6.87-15.18 9.88-22.94 8.05-.77 15.98-1.92 23.67-4.54 19.48-6.27 36.45-20.12 48.61-36.37 8.26-10.07 14.4-21.23 20.06-32.92 4.55-10.34 8.06-21.23 10.77-32.2 2.43-12.45 4.47-24.31 3.16-37.05-.97-6.97-2.38-14.13-5.64-20.42-4.18-8.48-10.84-15.27-18.78-20.3-1.57-1.35-3.8-1.7-2.76-4.28 3.93-12.33 6.69-24.89 8.5-37.7 3.46-20.05 5.3-40.47 5.07-60.83-.07-7-.93-14.01-2-20.92-1.12-7.04-3.43-13.52-5.32-20.35 3.73 1.64 7.22 3.67 10.72 5.74-2.28-16.49-8.34-32.24-18.13-45.74-6.13-8.36-13.48-15.89-21.41-22.56-1.27-1.09-2.65-2.18-3.73-3.46-1-4.11-.61-8.54-1.35-12.73-1.61-13.16-6.83-25.76-15.4-35.92.44 8.45-1.17 16.57-3.72 24.59-3.31-6.45-6.08-13.06-10.26-19.05-8.54-13.63-19.54-24.84-31.51-35.46-19.82-17.04-41.98-31.23-65.58-42.43-25.22-12.28-51.36-22.59-78.61-29.41-13.87-2.95-28.99-5.88-43.17-4.25 4.39 5.88 9.02 11.51 14.22 16.7-14.63.01-29.23-.85-43.83-1.81-18.55-1.47-36.61-2.63-55.11.35 4.42 4.44 8.76 8.31 10.94 14.41-17.24 1.9-34.71 2.98-51.9 5.38-6.18.8-11.71 2.24-17.86.28 5.06 6.97 10.29 12.45 17.03 17.81-9.4 3.04-18.94 5.59-28.35 8.63-10.55 3.41-21.35 6.25-31.72 10.18 7.12 3.86 14.79 6.47 21.98 10.23-10.45 7.39-20.66 15.19-30.74 23.07-7.52 6.27-14.7 12.48-20.9 20.08 5.84 2.14 11.62 4.21 17.82 5.08-6.58 7.66-13.46 15.04-20.08 22.66-2.99 3.39-5.87 6.73-7.84 10.84 5 .15 9.92-.48 14.84-1.25-11.8 24.67-20.66 50.48-26.2 77.27-4.91 20.82-6.59 42.23-5.64 63.58.72 13.16 2.5 26.27 4.89 39.22-5.63 5.07-10.57 10.66-13.83 17.58-3.75 8.06-5.99 16.92-6.73 25.77-.76 13.55.18 27.17 2.94 40.46 3.25 17.23 8.16 34.46 15.61 50.37 4.31 9.18 10.45 19.25 19.23 24.75 1.95 1.43 3.98 1.94 4.31 4.67 4.75 24.5 11.26 50.38 24 72.04 9.45 16.42 20.51 31.98 31.92 47.08 11.59 15.42 24.65 29.48 38.02 43.34-17.24 12.17-33.04 25.01-45.88 41.95-2.42 2.99-4.71 6-6.8 9.22-.93 1.48-2.23 2.41-3.74 3.23-33.17 17.17-68.42 33.8-99.75 54.25-18.49 12.05-34.86 27.24-48.04 44.96-10.09 14.13-19.05 29.02-26.01 44.96-8.11 16.04-14.16 32.8-20.37 49.62-5.55 16.13-11.05 31.98-15.82 48.24-1.81 5.56-3.09 11.23-5.18 16.69V0Z"/><path fill="#0d0f05" d="M394.57 39c14.18-1.63 29.3 1.3 43.17 4.25 27.25 6.82 53.39 17.13 78.61 29.41 23.6 11.2 45.76 25.39 65.58 42.43 11.97 10.62 22.97 21.83 31.51 35.46 4.18 5.99 6.95 12.6 10.26 19.05 2.55-8.02 4.16-16.14 3.72-24.59 8.57 10.16 13.79 22.76 15.4 35.92.74 4.19.35 8.62 1.35 12.73 1.08 1.28 2.46 2.37 3.73 3.46 7.93 6.67 15.28 14.2 21.41 22.56 9.79 13.5 15.85 29.25 18.13 45.74-3.5-2.07-6.99-4.1-10.72-5.74 1.89 6.83 4.2 13.31 5.32 20.35 1.07 6.91 1.93 13.92 2 20.92.23 20.36-1.61 40.78-5.07 60.83-1.81 12.81-4.57 25.37-8.5 37.7-1.04 2.58 1.19 2.93 2.76 4.28 7.94 5.03 14.6 11.82 18.78 20.3 3.26 6.29 4.67 13.45 5.64 20.42 1.31 12.74-.73 24.6-3.16 37.05-2.71 10.97-6.22 21.86-10.77 32.2-5.66 11.69-11.8 22.85-20.06 32.92-12.16 16.25-29.13 30.1-48.61 36.37-7.69 2.62-15.62 3.77-23.67 4.54-3.01 7.76-6.47 15.35-9.88 22.94-5.5 12.23-13.62 23.67-21.58 34.42-.93 1.28-1.66 2.47-1.69 4.1-.67 8.16-.58 16.37-1.13 24.55 4.43.86 8.78 1.65 12.97 3.36 8.94 3.38 16.56 10.08 23.24 16.75 12.25 12.94 20.49 29.19 26.03 46 .76 2.85 3.1 3.34 5.42 4.59 17.21 7.89 33.95 16.62 50.85 25.12 33.48 17.37 67.76 34.92 99.17 55.82 9.63 6.2 18.41 13.46 26.95 21.06 13.95 11.89 24.71 26.21 34.27 41.75v34.58c-4.49-8.65-8.89-17.38-13.81-25.79-5.62-9.15-11.75-18.1-18.83-26.19-10.72-11.82-23.78-22-36.74-31.25-28.48-19.61-58.29-35.39-89.12-50.89-17.53-8.41-34.81-17.4-52.49-25.46 1.06 15.52 1.44 31.08.7 46.63-.45 15.81-1.12 31.63-2.22 47.4-.8 12.16-3.28 24.53-4.86 36.63-.9 5.56-1.65 11.31-3.27 16.71-2.08 4.37-8.06 3.91-12.1 3.78-6.55-3.66-13.33-6.8-19.73-10.7-7.43-4.49-14.67-9.32-21.93-14.07-7.95-5.18-16.58-10.83-25.83-13.24-6.26-1.7-12.7-.95-18.89.66-5.16 1.4-9.39 3.92-14.15 6.2 5.15-7.52 11.26-13.72 19.5-17.8 6.99-2.33 13.96-3.7 21.24-1.66 15.48 3.81 28.49 15.74 41.63 24.35 5.42 3.6 11.12 6.81 16.93 9.72 4.89-20.75 5.41-43.1 6.89-64.32.64-18.91 1.07-37.78.02-56.69-1.07-19.77-5.06-39.85-15.74-56.82-5.61-8.83-12.61-17.72-21.25-23.76-4.63-3.26-9.84-5.12-15.23-6.7.08 10.57-.29 21.06 1.26 31.56 2.54-1.24 5.09-2.45 7.74-3.47-.42 14.8-2.17 29.43-8.12 43.13-2.32 5.32-4.54 10.7-7.18 15.86-7.59 14.86-15.38 29.58-24.32 43.68-9.29 14.61-17.79 29.67-26.23 44.79-3.11 5.55-5.22 11.42-7.83 17.19-16.5 34.99-28.55 71.49-38.01 108.95-3.44 13.58-6.69 27.11-9.01 40.92-3.47 19.5-7.05 38.88-9.44 58.52-1.91 11.77-2.78 23.62-3.91 35.47-.52 5.42-1.03 10.8-1.08 16.25-6.56.07-13.03-.05-19.59-.4-19.42.09-38.85-.18-58.26.12 7.8-1.12 15.42-.51 23.26-.6 13.06-.04 26.12.02 39.18-.04 2.12-19.89 3.46-39.81 6.48-59.61 2.5-15.76 4.55-31.64 7.69-47.28 1.67-9.2 3.7-18.31 5.52-27.48 6.03-26.46 14.03-51.79 22.41-77.56 2.04-6.45 4.81-12.58 7.16-18.91 4.73-13.12 10.5-25.8 16.67-38.31 3.71-7.85 7.95-15.17 11.07-23.29-5.47 2.19-10.62 5.01-16.03 7.3-28.25 11.52-59.49 19.47-90.15 18.78-18.9.46-37.76-2.06-56-6.96-14.05-4.15-28.64-9.8-40.73-18.18-5.45-3.69-9.69-8.47-14.39-12.99-5.5 19.15-9.16 38.96-12.54 58.59-3.2 17.96-6.45 35.91-9.05 53.97-3.33 18.88-5.51 37.91-8.07 56.9-2.51 16.28-3.78 33.08-5.66 49.45-1.1 8.77-1.65 17.7-2.39 26.51-1.45 19.61-3.85 39.4-3.55 59.07 14.13.07 28.25 0 42.38.05 7.82.06 15.45-.48 23.25.6-18.08-.32-36.17-.08-54.25-.13-8.9-.21-17.72.72-26.63.41l.02-.89c.88-9.74.83-19.55 1.49-29.31.95-12.36 1.66-24.75 2.98-37.08 2.82-29.01 5.59-58.11 9.71-87.12 2.1-17.33 5.16-34.51 7.53-51.8 1.72-10.46 3.2-20.94 5.38-31.31 3.07-19.06 7.22-37.97 11.47-56.8 6.21-25.8 11.77-53.43 22.11-77.85 1.49-4.04 3.97-7.93 3.63-12.3-.61-11.65-3.09-23.35-6.9-34.37-6.31 3.45-11.22 8.16-16.61 12.82-8.51 7.65-15.74 16.29-22.44 25.55-10.03 13.15-18.6 27.29-28.02 40.99-6.98 10.59-14.69 20.66-21.61 31.29-5.78 6.29-10.88 13.14-16.69 19.4-3.92 4.21-7.68 8.49-10.77 13.35 2.47.14 4.95.25 7.43.15 9.7-.46 18.94-2.88 28.15-5.78 6.43-2.18 12.83-5.51 19.8-5.99 5.75-.38 10.86 3.19 14.38 7.42 4.89 6.5 6.26 14.31 5.8 22.3-4.59-1.7-8.78-3.21-13.62-1.23-5.27 2.29-10.27 5.16-15.64 7.26 5.8-5.15 11.68-10.15 17.05-15.77-1.99-2.05-4.29-5.34-7.3-5.72-4.87-.77-10.19 1.94-14.79 3.36-10.03 3.12-20.31 6.27-30.92 6.17-7.49.07-14.32-1.64-21.56-3.35-2.92-.79-6.4-1.72-7.74-4.75-.78-1.87 1.87-4.73 2.97-6.2 6.67-7.33 13.07-14.88 19.74-22.21 9.72-11.37 18.29-23.91 26.87-36.16 3.81-5.95 8.34-11.57 11.57-17.85-6.98 1.86-12.37 5.57-18.67 8.87-11.77 6.16-23.41 12.56-35.13 18.8-18.54 9.89-35.88 21.36-51.38 35.59-6.51 5.72-11.92 12.95-17.11 19.87-10.77 15.49-20.25 31.84-27.91 49.1-3.43 7.64-6.97 15.22-9.93 23.07-13.11 33.17-23.34 67.51-31.98 102.09-3.5 13.21-6.09 26.67-9.73 39.84v-64.76c2.09-5.46 3.37-11.13 5.18-16.69 4.77-16.26 10.27-32.11 15.82-48.24 6.21-16.82 12.26-33.58 20.37-49.62 6.96-15.94 15.92-30.83 26.01-44.96 13.18-17.72 29.55-32.91 48.04-44.96 31.33-20.45 66.58-37.08 99.75-54.25 1.51-.82 2.81-1.75 3.74-3.23 2.09-3.22 4.38-6.23 6.8-9.22 12.84-16.94 28.64-29.78 45.88-41.95-13.37-13.86-26.43-27.92-38.02-43.34-11.41-15.1-22.47-30.66-31.92-47.08-12.74-21.66-19.25-47.54-24-72.04-.33-2.73-2.36-3.24-4.31-4.67-8.78-5.5-14.92-15.57-19.23-24.75-7.45-15.91-12.36-33.14-15.61-50.37-2.76-13.29-3.7-26.91-2.94-40.46.74-8.85 2.98-17.71 6.73-25.77 3.26-6.92 8.2-12.51 13.83-17.58-2.39-12.95-4.17-26.06-4.89-39.22-.95-21.35.73-42.76 5.64-63.58 5.54-26.79 14.4-52.6 26.2-77.27-4.92.77-9.84 1.4-14.84 1.25 1.97-4.11 4.85-7.45 7.84-10.84 6.62-7.62 13.5-15 20.08-22.66-6.2-.87-11.98-2.94-17.82-5.08 6.2-7.6 13.38-13.81 20.9-20.08 10.08-7.88 20.29-15.68 30.74-23.07-7.19-3.76-14.86-6.37-21.98-10.23 10.37-3.93 21.17-6.77 31.72-10.18 9.41-3.04 18.95-5.59 28.35-8.63-6.74-5.36-11.97-10.84-17.03-17.81 6.15 1.96 11.68.52 17.86-.28 17.19-2.4 34.66-3.48 51.9-5.38-2.18-6.1-6.52-9.97-10.94-14.41 18.5-2.98 36.56-1.82 55.11-.35 14.6.96 29.2 1.82 43.83 1.81-5.2-5.19-9.83-10.82-14.22-16.7Z"/><path fill="#f1be76" d="M436.85 190.22c-3.25 3.3-6.42 6.67-9.55 10.09-4.78 5.22-9.75 9.79-13.49 15.89 8.29-.93 15.98-3.68 24.12-5.29 7.93-1.62 15.89-3.41 23.91-4.53 10.39-1.58 20.82-4.5 31.08-6.62-2.54 6.67-5.36 13.24-8 19.87 11.43-2.52 22.68-5.75 33.51-10.21 4.67-1.99 9.34-3.58 14.25-4.85 4.47 14.62 10.81 28.88 18.87 41.89 5.85 9.99 11.49 20.16 16.32 30.69 2.27 4.85 3.54 9.95 4.99 15.08 4.19 14.4 7.2 29.2 9.79 43.97 2.16 13.69 3.17 27.59 4.16 41.41-.56 3.12-1.12 6.2-1.05 9.39.24 10 .14 20.01-.04 30.01-.06 3.19.54 6.26 1.15 9.37-.29 15.49-.64 31.06-1.96 46.66-.58 7.39-2.53 14.56-3.07 21.94 5.08-5.78 9.63-11.78 14.11-18.03 7.88-10.17 15.73-20.34 23.15-30.87 4.16-5.89 8-11.72 13.18-16.8 4.97-5.05 9.73-9.56 16.91-11.11 6.78-.86 14.5.42 20.08 4.57 4.84 3.67 8.7 8.56 10.65 14.35 3.43 9.03 3.29 18.55 2.18 28.01-2.2 14.45-5.91 28.69-11.99 42.01-5.01 10.8-11.2 21.09-18.49 30.51-9.8 12.62-23.59 23.55-39.17 27.82-11.17 3.1-22.96 2.71-34.1-.33-5.84 16.65-14.26 32.55-24.02 47.23-5.44 7.94-12.1 15.29-18.97 22.01-9.5 9.68-19.62 18.29-30.05 26.94-19.59 15.68-40.42 30.77-62.78 42.24-8.29 4.35-16.66 8.44-25.52 11.51-21.43 7.8-44.48 10.89-67.19 8.5-10.21-.99-20.31-3.94-29.91-7.46-21.47-8.88-38.1-23.44-53.87-40.11-18.27-20.05-33.8-41.75-48.6-64.42-10.44-16.61-16.76-34.8-20.92-53.89-5.95-25.43-9.47-51.68-11.79-77.69-.44-11.73-1.55-23.22-.6-34.97.58-22.43 1.45-44.65 3.66-67 1.28-12.63 2.05-25.58 4.16-38.01 3.21-20.59 8.16-41.56 16.31-60.8 7.37-15.85 16.89-31 26.03-45.89 3.37-5 6.41-11.16 11.5-14.49 12.66-8.29 26.17-14.91 41.08-17.96-3.64 8.33-7.66 16.72-10.37 25.4 7.38-3.01 13.9-7.21 21.02-10.74 7.29-3.62 14.43-7.16 22.07-9.97 6.62-2.57 13.42-4.52 20.12-6.82 7.9-2.52 15.51-5.6 23.59-7.58-9 10.02-20.2 19.63-27.5 31 5.24-1.33 10.27-3.08 15.32-4.98 10.42-3.92 21.04-7.31 31.83-10.06 7.6-1.84 15.25-3.53 22.77-5.66 10.51-3.4 20.56-8 31.13-11.22Z"/><path fill="#0d0f05" d="M252.02 327.68c13.64.94 27.11 5.42 38.78 12.51 11.94 7.02 22.37 17.95 27.51 30.92-4.27-3.35-8.24-6.86-13.21-9.2-14.98-7.7-30.53-9.54-47.07-10.87-13.22-.49-27.18.77-39.7 5.28-6.76 2.36-12.59 6.14-18.52 10.04 4.64-12.67 13.84-24.14 25.42-31.13 7.92-4.89 17.38-8.23 26.79-7.55Z"/><path fill="#eed095" d="M457.87 332.15c6.49-.3 12.93-.56 19.4.07l-1.65 1.13c-5.14-.41-10.25-.47-15.38.21l-2.37-1.41Z"/><path fill="#0d0f05" d="M460.24 333.56c5.13-.68 10.24-.62 15.38-.21 8.8 1.39 17.1 4.35 24.2 9.84 11.54 8.39 18.56 20.54 22.81 33.95-7.72-6.36-15.98-11.75-25.32-15.42-9.86-4.25-21.31-5.55-31.95-6.53-11.93-1.2-23.86-.9-35.7.94-11.98 1.11-23.14 4.73-34.05 9.63 2.99-4.49 6.43-8.17 10.73-11.42 15.12-12.17 34.89-18.32 53.9-20.78Z"/><path fill="#eed095" d="M465.36 355.19c-4.88.83-9.41 1.11-14.36.79-7.21-.46-14.14 1.25-21.34.15 11.84-1.84 23.77-2.14 35.7-.94ZM586.81 377.61c1.05 16.28.41 32.49.06 48.77-.61-3.11-1.21-6.18-1.15-9.37.18-10 .28-20.01.04-30.01-.07-3.19.49-6.27 1.05-9.39Z"/><path fill="#0d0f05" d="M329.22 386.9c3.35 4.57 5.44 9.66 6.35 15.25 1.87 9.86 1.93 19.77 1.26 29.76-1.33 12.7-4.25 24.89-7.75 37.14-2.22 7.3-5.03 14.57-8.87 21.18-3.63 6.16-8.56 10.16-11.5 16.48-1.49 3.32-2.38 7.01-.82 10.48 1.93 4.34 6.41 7.2 10.28 9.66 4.85 2.99 10.01 5.68 15.4 7.58 4.58 1.62 9.61 1.59 14.4 1.21 9.5-.66 18.5-8.16 28.03-8.18 5.47-.2 10.76 3 15.93 3.22 3.63-.13 5.53-3.01 6.69-6.09 2.88-6.95.33-14.86-2.64-21.34 4.91 2 9.37 3.83 12.03 8.76 3.61 7.34 1.34 15.38-3.47 21.53-2.76 3.22-6.37 5.63-10.66 6.09-6.44.81-12.18-1.64-18.58-.49-6.4.75-10.8 4.19-16.55 6.54-12.09 5.44-27.14 3.41-38.53-2.9-7.11-3.92-15.01-8.44-20.25-14.76-5.17-6.07-6.07-15.39-3.68-22.78 2.8-7.57 10.38-13.24 14.64-20.31 4.71-7.78 7.83-16.76 10.45-25.44 3.8-13.1 7.4-25.82 8.52-39.49.57-11.28 1.99-21.94-.68-33.1ZM272.72 390.58c8.95 1.03 17.93 5.07 24.68 11.02 5.61 5.04 8.62 11.49 11.43 18.33-5.88-3.96-11.93-7.27-18.75-9.33-1.05 3.44-1.72 6.67-3.79 9.69-3.71 5.26-10.39 8.71-16.87 7.27-5.38-1.43-10.3-5.38-12.44-10.57-1.34-3.15-1.45-6.24-1.83-9.59-14.44 3.18-28.39 7.77-42.41 12.36 8.15-10.64 19.89-19.62 32.29-24.72 8.67-3.42 18.35-5.57 27.69-4.46ZM455.05 396.77c11.05.5 22.03 5.1 31.4 10.78 9.64 6.14 18.02 14.44 24.73 23.66-4.24-1.4-8.33-3.14-12.39-4.99-8.3-3.74-16.73-7.15-25.36-10.06-1.1 4.72-2.14 9.05-5.61 12.65-6.58 6.78-18.15 7.1-24.64 0-4.52-4.64-4.97-10.3-4.79-16.47-11.8 1.99-23.66 4.88-34.71 9.54 5.68-9.41 14.48-15.27 24.12-20.08 8.34-4.23 17.99-5.58 27.25-5.03Z"/><path fill="#f1be76" d="M161.13 400.34c2.19 3.37 4.21 6.92 5.88 10.58 1.35 2.97 1.2 5.89 1.23 9.07-.21 16.02-.26 32.01.55 48.02.44 16.21 2.79 32.4 4.36 48.48-4.88-6.34-7.95-13.36-10.81-20.76-6.25-16.72-10.11-34.26-11.75-52.03-.92-10.47-.83-20.82 2.22-30.96 1.42-5.29 3.79-9.22 8.32-12.4Z"/><path fill="#0d0f05" d="M660.02 439.7c4.97.37 9.01 4.1 10.38 8.78 1.37 4.57.63 10.04.43 14.76-1.57-4.14-2.58-7.99-5.98-11.1-2.15-1.74-4.3-4.08-7.24-2.5-7.21 3.42-12.15 10.7-17.48 16.33 2.5 2.29 4.88 4.44 6.29 7.61 3.18 7.07 3.44 15.59 1.01 22.92-2.45 7.85-5.26 15.88-10.75 22.16-4.73 6.07-12.31 9.86-19.72 11.4-4.64.84-8.04-.95-11.41-3.9 7.66-3.58 14.91-6.49 21.15-12.45 6.17-5.65 9.41-14.61 10.61-22.7.69-5.45-1.96-9.41-5.42-13.26-7.72 5.09-10.98 12.68-15.61 20.34.06-3.9-.08-8.18.91-11.96.88-3.42 2.44-6.79 3.98-9.98 3.19-6.32 6.48-12.51 10.92-18.06 4.3-5.28 8.13-10.35 13.84-14.19 3.97-2.99 9.13-4.54 14.09-4.2ZM279.07 573.66c1.87 2.61 2.5 5.4 5.88 6.42 6 2.08 12.08 4.08 18.18 5.86 24.13 7 48.89 8.47 73.86 6.89 9.15-.01 17.97-1.72 27-2.92 9.76-1.66 19.95-3.79 28.82-8.33-.23-2.23-.52-4.44-.77-6.66 7.18 2.49 13.29 6.66 16.02 14.05.65 1.96 1.86 5.47-.54 6.7-4.08 1.48-8.04-3.32-12.46-1.9-6.28 1.55-12.3 4.05-18.58 5.64-17.06 4.26-34.85 7.36-52.47 7.29-12.24.03-24.3-.1-36.38-2.35-14.2-2.29-27.53-7.06-40.94-12.1-3.73-1.13-6.77-3.3-10.59-1.18-3.54 2.26-8.65-2.01-7.15-5.89 1.63-4.76 6.11-8.69 10.12-11.52ZM306.92 621.64c14.58 6.55 30.99 11.26 47.07 11.19 13.57-.01 26.47-2.76 39.52-6.14-2.41 4.13-5.46 7.69-9.37 10.47-9.22 6.71-20.7 10.56-32.14 10.36-7.83.09-15.48-.6-22.72-3.79-10.19-4.23-18.87-11.29-22.36-22.09Z"/><path fill="#f1be76" d="M540.93 650.77c-.34 12.08-.46 24.16-1.03 36.23.59 18.09.2 35.26 5.25 52.87 1.28 4.25 1.16 6.71-.5 10.82-9.9 24.77-23.55 48.68-37.82 71.17-1.08 1.63-2.59 2.71-4.19 3.77-32.34 20.24-69.58 32.17-107.64 34.66-25.34 1.03-50.83-1.67-74.69-10.57-8.98-3.58-17.47-7.84-24.76-14.29-5.67-4.93-12.13-11.43-13.98-18.93-.83-2.81.24-5.29.98-7.99 1.94-6.07 3.81-12.09 6.17-18.01 1.68 6.41 2.72 12.77 5.53 18.84 2.58-14.63 4.1-29.5 4.51-44.33.21-14.67-1.77-28.19-6.17-42.17 5.85 3.47 11.32 7.25 17.59 10 11.93 5.32 24.75 9 37.77 10.29 22.9 2.01 45.96-.46 67.49-8.69 24.75-9.1 48.25-23.03 69.61-38.39 19.6-13.78 38.11-29.21 55.88-45.28Z"/><path fill="#beae92" d="M556.72 689.34c5.39 1.58 10.6 3.44 15.23 6.7 8.64 6.04 15.64 14.93 21.25 23.76 10.68 16.97 14.67 37.05 15.74 56.82-.51 3.45-.98 6.88-.9 10.38.23 11.66.14 23.33-.04 34.99-.06 3.81.42 7.56.92 11.32-1.48 21.22-2 43.57-6.89 64.32-5.81-2.91-11.51-6.12-16.93-9.72-13.14-8.61-26.15-20.54-41.63-24.35-7.28-2.04-14.25-.67-21.24 1.66-3.36.28-7.55-.1-10.6 1.45-5.27 2.66-8.9 8.13-10.31 13.74-.81 2.79.97 4.97 2.11 7.36 15.12-2.97 30.86-1.77 44.95 4.72 14.21 6.71 27.77 13.76 42.46 19.53 3.99 1.58 8.16 2.11 12.42 2.15 4.04.13 10.02.59 12.1-3.78 1.62-5.4 2.37-11.15 3.27-16.71 1.58-12.1 4.06-24.47 4.86-36.63 1.1-15.77 1.77-31.59 2.22-47.4.74-15.55.36-31.11-.7-46.63 17.68 8.06 34.96 17.05 52.49 25.46 30.83 15.5 60.64 31.28 89.12 50.89 12.96 9.25 26.02 19.43 36.74 31.25 7.08 8.09 13.21 17.04 18.83 26.19 4.92 8.41 9.32 17.14 13.81 25.79v219.61c-49.08.41-98.18-.14-147.26.08-.46-39 .76-79.41 7.89-117.82 2.15-11.45 4.48-23.01 7.6-34.22 6.07-23.61 15.89-46.44 26.87-68.14 3.58-6.54 7.65-12.99 11.91-19.1 4.16-5.85 9.21-10.7 14.45-15.55 4.92-4.61 10.6-8.19 15.8-12.52-4.83.09-8.64 1.02-12.78 3.52-7.28 4.36-14.8 9.18-20.66 15.36-7.45 8.01-13.45 17.72-18.74 27.25-4.88 8.99-9.95 17.58-13.97 27.03-9.82 22.78-16.43 47.22-21.56 71.44-4.25 20.27-7.2 40.8-8.72 61.45-.98 10.3-1.74 20.67-1.7 31.01 0 10.09-.39 20.16-.3 30.25-65.28.05-130.55.04-195.83.07-16.14.24-32.27-.01-48.41-.13.05-5.45.56-10.83 1.08-16.25 1.13-11.85 2-23.7 3.91-35.47 2.39-19.64 5.97-39.02 9.44-58.52 2.32-13.81 5.57-27.34 9.01-40.92 9.46-37.46 21.51-73.96 38.01-108.95 2.61-5.77 4.72-11.64 7.83-17.19 8.44-15.12 16.94-30.18 26.23-44.79 8.94-14.1 16.73-28.82 24.32-43.68 2.64-5.16 4.86-10.54 7.18-15.86 5.95-13.7 7.7-28.33 8.12-43.13-2.65 1.02-5.2 2.23-7.74 3.47-1.55-10.5-1.18-20.99-1.26-31.56ZM275.79 723.37c3.81 11.02 6.29 22.72 6.9 34.37.34 4.37-2.14 8.26-3.63 12.3-10.34 24.42-15.9 52.05-22.11 77.85-4.25 18.83-8.4 37.74-11.47 56.8-2.18 10.37-3.66 20.85-5.38 31.31-2.37 17.29-5.43 34.47-7.53 51.8-4.12 29.01-6.89 58.11-9.71 87.12-1.32 12.33-2.03 24.72-2.98 37.08-.66 9.76-.61 19.57-1.49 29.31-.24-1.14-.48-2.28-.75-3.42-.27 1.38-.53 2.77-.8 4.15-4.28.16-8.56.25-12.84.2-12.68-.18-25.34.36-38.01.16-11.84-.13-23.66-.18-35.5 0-14.27-.47-28.52-.05-42.79-.18-.45-5.78-.21-11.39-.15-17.22.17-9.02-.18-18 .71-26.99.27-21.35.95-42.68 2.11-64 .22-17.68 1.81-35.34 2.77-53.01 1.18-15.9 1.7-31.82 3.41-47.69.97-13.77 2.68-27.9 2.22-41.7-1.84 5.89-2.79 12.2-4.11 18.24-2.5 11.26-4.83 22.57-6.73 33.95-2.76 21.78-4.83 43.55-6.75 65.41-2.51 24.31-3.54 48.83-5.53 73.2-.41-.85-.84-1.69-1.27-2.53-.12 5.06-.08 10.1-.43 15.14-.23 2.58.21 4.97.88 7.43.26 3.97 0 7.9-.21 11.86-.48-3.8-.97-7.58-1.23-11.4-.05 13.04.05 26.1-.3 39.14-12.02.3-24.06.33-36.09.19-12.34-.08-24.66.25-37-.07v-56.52c3.64-13.17 6.23-26.63 9.73-39.84 8.64-34.58 18.87-68.92 31.98-102.09 2.96-7.85 6.5-15.43 9.93-23.07 7.66-17.26 17.14-33.61 27.91-49.1 5.19-6.92 10.6-14.15 17.11-19.87 15.5-14.23 32.84-25.7 51.38-35.59 11.72-6.24 23.36-12.64 35.13-18.8 6.3-3.3 11.69-7.01 18.67-8.87-3.23 6.28-7.76 11.9-11.57 17.85-8.58 12.25-17.15 24.79-26.87 36.16-6.67 7.33-13.07 14.88-19.74 22.21-1.1 1.47-3.75 4.33-2.97 6.2 1.34 3.03 4.82 3.96 7.74 4.75 7.24 1.71 14.07 3.42 21.56 3.35 10.61.1 20.89-3.05 30.92-6.17 4.6-1.42 9.92-4.13 14.79-3.36 3.01.38 5.31 3.67 7.3 5.72-5.37 5.62-11.25 10.62-17.05 15.77 5.37-2.1 10.37-4.97 15.64-7.26 4.84-1.98 9.03-.47 13.62 1.23.46-7.99-.91-15.8-5.8-22.3-3.52-4.23-8.63-7.8-14.38-7.42-6.97.48-13.37 3.81-19.8 5.99-9.21 2.9-18.45 5.32-28.15 5.78-.73-.38-1.46-.76-2.19-1.15 5.34-6.61 10.88-13.02 16.37-19.5 3.15-3.59 4.75-7.66 5.85-12.25 6.92-10.63 14.63-20.7 21.61-31.29 9.42-13.7 17.99-27.84 28.02-40.99 6.7-9.26 13.93-17.9 22.44-25.55 5.39-4.66 10.3-9.37 16.61-12.82Z"/><path fill="#eed095" d="M608.94 776.62c1.05 18.91.62 37.78-.02 56.69-.5-3.76-.98-7.51-.92-11.32.18-11.66.27-23.33.04-34.99-.08-3.5.39-6.93.9-10.38Z"/><path fill="#726c53" d="M187.11 834.02c-1.1 4.59-2.7 8.66-5.85 12.25-5.49 6.48-11.03 12.89-16.37 19.5.73.39 1.46.77 2.19 1.15-2.48.1-4.96-.01-7.43-.15 3.09-4.86 6.85-9.14 10.77-13.35 5.81-6.26 10.91-13.11 16.69-19.4ZM274.88 836.78c4.7 4.52 8.94 9.3 14.39 12.99 12.09 8.38 26.68 14.03 40.73 18.18 18.24 4.9 37.1 7.42 56 6.96 30.66.69 61.9-7.26 90.15-18.78 5.41-2.29 10.56-5.11 16.03-7.3-3.12 8.12-7.36 15.44-11.07 23.29-6.17 12.51-11.94 25.19-16.67 38.31-2.35 6.33-5.12 12.46-7.16 18.91-8.38 25.77-16.38 51.1-22.41 77.56-1.82 9.17-3.85 18.28-5.52 27.48-3.14 15.64-5.19 31.52-7.69 47.28-3.02 19.8-4.36 39.72-6.48 59.61-13.06.06-26.12 0-39.18.04-7.84.09-15.46-.52-23.26.6-8.53.63-17.15.23-25.74.37-9.23-.07-18.55.34-27.75-.36-7.8-1.08-15.43-.54-23.25-.6-14.13-.05-28.25.02-42.38-.05-.3-19.67 2.1-39.46 3.55-59.07.74-8.81 1.29-17.74 2.39-26.51 1.88-16.37 3.15-33.17 5.66-49.45 2.56-18.99 4.74-38.02 8.07-56.9 2.6-18.06 5.85-36.01 9.05-53.97 3.38-19.63 7.04-39.44 12.54-58.59ZM522.23 865.22c-8.24 4.08-14.35 10.28-19.5 17.8 4.76-2.28 8.99-4.8 14.15-6.2 6.19-1.61 12.63-2.36 18.89-.66 9.25 2.41 17.88 8.06 25.83 13.24 7.26 4.75 14.5 9.58 21.93 14.07 6.4 3.9 13.18 7.04 19.73 10.7-4.26-.04-8.43-.57-12.42-2.15-14.69-5.77-28.25-12.82-42.46-19.53-14.09-6.49-29.83-7.69-44.95-4.72-1.14-2.39-2.92-4.57-2.11-7.36 1.41-5.61 5.04-11.08 10.31-13.74 3.05-1.55 7.24-1.17 10.6-1.45Z"/><path fill="#0d0f05" d="M773.26 874.94c-5.2 4.33-10.88 7.91-15.8 12.52-5.24 4.85-10.29 9.7-14.45 15.55-4.26 6.11-8.33 12.56-11.91 19.1-10.98 21.7-20.8 44.53-26.87 68.14-3.12 11.21-5.45 22.77-7.6 34.22-7.13 38.41-8.35 78.82-7.89 117.82-4.64-.08-9.28-.05-13.91-.04-.09-10.09.3-20.16.3-30.25-.04-10.34.72-20.71 1.7-31.01 1.52-20.65 4.47-41.18 8.72-61.45 5.13-24.22 11.74-48.66 21.56-71.44 4.02-9.45 9.09-18.04 13.97-27.03 5.29-9.53 11.29-19.24 18.74-27.25 5.86-6.18 13.38-11 20.66-15.36 4.14-2.5 7.95-3.43 12.78-3.52ZM98.77 891.61c.46 13.8-1.25 27.93-2.22 41.7-1.71 15.87-2.23 31.79-3.41 47.69-.96 17.67-2.55 35.33-2.77 53.01-1.16 21.32-1.84 42.65-2.11 64-.89 8.99-.54 17.97-.71 26.99-.06 5.83-.3 11.44.15 17.22-4.39 0-8.78-.04-13.17-.06-.09-9.31-.3-18.54.09-27.85.21-3.96.47-7.89.21-11.86.25-6.68.39-13.36.82-20.04 1.99-24.37 3.02-48.89 5.53-73.2 1.92-21.86 3.99-43.63 6.75-65.41 1.9-11.38 4.23-22.69 6.73-33.95 1.32-6.04 2.27-12.35 4.11-18.24Z"/><path fill="#eed095" d="M74.38 1079.88c.43.84.86 1.68 1.27 2.53-.43 6.68-.57 13.36-.82 20.04-.67-2.46-1.11-4.85-.88-7.43.35-5.04.31-10.08.43-15.14ZM73.39 1102.91c.26 3.82.75 7.6 1.23 11.4-.39 9.31-.18 18.54-.09 27.85 4.39.02 8.78.06 13.17.06 14.27.13 28.52-.29 42.79.18 11.84-.18 23.66-.13 35.5 0 12.67.2 25.33-.34 38.01-.16 4.28.05 8.56-.04 12.84-.2.27-1.38.53-2.77.8-4.15.27 1.14.51 2.28.75 3.42l-.02.89c8.91.31 17.73-.62 26.63-.41 18.08.05 36.17-.19 54.25.13 9.2.7 18.52.29 27.75.36 8.59-.14 17.21.26 25.74-.37 19.41-.3 38.84-.03 58.26-.12 6.56.35 13.03.47 19.59.4 16.14.12 32.27.37 48.41.13 65.28-.03 130.55-.02 195.83-.07 4.63-.01 9.27-.04 13.91.04 49.08-.22 98.18.33 147.26-.08V1254H0v-111.83c12.34.32 24.66-.01 37 .07 12.03.14 24.07.11 36.09-.19.35-13.04.25-26.1.3-39.14Z"/></svg>
