<?xml version="1.0" encoding="UTF-8" standalone="no"?>
<!DOCTYPE svg PUBLIC "-//W3C//DTD SVG 1.1//EN" "http://www.w3.org/Graphics/SVG/1.1/DTD/svg11.dtd">
<svg width="100%" height="100%" viewBox="0 0 512 512" version="1.1" xmlns="http://www.w3.org/2000/svg" xmlns:xlink="http://www.w3.org/1999/xlink" xml:space="preserve" style="fill-rule:evenodd;clip-rule:evenodd;stroke-linejoin:round;stroke-miterlimit:2;">
    <style>
    :root {
        --background-color: #FCFCFC;
        --foreground-color: #030303;
    }
    @media (prefers-color-scheme: dark) {
        :root {
            --background-color: #030303;
            --foreground-color: #FCFCFC;
        }
    }
    </style>
    <rect x="0" y="0" width="512" height="512" style="fill:var(--background-color);"/>
    <g transform="matrix(1,0,0,1,-8.83617,113.415)">
        <g transform="matrix(328,0,0,328,49.9962,257.057)">
            <path d="M0.463,-0.698L0.209,-0.385L0.209,-0.698L0.069,-0.698L0.069,-0L0.209,-0L0.209,-0.311L0.463,-0L0.64,-0L0.344,-0.352L0.632,-0.698L0.463,-0.698Z" style="fill:var(--foreground-color);fill-rule:nonzero;"/>
        </g>
        <g transform="matrix(328,0,0,328,267.46,257.057)">
            <path d="M0.32,-0.381L0.209,-0.381L0.209,-0.584L0.32,-0.584C0.399,-0.584 0.434,-0.546 0.434,-0.482C0.434,-0.42 0.399,-0.381 0.32,-0.381ZM0.578,-0.482C0.578,-0.603 0.494,-0.698 0.326,-0.698L0.069,-0.698L0.069,-0L0.209,-0L0.209,-0.268L0.326,-0.268C0.506,-0.268 0.578,-0.376 0.578,-0.482Z" style="fill:var(--foreground-color);fill-rule:nonzero;"/>
        </g>
    </g>
</svg>
